<svg width="136" height="103" viewBox="0 0 136 103" fill="none" xmlns="http://www.w3.org/2000/svg">
<g clip-path="url(#clip0)">
<path d="M125.667 73.0264L83.0952 96.7142L26.6667 64.666L66.8617 41.3713L125.667 73.0264Z" fill="url(#paint0_linear)"/>
<g style="mix-blend-mode:multiply">
<g style="mix-blend-mode:multiply">
<path d="M72.9361 32.7609C56.0528 23.8784 29.0303 24.3193 12.5129 33.6988C-4.00447 43.0784 -3.74184 58.0106 13.1038 66.9306C29.9495 75.8506 57.0096 75.3722 73.527 65.9926C90.0444 56.6131 89.7817 41.6058 72.9361 32.7609Z" fill="white"/>
</g>
<g style="mix-blend-mode:multiply">
<path d="M72.317 33.1642C55.809 24.46 29.3211 24.8914 13.132 34.1022C-3.05714 43.3129 -2.81327 57.87 13.7229 66.5648C30.2591 75.2597 56.7188 74.8376 72.8985 65.6269C89.0783 56.4161 88.8157 41.8122 72.317 33.1642Z" fill="#F8F8F9"/>
</g>
<g style="mix-blend-mode:multiply">
<path d="M71.6979 33.4644C55.5463 24.9477 29.6025 25.3698 13.7604 34.4023C-2.08166 43.4348 -1.81904 57.673 14.3607 66.1897C30.5404 74.7063 56.4468 74.2842 72.2889 65.2517C88.1309 56.2192 87.8589 41.981 71.6979 33.4644Z" fill="#F1F2F3"/>
</g>
<g style="mix-blend-mode:multiply">
<path d="M71.0789 33.8209C55.2743 25.4824 29.8933 25.8951 14.3982 34.7588C-1.09681 43.6225 -0.852942 57.5511 14.9516 65.8333C30.7562 74.1155 56.1373 73.759 71.6417 64.8953C87.1461 56.0317 86.8928 42.1499 71.0789 33.8209Z" fill="#EBEBED"/>
</g>
<g style="mix-blend-mode:multiply">
<path d="M70.4692 34.1679C55.0023 26.017 30.184 26.4204 15.0267 35.1058C-0.130713 43.7913 0.103777 57.3354 15.5707 65.4862C31.0376 73.6371 55.9028 73.2338 71.0133 64.5483C86.1237 55.8628 85.9268 42.3187 70.4692 34.1679Z" fill="#E4E4E7"/>
</g>
<g style="mix-blend-mode:multiply">
<path d="M69.8502 34.5243C54.7397 26.5517 30.456 26.9456 15.6551 35.3966C0.85414 43.8476 1.06987 57.1666 16.2366 65.1298C31.4034 73.0931 55.6308 72.7085 70.4317 64.2575C85.2327 55.8066 84.97 42.4876 69.8502 34.5243Z" fill="#DDDEE1"/>
</g>
<g style="mix-blend-mode:multiply">
<path d="M69.2311 34.8712C54.4677 27.0862 30.7749 27.4708 16.2835 35.7248C1.79209 43.9788 2.03596 56.9976 16.7994 64.8014C31.5628 72.6052 55.2556 72.2019 69.7564 63.9479C84.2572 55.6939 84.0039 42.6563 69.2311 34.8712Z" fill="#D6D7DA"/>
</g>
<g style="mix-blend-mode:multiply">
<path d="M68.6215 35.2184C54.1957 27.621 31.0469 27.9961 16.9119 36.0532C2.77695 44.1102 2.99268 56.8289 17.4184 64.4357C31.8442 72.0425 54.993 71.658 69.1279 63.6009C83.2629 55.5439 83.0378 42.8252 68.6215 35.2184Z" fill="#CFD1D4"/>
</g>
<g style="mix-blend-mode:multiply">
<path d="M68.0024 35.5748C53.9331 28.1555 31.3377 28.5213 17.531 36.3908C3.72428 44.2602 3.95877 56.66 18.0375 64.1168C32.1162 71.5735 54.7022 71.1702 68.4995 63.3007C82.2969 55.4313 82.0811 42.994 68.0024 35.5748Z" fill="#C8CACE"/>
</g>
<g style="mix-blend-mode:multiply">
<path d="M67.3834 35.9217C53.6611 28.69 31.6191 29.0465 18.1688 36.7189C4.71852 44.3914 4.92487 56.491 18.6472 63.7321C32.3695 70.9731 54.4114 70.6073 67.8711 62.9348C81.3308 55.2623 81.115 43.1627 67.3834 35.9217Z" fill="#C2C3C8"/>
</g>
<g style="mix-blend-mode:multiply">
<path d="M66.7737 36.2781C53.389 29.2247 31.9099 29.5717 18.7972 37.0472C5.68461 44.5228 5.9191 56.3222 19.2662 63.3757C32.6133 70.4291 54.1207 70.0821 67.2427 62.6066C80.3647 55.131 80.1489 43.3316 66.7737 36.2781Z" fill="#BBBDC2"/>
</g>
<g style="mix-blend-mode:multiply">
<path d="M66.1546 36.6253C53.1264 29.7595 32.2006 30.0596 19.4257 37.385C6.65071 44.7105 6.85706 56.1535 19.8853 63.0288C32.9135 69.904 53.8393 69.5945 66.6142 62.2784C79.3892 54.9623 79.1829 43.4818 66.1546 36.6253Z" fill="#B4B6BC"/>
</g>
</g>
<path d="M19.3225 28.2962C32.4539 20.7362 53.6235 20.7362 66.708 28.2962C73.0955 31.9823 76.3596 36.794 76.5097 41.6058C76.591 44.3571 76.591 47.1053 76.5097 49.8504C76.3596 54.7371 73.0955 59.502 66.708 63.1787C53.5766 70.7387 32.4164 70.7387 19.3225 63.1787C12.9444 59.502 9.67093 54.7371 9.52085 49.8692C9.43956 47.1241 9.43956 44.3759 9.52085 41.6245C9.67093 36.794 12.9444 31.9823 19.3225 28.2962Z" fill="#B7BAC7"/>
<path d="M19.3225 28.2961C6.24739 35.856 6.24739 48.1057 19.3225 55.675C32.3976 63.2443 53.6235 63.1787 66.708 55.675C79.7925 48.1714 79.8394 35.8748 66.708 28.3148C53.5766 20.7549 32.4164 20.7361 19.3225 28.2961Z" fill="#EBEAF1"/>
<path d="M42.8652 58.7327C59.9702 58.7327 73.8365 51.199 73.8365 41.9058C73.8365 32.6125 59.9702 25.0789 42.8652 25.0789C25.7602 25.0789 11.8939 32.6125 11.8939 41.9058C11.8939 51.199 25.7602 58.7327 42.8652 58.7327Z" fill="#B7BAC7"/>
<path d="M62.5998 32.8453C51.7007 26.908 34.0203 26.908 23.1212 32.8453C12.2222 38.7825 12.2222 48.3684 23.1212 54.2963C34.0203 60.2242 51.7007 60.2242 62.5998 54.2963C73.4988 48.3684 73.4988 38.7919 62.5998 32.8453Z" fill="url(#paint1_linear)"/>
<path d="M18.0469 7.10767V12.257L19.3037 13.2044L24.1154 10.1654L23.14 7.35153L18.0469 7.10767Z" fill="#EE8300"/>
<path d="M65.7419 6.29175V11.4411L64.4851 12.3885L59.6734 9.34011L60.6582 6.53562L65.7419 6.29175Z" fill="#EE8300"/>
<path d="M62.8905 14.9398L65.7701 13.1952L59.0356 9.93109L56.3249 11.5913C53.0769 10.4763 49.6828 9.84423 46.2512 9.71536V7.24854H37.5376L37.622 9.71536C34.2657 10.1193 30.9787 10.9711 27.8485 12.2478L24.3687 10.4282L18.0469 14.0112L21.7143 15.8121C19.6508 17.4347 18.2438 17.4066 17.9062 18.6916L14.5014 20.9708V25.6606H18.4221C19.179 27.606 20.5487 29.2522 22.324 30.3504L19.7727 32.2263L26.5541 35.5092L29.2273 33.8771C32.448 35.0543 35.8361 35.7097 39.2634 35.8187L39.3572 37.9572H48.0146L47.9395 35.6029C51.2682 35.2181 54.532 34.3983 57.6474 33.1643L60.5738 34.665L66.8862 31.1101L63.5846 29.7782C65.3641 28.4328 66.6764 26.5628 67.3365 24.4319H71.2571V19.8078L67.7585 17.219C66.9331 14.4051 63.9504 15.3431 62.8905 14.9398ZM51.7664 26.4297C51.5882 26.5142 51.4006 26.5798 51.2224 26.6455C45.8268 28.4557 39.9879 28.4557 34.5924 26.6455L34.0578 26.4297C29.1617 24.3193 29.1617 20.8864 34.0578 18.7666C38.9539 16.6469 46.9172 16.6469 51.8133 18.7666C56.7094 20.8864 56.6719 24.3193 51.7664 26.4297Z" fill="#EE8300"/>
<path d="M62.8905 8.02693L65.7701 6.29171L59.0356 3.01825L56.3249 4.65029C53.0771 3.54105 49.6816 2.92454 46.2512 2.82128V0.335693H37.5376L37.622 2.82128C34.2674 3.22353 30.9809 4.0688 27.8485 5.335L24.3687 3.51536L18.0469 7.10774L21.7143 8.90861C20.0463 10.2143 18.8107 11.9925 18.1688 14.0111H14.5014V18.7009H18.4221C19.1633 20.6775 20.5344 22.3552 22.324 23.4751L19.7727 25.351L26.5541 28.5963L29.2273 26.9643C32.4468 28.1459 35.8355 28.8015 39.2634 28.9058L39.3572 31.0444H48.0146L47.9395 28.6901C51.2829 28.3184 54.5626 27.5079 57.6943 26.2796L60.6207 27.7897L66.8862 24.2067L63.5846 22.8466C65.3625 21.4957 66.6741 19.6233 67.3365 17.4909H71.2571V12.9043H67.0832C66.7562 11.8472 66.2153 10.8687 65.494 10.0297C64.7727 9.1906 63.8865 8.50889 62.8905 8.02693ZM51.7664 19.5169L51.2224 19.742C45.8276 21.5571 39.9872 21.5571 34.5924 19.742C34.4048 19.6763 34.2079 19.5919 34.0109 19.5075C29.1148 17.3971 29.1148 13.9642 34.0109 11.8538C38.907 9.74339 46.8703 9.72463 51.7664 11.8538C56.6625 13.983 56.6719 17.4065 51.7664 19.5169Z" fill="url(#paint2_linear)"/>
<path d="M39.3103 31.0349V37.957H47.9677V31.0349H39.3103Z" fill="url(#paint3_linear)"/>
<path d="M71.2853 17.5002V24.413H67.3646V17.519L71.2853 17.5002Z" fill="url(#paint4_linear)"/>
<path d="M60.5738 27.7898V34.6931C60.5738 34.6931 67.2145 31.2884 66.8863 31.1101C66.558 30.9319 66.8863 24.2068 66.8863 24.2068L60.5738 27.7898Z" fill="url(#paint5_linear)"/>
<path d="M26.5072 28.5962V35.509L19.7727 32.2449V25.3228L26.5072 28.5962Z" fill="url(#paint6_linear)"/>
<path d="M14.5014 18.7009C14.5014 18.7009 14.3607 25.6606 14.5014 25.6606H18.4221V18.7009H14.5014Z" fill="url(#paint7_linear)"/>
</g>
<defs>
<linearGradient id="paint0_linear" x1="57.9883" y1="52.4502" x2="85.0699" y2="76.8732" gradientUnits="userSpaceOnUse">
<stop stop-color="#C9D3E7"/>
<stop offset="1" stop-color="white"/>
</linearGradient>
<linearGradient id="paint1_linear" x1="14.9516" y1="43.5661" x2="70.7788" y2="43.5661" gradientUnits="userSpaceOnUse">
<stop stop-color="#00A3FF"/>
<stop offset="1" stop-color="#1270E8"/>
</linearGradient>
<linearGradient id="paint2_linear" x1="14.5014" y1="15.69" x2="71.2853" y2="15.69" gradientUnits="userSpaceOnUse">
<stop stop-color="#FFCC38"/>
<stop offset="1" stop-color="#FF9500"/>
</linearGradient>
<linearGradient id="paint3_linear" x1="399.456" y1="283.138" x2="479.363" y2="283.138" gradientUnits="userSpaceOnUse">
<stop stop-color="#FFCC38"/>
<stop offset="1" stop-color="#FF9500"/>
</linearGradient>
<linearGradient id="paint4_linear" x1="347.731" y1="169.511" x2="364.119" y2="169.511" gradientUnits="userSpaceOnUse">
<stop stop-color="#FFCC38"/>
<stop offset="1" stop-color="#FF9500"/>
</linearGradient>
<linearGradient id="paint5_linear" x1="467.032" y1="349.703" x2="509.721" y2="349.703" gradientUnits="userSpaceOnUse">
<stop stop-color="#FFCC38"/>
<stop offset="1" stop-color="#FF9500"/>
</linearGradient>
<linearGradient id="paint6_linear" x1="159.649" y1="351.994" x2="208.003" y2="351.994" gradientUnits="userSpaceOnUse">
<stop stop-color="#FFCC38"/>
<stop offset="1" stop-color="#FF9500"/>
</linearGradient>
<linearGradient id="paint7_linear" x1="74.585" y1="180.652" x2="91.4339" y2="180.652" gradientUnits="userSpaceOnUse">
<stop stop-color="#FFCC38"/>
<stop offset="1" stop-color="#FF9500"/>
</linearGradient>
<clipPath id="clip0">
<rect width="135" height="101.759" fill="white" transform="translate(0.291367 0.335693)"/>
</clipPath>
</defs>
</svg>
