<svg width="91" height="117" viewBox="0 0 91 117" fill="none" xmlns="http://www.w3.org/2000/svg">
<g clip-path="url(#clip0)">
<path d="M13.577 70.9829L30.5888 61.5776L61.3076 78.9037L31.174 95.5796L0.411865 78.2644L8.06176 67.9923L13.577 70.9829Z" fill="#EBEAF1"/>
<path d="M51.0247 81.9919L61.3076 78.9038V83.8123L31.174 100.423V95.5797L41.5327 87.0413L51.0247 81.9919Z" fill="#D3D6E7"/>
<path d="M51.0572 82.0136L41.5328 87.0413L14.7473 71.6765L24.2284 66.5513L51.0572 82.0136Z" fill="url(#paint0_linear)"/>
<path d="M31.174 100.423L0.411865 83.0971V78.2644L31.174 95.5796V100.423Z" fill="#B7BAC7"/>
<path d="M19.8509 33.7844L29.3536 28.8C25.8212 30.6529 24.2501 35.3881 24.3043 42.1928L24.1851 66.6269L14.7473 71.6763L14.8123 47.1771C14.769 40.3616 16.3185 35.6373 19.8509 33.7844Z" fill="url(#paint1_linear)"/>
<path d="M30.1446 21.8003C33.298 21.6548 36.4493 22.1297 39.4198 23.1981L29.9171 28.1824C25.3661 26.6221 15.1591 28.2474 15.1591 28.2474L24.651 23.2631C26.3617 22.4017 28.2321 21.9037 30.1446 21.8003Z" fill="#A7AAB6"/>
<path d="M30.5889 26.9798V35.1606C21.7146 32.9068 14.834 36.7101 14.899 47.1773L14.7798 71.6764L8.06177 68.0032L8.17012 41.9437C8.17012 27.2399 21.6062 23.9133 30.5889 26.9798Z" fill="#B7BAC7"/>
<path d="M26.6772 12.2001C27.0047 11.8717 27.3948 11.6124 27.8243 11.4374C28.2538 11.2624 28.714 11.1754 29.1777 11.1814C29.6415 11.1875 30.0993 11.2865 30.5241 11.4727C30.9488 11.6588 31.332 11.9283 31.6508 12.2651L37.4153 18.3655C37.6536 18.6147 37.1227 19.3841 36.0392 20.3159C34.9081 21.3831 33.5423 22.1699 32.0517 22.6131C31.8783 22.6131 31.7591 22.6131 31.7049 22.5264L26.5581 17.1086C25.9346 16.4525 25.5924 15.5786 25.6046 14.6736C25.6167 13.7686 25.9822 12.9043 26.6231 12.2651C26.6231 12.2651 26.6664 12.2218 26.6772 12.2001Z" fill="#3A3F4F"/>
<path d="M37.036 1.84131C37.3627 1.51156 37.7525 1.251 38.1821 1.07517C38.6118 0.899345 39.0724 0.811855 39.5366 0.817922C40.0007 0.82399 40.4589 0.92349 40.8838 1.11049C41.3087 1.29748 41.6915 1.56815 42.0095 1.90633L51.0789 11.5175C51.3064 11.7558 50.7971 12.5252 49.6919 13.4678C48.5601 14.5285 47.1995 15.3145 45.7153 15.765C45.6529 15.7769 45.5888 15.7754 45.5271 15.7604C45.4654 15.7454 45.4076 15.7175 45.3577 15.6783L36.906 6.72814C36.293 6.07044 35.9585 5.20092 35.9726 4.30196C35.9867 3.40299 36.3484 2.54442 36.9818 1.90633C36.9921 1.87922 37.0112 1.85634 37.036 1.84131Z" fill="#3A3F4F"/>
<path d="M63.5614 63.4088V60.2231C63.7706 60.7281 63.8783 61.2694 63.8783 61.816C63.8783 62.3626 63.7706 62.9038 63.5614 63.4088Z" fill="url(#paint2_linear)"/>
<path d="M30.2204 45.9202L30.2096 47.6647L28.4542 46.7545L28.4651 45.01L30.2204 45.9202Z" fill="#121514"/>
<path d="M5.4829 50.3412L5.9705 50.0378V54.3721L33.0594 68.4583C38.8239 71.4597 48.1208 71.4489 53.8419 68.4583L59.5848 65.4568C62.4237 63.9615 63.854 62.0111 63.919 60.0391V61.8269C63.911 62.5901 63.7017 63.3377 63.3122 63.994C62.4216 65.4046 61.1474 66.5322 59.6389 67.2447L53.8961 70.257C48.1749 73.2584 38.878 73.2584 33.1135 70.257L5.55875 55.889H5.47207C5.04782 55.5613 4.70454 55.1405 4.46868 54.6591C4.23283 54.1777 4.11072 53.6485 4.11176 53.1125C4.11281 52.5764 4.23699 52.0477 4.47472 51.5672C4.71245 51.0867 5.05738 50.6673 5.4829 50.3412Z" fill="#141518"/>
<path d="M5.73209 50.1462L8.11591 48.8893L13.1219 51.4898C14.1237 52.0193 15.2396 52.2961 16.3726 52.2961C17.5056 52.2961 18.6215 52.0193 19.6233 51.4898L28.4867 46.8522C28.6411 46.7545 28.7683 46.6193 28.8565 46.4592C28.9446 46.2991 28.9908 46.1194 28.9908 45.9366C28.9908 45.7539 28.9446 45.5741 28.8565 45.414C28.7683 45.2539 28.6411 45.1187 28.4867 45.021V38.4438L59.5522 54.6105C65.3167 57.6119 65.3384 62.4771 59.6172 65.446L53.8744 68.4475C48.1532 71.4489 38.8563 71.4597 33.0918 68.4475L5.74293 54.2421C5.36753 54.0482 5.05254 53.7551 4.83228 53.3945C4.61203 53.034 4.49496 52.6199 4.49384 52.1974C4.49273 51.7749 4.6076 51.3603 4.82594 50.9986C5.04429 50.6369 5.35772 50.342 5.73209 50.1462Z" fill="#3A3F4F"/>
<path d="M33.8504 64.8174C39.5715 67.7972 48.8034 67.7972 54.4379 64.8174C57.2551 63.3329 58.6746 61.4042 58.6746 59.4647V60.4182C58.6746 62.3686 57.2551 64.2973 54.4271 65.7709C48.7492 68.7507 39.5065 68.7507 33.8395 65.7709C30.9573 64.2865 29.5053 62.3144 29.5053 60.3532V59.3455C29.5378 61.35 30.9681 63.3221 33.8504 64.8174Z" fill="#002F6D"/>
<path d="M33.7853 54.0361C39.4631 51.0563 48.7059 51.0563 54.3728 54.0361C60.0398 57.0159 60.1265 61.8377 54.4487 64.8716C48.7709 67.9056 39.5282 67.8514 33.8612 64.8716C28.1942 61.8919 28.1075 57.0159 33.7853 54.0361Z" fill="url(#paint3_linear)"/>
<path d="M33.3303 39.3432V46.928C33.3303 47.4265 33.677 47.9141 34.4138 48.2933C35.2257 48.6683 36.1093 48.8625 37.0035 48.8625C37.8978 48.8625 38.7814 48.6683 39.5932 48.2933C40.3084 47.9249 40.6768 47.4373 40.6768 46.9497V39.3648C40.6868 39.4331 40.6868 39.5024 40.6768 39.5707C40.8068 39.0073 40.4601 38.4871 39.5932 37.9995C38.778 37.6299 37.8932 37.4387 36.9981 37.4387C36.103 37.4387 35.2182 37.6299 34.403 37.9995C34.1149 38.1032 33.8612 38.2847 33.6699 38.5238C33.4787 38.7628 33.3574 39.0502 33.3194 39.354L33.3303 39.3432ZM33.3303 39.5599C33.3137 39.6091 33.3137 39.6623 33.3303 39.7116C33.3329 39.6583 33.3477 39.6064 33.3736 39.5599H33.3303Z" fill="url(#paint4_linear)"/>
<path d="M51.8482 41.2395V48.8244C51.8482 49.312 52.2058 49.8104 52.9317 50.1897C53.7451 50.5591 54.6281 50.7502 55.5214 50.7502C56.4148 50.7502 57.2977 50.5591 58.1111 50.1897C58.3977 50.0868 58.6504 49.907 58.8416 49.67C59.0327 49.433 59.1549 49.1479 59.1947 48.8461V41.2612C59.2048 41.3294 59.2048 41.3988 59.1947 41.4671C59.3247 40.9144 58.978 40.3835 58.1111 39.9067C57.2972 39.5323 56.4119 39.3384 55.516 39.3384C54.6201 39.3384 53.7348 39.5323 52.9209 39.9067C52.6337 40.0085 52.3803 40.188 52.189 40.4252C51.9977 40.6624 51.876 40.9481 51.8373 41.2503L51.8482 41.2395ZM52.0324 41.8138C52.0523 41.869 52.0816 41.9203 52.1191 41.9655C52.0816 41.9203 52.0523 41.869 52.0324 41.8138Z" fill="url(#paint5_linear)"/>
<path d="M43.2014 44.4901C43.2376 44.187 43.3585 43.9002 43.5501 43.6626C43.7417 43.4249 43.9964 43.2461 44.285 43.1465C45.0989 42.772 45.9842 42.5781 46.8801 42.5781C47.776 42.5781 48.6613 42.772 49.4752 43.1465C50.2987 43.5691 50.6346 44.1542 50.5587 44.7068C50.5701 44.6386 50.5701 44.5691 50.5587 44.5009V52.0858C50.5587 52.5626 50.2012 53.0502 49.4752 53.4294C48.66 53.799 47.7752 53.9902 46.8801 53.9902C45.985 53.9902 45.1002 53.799 44.285 53.4294C43.5698 53.0502 43.2014 52.5517 43.2014 52.0641V44.4793V44.4901Z" fill="url(#paint6_linear)"/>
<path d="M60.8634 39.0397V40.0474C60.8634 41.987 59.4439 43.9157 56.6267 45.4002C50.938 48.3799 41.7061 48.3799 35.985 45.4002C33.1027 43.9049 31.6508 41.9328 31.6508 39.9824V38.9639C31.6508 40.9251 33.0811 42.8863 35.985 44.3816C41.7061 47.3614 50.938 47.3614 56.6267 44.3816C59.4439 42.9188 60.8526 40.9793 60.8634 39.0397Z" fill="#002F6D"/>
<path d="M35.985 44.3925C41.7061 47.3722 50.938 47.3722 56.6267 44.3925C59.4439 42.9188 60.8526 40.9793 60.8634 39.0397V40.0474C60.8634 41.987 59.4439 43.9157 56.6267 45.4002C50.938 48.3799 41.7061 48.3799 35.985 45.4002C33.1027 43.9049 31.6508 41.9328 31.6508 39.9824V38.9639C31.6724 40.9143 33.1136 42.8863 35.985 44.3925Z" fill="#002F6D"/>
<path d="M35.9206 33.6111C41.6092 30.6313 50.8411 30.6313 56.5081 33.6111C62.1751 36.5908 62.2618 41.4235 56.584 44.4466C50.9061 47.4697 41.6634 47.4264 35.9423 44.4466C30.2211 41.4668 30.2428 36.58 35.9206 33.6111Z" fill="url(#paint7_linear)"/>
<path d="M38.6722 29.2769C38.6722 28.1934 39.4306 27.1965 40.9476 26.4055C42.6821 25.6129 44.5668 25.2026 46.4738 25.2026C48.3807 25.2026 50.2654 25.6129 51.9999 26.4055C53.7661 27.3157 54.4812 28.5726 54.232 29.7429C54.2775 29.6022 54.3066 29.4568 54.3187 29.3094V38.7905C54.3187 39.8741 53.5602 40.8601 52.0432 41.6619C50.3054 42.4493 48.4195 42.8566 46.5117 42.8566C44.6038 42.8566 42.7179 42.4493 40.9801 41.6619C39.4198 40.9143 38.618 39.8307 38.618 38.7472L38.6722 29.2661V29.2769Z" fill="#002F6D"/>
<path d="M64.2332 21.1284L64.2115 28.139L38.022 41.8676L38.0437 34.857L64.2332 21.1284Z" fill="#D3D6E7"/>
<path d="M64.2332 21.1286L38.0437 34.8572L32.0192 22.9381L58.2087 9.20947L64.2332 21.1286Z" fill="url(#paint8_linear)"/>
<path d="M58.2086 9.20947L32.0191 22.9381L24.6835 19.1132L50.8621 5.38452L58.2086 9.20947Z" fill="#EBEAF1"/>
<path d="M32.0191 22.938L38.0437 34.8571L38.022 41.8677L24.6185 34.8787L24.6835 19.113L32.0191 22.938Z" fill="#A7AAB6"/>
<path d="M41.2402 55.9214C41.8104 55.7062 42.4224 55.6246 43.0292 55.6828C43.6359 55.741 44.2212 55.9376 44.7401 56.2573C45.8778 56.9074 46.1379 57.8176 45.336 58.2836C44.7635 58.4965 44.1502 58.5769 43.5421 58.5187C42.934 58.4606 42.3471 58.2653 41.8253 57.9477C40.6876 57.2867 40.4275 56.3765 41.2402 55.9214Z" fill="#EE8200"/>
<path d="M45.7911 57.0051H45.1735V57.6119H45.7911V57.0051Z" fill="#EE8200"/>
<path d="M41.3919 56.019H40.7743V56.6258H41.3919V56.019Z" fill="#EE8200"/>
<path d="M41.2402 55.4121C41.8104 55.1969 42.4224 55.1153 43.0292 55.1735C43.6359 55.2317 44.2212 55.4283 44.7401 55.748C45.8778 56.3982 46.1379 57.3084 45.336 57.7743C44.7635 57.9872 44.1502 58.0676 43.5421 58.0095C42.934 57.9513 42.3471 57.756 41.8253 57.4384C40.6876 56.7774 40.4275 55.8781 41.2402 55.4121Z" fill="url(#paint9_linear)"/>
<path d="M44.2308 55.488L44.6101 55.6831C44.2359 55.8364 43.8737 56.0175 43.5265 56.2249C43.1048 56.4651 42.6994 56.733 42.3129 57.0267L41.9662 56.8316C42.3611 56.5209 42.7775 56.2384 43.2123 55.9865C43.5414 55.7999 43.8816 55.6335 44.2308 55.488Z" fill="#EE8200"/>
<path d="M49.5944 56.3766C50.1181 56.0622 50.707 55.8724 51.3157 55.8216C51.9244 55.7709 52.5366 55.8607 53.1051 56.0841C53.9069 56.55 53.6469 57.4602 52.52 58.1103C51.9988 58.429 51.4123 58.6257 50.8043 58.6858C50.1964 58.7458 49.5827 58.6676 49.0093 58.4571C48.1966 57.9261 48.4675 57.0159 49.5944 56.3766Z" fill="#BE091A"/>
<path d="M49.161 57.1135H48.5433V57.7203H49.161V57.1135Z" fill="#BE091A"/>
<path d="M53.571 56.1272H52.9534V56.7448H53.571V56.1272Z" fill="#BE091A"/>
<path d="M49.5944 55.8672C50.1138 55.544 50.7005 55.3446 51.3093 55.2844C51.9181 55.2243 52.5325 55.3051 53.1051 55.5204C53.9069 55.9864 53.6469 56.8857 52.52 57.5467C52 57.8689 51.4128 58.0668 50.8039 58.1251C50.195 58.1834 49.5809 58.1004 49.0093 57.8826C48.1966 57.4167 48.4675 56.5173 49.5944 55.8672Z" fill="url(#paint10_linear)"/>
<path d="M51.1763 56.0841C51.6124 56.3301 52.029 56.609 52.4224 56.9185L52.0649 57.1243C51.6851 56.8234 51.283 56.5517 50.8621 56.3117C50.515 56.1043 50.1528 55.9232 49.7786 55.7699L50.1578 55.5857C50.5071 55.7311 50.8472 55.8976 51.1763 56.0841Z" fill="#BE091A"/>
<path d="M36.6134 56.0841C36.795 55.9805 37.0004 55.926 37.2094 55.926C37.4184 55.926 37.6238 55.9805 37.8053 56.0841L38.813 56.6692L39.2031 56.8967L40.2108 57.471C40.3893 57.5753 40.5379 57.7238 40.6423 57.9022C40.7467 58.0806 40.8033 58.2829 40.8068 58.4896C40.8088 58.697 40.7557 58.9013 40.6528 59.0814C40.5499 59.2616 40.4009 59.4111 40.2212 59.5148C40.0415 59.6184 39.8375 59.6724 39.63 59.6712C39.4225 59.6701 39.2191 59.6138 39.0406 59.5081L38.0329 58.923L37.6428 58.6954L36.6351 58.1103C36.458 58.0081 36.3109 57.8613 36.2082 57.6845C36.1055 57.5077 36.051 57.307 36.05 57.1026C36.0373 56.8968 36.0835 56.6917 36.1833 56.5112C36.2831 56.3308 36.4323 56.1826 36.6134 56.0841Z" fill="url(#paint11_linear)"/>
<path d="M36.6134 56.0841C36.795 55.9805 37.0004 55.926 37.2094 55.926C37.4184 55.926 37.6238 55.9805 37.8053 56.0841L38.813 56.6692L39.0514 56.81C38.9475 56.7807 38.8385 56.7743 38.7319 56.7911C38.6253 56.808 38.5236 56.8477 38.4338 56.9076C38.186 57.0567 37.9766 57.2618 37.8223 57.5064C37.6681 57.751 37.5732 58.0283 37.5453 58.3162C37.5405 58.3891 37.5505 58.4621 37.5748 58.531C37.599 58.5999 37.6368 58.6632 37.6861 58.7171L36.6784 58.132C36.5014 58.0298 36.3542 57.8829 36.2515 57.7061C36.1489 57.5293 36.0943 57.3287 36.0933 57.1243C36.0722 56.9194 36.1099 56.7127 36.202 56.5285C36.2941 56.3442 36.4368 56.1901 36.6134 56.0841Z" fill="white"/>
<path d="M43.5481 61.5019C44.2013 61.8331 44.9233 62.0057 45.6557 62.0057C46.388 62.0057 47.11 61.8331 47.7632 61.5019C48.0049 61.391 48.2132 61.2185 48.3673 61.0017C48.5213 60.7849 48.6157 60.5314 48.6408 60.2666V61.6535C48.6201 61.9196 48.5275 62.1751 48.3729 62.3926C48.2184 62.6102 48.0076 62.7817 47.7632 62.8888C47.1119 63.22 46.3917 63.3926 45.6611 63.3926C44.9305 63.3926 44.2102 63.22 43.559 62.8888C43.3209 62.7801 43.1156 62.6108 42.9635 62.3978C42.8113 62.1848 42.7178 61.9357 42.6921 61.6752V60.2991C42.7196 60.5562 42.8128 60.8019 42.9627 61.0125C43.1126 61.2232 43.3142 61.3917 43.5481 61.5019Z" fill="#B7BAC7"/>
<path d="M43.5698 59.0639C44.2225 58.7377 44.9422 58.5679 45.6719 58.5679C46.4016 58.5679 47.1213 58.7377 47.774 59.0639C48.0265 59.1541 48.2449 59.3202 48.3993 59.5394C48.5538 59.7586 48.6367 60.0201 48.6367 60.2883C48.6367 60.5564 48.5538 60.818 48.3993 61.0372C48.2449 61.2564 48.0265 61.4224 47.774 61.5127C47.1208 61.8439 46.3988 62.0166 45.6665 62.0166C44.9341 62.0166 44.2121 61.8439 43.5589 61.5127C43.3069 61.4213 43.0892 61.2543 42.9357 61.0344C42.7822 60.8145 42.7005 60.5526 42.7017 60.2845C42.7029 60.0163 42.7869 59.7551 42.9423 59.5366C43.0977 59.3181 43.3169 59.153 43.5698 59.0639Z" fill="#EBEAF1"/>
<path d="M44.1983 59.0856L47.6873 61.0902C47.7849 61.1552 47.7849 61.2311 47.6873 61.2961C47.6335 61.3228 47.5741 61.3367 47.514 61.3367C47.4538 61.3367 47.3945 61.3228 47.3406 61.2961L43.8624 59.3348C43.7649 59.2806 43.7649 59.1831 43.8624 59.1398C43.9099 59.1044 43.9652 59.081 44.0237 59.0716C44.0822 59.0622 44.1421 59.067 44.1983 59.0856Z" fill="#B7BAC7"/>
<g style="mix-blend-mode:multiply">
<g style="mix-blend-mode:multiply">
<path style="mix-blend-mode:multiply" d="M30.9789 100.661L58.1545 116.189L90.4119 100.228L61.1343 84.1372L30.9789 100.661Z" fill="url(#paint12_linear)"/>
</g>
</g>
</g>
<defs>
<linearGradient id="paint0_linear" x1="51.0572" y1="76.7908" x2="14.7473" y2="76.7908" gradientUnits="userSpaceOnUse">
<stop stop-color="#C2C8D7"/>
<stop offset="1" stop-color="white"/>
</linearGradient>
<linearGradient id="paint1_linear" x1="207.989" y1="1984.39" x2="404.882" y2="1984.39" gradientUnits="userSpaceOnUse">
<stop stop-color="#C2C8D7"/>
<stop offset="1" stop-color="white"/>
</linearGradient>
<linearGradient id="paint2_linear" x1="63.8756" y1="61.816" x2="63.5614" y2="61.816" gradientUnits="userSpaceOnUse">
<stop stop-color="#1D529D"/>
<stop offset="1" stop-color="#0F2E66"/>
</linearGradient>
<linearGradient id="paint3_linear" x1="44.1333" y1="54.2853" x2="44.1333" y2="64.5682" gradientUnits="userSpaceOnUse">
<stop stop-color="#00A3FF"/>
<stop offset="1" stop-color="#1270E8"/>
</linearGradient>
<linearGradient id="paint4_linear" x1="36.9927" y1="48.8026" x2="36.9927" y2="42.908" gradientUnits="userSpaceOnUse">
<stop stop-color="white"/>
<stop offset="1" stop-color="#C2C8D7"/>
</linearGradient>
<linearGradient id="paint5_linear" x1="402.2" y1="504.711" x2="452.336" y2="504.711" gradientUnits="userSpaceOnUse">
<stop stop-color="white"/>
<stop offset="1" stop-color="#C2C8D7"/>
</linearGradient>
<linearGradient id="paint6_linear" x1="-10977.4" y1="595.837" x2="-10977.4" y2="532.957" gradientUnits="userSpaceOnUse">
<stop stop-color="white"/>
<stop offset="1" stop-color="#C2C8D7"/>
</linearGradient>
<linearGradient id="paint7_linear" x1="50582.7" y1="571.305" x2="51367.5" y2="571.305" gradientUnits="userSpaceOnUse">
<stop stop-color="#00A3FF"/>
<stop offset="1" stop-color="#1270E8"/>
</linearGradient>
<linearGradient id="paint8_linear" x1="55808.4" y1="511.136" x2="56766.1" y2="511.136" gradientUnits="userSpaceOnUse">
<stop stop-color="#C2C8D7"/>
<stop offset="1" stop-color="white"/>
</linearGradient>
<linearGradient id="paint9_linear" x1="45.802" y1="56.5932" x2="40.7634" y2="56.5932" gradientUnits="userSpaceOnUse">
<stop stop-color="#FFCC38"/>
<stop offset="1" stop-color="#FF9500"/>
</linearGradient>
<linearGradient id="paint10_linear" x1="53.571" y1="56.7015" x2="48.5433" y2="56.7015" gradientUnits="userSpaceOnUse">
<stop stop-color="#FF3D49"/>
<stop offset="1" stop-color="#D80C1E"/>
</linearGradient>
<linearGradient id="paint11_linear" x1="8386.78" y1="248.617" x2="8389.99" y2="257.7" gradientUnits="userSpaceOnUse">
<stop stop-color="#FF3D49"/>
<stop offset="1" stop-color="#D80C1E"/>
</linearGradient>
<linearGradient id="paint12_linear" x1="30.9789" y1="100.163" x2="69.1332" y2="107.304" gradientUnits="userSpaceOnUse">
<stop stop-color="#DADDE4"/>
<stop offset="1" stop-color="#DADDE4" stop-opacity="0.06"/>
</linearGradient>
<clipPath id="clip0">
<rect width="90" height="115.366" fill="white" transform="translate(0.411865 0.822754)"/>
</clipPath>
</defs>
</svg>
