<svg width="136" height="130" viewBox="0 0 136 130" fill="none" xmlns="http://www.w3.org/2000/svg">
<g clip-path="url(#clip0)">
<path d="M2.32685 59.7071C6.37674 69.8919 28.6239 80.4478 28.6239 80.4478C28.6239 80.4478 51.2639 44.9376 55.5649 30.2335C57.4685 24.2184 57.9505 17.8436 56.9731 11.6106L60.2479 6.61097L51.515 1.4913C50.6055 0.91579 49.5997 0.509021 48.5458 0.290523C41.9197 -1.25957 33.9509 5.30103 28.8968 15.6932C23.9627 11.3922 16.4523 13.51 9.95724 21.839C1.69371 32.5477 -1.7667 49.5114 2.32685 59.7071Z" fill="#CF1524"/>
<path d="M2.32696 59.7073C6.37685 69.8921 28.624 80.448 28.624 80.448L38.252 21.1406L28.9078 15.6825C23.9737 11.3815 16.4634 13.4993 9.96827 21.8283C1.69383 32.548 -1.76659 49.5116 2.32696 59.7073Z" fill="#C20B1B"/>
<path d="M19.3453 27.3519C25.8185 18.9683 33.3507 16.8943 38.263 21.1952C43.328 10.803 51.2641 4.24244 57.912 5.80345C66.0991 7.70286 69.2539 21.1516 64.942 35.8229C60.6301 50.4942 38.001 86.0371 38.001 86.0371C38.001 86.0371 15.7648 75.383 11.6931 65.1982C7.62133 55.0134 11.0381 38.0607 19.3453 27.3519Z" fill="url(#paint0_linear)"/>
<path d="M2.40345 64.4668C2.3552 64.3801 2.32455 64.2848 2.31325 64.1862C2.30195 64.0876 2.31024 63.9878 2.33762 63.8925C2.36501 63.7971 2.41096 63.7081 2.47283 63.6306C2.53471 63.5531 2.61129 63.4885 2.69818 63.4407L22.1617 52.8083C22.3635 52.6893 22.6023 52.649 22.832 52.6954C23.0617 52.7417 23.2662 52.8714 23.4061 53.0594L24.6942 54.8387L27.8927 46.8372C27.9752 46.6317 28.107 46.4495 28.2764 46.3068C28.4458 46.164 28.6476 46.065 28.8642 46.0185C29.0222 45.9972 29.183 46.0161 29.3318 46.0733C29.4806 46.1305 29.6126 46.2243 29.7157 46.346L30.4907 47.3175L32.008 39.8509L32.2264 39.1522H33.5145L36.6256 56.9783L39.7585 28.9566C39.791 28.7049 39.9101 28.4725 40.0954 28.2992C40.2806 28.1259 40.5205 28.0225 40.7737 28.0068L41.5378 28.0833L43.3827 41.7721L46.1663 40.3203L47.64 35.9538C47.7129 35.7292 47.8461 35.5289 48.0252 35.3749C48.2042 35.2208 48.4221 35.119 48.6552 35.0805C48.8257 35.0569 48.9994 35.0823 49.156 35.1538C49.3126 35.2254 49.4456 35.34 49.5394 35.4844L52.6286 40.3312L53.9277 36.5542C54.0404 36.2313 54.2702 35.9625 54.5717 35.801L71.5136 26.7952C71.601 26.7486 71.6968 26.7197 71.7954 26.7101C71.894 26.7005 71.9936 26.7104 72.0883 26.7393C72.1831 26.7682 72.2713 26.8155 72.3478 26.8784C72.4243 26.9414 72.4876 27.0188 72.5342 27.1063C72.5808 27.1937 72.6097 27.2895 72.6193 27.3881C72.6289 27.4867 72.619 27.5863 72.5901 27.681C72.5612 27.7758 72.5139 27.864 72.4509 27.9405C72.388 28.017 72.3106 28.0803 72.2231 28.1269L55.3468 37.0127L53.7967 41.5429C53.7197 41.7671 53.5839 41.9665 53.4033 42.1202C53.2228 42.2739 53.0042 42.3761 52.7706 42.4162C52.5989 42.4387 52.4245 42.4116 52.2678 42.3381C52.1111 42.2646 51.9787 42.1477 51.8863 42.0013L48.808 37.1764L47.5417 40.8006C47.4324 41.1281 47.202 41.4015 46.8977 41.5647L43.339 43.4532C43.1977 43.5278 43.0403 43.5667 42.8805 43.5667C42.7207 43.5667 42.5634 43.5278 42.422 43.4532C42.2903 43.383 42.1776 43.2816 42.0939 43.158C42.0102 43.0343 41.958 42.8921 41.9417 42.7436L40.6973 33.5959L37.6299 61.3448C37.6069 61.5799 37.5009 61.7992 37.3309 61.9633C37.1608 62.1274 36.9378 62.2254 36.702 62.2399H35.9706L32.7831 43.7261L31.8552 48.3327C31.804 48.571 31.6883 48.7906 31.5209 48.9677C31.3534 49.1448 31.1406 49.2725 30.9055 49.337C30.7363 49.3837 30.5571 49.3797 30.3902 49.3253C30.2232 49.271 30.076 49.1687 29.9667 49.0313L29.1043 47.9397L25.8295 56.0286C25.7475 56.2385 25.6132 56.4239 25.4393 56.5672C25.2654 56.7105 25.0578 56.8069 24.8361 56.8473C24.6739 56.868 24.5091 56.8445 24.3592 56.7791C24.2093 56.7138 24.0799 56.6091 23.9847 56.4762L22.4346 54.4021L3.42957 64.8052C3.31587 64.8681 3.18835 64.9019 3.05842 64.9034C2.91929 64.8994 2.7841 64.8563 2.66829 64.7791C2.55247 64.7019 2.4607 64.5936 2.40345 64.4668Z" fill="white"/>
<path d="M63.0699 105.543C73.2234 109.276 79.878 110.807 80.3466 109.737C90.9454 114.064 100.912 117.282 104.457 117.391C108.8 117.532 101.794 112.939 88.7897 107.136C75.7853 101.333 35.9129 86.0481 35.9129 86.0481C35.9129 86.0481 27.7744 87.6102 31.9218 90.9374C36.0691 94.2647 50.0342 100.763 63.0699 105.543Z" fill="url(#paint1_linear)"/>
</g>
<defs>
<linearGradient id="paint0_linear" x1="66.8742" y1="45.7893" x2="9.9683" y2="45.7893" gradientUnits="userSpaceOnUse">
<stop stop-color="#FF3D49"/>
<stop offset="1" stop-color="#D80B1E"/>
</linearGradient>
<linearGradient id="paint1_linear" x1="34.1712" y1="85.7903" x2="73.0704" y2="105.961" gradientUnits="userSpaceOnUse">
<stop stop-color="#C9D3E7"/>
<stop offset="1" stop-color="white" stop-opacity="0.25"/>
</linearGradient>
<clipPath id="clip0">
<rect width="135" height="129.804" fill="white" transform="translate(0.602295 0.0615234)"/>
</clipPath>
</defs>
</svg>
