<svg width="93" height="120" viewBox="0 0 93 120" fill="none" xmlns="http://www.w3.org/2000/svg">
<g clip-path="url(#clip0)">
<path d="M92.25 107.737L70.45 119.867L22.12 91.7567L42.71 79.8167L92.25 107.737Z" fill="url(#paint0_linear)"/>
<path d="M48.68 79.0166C48.3573 81.46 47.5151 83.8059 46.21 85.8966C43.47 89.6066 39.3 91.5466 35.27 92.4366C26.79 94.2966 12 91.1266 11.61 78.2866C20.65 86.3266 41.07 85.6466 48.68 79.0166Z" fill="url(#paint1_linear)"/>
<path d="M17.7 67.4166C21.15 65.7566 34.09 63.0766 42.86 67.6666C45.64 69.1166 50.13 71.9766 48.54 79.8166C47.79 83.5466 43.6 87.2266 39.27 89.4366C35.27 91.4966 28.69 91.1366 26.21 90.7566C23.6956 90.4191 21.2572 89.6548 19 88.4966C16.48 87.1466 13.91 85.3666 12.53 82.4366C10 77.0866 13 69.6566 17.7 67.4166Z" fill="url(#paint2_linear)"/>
<path d="M50.93 75.0867C50.5439 77.5631 49.5927 79.9172 48.15 81.9667C45.08 85.6767 40.4 87.6267 35.88 88.4967C26.37 90.3667 9.72 87.1967 9.35 74.3567C19.48 82.3867 42.39 81.7267 50.93 75.0867Z" fill="#27449C"/>
<path d="M50.93 74.3865C50.5439 76.8629 49.5927 79.217 48.15 81.2665C45.08 84.9765 40.4 86.9265 35.88 87.8065C26.37 89.6665 9.72 86.4965 9.35 73.6565C19.48 81.6965 42.39 81.0265 50.93 74.3865Z" fill="url(#paint3_linear)"/>
<path d="M16.17 62.7767C20.05 61.1267 34.56 58.4467 44.39 63.0367C47.51 64.4867 52.55 67.3567 50.76 75.1967C49.91 78.9167 45.22 82.6067 40.37 84.7967C35.83 86.8667 28.5 86.4967 25.72 86.1267C22.9281 85.7912 20.2035 85.0325 17.64 83.8767C14.82 82.5167 11.94 80.7367 10.39 77.8067C7.54 72.4967 10.92 65.0267 16.17 62.7767Z" fill="url(#paint4_linear)"/>
<path d="M52 70.0767C51.5981 72.5726 50.5961 74.9336 49.08 76.9567C45.86 80.6667 40.94 82.6167 36.19 83.5067C26.19 85.3567 8.7 82.1867 8.3 69.3567C18.93 77.3867 43 76.7167 52 70.0767Z" fill="#27449C"/>
<path d="M52 69.4966C51.5962 71.992 50.5944 74.3525 49.08 76.3766C45.86 80.0866 40.94 82.0266 36.19 82.9166C26.19 84.7766 8.7 81.5966 8.3 68.7566C18.93 76.7466 43 76.0766 52 69.4966Z" fill="url(#paint5_linear)"/>
<path d="M15.45 57.8465C19.53 56.1865 34.78 53.5065 45.12 58.0965C48.4 59.5465 53.69 62.4065 51.81 70.2465C50.92 73.9765 45.98 77.6565 40.89 79.8665C36.11 81.8665 28.41 81.5665 25.49 81.1865C22.5648 80.8522 19.7043 80.0908 17 78.9265C14 77.5765 11 75.7865 9.37 72.8665C6.38 67.4965 9.94 60.0865 15.45 57.8465Z" fill="url(#paint6_linear)"/>
<path d="M10.66 61.4965C14.22 57.4365 21.66 54.6465 30.2 54.6465C38.74 54.6465 45.92 57.3365 49.55 61.2665C50.3338 62.1085 50.9664 63.0794 51.42 64.1365C51.7916 65.0235 51.9853 65.9748 51.99 66.9365C51.9957 67.2716 51.969 67.6065 51.91 67.9365C51.7811 68.9526 51.4405 69.9303 50.91 70.8065C48.06 75.7165 39.91 79.2565 30.21 79.2565C20.78 79.2565 12.75 75.8765 9.72 71.1465C9.17067 70.3084 8.7808 69.3761 8.57 68.3965C8.47066 67.9195 8.4204 67.4337 8.42 66.9465C8.4235 66.0646 8.5861 65.1906 8.9 64.3665C9.31131 63.3128 9.90732 62.3409 10.66 61.4965Z" fill="#27449C"/>
<path d="M10.66 60.4965C14.22 56.4965 21.66 53.6465 30.2 53.6465C38.74 53.6465 45.92 56.3365 49.55 60.2665C50.3347 61.1115 50.9674 62.0858 51.42 63.1465C51.8012 64.0414 51.9985 65.0038 52 65.9765C52.0051 66.3116 51.9783 66.6464 51.92 66.9765C51.7894 67.9922 51.4488 68.9696 50.92 69.8465C48.07 74.7465 39.92 78.2965 30.22 78.2965C20.79 78.2965 12.76 74.9065 9.73 70.1765C9.18574 69.3478 8.79925 68.4256 8.59 67.4565C8.48967 66.9797 8.4394 66.4937 8.44 66.0065C8.44448 65.128 8.60707 64.2574 8.92 63.4365C9.32092 62.361 9.91011 61.3655 10.66 60.4965Z" fill="url(#paint7_linear)"/>
<path d="M30.21 55.2866C42.21 55.2866 50.62 60.9266 50.62 65.9766C50.62 71.0266 42.24 76.6666 30.21 76.6666C18.18 76.6666 9.79 71.0366 9.79 65.9766C9.79 60.9166 18.17 55.2866 30.21 55.2866Z" fill="url(#paint8_linear)"/>
<path opacity="0.83" d="M28.65 0.496595C29.13 0.496595 29.65 0.496595 30.08 0.496595C35.4496 0.491552 40.7226 1.92394 45.3517 4.64505C49.9807 7.36615 53.797 11.2768 56.4043 15.9709C59.0115 20.665 60.3147 25.9714 60.1786 31.3393C60.0424 36.7071 58.4719 41.9407 55.63 46.4966C52.2913 52.0935 50.529 58.4895 50.53 65.0066C50.46 68.0066 48.48 70.9166 44.59 73.1866C36.59 77.8166 23.44 77.8466 15.43 73.1866C11.5 70.9166 9.79 68.7066 9.64 64.9566C9.49338 58.327 7.66263 51.8437 4.32 46.1166C1.18742 40.961 -0.318088 34.9808 -1.19209e-07 28.9566C0.84 13.6266 13.73 0.496595 28.65 0.496595Z" fill="url(#paint9_linear)"/>
<g style="mix-blend-mode:screen" opacity="0.55">
<path style="mix-blend-mode:screen" opacity="0.55" d="M20.1 4.03662C20.7 5.85662 21.3333 7.67662 22 9.49662C18.9295 10.9194 16.2011 12.9862 14 15.5566C12.5867 14.3166 11.1733 13.08 9.76 11.8466C12.6081 8.53341 16.1342 5.87009 20.1 4.03662Z" fill="url(#paint10_linear)"/>
<path style="mix-blend-mode:screen" opacity="0.55" d="M22.4 10.6067C23.04 12.4367 23.68 14.2567 24.31 16.0867C22.3271 17.0144 20.5673 18.3582 19.15 20.0267L14.91 16.3167C16.9678 13.8977 19.5224 11.9503 22.4 10.6067Z" fill="url(#paint11_linear)"/>
<path style="mix-blend-mode:screen" opacity="0.55" d="M12.8 17.1965C10.8264 19.9321 9.46238 23.059 8.8 26.3665L3 25.8065C3.86418 21.5331 5.63015 17.4932 8.18 13.9565L12.8 17.1965Z" fill="url(#paint12_linear)"/>
<path style="mix-blend-mode:screen" opacity="0.55" d="M18.32 21.0767C17.0338 22.8675 16.1472 24.9136 15.72 27.0767L9.94 26.4967C10.5674 23.3843 11.8528 20.4419 13.71 17.8667L18.32 21.0767Z" fill="url(#paint13_linear)"/>
</g>
<path style="mix-blend-mode:screen" d="M29.65 4.35669C39.5 4.35669 47.47 8.68669 47.47 14.0267C47.47 19.3667 39.47 23.6867 29.65 23.6867C19.83 23.6867 11.83 19.3567 11.83 14.0267C11.83 8.69669 19.82 4.35669 29.65 4.35669Z" fill="url(#paint14_radial)"/>
<path style="mix-blend-mode:screen" d="M29.65 6.67651C37.24 6.67651 43.39 9.31651 43.39 12.5765C43.39 15.8365 37.24 18.4965 29.65 18.4965C22.06 18.4965 15.92 15.8565 15.92 12.5865C15.92 9.31651 22.07 6.67651 29.65 6.67651Z" fill="url(#paint15_radial)"/>
<g style="mix-blend-mode:screen">
<path style="mix-blend-mode:screen" d="M29.67 24.7666C33.1886 24.7693 36.5623 26.1682 39.0504 28.6562C41.5384 31.1443 42.9373 34.518 42.94 38.0366V64.3966C43.0093 64.9589 42.9583 65.5295 42.7904 66.0707C42.6226 66.6118 42.3417 67.1111 41.9663 67.5355C41.591 67.9599 41.1298 68.2997 40.6132 68.5325C40.0967 68.7652 39.5366 68.8856 38.97 68.8856C38.4034 68.8856 37.8433 68.7652 37.3268 68.5325C36.8102 68.2997 36.349 67.9599 35.9737 67.5355C35.5983 67.1111 35.3174 66.6118 35.1496 66.0707C34.9817 65.5295 34.9307 64.9589 35 64.3966V38.0366C35 36.623 34.4384 35.2673 33.4389 34.2677C32.4393 33.2682 31.0836 32.7066 29.67 32.7066C28.2564 32.7066 26.9007 33.2682 25.9011 34.2677C24.9016 35.2673 24.34 36.623 24.34 38.0366V64.3966C24.4093 64.9589 24.3583 65.5295 24.1904 66.0707C24.0226 66.6118 23.7417 67.1111 23.3663 67.5355C22.991 67.9599 22.5298 68.2997 22.0132 68.5325C21.4967 68.7652 20.9366 68.8856 20.37 68.8856C19.8034 68.8856 19.2433 68.7652 18.7268 68.5325C18.2102 68.2997 17.749 67.9599 17.3737 67.5355C16.9983 67.1111 16.7174 66.6118 16.5496 66.0707C16.3817 65.5295 16.3307 64.9589 16.4 64.3966V38.0366C16.4026 34.518 17.8016 31.1443 20.2896 28.6562C22.7777 26.1682 26.1514 24.7693 29.67 24.7666Z" fill="url(#paint16_linear)"/>
</g>
<path style="mix-blend-mode:screen" d="M38.86 59.6066C39.2637 59.6222 39.6538 59.7563 39.9819 59.9919C40.3099 60.2276 40.5615 60.5546 40.7052 60.9321C40.8489 61.3096 40.8785 61.7211 40.7902 62.1153C40.7019 62.5094 40.4997 62.869 40.2086 63.1491C39.9176 63.4293 39.5506 63.6177 39.1534 63.6909C38.7561 63.7641 38.3461 63.7189 37.9743 63.5609C37.6025 63.4029 37.2854 63.1391 37.0624 62.8023C36.8394 62.4655 36.7203 62.0705 36.72 61.6666C36.7239 61.3904 36.7825 61.1177 36.8924 60.8643C37.0023 60.6109 37.1614 60.3818 37.3604 60.1902C37.5593 59.9987 37.7943 59.8485 38.0518 59.7483C38.3092 59.6481 38.5839 59.5999 38.86 59.6066Z" fill="url(#paint17_radial)"/>
<path style="mix-blend-mode:screen" d="M38.86 52.5966C39.2637 52.6122 39.6538 52.7463 39.9819 52.9819C40.3099 53.2176 40.5615 53.5446 40.7052 53.9221C40.8489 54.2996 40.8785 54.7111 40.7902 55.1052C40.7019 55.4994 40.4997 55.859 40.2086 56.1391C39.9176 56.4193 39.5506 56.6077 39.1534 56.6809C38.7561 56.7541 38.3461 56.7089 37.9743 56.5509C37.6025 56.3929 37.2854 56.1291 37.0624 55.7923C36.8394 55.4555 36.7203 55.0605 36.72 54.6566C36.7239 54.3804 36.7825 54.1077 36.8924 53.8543C37.0023 53.6009 37.1614 53.3718 37.3604 53.1802C37.5593 52.9887 37.7943 52.8384 38.0518 52.7383C38.3092 52.6381 38.5839 52.5899 38.86 52.5966Z" fill="url(#paint18_radial)"/>
<path style="mix-blend-mode:screen" d="M38.86 45.5766C39.2637 45.5922 39.6538 45.7263 39.9819 45.9619C40.3099 46.1976 40.5615 46.5246 40.7052 46.9021C40.8489 47.2796 40.8785 47.6911 40.7902 48.0852C40.7019 48.4794 40.4997 48.839 40.2086 49.1191C39.9176 49.3993 39.5506 49.5877 39.1534 49.6609C38.7561 49.7341 38.3461 49.6889 37.9743 49.5309C37.6025 49.3729 37.2854 49.1091 37.0624 48.7723C36.8394 48.4355 36.7203 48.0405 36.72 47.6366C36.7252 47.3608 36.7847 47.0887 36.8951 46.8359C37.0054 46.5831 37.1645 46.3545 37.3633 46.1632C37.562 45.9719 37.7964 45.8217 38.0533 45.721C38.3101 45.6203 38.5842 45.5713 38.86 45.5766Z" fill="url(#paint19_radial)"/>
<path style="mix-blend-mode:screen" d="M38.86 38.5765C39.2641 38.5922 39.6546 38.7265 39.9829 38.9627C40.3111 39.1988 40.5627 39.5263 40.7061 39.9044C40.8495 40.2825 40.8785 40.6945 40.7894 41.0889C40.7002 41.4833 40.497 41.8428 40.205 42.1226C39.913 42.4023 39.5451 42.5899 39.1472 42.662C38.7493 42.7341 38.339 42.6874 37.9674 42.5279C37.5958 42.3684 37.2794 42.1031 37.0576 41.765C36.8357 41.4268 36.7183 41.0309 36.72 40.6265C36.7252 40.3512 36.7847 40.0796 36.8952 39.8274C37.0057 39.5751 37.165 39.3472 37.3639 39.1567C37.5627 38.9662 37.7973 38.8169 38.054 38.7173C38.3108 38.6177 38.5847 38.5699 38.86 38.5765Z" fill="url(#paint20_radial)"/>
<path style="mix-blend-mode:screen" d="M37.89 35.6766C39.0719 35.6766 40.03 34.7543 40.03 33.6166C40.03 32.4789 39.0719 31.5566 37.89 31.5566C36.7081 31.5566 35.75 32.4789 35.75 33.6166C35.75 34.7543 36.7081 35.6766 37.89 35.6766Z" fill="url(#paint21_radial)"/>
<path style="mix-blend-mode:screen" d="M32.78 27.4966C33.1867 27.5106 33.5801 27.6447 33.9106 27.882C34.2412 28.1194 34.494 28.4493 34.6373 28.8301C34.7805 29.211 34.8078 29.6258 34.7156 30.0221C34.6234 30.4184 34.4159 30.7786 34.1193 31.0571C33.8226 31.3357 33.4501 31.5201 33.0488 31.5872C32.6474 31.6543 32.2352 31.601 31.8641 31.4341C31.493 31.2671 31.1796 30.994 30.9636 30.6492C30.7475 30.3044 30.6384 29.9033 30.65 29.4966C30.6759 28.9519 30.9126 28.4387 31.3102 28.0654C31.7077 27.6922 32.2348 27.4882 32.78 27.4966Z" fill="url(#paint22_radial)"/>
<path style="mix-blend-mode:screen" d="M20.46 59.6066C20.8637 59.6223 21.2538 59.7563 21.5819 59.992C21.9099 60.2277 22.1615 60.5546 22.3052 60.9321C22.4489 61.3096 22.4785 61.7211 22.3902 62.1153C22.3019 62.5095 22.0997 62.869 21.8086 63.1491C21.5176 63.4293 21.1506 63.6177 20.7534 63.6909C20.3561 63.7641 19.9461 63.7189 19.5743 63.5609C19.2025 63.4029 18.8854 63.1391 18.6624 62.8023C18.4394 62.4655 18.3203 62.0705 18.32 61.6666C18.3252 61.3908 18.3847 61.1187 18.4951 60.8659C18.6054 60.6131 18.7645 60.3846 18.9633 60.1933C19.162 60.002 19.3964 59.8517 19.6533 59.751C19.9101 59.6504 20.1842 59.6013 20.46 59.6066Z" fill="url(#paint23_radial)"/>
<path style="mix-blend-mode:screen" d="M20.46 52.5966C20.8637 52.6123 21.2538 52.7463 21.5819 52.982C21.9099 53.2176 22.1615 53.5446 22.3052 53.9221C22.4489 54.2996 22.4785 54.7111 22.3902 55.1053C22.3019 55.4995 22.0997 55.859 21.8086 56.1391C21.5176 56.4193 21.1506 56.6077 20.7534 56.6809C20.3561 56.7541 19.9461 56.7089 19.5743 56.5509C19.2025 56.3929 18.8854 56.1291 18.6624 55.7923C18.4394 55.4555 18.3203 55.0605 18.32 54.6566C18.3252 54.3808 18.3847 54.1087 18.4951 53.8559C18.6054 53.6031 18.7645 53.3746 18.9633 53.1833C19.162 52.992 19.3964 52.8417 19.6533 52.741C19.9101 52.6404 20.1842 52.5913 20.46 52.5966Z" fill="url(#paint24_radial)"/>
<path style="mix-blend-mode:screen" d="M20.46 45.5766C20.8637 45.5923 21.2538 45.7263 21.5819 45.962C21.9099 46.1977 22.1615 46.5246 22.3052 46.9022C22.4489 47.2797 22.4785 47.6911 22.3902 48.0853C22.3019 48.4795 22.0997 48.839 21.8086 49.1192C21.5176 49.3993 21.1506 49.5877 20.7534 49.661C20.3561 49.7342 19.9461 49.689 19.5743 49.531C19.2025 49.373 18.8854 49.1092 18.6624 48.7724C18.4394 48.4355 18.3203 48.0406 18.32 47.6366C18.3331 47.0805 18.5653 46.5521 18.9661 46.1663C19.3669 45.7805 19.9038 45.5686 20.46 45.5766Z" fill="url(#paint25_radial)"/>
<path style="mix-blend-mode:screen" d="M20.46 38.5766C20.8641 38.5923 21.2546 38.7266 21.5829 38.9627C21.9112 39.1988 22.1627 39.5263 22.3061 39.9044C22.4495 40.2825 22.4785 40.6945 22.3894 41.0889C22.3002 41.4834 22.097 41.8429 21.805 42.1226C21.513 42.4023 21.1451 42.5899 20.7472 42.662C20.3493 42.7341 19.939 42.6875 19.5674 42.528C19.1958 42.3684 18.8794 42.1031 18.6576 41.765C18.4357 41.4269 18.3183 41.0309 18.32 40.6266C18.3331 40.0713 18.5657 39.5439 18.9667 39.1597C19.3678 38.7755 19.9047 38.5658 20.46 38.5766Z" fill="url(#paint26_radial)"/>
<path style="mix-blend-mode:screen" d="M21.43 31.5565C21.8337 31.5722 22.2238 31.7062 22.5519 31.9419C22.8799 32.1776 23.1315 32.5045 23.2752 32.8821C23.4189 33.2596 23.4485 33.671 23.3602 34.0652C23.2719 34.4594 23.0697 34.819 22.7786 35.0991C22.4876 35.3793 22.1206 35.5677 21.7234 35.6409C21.3261 35.7141 20.9161 35.6689 20.5443 35.5109C20.1725 35.3529 19.8554 35.0891 19.6324 34.7523C19.4094 34.4155 19.2903 34.0205 19.29 33.6165C19.2952 33.3407 19.3547 33.0687 19.4651 32.8159C19.5754 32.5631 19.7345 32.3345 19.9333 32.1432C20.132 31.9519 20.3664 31.8016 20.6233 31.701C20.8801 31.6003 21.1542 31.5512 21.43 31.5565Z" fill="url(#paint27_radial)"/>
<path style="mix-blend-mode:screen" d="M26.54 27.4965C26.9462 27.5125 27.3385 27.6482 27.6677 27.8867C27.9969 28.1252 28.2481 28.4557 28.3899 28.8366C28.5316 29.2176 28.5575 29.632 28.4642 30.0276C28.3709 30.4232 28.1627 30.7824 27.8658 31.06C27.5688 31.3375 27.1963 31.521 26.7953 31.5873C26.3943 31.6537 25.9826 31.5999 25.6121 31.4327C25.2416 31.2656 24.9288 30.9925 24.7131 30.648C24.4974 30.3035 24.3885 29.9028 24.4 29.4965C24.4259 28.9501 24.6641 28.4354 25.0637 28.0618C25.4634 27.6883 25.9931 27.4855 26.54 27.4965Z" fill="url(#paint28_radial)"/>
</g>
<defs>
<linearGradient id="paint0_linear" x1="42.76" y1="86.7367" x2="64.25" y2="106.117" gradientUnits="userSpaceOnUse">
<stop stop-color="#C9D3E7"/>
<stop offset="1" stop-color="white"/>
</linearGradient>
<linearGradient id="paint1_linear" x1="48.68" y1="85.6066" x2="11.61" y2="85.6066" gradientUnits="userSpaceOnUse">
<stop stop-color="#0087D8"/>
<stop offset="1" stop-color="#0E5ABB"/>
</linearGradient>
<linearGradient id="paint2_linear" x1="-107638" y1="2077.33" x2="-106250" y2="2077.33" gradientUnits="userSpaceOnUse">
<stop stop-color="#0087D8"/>
<stop offset="1" stop-color="#0E5ABB"/>
</linearGradient>
<linearGradient id="paint3_linear" x1="-120199" y1="1251.86" x2="-118470" y2="1251.86" gradientUnits="userSpaceOnUse">
<stop stop-color="#0087D8"/>
<stop offset="1" stop-color="#0E5ABB"/>
</linearGradient>
<linearGradient id="paint4_linear" x1="-120792" y1="1952.32" x2="-119046" y2="1952.32" gradientUnits="userSpaceOnUse">
<stop stop-color="#0087D8"/>
<stop offset="1" stop-color="#0E5ABB"/>
</linearGradient>
<linearGradient id="paint5_linear" x1="-126376" y1="1175.34" x2="-124466" y2="1175.34" gradientUnits="userSpaceOnUse">
<stop stop-color="#0087D8"/>
<stop offset="1" stop-color="#0E5ABB"/>
</linearGradient>
<linearGradient id="paint6_linear" x1="-127021" y1="1818.2" x2="-125092" y2="1818.2" gradientUnits="userSpaceOnUse">
<stop stop-color="#0087D8"/>
<stop offset="1" stop-color="#0E5ABB"/>
</linearGradient>
<linearGradient id="paint7_linear" x1="-125973" y1="1667.73" x2="-124075" y2="1667.73" gradientUnits="userSpaceOnUse">
<stop stop-color="#0087D8"/>
<stop offset="1" stop-color="#0E5ABB"/>
</linearGradient>
<linearGradient id="paint8_linear" x1="50.62" y1="65.9766" x2="9.78" y2="65.9766" gradientUnits="userSpaceOnUse">
<stop stop-color="#0072F6"/>
<stop offset="1" stop-color="#002179"/>
</linearGradient>
<linearGradient id="paint9_linear" x1="8.09" y1="60.1966" x2="50.29" y2="17.9966" gradientUnits="userSpaceOnUse">
<stop stop-color="#FFCC38"/>
<stop offset="1" stop-color="#FF9500"/>
</linearGradient>
<linearGradient id="paint10_linear" x1="23.09" y1="9.80662" x2="1.93" y2="9.80662" gradientUnits="userSpaceOnUse">
<stop stop-color="white"/>
<stop offset="0.04" stop-color="#F3F3F3"/>
<stop offset="0.4" stop-color="#8D8D8D"/>
<stop offset="0.69" stop-color="#414141"/>
<stop offset="0.89" stop-color="#121212"/>
<stop offset="1"/>
</linearGradient>
<linearGradient id="paint11_linear" x1="-27008.1" y1="150.211" x2="-26841.4" y2="150.211" gradientUnits="userSpaceOnUse">
<stop stop-color="white"/>
<stop offset="0.04" stop-color="#F3F3F3"/>
<stop offset="0.4" stop-color="#8D8D8D"/>
<stop offset="0.69" stop-color="#414141"/>
<stop offset="0.89" stop-color="#121212"/>
<stop offset="1"/>
</linearGradient>
<linearGradient id="paint12_linear" x1="-27965.2" y1="257.937" x2="-27829.7" y2="257.937" gradientUnits="userSpaceOnUse">
<stop stop-color="white"/>
<stop offset="0.04" stop-color="#F3F3F3"/>
<stop offset="0.4" stop-color="#8D8D8D"/>
<stop offset="0.69" stop-color="#414141"/>
<stop offset="0.89" stop-color="#121212"/>
<stop offset="1"/>
</linearGradient>
<linearGradient id="paint13_linear" x1="-24012.3" y1="219.934" x2="-23898" y2="219.934" gradientUnits="userSpaceOnUse">
<stop stop-color="white"/>
<stop offset="0.04" stop-color="#F3F3F3"/>
<stop offset="0.4" stop-color="#8D8D8D"/>
<stop offset="0.69" stop-color="#414141"/>
<stop offset="0.89" stop-color="#121212"/>
<stop offset="1"/>
</linearGradient>
<radialGradient id="paint14_radial" cx="0" cy="0" r="1" gradientUnits="userSpaceOnUse" gradientTransform="translate(29.65 14.0267) rotate(180) scale(14.33)">
<stop stop-color="white"/>
<stop offset="1"/>
</radialGradient>
<radialGradient id="paint15_radial" cx="0" cy="0" r="1" gradientUnits="userSpaceOnUse" gradientTransform="translate(-78816.1 149.462) scale(290.358 124.937)">
<stop stop-color="white"/>
<stop offset="1"/>
</radialGradient>
<linearGradient id="paint16_linear" x1="29.67" y1="65.6566" x2="29.67" y2="24.3966" gradientUnits="userSpaceOnUse">
<stop stop-color="#194E95"/>
<stop offset="1" stop-color="white"/>
</linearGradient>
<radialGradient id="paint17_radial" cx="0" cy="0" r="1" gradientUnits="userSpaceOnUse" gradientTransform="translate(-11824.5 311.568) scale(8.65199 8.65001)">
<stop stop-color="white"/>
<stop offset="1"/>
</radialGradient>
<radialGradient id="paint18_radial" cx="0" cy="0" r="1" gradientUnits="userSpaceOnUse" gradientTransform="translate(-11824.5 275.684) scale(8.65199 8.65001)">
<stop stop-color="white"/>
<stop offset="1"/>
</radialGradient>
<radialGradient id="paint19_radial" cx="0" cy="0" r="1" gradientUnits="userSpaceOnUse" gradientTransform="translate(-11824.5 239.738) scale(8.65199 8.64955)">
<stop stop-color="white"/>
<stop offset="1"/>
</radialGradient>
<radialGradient id="paint20_radial" cx="0" cy="0" r="1" gradientUnits="userSpaceOnUse" gradientTransform="translate(-11824.6 203.873) scale(8.652 8.65001)">
<stop stop-color="white"/>
<stop offset="1"/>
</radialGradient>
<radialGradient id="paint21_radial" cx="0" cy="0" r="1" gradientUnits="userSpaceOnUse" gradientTransform="translate(-12282 168.011) scale(8.988 8.652)">
<stop stop-color="white"/>
<stop offset="1"/>
</radialGradient>
<radialGradient id="paint22_radial" cx="0" cy="0" r="1" gradientUnits="userSpaceOnUse" gradientTransform="translate(-11805.6 146.989) scale(8.652 8.64997)">
<stop stop-color="white"/>
<stop offset="1"/>
</radialGradient>
<radialGradient id="paint23_radial" cx="0" cy="0" r="1" gradientUnits="userSpaceOnUse" gradientTransform="translate(-11767.2 311.555) scale(8.652 8.64955)">
<stop stop-color="white"/>
<stop offset="1"/>
</radialGradient>
<radialGradient id="paint24_radial" cx="0" cy="0" r="1" gradientUnits="userSpaceOnUse" gradientTransform="translate(-11767.2 275.672) scale(8.652 8.64955)">
<stop stop-color="white"/>
<stop offset="1"/>
</radialGradient>
<radialGradient id="paint25_radial" cx="0" cy="0" r="1" gradientUnits="userSpaceOnUse" gradientTransform="translate(-11767.2 239.73) scale(8.652 8.6492)">
<stop stop-color="white"/>
<stop offset="1"/>
</radialGradient>
<radialGradient id="paint26_radial" cx="0" cy="0" r="1" gradientUnits="userSpaceOnUse" gradientTransform="translate(-11767.2 203.865) scale(8.652 8.64956)">
<stop stop-color="white"/>
<stop offset="1"/>
</radialGradient>
<radialGradient id="paint27_radial" cx="0" cy="0" r="1" gradientUnits="userSpaceOnUse" gradientTransform="translate(-11770.2 167.972) scale(8.652 8.64956)">
<stop stop-color="white"/>
<stop offset="1"/>
</radialGradient>
<radialGradient id="paint28_radial" cx="0" cy="0" r="1" gradientUnits="userSpaceOnUse" gradientTransform="translate(-11786.1 146.984) scale(8.652 8.64957)">
<stop stop-color="white"/>
<stop offset="1"/>
</radialGradient>
<clipPath id="clip0">
<rect width="92.25" height="119.37" fill="white" transform="translate(0 0.496582)"/>
</clipPath>
</defs>
</svg>
