<svg width="56" height="121" viewBox="0 0 56 121" fill="none" xmlns="http://www.w3.org/2000/svg">
<g clip-path="url(#clip0)">
<g style="mix-blend-mode:multiply">
<g style="mix-blend-mode:multiply">
<path style="mix-blend-mode:multiply" d="M3.10443 100.547L40.6144 120.637L55.9644 116.287L16.3044 94.8767L3.10443 100.547Z" fill="url(#paint0_linear)"/>
</g>
</g>
<path d="M29.8744 33.2067C29.8621 33.1157 29.8164 33.0326 29.7461 32.9735C29.6759 32.9143 29.5862 32.8834 29.4944 32.8867C29.3927 32.8867 29.295 32.9264 29.2221 32.9974C29.1493 33.0684 29.1071 33.165 29.1044 33.2667C29.1044 33.2667 29.1044 33.3267 29.1044 33.3667C30.8644 41.4267 29.4044 51.5667 24.1044 60.5767C24.0631 60.6234 24.0416 60.6844 24.0444 60.7467C24.0444 60.8352 24.0788 60.9202 24.1405 60.9837C24.2021 61.0471 24.286 61.0841 24.3744 61.0867C24.4386 61.0865 24.5014 61.0686 24.556 61.0351C24.6107 61.0016 24.6551 60.9537 24.6844 60.8967C27.6439 55.8944 29.5528 50.3414 30.2944 44.5767C30.7956 40.7901 30.6536 36.946 29.8744 33.2067Z" fill="url(#paint1_linear)"/>
<path d="M29.9444 42.2866C31.5295 42.2866 32.8144 41.0017 32.8144 39.4166C32.8144 37.8316 31.5295 36.5466 29.9444 36.5466C28.3594 36.5466 27.0744 37.8316 27.0744 39.4166C27.0744 41.0017 28.3594 42.2866 29.9444 42.2866Z" fill="url(#paint2_linear)"/>
<path d="M29.0844 49.7466C30.6695 49.7466 31.9544 48.4616 31.9544 46.8766C31.9544 45.2915 30.6695 44.0066 29.0844 44.0066C27.4994 44.0066 26.2144 45.2915 26.2144 46.8766C26.2144 48.4616 27.4994 49.7466 29.0844 49.7466Z" fill="url(#paint3_linear)"/>
<path d="M26.8145 56.9766C28.3995 56.9766 29.6845 55.6916 29.6845 54.1066C29.6845 52.5215 28.3995 51.2366 26.8145 51.2366C25.2294 51.2366 23.9445 52.5215 23.9445 54.1066C23.9445 55.6916 25.2294 56.9766 26.8145 56.9766Z" fill="url(#paint4_linear)"/>
<path d="M11.8544 57.0167C11.7395 57.013 11.6298 56.9672 11.5463 56.888C11.4628 56.8089 11.4113 56.7018 11.4014 56.5872C11.3916 56.4726 11.4241 56.3583 11.4928 56.2661C11.5616 56.1738 11.6618 56.11 11.7744 56.0867L25.8444 53.6467C25.9075 53.6286 25.9736 53.6239 26.0385 53.6328C26.1035 53.6418 26.1658 53.6643 26.2216 53.6988C26.2773 53.7333 26.3252 53.779 26.3622 53.8332C26.3992 53.8873 26.4245 53.9485 26.4364 54.013C26.4483 54.0775 26.4466 54.1437 26.4314 54.2075C26.4162 54.2713 26.3878 54.3312 26.348 54.3833C26.3083 54.4355 26.2581 54.4787 26.2006 54.5103C26.1432 54.5419 26.0798 54.5611 26.0144 54.5667L11.9344 57.0067L11.8544 57.0167Z" fill="url(#paint5_linear)"/>
<path d="M19.2245 48.2765C19.1627 48.2798 19.101 48.2709 19.0427 48.2503C18.9844 48.2297 18.9308 48.1979 18.8848 48.1565C18.8388 48.1152 18.8015 48.0652 18.7748 48.0095C18.7481 47.9537 18.7327 47.8932 18.7295 47.8315C18.7262 47.7698 18.7351 47.708 18.7557 47.6498C18.7763 47.5915 18.8081 47.5378 18.8494 47.4918C18.8908 47.4459 18.9407 47.4085 18.9965 47.3819C19.0523 47.3552 19.1127 47.3398 19.1745 47.3365L28.5745 46.4065C28.6982 46.3977 28.8207 46.4361 28.9172 46.5141C29.0137 46.592 29.077 46.7037 29.0945 46.8265C29.1056 46.9497 29.0678 47.0723 28.9892 47.1678C28.9106 47.2632 28.7975 47.3239 28.6745 47.3365L19.2645 48.2765H19.2245Z" fill="url(#paint6_linear)"/>
<path d="M11.7945 41.3866C11.6758 41.3894 11.5606 41.3462 11.473 41.2661C11.3854 41.186 11.3322 41.0751 11.3245 40.9566C11.3162 40.8335 11.3566 40.712 11.437 40.6185C11.5175 40.525 11.6315 40.4668 11.7545 40.4566L29.9045 38.9466C30.027 38.9408 30.147 38.9822 30.24 39.0621C30.333 39.1421 30.3918 39.2546 30.4045 39.3766C30.4099 39.4383 30.4031 39.5006 30.3845 39.5597C30.3658 39.6188 30.3356 39.6737 30.2956 39.7211C30.2557 39.7685 30.2067 39.8075 30.1516 39.8359C30.0965 39.8643 30.0363 39.8815 29.9745 39.8866L11.8245 41.3866H11.7945Z" fill="url(#paint7_linear)"/>
<path d="M11.1944 57.2767C11.0825 57.2783 10.9736 57.24 10.8875 57.1685C10.8013 57.097 10.7435 56.997 10.7244 56.8867C10.7041 56.7622 10.7336 56.6346 10.8066 56.5317C10.8796 56.4288 10.9902 56.3587 11.1144 56.3367L19.1144 54.7767C19.1755 54.7652 19.2383 54.7659 19.2991 54.7788C19.36 54.7917 19.4176 54.8165 19.4688 54.8519C19.5199 54.8872 19.5636 54.9324 19.5972 54.9847C19.6308 55.037 19.6536 55.0955 19.6644 55.1567C19.6848 55.2812 19.6553 55.4088 19.5823 55.5117C19.5093 55.6146 19.3987 55.6847 19.2744 55.7067L11.2744 57.2667L11.1944 57.2767Z" fill="url(#paint8_linear)"/>
<path d="M6.77445 41.8365C6.65862 41.835 6.54723 41.7916 6.46085 41.7144C6.37447 41.6373 6.31892 41.5314 6.30445 41.4165C6.29315 41.2896 6.33173 41.1633 6.41201 41.0643C6.49228 40.9654 6.60794 40.9016 6.73445 40.8865L16.4945 40.0865C16.557 40.081 16.62 40.0882 16.6798 40.1075C16.7395 40.1268 16.7948 40.1578 16.8423 40.1989C16.8899 40.2399 16.9287 40.29 16.9565 40.3463C16.9844 40.4025 17.0007 40.4638 17.0045 40.5265C17.0129 40.6507 16.9727 40.7732 16.8925 40.8684C16.8123 40.9635 16.6983 41.0238 16.5745 41.0365L6.81445 41.8365H6.77445Z" fill="url(#paint9_linear)"/>
<path d="M7.31445 49.5166C7.19799 49.5173 7.08544 49.4747 6.99861 49.3971C6.91177 49.3195 6.85684 49.2124 6.84445 49.0966C6.8361 49.0346 6.84048 48.9715 6.85734 48.9113C6.87419 48.851 6.90316 48.7948 6.94248 48.7462C6.98179 48.6975 7.03062 48.6573 7.08598 48.6282C7.14134 48.599 7.20207 48.5815 7.26445 48.5766L23.0944 46.9866C23.2182 46.9778 23.3407 47.0162 23.4372 47.0942C23.5337 47.1721 23.597 47.2838 23.6144 47.4066C23.6214 47.4697 23.6157 47.5335 23.5978 47.5944C23.5799 47.6553 23.55 47.712 23.5101 47.7613C23.4701 47.8106 23.4207 47.8515 23.3648 47.8816C23.3089 47.9117 23.2476 47.9304 23.1844 47.9366L7.36445 49.5166H7.31445Z" fill="url(#paint10_linear)"/>
<path d="M19.6044 106.387L19.0644 105.927C24.5844 99.4465 27.8044 76.7365 18.2744 67.7165C9.72444 59.6265 5.68444 51.1865 6.27444 42.6065C6.80181 36.4627 9.40042 30.6802 13.6444 26.2065C19.9844 19.3965 24.7144 13.2665 24.7644 13.2065L25.3244 13.6365C25.3244 13.6965 20.5344 19.8565 14.1644 26.6865C9.95444 31.1965 -2.11556 47.4565 18.7544 67.1965C24.7544 72.8865 25.2744 82.6365 25.0344 87.9365C24.6944 95.4465 22.4944 103.037 19.6044 106.387Z" fill="url(#paint11_linear)"/>
<path d="M24.0445 60.4365L24.6345 60.7665C22.711 64.0639 20.3569 67.0905 17.6345 69.7665C3.26445 83.9265 4.24446 98.9465 4.25446 99.0965L3.54446 99.1565C3.49446 98.9965 2.49446 83.6665 17.1545 69.2765C19.8338 66.6491 22.1509 63.6763 24.0445 60.4365Z" fill="url(#paint12_linear)"/>
<path d="M29.8644 32.7767L29.0944 32.9367C28.3445 28.9931 26.5051 25.3384 23.7844 22.3867C13.8544 12.2767 13.0544 4.27671 13.0244 3.94671L13.7344 3.87671C13.7344 3.94671 14.5644 11.9367 24.2944 21.8767C27.1386 24.9144 29.069 28.6921 29.8644 32.7767Z" fill="url(#paint13_linear)"/>
<path d="M21.1044 67.2767C21.1064 67.8527 20.9374 68.4163 20.6189 68.8961C20.3003 69.376 19.8465 69.7505 19.315 69.9723C18.7834 70.1941 18.198 70.2532 17.6329 70.142C17.0677 70.0309 16.5483 69.7545 16.1403 69.3479C15.7323 68.9414 15.4542 68.4229 15.3411 67.8581C15.228 67.2934 15.2851 66.7077 15.505 66.1754C15.725 65.6431 16.0979 65.188 16.5767 64.8678C17.0555 64.5476 17.6185 64.3767 18.1944 64.3767C18.9645 64.3767 19.7031 64.6819 20.2486 65.2255C20.794 65.7691 21.1018 66.5067 21.1044 67.2767Z" fill="url(#paint14_linear)"/>
<path d="M21.1045 20.9066C21.1045 21.4821 20.9338 22.0448 20.614 22.5233C20.2943 23.0019 19.8398 23.3748 19.3081 23.5951C18.7763 23.8153 18.1912 23.873 17.6267 23.7607C17.0623 23.6484 16.5437 23.3713 16.1368 22.9643C15.7298 22.5573 15.4527 22.0388 15.3404 21.4743C15.2281 20.9098 15.2857 20.3247 15.506 19.793C15.7262 19.2613 16.0992 18.8068 16.5777 18.487C17.0563 18.1673 17.6189 17.9966 18.1945 17.9966C18.577 17.9953 18.956 18.0696 19.3096 18.2154C19.6633 18.3612 19.9846 18.5755 20.2551 18.846C20.5256 19.1165 20.7399 19.4378 20.8856 19.7914C21.0314 20.1451 21.1058 20.5241 21.1045 20.9066Z" fill="url(#paint15_linear)"/>
<path d="M27.6945 12.9666C27.6925 13.5398 27.5207 14.0995 27.2009 14.5751C26.881 15.0506 26.4274 15.4208 25.8973 15.6388C25.3672 15.8567 24.7845 15.9127 24.2226 15.7997C23.6607 15.6867 23.1449 15.4097 22.7403 15.0037C22.3358 14.5978 22.0606 14.081 21.9495 13.5187C21.8384 12.9565 21.8964 12.3739 22.1162 11.8446C22.336 11.3152 22.7077 10.8629 23.1843 10.5447C23.661 10.2265 24.2213 10.0566 24.7945 10.0566C25.1761 10.0566 25.5541 10.132 25.9065 10.2783C26.259 10.4247 26.5792 10.6392 26.8486 10.9096C27.118 11.1799 27.3314 11.5008 27.4766 11.8538C27.6217 12.2068 27.6958 12.585 27.6945 12.9666Z" fill="url(#paint16_linear)"/>
<path d="M29.6444 24.6366C29.6464 25.2125 29.4774 25.7761 29.1589 26.256C28.8403 26.7359 28.3866 27.1104 27.855 27.3322C27.3234 27.554 26.738 27.613 26.1729 27.5019C25.6077 27.3907 25.0883 27.1144 24.6803 26.7078C24.2724 26.3012 23.9942 25.7827 23.8811 25.218C23.768 24.6532 23.8251 24.0676 24.045 23.5353C24.265 23.003 24.6379 22.5479 25.1167 22.2277C25.5955 21.9075 26.1585 21.7366 26.7344 21.7366C27.5045 21.7366 28.2432 22.0418 28.7886 22.5854C29.334 23.1289 29.6418 23.8665 29.6444 24.6366Z" fill="url(#paint17_linear)"/>
<path d="M32.2344 31.9466C32.2344 32.5202 32.0644 33.0809 31.7457 33.5578C31.4271 34.0347 30.9741 34.4064 30.4442 34.6259C29.9143 34.8454 29.3312 34.9028 28.7687 34.7909C28.2061 34.679 27.6894 34.4028 27.2838 33.9972C26.8783 33.5917 26.6021 33.0749 26.4902 32.5124C26.3783 31.9498 26.4357 31.3668 26.6552 30.8368C26.8747 30.3069 27.2464 29.854 27.7233 29.5354C28.2002 29.2167 28.7609 29.0466 29.3345 29.0466C30.1036 29.0466 30.8412 29.3522 31.3851 29.896C31.9289 30.4399 32.2344 31.1775 32.2344 31.9466Z" fill="url(#paint18_linear)"/>
<path d="M26.1644 60.7267C26.1644 61.2998 25.9946 61.8601 25.6764 62.3368C25.3582 62.8135 24.9058 63.1852 24.3765 63.405C23.8472 63.6247 23.2646 63.6828 22.7023 63.5717C22.1401 63.4606 21.6233 63.1854 21.2174 62.7808C20.8114 62.3762 20.5344 61.8604 20.4214 61.2985C20.3084 60.7367 20.3644 60.1539 20.5823 59.6238C20.8003 59.0937 21.1704 58.6401 21.646 58.3203C22.1216 58.0004 22.6813 57.8287 23.2544 57.8267C23.6361 57.8254 24.0143 57.8994 24.3673 58.0446C24.7203 58.1897 25.0412 58.4031 25.3115 58.6725C25.5819 58.9419 25.7964 59.2621 25.9427 59.6146C26.0891 59.9671 26.1644 60.345 26.1644 60.7267Z" fill="url(#paint19_linear)"/>
<path d="M15.2944 73.4366C15.2944 74.0102 15.1244 74.5709 14.8057 75.0478C14.4871 75.5247 14.0341 75.8964 13.5042 76.1159C12.9743 76.3354 12.3912 76.3928 11.8287 76.2809C11.2661 76.169 10.7494 75.8928 10.3438 75.4872C9.93827 75.0817 9.66207 74.5649 9.55017 74.0024C9.43827 73.4398 9.4957 72.8567 9.7152 72.3268C9.93469 71.7969 10.3064 71.344 10.7833 71.0254C11.2602 70.7067 11.8209 70.5366 12.3944 70.5366C13.1636 70.5366 13.9012 70.8422 14.4451 71.386C14.9889 71.9299 15.2944 72.6675 15.2944 73.4366Z" fill="url(#paint20_linear)"/>
<path d="M10.9545 80.4266C10.9545 81.0002 10.7844 81.5609 10.4657 82.0378C10.1471 82.5147 9.69414 82.8864 9.16423 83.1059C8.63433 83.3254 8.05123 83.3828 7.48869 83.2709C6.92614 83.159 6.40941 82.8828 6.00384 82.4772C5.59827 82.0716 5.32207 81.5549 5.21017 80.9924C5.09828 80.4298 5.15571 79.8467 5.3752 79.3168C5.59469 78.7869 5.96639 78.334 6.4433 78.0154C6.9202 77.6967 7.48089 77.5266 8.05445 77.5266C8.82358 77.5266 9.56121 77.8321 10.1051 78.376C10.6489 78.9199 10.9545 79.6575 10.9545 80.4266Z" fill="url(#paint21_linear)"/>
<path d="M7.36444 89.5565C7.36438 90.1337 7.19266 90.6979 6.8711 91.1773C6.54954 91.6567 6.09268 92.0296 5.55861 92.2486C5.02454 92.4676 4.4374 92.5229 3.87185 92.4073C3.3063 92.2918 2.7879 92.0106 2.38256 91.5996C1.97723 91.1887 1.70328 90.6664 1.59556 90.0993C1.48783 89.5322 1.5512 88.9459 1.7776 88.4149C2.00399 87.8839 2.38319 87.4323 2.86697 87.1174C3.35075 86.8025 3.91725 86.6386 4.49444 86.6465C5.26009 86.6544 5.99154 86.9648 6.5292 87.51C7.06687 88.0551 7.36712 88.7908 7.36444 89.5565Z" fill="url(#paint22_linear)"/>
<path d="M6.29445 98.3565C6.29445 98.9301 6.12436 99.4908 5.80571 99.9677C5.48705 100.445 5.03413 100.816 4.50423 101.036C3.97432 101.255 3.39123 101.313 2.82869 101.201C2.26614 101.089 1.74941 100.813 1.34384 100.407C0.938265 100.002 0.662067 99.4848 0.55017 98.9223C0.438273 98.3598 0.495702 97.7767 0.715196 97.2468C0.934691 96.7169 1.30639 96.2639 1.78329 95.9453C2.2602 95.6266 2.82088 95.4565 3.39445 95.4565C4.16357 95.4565 4.9012 95.7621 5.44506 96.3059C5.98891 96.8498 6.29445 97.5874 6.29445 98.3565Z" fill="url(#paint23_linear)"/>
<path d="M20.3145 105.677C20.2548 105.686 20.1941 105.686 20.1345 105.677L3.56446 98.8865C3.49795 98.8696 3.43585 98.8385 3.38235 98.7955C3.32885 98.7525 3.2852 98.6986 3.25433 98.6372C3.22347 98.5759 3.20611 98.5087 3.20343 98.4401C3.20075 98.3716 3.21281 98.3032 3.2388 98.2397C3.26479 98.1761 3.3041 98.1189 3.35408 98.0719C3.40407 98.0248 3.46356 97.9891 3.52854 97.967C3.59352 97.9449 3.66249 97.937 3.73079 97.9438C3.79909 97.9506 3.86513 97.972 3.92446 98.0065L20.4945 104.767C20.6104 104.815 20.7025 104.907 20.7511 105.023C20.7998 105.139 20.8009 105.27 20.7545 105.387C20.7164 105.472 20.6547 105.544 20.5768 105.596C20.4988 105.647 20.4078 105.675 20.3145 105.677Z" fill="url(#paint24_linear)"/>
<path d="M24.2244 91.0366C24.1329 91.0385 24.0427 91.0143 23.9644 90.9666L8.77444 81.2766C8.66897 81.2071 8.59513 81.0989 8.56892 80.9753C8.54271 80.8518 8.56625 80.7229 8.63444 80.6166C8.66791 80.5647 8.71128 80.5199 8.76207 80.4848C8.81286 80.4497 8.87007 80.4249 8.93043 80.4119C8.99079 80.3989 9.05313 80.3979 9.11387 80.409C9.17461 80.4201 9.23257 80.4431 9.28444 80.4766L24.4944 90.1666C24.5471 90.1993 24.5929 90.242 24.6289 90.2925C24.665 90.3429 24.6908 90.3999 24.7047 90.4604C24.7187 90.5208 24.7205 90.5834 24.7102 90.6445C24.6998 90.7056 24.6775 90.7641 24.6444 90.8166C24.601 90.8879 24.539 90.9461 24.465 90.9849C24.391 91.0236 24.3078 91.0415 24.2244 91.0366Z" fill="url(#paint25_linear)"/>
<path d="M23.9845 75.7366C23.9143 75.7358 23.8451 75.7203 23.7814 75.691C23.7176 75.6617 23.6608 75.6193 23.6145 75.5666L17.5545 68.2766C17.4749 68.1798 17.437 68.0554 17.4492 67.9307C17.4614 67.8059 17.5227 67.6912 17.6195 67.6116C17.7163 67.5321 17.8407 67.4942 17.9654 67.5064C18.0901 67.5186 18.2049 67.5798 18.2845 67.6766L24.3445 74.9966C24.4243 75.0939 24.4627 75.2186 24.4515 75.3439C24.4402 75.4692 24.3803 75.5851 24.2845 75.6666C24.1965 75.7262 24.0897 75.7511 23.9845 75.7366Z" fill="url(#paint26_linear)"/>
<path d="M25.4945 84.5567C25.387 84.5523 25.283 84.5177 25.1945 84.4567L12.8045 74.5767C12.7072 74.4966 12.6453 74.3814 12.6322 74.2561C12.6191 74.1307 12.6558 74.0052 12.7345 73.9067C12.8129 73.8108 12.9253 73.7489 13.0484 73.734C13.1714 73.719 13.2954 73.7523 13.3945 73.8267L25.8145 83.7067C25.9133 83.7854 25.9771 83.8999 25.992 84.0253C26.007 84.1507 25.972 84.277 25.8945 84.3767C25.848 84.4377 25.7871 84.486 25.7173 84.5175C25.6474 84.5489 25.5708 84.5624 25.4945 84.5567Z" fill="url(#paint27_linear)"/>
<path d="M21.5545 97.9767C21.4856 97.995 21.4133 97.995 21.3445 97.9767L4.78445 89.9767C4.72847 89.95 4.67834 89.9124 4.63694 89.8662C4.59554 89.82 4.5637 89.7661 4.54325 89.7075C4.52279 89.649 4.51414 89.5869 4.51778 89.525C4.52142 89.4631 4.53728 89.4025 4.56445 89.3467C4.5901 89.2898 4.62706 89.2387 4.67309 89.1965C4.71912 89.1543 4.77326 89.122 4.8322 89.1014C4.89114 89.0808 4.95365 89.0724 5.01593 89.0768C5.07821 89.0812 5.13895 89.0981 5.19445 89.1267L21.7545 97.1267C21.8113 97.1525 21.8624 97.1894 21.9049 97.2352C21.9473 97.281 21.9802 97.3348 22.0016 97.3935C22.023 97.4521 22.0325 97.5145 22.0296 97.5768C22.0266 97.6392 22.0113 97.7004 21.9845 97.7567C21.9379 97.8274 21.8738 97.8848 21.7984 97.9234C21.7231 97.9619 21.639 97.9803 21.5545 97.9767Z" fill="url(#paint28_linear)"/>
<path d="M22.8545 104.847C22.8564 105.421 22.6878 105.983 22.3699 106.461C22.052 106.94 21.5992 107.313 21.0689 107.534C20.5386 107.755 19.9546 107.813 19.3912 107.701C18.8277 107.59 18.31 107.313 17.9039 106.907C17.4977 106.501 17.2213 105.983 17.1097 105.42C16.9981 104.856 17.0564 104.272 17.2771 103.742C17.4979 103.212 17.8711 102.759 18.3496 102.441C18.828 102.123 19.39 101.955 19.9645 101.957C20.7309 101.957 21.466 102.261 22.008 102.803C22.55 103.345 22.8545 104.08 22.8545 104.847Z" fill="url(#paint29_linear)"/>
<path d="M26.1145 98.1566C26.1145 98.7302 25.9444 99.2908 25.6257 99.7677C25.3071 100.245 24.8541 100.616 24.3242 100.836C23.7943 101.055 23.2112 101.113 22.6487 101.001C22.0861 100.889 21.5694 100.613 21.1638 100.207C20.7583 99.8016 20.4821 99.2849 20.3702 98.7224C20.2583 98.1598 20.3157 97.5767 20.5352 97.0468C20.7547 96.5169 21.1264 96.064 21.6033 95.7453C22.0802 95.4267 22.6409 95.2566 23.2145 95.2566C23.9836 95.2566 24.7212 95.5621 25.2651 96.106C25.8089 96.6498 26.1145 97.3875 26.1145 98.1566Z" fill="url(#paint30_linear)"/>
<path d="M27.9945 83.7467C27.9964 84.3231 27.8272 84.8871 27.5082 85.3672C27.1892 85.8472 26.7348 86.2218 26.2027 86.4433C25.6705 86.6647 25.0846 86.7232 24.5192 86.6113C23.9538 86.4993 23.4344 86.2219 23.0268 85.8144C22.6192 85.4068 22.3419 84.8874 22.2299 84.3219C22.1179 83.7565 22.1764 83.1706 22.3979 82.6385C22.6194 82.1063 22.9939 81.6519 23.474 81.3329C23.9541 81.014 24.5181 80.8447 25.0945 80.8467C25.8636 80.8467 26.6012 81.1522 27.1451 81.6961C27.6889 82.2399 27.9945 82.9776 27.9945 83.7467Z" fill="url(#paint31_linear)"/>
<path d="M26.8844 75.9667C26.8844 76.5402 26.7144 77.1009 26.3957 77.5778C26.077 78.0547 25.6241 78.4264 25.0942 78.6459C24.5643 78.8654 23.9812 78.9228 23.4187 78.8109C22.8561 78.699 22.3394 78.4228 21.9338 78.0173C21.5283 77.6117 21.2521 77.095 21.1402 76.5324C21.0283 75.9699 21.0857 75.3868 21.3052 74.8569C21.5247 74.327 21.8964 73.874 22.3733 73.5554C22.8502 73.2367 23.4109 73.0667 23.9844 73.0667C24.7536 73.0667 25.4912 73.3722 26.0351 73.916C26.5789 74.4599 26.8844 75.1975 26.8844 75.9667Z" fill="url(#paint32_linear)"/>
<path d="M23.7044 68.6666C23.7044 69.2402 23.5344 69.8009 23.2157 70.2778C22.8971 70.7547 22.4441 71.1264 21.9142 71.3459C21.3843 71.5654 20.8012 71.6228 20.2387 71.5109C19.6761 71.399 19.1594 71.1228 18.7538 70.7172C18.3483 70.3116 18.0721 69.7949 17.9602 69.2324C17.8483 68.6698 17.9057 68.0867 18.1252 67.5568C18.3447 67.0269 18.7164 66.574 19.1933 66.2553C19.6702 65.9367 20.2309 65.7666 20.8045 65.7666C21.5736 65.7666 22.3112 66.0721 22.8551 66.616C23.3989 67.1599 23.7044 67.8975 23.7044 68.6666Z" fill="url(#paint33_linear)"/>
<path d="M16.6244 62.5865C16.5175 62.5849 16.4142 62.5476 16.3308 62.4806C16.2475 62.4136 16.1889 62.3206 16.1645 62.2165C16.1512 62.1561 16.15 62.0937 16.161 62.0328C16.1719 61.9719 16.1948 61.9138 16.2282 61.8618C16.2617 61.8098 16.305 61.7649 16.3559 61.7296C16.4067 61.6944 16.464 61.6696 16.5245 61.6565L22.5245 60.2665C22.5849 60.2517 22.6476 60.249 22.7091 60.2585C22.7706 60.2681 22.8296 60.2899 22.8826 60.3224C22.9356 60.355 22.9816 60.3977 23.018 60.4482C23.0544 60.4987 23.0804 60.5559 23.0945 60.6165C23.1093 60.6783 23.1117 60.7423 23.1016 60.805C23.0915 60.8677 23.069 60.9277 23.0355 60.9817C23.002 61.0356 22.9582 61.0824 22.9065 61.1193C22.8548 61.1561 22.7964 61.1824 22.7344 61.1965L16.7344 62.5765L16.6244 62.5865Z" fill="url(#paint34_linear)"/>
<path d="M18.1945 62.6866C18.1964 63.2606 18.028 63.8223 17.7106 64.3005C17.3931 64.7787 16.9409 65.152 16.4112 65.373C15.8815 65.594 15.298 65.6529 14.7348 65.5421C14.1716 65.4314 13.654 65.156 13.2474 64.7508C12.8408 64.3456 12.5636 63.8289 12.4509 63.2661C12.3382 62.7033 12.3951 62.1197 12.6143 61.5892C12.8335 61.0587 13.2051 60.6052 13.6823 60.2861C14.1594 59.967 14.7205 59.7966 15.2945 59.7966C16.0619 59.7966 16.798 60.1008 17.3415 60.6425C17.8851 61.1842 18.1918 61.9192 18.1945 62.6866Z" fill="url(#paint35_linear)"/>
<path d="M9.49446 34.0367C9.38033 34.0201 9.27599 33.9629 9.20054 33.8757C9.12508 33.7885 9.08356 33.677 9.08356 33.5617C9.08356 33.4464 9.12508 33.3349 9.20054 33.2477C9.27599 33.1604 9.38033 33.1033 9.49446 33.0867L29.0245 31.4767C29.0862 31.4712 29.1485 31.478 29.2076 31.4967C29.2667 31.5154 29.3216 31.5456 29.369 31.5855C29.4164 31.6255 29.4554 31.6745 29.4838 31.7296C29.5122 31.7847 29.5294 31.8449 29.5345 31.9067C29.5431 32.032 29.5032 32.1557 29.4232 32.2525C29.3432 32.3493 29.2291 32.4116 29.1045 32.4267L9.49446 34.0367Z" fill="url(#paint36_linear)"/>
<path d="M13.1944 27.3266C13.0822 27.3275 12.9734 27.2874 12.8887 27.2137C12.8039 27.14 12.7491 27.0379 12.7344 26.9266C12.7229 26.8655 12.7236 26.8027 12.7365 26.7419C12.7494 26.681 12.7743 26.6234 12.8096 26.5722C12.8449 26.5211 12.8901 26.4774 12.9424 26.4438C12.9947 26.4103 13.0532 26.3874 13.1144 26.3766L25.8044 24.2766C25.9209 24.2733 26.0346 24.3125 26.1243 24.3868C26.214 24.4612 26.2736 24.5657 26.292 24.6807C26.3103 24.7958 26.2862 24.9136 26.2241 25.0122C26.162 25.1108 26.0662 25.1834 25.9544 25.2166L13.2744 27.2766L13.1944 27.3266Z" fill="url(#paint37_linear)"/>
<path d="M24.2744 12.6665C24.1632 12.6641 24.0566 12.6215 23.9744 12.5465L12.8844 3.0165C12.8358 2.97644 12.7956 2.92721 12.7661 2.87161C12.7365 2.81602 12.7182 2.75514 12.7121 2.69246C12.7061 2.62978 12.7125 2.56652 12.7309 2.50631C12.7493 2.44609 12.7794 2.39009 12.8194 2.3415C12.8595 2.29291 12.9087 2.25268 12.9643 2.22312C13.0199 2.19356 13.0808 2.17524 13.1435 2.1692C13.2062 2.16316 13.2694 2.16953 13.3296 2.18794C13.3898 2.20635 13.4458 2.23644 13.4944 2.2765L24.5744 11.8065C24.6223 11.8468 24.6616 11.8963 24.6901 11.952C24.7186 12.0077 24.7357 12.0686 24.7403 12.131C24.745 12.1934 24.7371 12.2561 24.7172 12.3154C24.6973 12.3748 24.6658 12.4295 24.6244 12.4765C24.5831 12.5314 24.5305 12.5767 24.4701 12.6095C24.4097 12.6423 24.343 12.6617 24.2744 12.6665Z" fill="url(#paint38_linear)"/>
<path d="M18.6945 21.5666C18.591 21.5661 18.49 21.5348 18.4045 21.4766C18.3041 21.3993 18.2384 21.2856 18.2215 21.1601C18.2046 21.0346 18.2381 20.9075 18.3145 20.8066L20.7245 17.5366C20.7611 17.4865 20.8072 17.4441 20.8603 17.4119C20.9133 17.3797 20.9723 17.3584 21.0336 17.3491C21.095 17.3398 21.1576 17.3427 21.2178 17.3577C21.278 17.3727 21.3346 17.3995 21.3845 17.4366C21.4346 17.4732 21.4769 17.5193 21.5091 17.5724C21.5413 17.6255 21.5627 17.6844 21.572 17.7457C21.5813 17.8071 21.5783 17.8697 21.5633 17.9299C21.5483 17.9901 21.5215 18.0468 21.4845 18.0966L19.0745 21.3766C19.0305 21.4359 18.9732 21.484 18.9071 21.517C18.8411 21.55 18.7683 21.567 18.6945 21.5666Z" fill="url(#paint39_linear)"/>
<path d="M16.0944 3.17661C16.0944 3.75018 15.9244 4.31086 15.6057 4.78777C15.287 5.26467 14.8341 5.63637 14.3042 5.85586C13.7743 6.07536 13.1912 6.13279 12.6287 6.02089C12.0661 5.90899 11.5494 5.63279 11.1438 5.22722C10.7383 4.82165 10.4621 4.30492 10.3502 3.74237C10.2383 3.17983 10.2957 2.59674 10.5152 2.06683C10.7347 1.53692 11.1064 1.08401 11.5833 0.765349C12.0602 0.446693 12.6209 0.276611 13.1944 0.276611C13.9636 0.276611 14.7012 0.582146 15.245 1.126C15.7889 1.66986 16.0944 2.40748 16.0944 3.17661Z" fill="url(#paint40_linear)"/>
<path d="M18.6945 10.1066C18.6944 10.6825 18.5235 11.2455 18.2033 11.7243C17.8831 12.2031 17.4281 12.576 16.8957 12.796C16.3634 13.0159 15.7778 13.073 15.2131 12.9599C14.6483 12.8468 14.1298 12.5686 13.7232 12.1607C13.3167 11.7527 13.0403 11.2332 12.9292 10.6681C12.818 10.103 12.8771 9.51755 13.0988 8.986C13.3206 8.45444 13.6952 8.00065 14.175 7.68211C14.6549 7.36356 15.2185 7.19457 15.7945 7.19655C16.1761 7.19655 16.5541 7.27189 16.9065 7.41825C17.259 7.56462 17.5792 7.77912 17.8486 8.04947C18.118 8.31982 18.3314 8.6407 18.4766 8.9937C18.6217 9.3467 18.6958 9.72488 18.6945 10.1066Z" fill="url(#paint41_linear)"/>
<path d="M16.0944 26.8565C16.0925 27.4297 15.9207 27.9894 15.6009 28.465C15.281 28.9405 14.8274 29.3107 14.2973 29.5286C13.7672 29.7466 13.1845 29.8026 12.6226 29.6896C12.0607 29.5766 11.5449 29.2996 11.1403 28.8936C10.7358 28.4876 10.4606 27.9709 10.3495 27.4086C10.2384 26.8464 10.2964 26.2638 10.5162 25.7345C10.736 25.2051 11.1077 24.7528 11.5843 24.4346C12.061 24.1164 12.6213 23.9465 13.1944 23.9465C13.9645 23.9492 14.7021 24.2569 15.2457 24.8024C15.7892 25.3478 16.0945 26.0865 16.0944 26.8565Z" fill="url(#paint42_linear)"/>
<path d="M11.6544 33.5565C11.6564 34.1305 11.488 34.6922 11.1706 35.1704C10.8531 35.6486 10.4009 36.0218 9.87117 36.2429C9.34145 36.4639 8.75804 36.5228 8.19484 36.412C7.63164 36.3012 7.11397 36.0258 6.7074 35.6207C6.30082 35.2155 6.02363 34.6988 5.91092 34.136C5.79821 33.5731 5.85505 32.9895 6.07425 32.459C6.29345 31.9286 6.66514 31.475 7.14226 31.1559C7.61937 30.8368 8.18045 30.6665 8.75445 30.6665C9.52184 30.6665 10.258 30.9707 10.8015 31.5124C11.3451 32.0541 11.6518 32.7891 11.6544 33.5565Z" fill="url(#paint43_linear)"/>
<path d="M9.70445 40.9666C9.70445 41.5402 9.53437 42.1009 9.21571 42.5778C8.89706 43.0547 8.44414 43.4264 7.91423 43.6459C7.38433 43.8654 6.80123 43.9228 6.23869 43.8109C5.67614 43.699 5.15941 43.4228 4.75384 43.0173C4.34827 42.6117 4.07207 42.095 3.96017 41.5324C3.84828 40.9699 3.90571 40.3868 4.1252 39.8569C4.34469 39.327 4.71639 38.874 5.1933 38.5554C5.6702 38.2367 6.23088 38.0667 6.80445 38.0667C7.57358 38.0667 8.3112 38.3722 8.85506 38.916C9.39892 39.4599 9.70445 40.1975 9.70445 40.9666Z" fill="url(#paint44_linear)"/>
<path d="M13.7044 56.3665C13.7044 56.9421 13.5338 57.5047 13.214 57.9833C12.8943 58.4618 12.4398 58.8348 11.908 59.055C11.3763 59.2753 10.7912 59.3329 10.2267 59.2206C9.66223 59.1083 9.14372 58.8312 8.73675 58.4242C8.32978 58.0173 8.05263 57.4987 7.94035 56.9343C7.82806 56.3698 7.88569 55.7847 8.10594 55.2529C8.32619 54.7212 8.69917 54.2667 9.17772 53.947C9.65627 53.6272 10.2189 53.4565 10.7944 53.4565C11.5662 53.4565 12.3064 53.7631 12.8521 54.3089C13.3978 54.8546 13.7044 55.5948 13.7044 56.3665Z" fill="url(#paint45_linear)"/>
<path d="M10.2944 48.6566C10.2944 49.2302 10.1244 49.7908 9.80571 50.2677C9.48705 50.7446 9.03413 51.1163 8.50423 51.3358C7.97432 51.5553 7.39123 51.6128 6.82869 51.5009C6.26614 51.389 5.74941 51.1128 5.34384 50.7072C4.93827 50.3016 4.66207 49.7849 4.55017 49.2224C4.43827 48.6598 4.4957 48.0767 4.7152 47.5468C4.93469 47.0169 5.30639 46.564 5.78329 46.2453C6.2602 45.9267 6.82088 45.7566 7.39445 45.7566C8.16357 45.7566 8.9012 46.0621 9.44506 46.606C9.98891 47.1498 10.2944 47.8875 10.2944 48.6566Z" fill="url(#paint46_linear)"/>
<path d="M27.6345 90.7467C27.6364 91.3207 27.468 91.8823 27.1506 92.3606C26.8331 92.8388 26.3809 93.212 25.8512 93.4331C25.3215 93.6541 24.7381 93.7129 24.1748 93.6022C23.6116 93.4914 23.094 93.216 22.6874 92.8108C22.2808 92.4057 22.0036 91.889 21.8909 91.3261C21.7782 90.7633 21.8351 90.1797 22.0543 89.6492C22.2735 89.1187 22.6452 88.6652 23.1223 88.3461C23.5994 88.027 24.1605 87.8567 24.7345 87.8567C25.5019 87.8567 26.238 88.1608 26.7815 88.7025C27.3251 89.2442 27.6318 89.9793 27.6345 90.7467Z" fill="url(#paint47_linear)"/>
<path d="M23.8344 17.8065C23.8364 18.3805 23.668 18.9422 23.3506 19.4204C23.0331 19.8986 22.5809 20.2718 22.0512 20.4929C21.5214 20.7139 20.938 20.7728 20.3748 20.662C19.8116 20.5512 19.294 20.2758 18.8874 19.8707C18.4808 19.4655 18.2036 18.9488 18.0909 18.386C17.9782 17.8231 18.035 17.2395 18.2542 16.709C18.4734 16.1786 18.8451 15.725 19.3223 15.4059C19.7994 15.0868 20.3604 14.9165 20.9344 14.9165C21.7018 14.9165 22.438 15.2207 22.9815 15.7624C23.5251 16.304 23.8318 17.0391 23.8344 17.8065Z" fill="url(#paint48_linear)"/>
</g>
<defs>
<linearGradient id="paint0_linear" x1="13.5844" y1="96.9567" x2="39.4411" y2="107.757" gradientUnits="userSpaceOnUse">
<stop stop-color="#DADDE4"/>
<stop offset="0.864583" stop-color="#DADDE4" stop-opacity="0.15"/>
</linearGradient>
<linearGradient id="paint1_linear" x1="24.0644" y1="46.9967" x2="30.5944" y2="46.9967" gradientUnits="userSpaceOnUse">
<stop stop-color="#FF3D49"/>
<stop offset="1" stop-color="#D80C1E"/>
</linearGradient>
<linearGradient id="paint2_linear" x1="197.725" y1="244.851" x2="194.453" y2="277.627" gradientUnits="userSpaceOnUse">
<stop stop-color="#FF3D49"/>
<stop offset="1" stop-color="#D80C1E"/>
</linearGradient>
<linearGradient id="paint3_linear" x1="191.928" y1="295.132" x2="188.656" y2="327.907" gradientUnits="userSpaceOnUse">
<stop stop-color="#FF3D49"/>
<stop offset="1" stop-color="#D80C1E"/>
</linearGradient>
<linearGradient id="paint4_linear" x1="176.628" y1="343.862" x2="173.357" y2="376.637" gradientUnits="userSpaceOnUse">
<stop stop-color="#FF3D49"/>
<stop offset="1" stop-color="#D80C1E"/>
</linearGradient>
<linearGradient id="paint5_linear" x1="19.1244" y1="52.9567" x2="18.6544" y2="57.6967" gradientUnits="userSpaceOnUse">
<stop stop-color="#00A3FF"/>
<stop offset="1" stop-color="#1270E8"/>
</linearGradient>
<linearGradient id="paint6_linear" x1="263.093" y1="131.914" x2="262.997" y2="137.187" gradientUnits="userSpaceOnUse">
<stop stop-color="#FF3D49"/>
<stop offset="1" stop-color="#D80C1E"/>
</linearGradient>
<linearGradient id="paint7_linear" x1="404.05" y1="131.154" x2="403.917" y2="141.554" gradientUnits="userSpaceOnUse">
<stop stop-color="#00A3FF"/>
<stop offset="1" stop-color="#1270E8"/>
</linearGradient>
<linearGradient id="paint8_linear" x1="143.753" y1="190.538" x2="143.519" y2="198.841" gradientUnits="userSpaceOnUse">
<stop stop-color="#00A3FF"/>
<stop offset="1" stop-color="#1270E8"/>
</linearGradient>
<linearGradient id="paint9_linear" x1="127.247" y1="108.982" x2="127.169" y2="113.775" gradientUnits="userSpaceOnUse">
<stop stop-color="#00A3FF"/>
<stop offset="1" stop-color="#1270E8"/>
</linearGradient>
<linearGradient id="paint10_linear" x1="257.488" y1="163.271" x2="257.33" y2="173.7" gradientUnits="userSpaceOnUse">
<stop stop-color="#FF3D49"/>
<stop offset="1" stop-color="#D80C1E"/>
</linearGradient>
<linearGradient id="paint11_linear" x1="115.316" y1="5559.28" x2="480.248" y2="5559.28" gradientUnits="userSpaceOnUse">
<stop stop-color="#00A3FF"/>
<stop offset="1" stop-color="#1270E8"/>
</linearGradient>
<linearGradient id="paint12_linear" x1="67.5108" y1="3139.45" x2="513.382" y2="3139.45" gradientUnits="userSpaceOnUse">
<stop stop-color="#FF3D49"/>
<stop offset="1" stop-color="#D80C1E"/>
</linearGradient>
<linearGradient id="paint13_linear" x1="224.03" y1="530.735" x2="507.615" y2="530.735" gradientUnits="userSpaceOnUse">
<stop stop-color="#FF3D49"/>
<stop offset="1" stop-color="#D80C1E"/>
</linearGradient>
<linearGradient id="paint14_linear" x1="119.986" y1="437.73" x2="116.669" y2="471.369" gradientUnits="userSpaceOnUse">
<stop stop-color="#FF3D49"/>
<stop offset="1" stop-color="#D80C1E"/>
</linearGradient>
<linearGradient id="paint15_linear" x1="119.987" y1="121.244" x2="116.669" y2="154.825" gradientUnits="userSpaceOnUse">
<stop stop-color="#00A3FF"/>
<stop offset="1" stop-color="#1270E8"/>
</linearGradient>
<linearGradient id="paint16_linear" x1="164.517" y1="66.8967" x2="161.153" y2="100.363" gradientUnits="userSpaceOnUse">
<stop stop-color="#00A3FF"/>
<stop offset="1" stop-color="#1270E8"/>
</linearGradient>
<linearGradient id="paint17_linear" x1="178.229" y1="146.75" x2="174.912" y2="180.332" gradientUnits="userSpaceOnUse">
<stop stop-color="#FF3D49"/>
<stop offset="1" stop-color="#D80C1E"/>
</linearGradient>
<linearGradient id="paint18_linear" x1="195.388" y1="195.971" x2="192.024" y2="229.495" gradientUnits="userSpaceOnUse">
<stop stop-color="#FF3D49"/>
<stop offset="1" stop-color="#D80C1E"/>
</linearGradient>
<linearGradient id="paint19_linear" x1="154.112" y1="391.675" x2="150.748" y2="425.199" gradientUnits="userSpaceOnUse">
<stop stop-color="#FF3D49"/>
<stop offset="1" stop-color="#D80C1E"/>
</linearGradient>
<linearGradient id="paint20_linear" x1="80.1965" y1="478.161" x2="76.8325" y2="511.627" gradientUnits="userSpaceOnUse">
<stop stop-color="#FF3D49"/>
<stop offset="1" stop-color="#D80C1E"/>
</linearGradient>
<linearGradient id="paint21_linear" x1="50.6845" y1="525.635" x2="47.3205" y2="559.101" gradientUnits="userSpaceOnUse">
<stop stop-color="#FF3D49"/>
<stop offset="1" stop-color="#D80C1E"/>
</linearGradient>
<linearGradient id="paint22_linear" x1="26.3377" y1="589.436" x2="22.9621" y2="623.018" gradientUnits="userSpaceOnUse">
<stop stop-color="#FF3D49"/>
<stop offset="1" stop-color="#D80C1E"/>
</linearGradient>
<linearGradient id="paint23_linear" x1="18.9965" y1="647.617" x2="15.6325" y2="681.025" gradientUnits="userSpaceOnUse">
<stop stop-color="#FF3D49"/>
<stop offset="1" stop-color="#D80C1E"/>
</linearGradient>
<linearGradient id="paint24_linear" x1="211.239" y1="860.941" x2="209.177" y2="907.692" gradientUnits="userSpaceOnUse">
<stop stop-color="#00A3FF"/>
<stop offset="1" stop-color="#1270E8"/>
</linearGradient>
<linearGradient id="paint25_linear" x1="276.625" y1="940.856" x2="270.218" y2="1037.77" gradientUnits="userSpaceOnUse">
<stop stop-color="#00A3FF"/>
<stop offset="1" stop-color="#1270E8"/>
</linearGradient>
<linearGradient id="paint26_linear" x1="163.46" y1="623.715" x2="156.033" y2="685.988" gradientUnits="userSpaceOnUse">
<stop stop-color="#00A3FF"/>
<stop offset="1" stop-color="#1270E8"/>
</linearGradient>
<linearGradient id="paint27_linear" x1="270.457" y1="876.266" x2="262.096" y2="979.371" gradientUnits="userSpaceOnUse">
<stop stop-color="#FF3D49"/>
<stop offset="1" stop-color="#D80C1E"/>
</linearGradient>
<linearGradient id="paint28_linear" x1="74.9198" y1="920.372" x2="381.575" y2="920.372" gradientUnits="userSpaceOnUse">
<stop stop-color="#FF3D49"/>
<stop offset="1" stop-color="#D80C1E"/>
</linearGradient>
<linearGradient id="paint29_linear" x1="131.605" y1="691.758" x2="128.241" y2="725.224" gradientUnits="userSpaceOnUse">
<stop stop-color="#00A3FF"/>
<stop offset="1" stop-color="#1270E8"/>
</linearGradient>
<linearGradient id="paint30_linear" x1="153.772" y1="646.198" x2="150.409" y2="679.664" gradientUnits="userSpaceOnUse">
<stop stop-color="#00A3FF"/>
<stop offset="1" stop-color="#1270E8"/>
</linearGradient>
<linearGradient id="paint31_linear" x1="166.976" y1="549.823" x2="163.6" y2="583.462" gradientUnits="userSpaceOnUse">
<stop stop-color="#00A3FF"/>
<stop offset="1" stop-color="#1270E8"/>
</linearGradient>
<linearGradient id="paint32_linear" x1="159.008" y1="495.365" x2="155.644" y2="528.831" gradientUnits="userSpaceOnUse">
<stop stop-color="#00A3FF"/>
<stop offset="1" stop-color="#1270E8"/>
</linearGradient>
<linearGradient id="paint33_linear" x1="137.384" y1="445.667" x2="134.02" y2="479.191" gradientUnits="userSpaceOnUse">
<stop stop-color="#00A3FF"/>
<stop offset="1" stop-color="#1270E8"/>
</linearGradient>
<linearGradient id="paint34_linear" x1="150.438" y1="199.545" x2="150.201" y2="206.4" gradientUnits="userSpaceOnUse">
<stop stop-color="#FF3D49"/>
<stop offset="1" stop-color="#D80C1E"/>
</linearGradient>
<linearGradient id="paint35_linear" x1="99.9165" y1="405.07" x2="96.5525" y2="438.536" gradientUnits="userSpaceOnUse">
<stop stop-color="#00A3FF"/>
<stop offset="1" stop-color="#1270E8"/>
</linearGradient>
<linearGradient id="paint36_linear" x1="397.468" y1="108.919" x2="397.322" y2="120.536" gradientUnits="userSpaceOnUse">
<stop stop-color="#FF3D49"/>
<stop offset="1" stop-color="#D80C1E"/>
</linearGradient>
<linearGradient id="paint37_linear" x1="274.117" y1="95.5597" x2="273.819" y2="108.8" gradientUnits="userSpaceOnUse">
<stop stop-color="#00A3FF"/>
<stop offset="1" stop-color="#1270E8"/>
</linearGradient>
<linearGradient id="paint38_linear" x1="237.823" y1="28.5208" x2="229.282" y2="126.188" gradientUnits="userSpaceOnUse">
<stop stop-color="#00A3FF"/>
<stop offset="1" stop-color="#1270E8"/>
</linearGradient>
<linearGradient id="paint39_linear" x1="84.1415" y1="89.0052" x2="81.8195" y2="107.565" gradientUnits="userSpaceOnUse">
<stop stop-color="#FF3D49"/>
<stop offset="1" stop-color="#D80C1E"/>
</linearGradient>
<linearGradient id="paint40_linear" x1="85.6365" y1="0.334612" x2="82.2725" y2="33.8586" gradientUnits="userSpaceOnUse">
<stop stop-color="#FF3D49"/>
<stop offset="1" stop-color="#D80C1E"/>
</linearGradient>
<linearGradient id="paint41_linear" x1="103.55" y1="47.5291" x2="100.175" y2="81.1688" gradientUnits="userSpaceOnUse">
<stop stop-color="#FF3D49"/>
<stop offset="1" stop-color="#D80C1E"/>
</linearGradient>
<linearGradient id="paint42_linear" x1="85.6363" y1="161.291" x2="82.2723" y2="194.873" gradientUnits="userSpaceOnUse">
<stop stop-color="#00A3FF"/>
<stop offset="1" stop-color="#1270E8"/>
</linearGradient>
<linearGradient id="paint43_linear" x1="55.4445" y1="206.987" x2="52.0805" y2="240.453" gradientUnits="userSpaceOnUse">
<stop stop-color="#00A3FF"/>
<stop offset="1" stop-color="#1270E8"/>
</linearGradient>
<linearGradient id="paint44_linear" x1="42.1845" y1="257.307" x2="38.8205" y2="290.773" gradientUnits="userSpaceOnUse">
<stop stop-color="#00A3FF"/>
<stop offset="1" stop-color="#1270E8"/>
</linearGradient>
<linearGradient id="paint45_linear" x1="69.5182" y1="363.081" x2="66.1426" y2="396.662" gradientUnits="userSpaceOnUse">
<stop stop-color="#00A3FF"/>
<stop offset="1" stop-color="#1270E8"/>
</linearGradient>
<linearGradient id="paint46_linear" x1="46.1965" y1="309.657" x2="42.8325" y2="343.123" gradientUnits="userSpaceOnUse">
<stop stop-color="#00A3FF"/>
<stop offset="1" stop-color="#1270E8"/>
</linearGradient>
<linearGradient id="paint47_linear" x1="164.108" y1="595.879" x2="160.744" y2="629.345" gradientUnits="userSpaceOnUse">
<stop stop-color="#00A3FF"/>
<stop offset="1" stop-color="#1270E8"/>
</linearGradient>
<linearGradient id="paint48_linear" x1="138.268" y1="99.8865" x2="134.904" y2="133.411" gradientUnits="userSpaceOnUse">
<stop stop-color="#FF3D49"/>
<stop offset="1" stop-color="#D80C1E"/>
</linearGradient>
<clipPath id="clip0">
<rect width="55.47" height="120.36" fill="white" transform="translate(0.494446 0.276611)"/>
</clipPath>
</defs>
</svg>
