<svg width="136" height="102" viewBox="0 0 136 102" fill="none" xmlns="http://www.w3.org/2000/svg">
<g clip-path="url(#clip0)">
<path d="M125.667 72.9253L83.0953 96.6132L26.6667 64.5649L66.8617 41.2703L125.667 72.9253Z" fill="url(#paint0_linear)"/>
<g style="mix-blend-mode:multiply">
<g style="mix-blend-mode:multiply">
<path d="M72.9361 32.6598C56.0529 23.7773 29.0304 24.2182 12.513 33.5977C-4.00443 42.9773 -3.7418 57.9096 13.1039 66.8295C29.9496 75.7495 57.0096 75.2711 73.527 65.8916C90.0444 56.512 89.7818 41.5047 72.9361 32.6598Z" fill="white"/>
</g>
<g style="mix-blend-mode:multiply">
<path d="M72.317 33.0631C55.809 24.3589 29.3211 24.7904 13.132 34.0011C-3.0571 43.2118 -2.81323 57.7689 13.7229 66.4638C30.2591 75.1586 56.7188 74.7365 72.8986 65.5258C89.0783 56.3151 88.8157 41.7111 72.317 33.0631Z" fill="#F8F8F9"/>
</g>
<g style="mix-blend-mode:multiply">
<path d="M71.698 33.3633C55.5464 24.8466 29.6025 25.2687 13.7604 34.3012C-2.08163 43.3338 -1.819 57.5719 14.3607 66.0886C30.5405 74.6052 56.4468 74.1831 72.2889 65.1506C88.131 56.1181 87.859 41.8799 71.698 33.3633Z" fill="#F1F2F3"/>
</g>
<g style="mix-blend-mode:multiply">
<path d="M71.079 33.7198C55.2744 25.3814 29.8933 25.7941 14.3983 34.6577C-1.09675 43.5214 -0.852881 57.4501 14.9517 65.7322C30.7562 74.0144 56.1373 73.658 71.6417 64.7943C87.1462 55.9306 86.8929 42.0488 71.079 33.7198Z" fill="#EBEBED"/>
</g>
<g style="mix-blend-mode:multiply">
<path d="M70.4693 34.0668C55.0024 25.916 30.1841 26.3193 15.0267 35.0048C-0.130679 43.6902 0.103811 57.2343 15.5707 65.3852C31.0376 73.536 55.9028 73.1327 71.0133 64.4472C86.1238 55.7617 85.9268 42.2176 70.4693 34.0668Z" fill="#E4E4E7"/>
</g>
<g style="mix-blend-mode:multiply">
<path d="M69.8502 34.4233C54.7397 26.4506 30.456 26.8446 15.6551 35.2956C0.854156 43.7465 1.06989 57.0655 16.2366 65.0288C31.4034 72.992 55.6308 72.6075 70.4317 64.1565C85.2327 55.7055 84.97 42.3865 69.8502 34.4233Z" fill="#DDDEE1"/>
</g>
<g style="mix-blend-mode:multiply">
<path d="M69.2312 34.7702C54.4678 26.9851 30.775 27.3697 16.2836 35.6237C1.79215 43.8777 2.03602 56.8966 16.7994 64.7003C31.5629 72.5041 55.2556 72.1008 69.7564 63.8468C84.2572 55.5928 84.004 42.5552 69.2312 34.7702Z" fill="#D6D7DA"/>
</g>
<g style="mix-blend-mode:multiply">
<path d="M68.6215 35.1173C54.1957 27.5199 31.047 27.8951 16.912 35.9521C2.777 44.0091 2.99273 56.7278 17.4185 64.3346C31.8443 71.9415 54.993 71.5569 69.128 63.4999C83.263 55.4428 83.0379 42.7241 68.6215 35.1173Z" fill="#CFD1D4"/>
</g>
<g style="mix-blend-mode:multiply">
<path d="M68.0024 35.4737C53.9331 28.0545 31.3377 28.4203 17.531 36.2897C3.7243 44.1592 3.95879 56.5589 18.0375 64.0157C32.1162 71.4724 54.7022 71.0691 68.4995 63.1997C82.2969 55.3302 82.0811 42.8929 68.0024 35.4737Z" fill="#C8CACE"/>
</g>
<g style="mix-blend-mode:multiply">
<path d="M67.3834 35.8206C53.6611 28.589 31.6191 28.9454 18.1688 36.6179C4.71854 44.2903 4.92489 56.39 18.6472 63.631C32.3695 70.872 54.4115 70.5062 67.8711 62.8337C81.3308 55.1613 81.1151 43.0616 67.3834 35.8206Z" fill="#C2C3C8"/>
</g>
<g style="mix-blend-mode:multiply">
<path d="M66.7737 36.1771C53.3891 29.1236 31.9099 29.4707 18.7973 36.9462C5.68465 44.4217 5.91914 56.2212 19.2662 63.2746C32.6134 70.328 54.1207 69.981 67.2427 62.5055C80.3647 55.03 80.149 43.2305 66.7737 36.1771Z" fill="#BBBDC2"/>
</g>
<g style="mix-blend-mode:multiply">
<path d="M66.1547 36.5242C53.1265 29.6584 32.2007 29.9585 19.4257 37.284C6.65076 44.6094 6.85711 56.0525 19.8853 62.9277C32.9135 69.8029 53.8393 69.4934 66.6143 62.1773C79.3893 54.8613 79.1829 43.3807 66.1547 36.5242Z" fill="#B4B6BC"/>
</g>
</g>
<path d="M19.3226 28.1951C32.454 20.6352 53.6236 20.6352 66.7081 28.1951C73.0956 31.8813 76.3597 36.693 76.5098 41.5047C76.591 44.256 76.591 47.0042 76.5098 49.7493C76.3597 54.6361 73.0956 59.4009 66.7081 63.0777C53.5767 70.6376 32.4164 70.6376 19.3226 63.0777C12.9445 59.4009 9.671 54.6361 9.52093 49.7681C9.43964 47.023 9.43964 44.2748 9.52093 41.5234C9.671 36.693 12.9445 31.8813 19.3226 28.1951Z" fill="#B7BAC7"/>
<path d="M19.3226 28.195C6.24746 35.7549 6.24746 48.0046 19.3226 55.5739C32.3977 63.1432 53.6236 63.0776 66.7081 55.5739C79.7926 48.0703 79.8395 35.7737 66.7081 28.2138C53.5767 20.6538 32.4164 20.6351 19.3226 28.195Z" fill="#EBEAF1"/>
<path d="M42.8652 58.6316C59.9702 58.6316 73.8365 51.098 73.8365 41.8047C73.8365 32.5115 59.9702 24.9778 42.8652 24.9778C25.7602 24.9778 11.8939 32.5115 11.8939 41.8047C11.8939 51.098 25.7602 58.6316 42.8652 58.6316Z" fill="#B7BAC7"/>
<path d="M62.5998 32.7442C51.7008 26.8069 34.0203 26.8069 23.1212 32.7442C12.2222 38.6815 12.2222 48.2674 23.1212 54.1953C34.0203 60.1231 51.7008 60.1231 62.5998 54.1953C73.4989 48.2674 73.4989 38.6908 62.5998 32.7442Z" fill="url(#paint1_linear)"/>
<path d="M18.0469 7.00659V12.156L19.3038 13.1033L24.1155 10.0643L23.14 7.25046L18.0469 7.00659Z" fill="#EE8300"/>
<path d="M65.742 6.19067V11.3401L64.4851 12.2874L59.6734 9.23903L60.6583 6.43454L65.742 6.19067Z" fill="#EE8300"/>
<path d="M62.8906 14.8387L65.7701 13.0941L59.0356 9.83001L56.3249 11.4902C53.077 10.3752 49.6829 9.74315 46.2513 9.61429V7.14746H37.5377L37.6221 9.61429C34.2658 10.0183 30.9787 10.87 27.8486 12.1468L24.3688 10.3271L18.0469 13.9101L21.7143 15.711C19.6508 17.3337 18.2439 17.3055 17.9062 18.5905L14.5015 20.8698V25.5595H18.4221C19.1791 27.505 20.5487 29.1511 22.324 30.2493L19.7728 32.1252L26.5542 35.4081L29.2274 33.776C32.4481 34.9532 35.8361 35.6086 39.2635 35.7176L39.3573 37.8561H48.0146L47.9396 35.5019C51.2683 35.1171 54.5321 34.2972 57.6474 33.0632L60.5739 34.5639L66.8863 31.0091L63.5847 29.6772C65.3641 28.3317 66.6764 26.4617 67.3365 24.3308H71.2572V19.7067L67.7586 17.1179C66.9332 14.3041 63.9505 15.242 62.8906 14.8387ZM51.7665 26.3287C51.5882 26.4131 51.4007 26.4787 51.2224 26.5444C45.8269 28.3546 39.988 28.3546 34.5925 26.5444L34.0578 26.3287C29.1617 24.2183 29.1617 20.7853 34.0578 18.6656C38.954 16.5458 46.9172 16.5458 51.8134 18.6656C56.7095 20.7853 56.672 24.2183 51.7665 26.3287Z" fill="#EE8300"/>
<path d="M62.8906 7.92586L65.7701 6.19064L59.0356 2.91717L56.3249 4.54922C53.0772 3.43998 49.6816 2.82347 46.2513 2.7202V0.234619H37.5377L37.6221 2.7202C34.2675 3.12246 30.981 3.96773 27.8486 5.23392L24.3688 3.41429L18.0469 7.00666L21.7143 8.80754C20.0464 10.1132 18.8108 11.8914 18.1689 13.91H14.5015V18.5998H18.4221C19.1633 20.5764 20.5345 22.2541 22.324 23.374L19.7728 25.2499L26.5542 28.4952L29.2274 26.8632C32.4469 28.0449 35.8356 28.7005 39.2635 28.8048L39.3573 30.9433H48.0146L47.9396 28.589C51.2829 28.2173 54.5627 27.4068 57.6943 26.1785L60.6208 27.6886L66.8863 24.1056L63.5847 22.7456C65.3625 21.3946 66.6742 19.5222 67.3365 17.3898H71.2572V12.8032H67.0833C66.7563 11.7462 66.2154 10.7677 65.4941 9.9286C64.7728 9.08952 63.8866 8.40781 62.8906 7.92586ZM51.7665 19.4158L51.2224 19.6409C45.8277 21.456 39.9872 21.456 34.5925 19.6409C34.4049 19.5753 34.2079 19.4909 34.011 19.4064C29.1148 17.296 29.1148 13.8631 34.011 11.7527C38.9071 9.64232 46.8703 9.62356 51.7665 11.7527C56.6626 13.8819 56.672 17.3054 51.7665 19.4158Z" fill="url(#paint2_linear)"/>
<path d="M39.3104 30.9338V37.856H47.9677V30.9338H39.3104Z" fill="url(#paint3_linear)"/>
<path d="M71.2853 17.3992V24.3119H67.3646V17.4179L71.2853 17.3992Z" fill="url(#paint4_linear)"/>
<path d="M60.5739 27.6887V34.5921C60.5739 34.5921 67.2146 31.1873 66.8863 31.0091C66.558 30.8309 66.8863 24.1057 66.8863 24.1057L60.5739 27.6887Z" fill="url(#paint5_linear)"/>
<path d="M26.5073 28.4951V35.4079L19.7728 32.1438V25.2217L26.5073 28.4951Z" fill="url(#paint6_linear)"/>
<path d="M14.5014 18.5999C14.5014 18.5999 14.3607 25.5595 14.5014 25.5595H18.4221V18.5999H14.5014Z" fill="url(#paint7_linear)"/>
</g>
<defs>
<linearGradient id="paint0_linear" x1="57.9884" y1="52.3491" x2="85.07" y2="76.7721" gradientUnits="userSpaceOnUse">
<stop stop-color="#C9D3E7"/>
<stop offset="1" stop-color="white"/>
</linearGradient>
<linearGradient id="paint1_linear" x1="14.9517" y1="43.465" x2="70.7788" y2="43.465" gradientUnits="userSpaceOnUse">
<stop stop-color="#00A3FF"/>
<stop offset="1" stop-color="#1270E8"/>
</linearGradient>
<linearGradient id="paint2_linear" x1="14.5015" y1="15.589" x2="71.2853" y2="15.589" gradientUnits="userSpaceOnUse">
<stop stop-color="#FFCC38"/>
<stop offset="1" stop-color="#FF9500"/>
</linearGradient>
<linearGradient id="paint3_linear" x1="399.456" y1="283.037" x2="479.363" y2="283.037" gradientUnits="userSpaceOnUse">
<stop stop-color="#FFCC38"/>
<stop offset="1" stop-color="#FF9500"/>
</linearGradient>
<linearGradient id="paint4_linear" x1="347.731" y1="169.41" x2="364.12" y2="169.41" gradientUnits="userSpaceOnUse">
<stop stop-color="#FFCC38"/>
<stop offset="1" stop-color="#FF9500"/>
</linearGradient>
<linearGradient id="paint5_linear" x1="467.032" y1="349.602" x2="509.721" y2="349.602" gradientUnits="userSpaceOnUse">
<stop stop-color="#FFCC38"/>
<stop offset="1" stop-color="#FF9500"/>
</linearGradient>
<linearGradient id="paint6_linear" x1="159.649" y1="351.893" x2="208.003" y2="351.893" gradientUnits="userSpaceOnUse">
<stop stop-color="#FFCC38"/>
<stop offset="1" stop-color="#FF9500"/>
</linearGradient>
<linearGradient id="paint7_linear" x1="74.585" y1="180.551" x2="91.4339" y2="180.551" gradientUnits="userSpaceOnUse">
<stop stop-color="#FFCC38"/>
<stop offset="1" stop-color="#FF9500"/>
</linearGradient>
<clipPath id="clip0">
<rect width="135" height="101.759" fill="white" transform="translate(0.291382 0.234619)"/>
</clipPath>
</defs>
</svg>
