<svg width="18" height="18" viewBox="0 0 18 18" fill="none" xmlns="http://www.w3.org/2000/svg">
<path fill-rule="evenodd" clip-rule="evenodd" d="M9.17163 0.588867C6.85409 0.588867 6.56325 0.599001 5.65302 0.640423C4.74456 0.682024 4.12447 0.825847 3.58188 1.03687C3.02063 1.25483 2.54454 1.54639 2.07022 2.02088C1.59555 2.4952 1.30399 2.97129 1.08532 3.53236C0.873766 4.07513 0.729765 4.6954 0.688875 5.6035C0.648164 6.51373 0.637497 6.80475 0.637497 9.12229C0.637497 11.4398 0.647808 11.7298 0.689053 12.64C0.730831 13.5485 0.874655 14.1686 1.0855 14.7111C1.30364 15.2724 1.5952 15.7485 2.06969 16.2228C2.54383 16.6975 3.01992 16.9897 3.58082 17.2077C4.12376 17.4187 4.74403 17.5626 5.6523 17.6042C6.56254 17.6456 6.85321 17.6557 9.17056 17.6557C11.4883 17.6557 11.7782 17.6456 12.6885 17.6042C13.5969 17.5626 14.2177 17.4187 14.7607 17.2077C15.3217 16.9897 15.7971 16.6975 16.2713 16.2228C16.7459 15.7485 17.0375 15.2724 17.2562 14.7113C17.4659 14.1686 17.6099 13.5483 17.6526 12.6402C17.6935 11.73 17.7042 11.4398 17.7042 9.12229C17.7042 6.80475 17.6935 6.51391 17.6526 5.60367C17.6099 4.69522 17.4659 4.07513 17.2562 3.53254C17.0375 2.97129 16.7459 2.4952 16.2713 2.02088C15.7966 1.54621 15.3219 1.25465 14.7601 1.03687C14.2161 0.825847 13.5957 0.682024 12.6872 0.640423C11.777 0.599001 11.4872 0.588867 9.16896 0.588867H9.17163ZM8.40607 2.12664C8.63328 2.12628 8.88679 2.12664 9.17159 2.12664C11.45 2.12664 11.7201 2.13481 12.6198 2.1757C13.4518 2.21375 13.9034 2.35277 14.2042 2.46957C14.6024 2.62424 14.8863 2.80913 15.1848 3.1078C15.4835 3.40647 15.6684 3.69092 15.8234 4.08915C15.9402 4.38959 16.0794 4.84115 16.1173 5.67316C16.1582 6.57273 16.167 6.84295 16.167 9.12031C16.167 11.3977 16.1582 11.6679 16.1173 12.5675C16.0792 13.3995 15.9402 13.851 15.8234 14.1515C15.6687 14.5497 15.4835 14.8333 15.1848 15.1318C14.8861 15.4304 14.6026 15.6153 14.2042 15.77C13.9037 15.8873 13.4518 16.026 12.6198 16.064C11.7202 16.1049 11.45 16.1138 9.17159 16.1138C6.89299 16.1138 6.62294 16.1049 5.72338 16.064C4.89137 16.0256 4.43981 15.8866 4.13883 15.7698C3.7406 15.6151 3.45616 15.4302 3.15749 15.1316C2.85882 14.8329 2.67393 14.5492 2.5189 14.1508C2.4021 13.8503 2.2629 13.3988 2.22503 12.5667C2.18414 11.6672 2.17597 11.397 2.17597 9.11818C2.17597 6.8394 2.18414 6.57059 2.22503 5.67103C2.26308 4.83902 2.4021 4.38746 2.5189 4.08666C2.67357 3.68843 2.85882 3.40398 3.15749 3.10531C3.45616 2.80664 3.7406 2.62175 4.13883 2.46673C4.43963 2.34939 4.89137 2.21073 5.72338 2.1725C6.51059 2.13695 6.81566 2.12628 8.40607 2.1245V2.12664ZM13.7267 3.54354C13.1613 3.54354 12.7027 4.00168 12.7027 4.5672C12.7027 5.13254 13.1613 5.59121 13.7267 5.59121C14.292 5.59121 14.7507 5.13254 14.7507 4.5672C14.7507 4.00186 14.292 3.54354 13.7267 3.54354ZM9.17165 4.74C6.75153 4.74 4.78938 6.70215 4.78938 9.12227C4.78938 11.5424 6.75153 13.5036 9.17165 13.5036C11.5918 13.5036 13.5532 11.5424 13.5532 9.12227C13.5532 6.70215 11.5918 4.74 9.17165 4.74ZM9.17161 6.27779C10.7425 6.27779 12.0161 7.55123 12.0161 9.12227C12.0161 10.6931 10.7425 11.9667 9.17161 11.9667C7.60057 11.9667 6.32714 10.6931 6.32714 9.12227C6.32714 7.55123 7.60057 6.27779 9.17161 6.27779Z" fill="white"/>
</svg>
