<svg width="18" height="13" viewBox="0 0 18 13" fill="none" xmlns="http://www.w3.org/2000/svg">
<path fill-rule="evenodd" clip-rule="evenodd" d="M15.8386 0.62159C16.5729 0.8231 17.1513 1.41685 17.3475 2.17085C17.7042 3.5374 17.7042 6.3887 17.7042 6.3887C17.7042 6.3887 17.7042 9.23991 17.3475 10.6066C17.1513 11.3606 16.5729 11.9543 15.8386 12.1559C14.5078 12.522 9.17085 12.522 9.17085 12.522C9.17085 12.522 3.83392 12.522 2.50302 12.1559C1.76866 11.9543 1.19034 11.3606 0.99407 10.6066C0.637512 9.23991 0.637512 6.3887 0.637512 6.3887C0.637512 6.3887 0.637512 3.5374 0.99407 2.17085C1.19034 1.41685 1.76866 0.8231 2.50302 0.62159C3.83392 0.255371 9.17085 0.255371 9.17085 0.255371C9.17085 0.255371 14.5078 0.255371 15.8386 0.62159ZM7.57086 3.98865V9.32198L11.8375 6.65542L7.57086 3.98865Z" fill="white"/>
</svg>
