<svg width="18" height="18" viewBox="0 0 18 18" fill="none" xmlns="http://www.w3.org/2000/svg">
<path fill-rule="evenodd" clip-rule="evenodd" d="M17.7042 9.11037C17.7042 9.68746 17.6454 10.2638 17.53 10.8255C17.4175 11.3739 17.2508 11.9123 17.0325 12.427C16.8192 12.9326 16.5546 13.4198 16.2454 13.8742C15.9408 14.3256 15.5899 14.7492 15.2045 15.1353C14.8182 15.5198 14.3932 15.8697 13.9419 16.1756C13.4861 16.4826 12.9982 16.7468 12.4923 16.9611C11.9769 17.1783 11.4372 17.3447 10.8893 17.4571C10.3268 17.5728 9.74838 17.6318 9.17045 17.6318C8.59209 17.6318 8.01373 17.5728 7.45204 17.4571C6.90327 17.3447 6.36366 17.1783 5.84862 16.9611C5.34278 16.7468 4.8544 16.4826 4.39855 16.1756C3.94728 15.8697 3.52226 15.5198 3.13682 15.1353C2.75098 14.7492 2.40011 14.3256 2.0951 13.8742C1.78758 13.4198 1.52255 12.9326 1.30838 12.427C1.09001 11.9123 0.922944 11.3739 0.810017 10.8255C0.695855 10.2638 0.637505 9.68746 0.637505 9.11037C0.637505 8.53284 0.695822 7.95532 0.810051 7.3948C0.922977 6.84639 1.09005 6.30716 1.30842 5.7933C1.52258 5.28735 1.78761 4.79971 2.09513 4.34532C2.40014 3.89346 2.75101 3.47069 3.13685 3.08414C3.52229 2.69966 3.94731 2.35059 4.39858 2.04519C4.85443 1.73685 5.34281 1.47267 5.84866 1.25794C6.36369 1.04029 6.90327 0.873461 7.45207 0.761965C8.01377 0.647133 8.59213 0.588867 9.17049 0.588867C9.74841 0.588867 10.3268 0.647133 10.8893 0.761965C11.4372 0.873494 11.9769 1.04032 12.4923 1.25794C12.9982 1.47263 13.4861 1.73685 13.942 2.04519C14.3932 2.35059 14.8183 2.69966 15.2045 3.08414C15.59 3.47069 15.9408 3.89346 16.2454 4.34532C16.5546 4.79971 16.8192 5.28738 17.0325 5.7933C17.2508 6.30716 17.4175 6.84639 17.53 7.3948C17.6454 7.95532 17.7042 8.53284 17.7042 9.11037ZM6.06109 2.52825C4.02888 3.48652 2.51214 5.35641 2.03919 7.60994C2.23131 7.61161 5.26813 7.6499 8.76705 6.72158C7.50575 4.48385 6.15818 2.65769 6.06109 2.52825ZM9.37082 7.84215C5.61857 8.96388 2.01794 8.88317 1.88878 8.8782C1.88668 8.95641 1.88294 9.03212 1.88294 9.11036C1.88294 10.9798 2.58922 12.6841 3.75012 13.9728C3.74761 13.969 5.74191 10.436 9.6746 9.16613C9.76959 9.13451 9.86629 9.10619 9.96211 9.07874C9.77921 8.66518 9.57958 8.25074 9.37082 7.84215ZM13.9832 3.64879C12.7002 2.51908 11.0155 1.83383 9.17043 1.83383C8.57831 1.83383 8.00369 1.9054 7.45325 2.03771C7.5624 2.18419 8.93125 3.99748 10.1775 6.2826C12.9273 5.25322 13.9652 3.6754 13.9832 3.64879ZM10.4589 10.2846C10.4426 10.2899 10.4264 10.2946 10.4105 10.3004C6.1108 11.7972 4.70666 14.8136 4.69147 14.8465C5.92864 15.8073 7.48039 16.3869 9.17048 16.3869C10.1797 16.3869 11.141 16.1817 12.0156 15.8102C11.9077 15.1744 11.4843 12.9459 10.4589 10.2846ZM13.2427 15.1453C14.879 14.0427 16.0412 12.2918 16.3654 10.2637C16.2154 10.2155 14.1765 9.57093 11.8243 9.94751C12.7802 12.5706 13.1685 14.7068 13.2427 15.1453ZM10.7385 7.36695C10.9076 7.71397 11.0714 8.06717 11.2226 8.42214C11.2764 8.54948 11.3289 8.67432 11.3802 8.79912C13.8836 8.48454 16.35 9.01381 16.4554 9.03542C16.4388 7.31035 15.8208 5.72712 14.7983 4.48762C14.7845 4.50713 13.6157 6.19355 10.7385 7.36695Z" fill="white"/>
</svg>
