<svg width="900" height="1270" viewBox="0 0 900 1270" fill="none" xmlns="http://www.w3.org/2000/svg">
<path d="M0 0L21.5 27.0921C43 54.043 86 108.227 128.8 121.773C171.7 135.46 214.3 108.65 257.2 89.6013C300 70.5522 343 59.2638 385.8 67.3068C428.7 75.2086 471.3 102.583 514.2 92.8466C557 83.2515 600 36.6871 642.8 26.8098C685.7 16.9325 728.3 43.7423 771.2 63.9202C814 84.2393 857 97.7853 878.5 104.699L900 111.472V297.73H878.5C857 297.73 814 297.73 771.2 297.73C728.3 297.73 685.7 297.73 642.8 297.73C600 297.73 557 297.73 514.2 297.73C471.3 297.73 428.7 297.73 385.8 297.73C343 297.73 300 297.73 257.2 297.73C214.3 297.73 171.7 297.73 128.8 297.73C86 297.73 43 297.73 21.5 297.73H0V0Z" fill="#618EA8"/>
<rect y="280.274" width="900" height="989.13" fill="#618EA8"/>
</svg>
