<svg width="151" height="128" viewBox="0 0 151 128" fill="none" xmlns="http://www.w3.org/2000/svg">
<g opacity="0.2" clip-path="url(#clip0)">
<path fill-rule="evenodd" clip-rule="evenodd" d="M0.80957 107.678C23.1777 96.6593 34.3616 83.7126 34.3616 68.8375C24.8276 67.7357 16.9439 63.8333 10.7101 57.1303C4.47643 50.4274 1.3596 42.6685 1.3596 33.8537C1.3596 24.4879 4.38475 16.5913 10.4351 10.1638C16.4855 3.7363 24.0942 0.522598 33.2615 0.522598C43.5288 0.522598 52.4209 4.70042 59.9381 13.0562C67.4552 21.4119 71.2137 31.5581 71.2137 43.4949C71.2137 79.3053 51.2294 107.31 11.2602 127.511L0.80957 107.678ZM79.7476 107.678C102.299 96.6593 113.575 83.7126 113.575 68.8375C103.857 67.7357 95.8819 63.8333 89.6482 57.1303C83.4144 50.4274 80.2976 42.6685 80.2976 33.8537C80.2976 24.4879 83.3686 16.5913 89.5106 10.1638C95.6527 3.7363 103.307 0.522598 112.475 0.522598C122.742 0.522598 131.588 4.70042 139.014 13.0562C146.439 21.4119 150.152 31.5581 150.152 43.4949C150.152 79.3053 130.259 107.31 90.4732 127.511L79.7476 107.678Z" fill="#618EA8"/>
</g>
<defs>
<clipPath id="clip0">
<rect width="150" height="126.989" fill="white" transform="translate(150.152 127.511) rotate(-180)"/>
</clipPath>
</defs>
</svg>
