<svg width="21" height="21" viewBox="0 0 21 21" fill="none" xmlns="http://www.w3.org/2000/svg">
<path d="M20.2984 1.21155C19.8107 0.723916 19.0286 0.723916 18.5409 1.21155L10.6642 9.08734L2.78749 1.21155C2.2998 0.723916 1.51765 0.723916 1.02995 1.21155C0.542261 1.69919 0.542261 2.48125 1.02995 2.96888L8.90665 10.8447L1.02995 18.7205C0.542261 19.2081 0.542261 19.9902 1.02995 20.4778C1.2692 20.717 1.59126 20.8458 1.90412 20.8458C2.21698 20.8458 2.53904 20.7262 2.77829 20.4778L10.655 12.602L18.5317 20.4778C18.7709 20.717 19.093 20.8458 19.4058 20.8458C19.7279 20.8458 20.0408 20.7262 20.28 20.4778C20.7677 19.9902 20.7677 19.2081 20.28 18.7205L12.4217 10.8447L20.2984 2.96888C20.7861 2.48125 20.7861 1.69919 20.2984 1.21155Z" fill="#EE1C42"/>
</svg>
