<svg width="701" height="757" viewBox="0 0 701 757" fill="none" xmlns="http://www.w3.org/2000/svg">
<g style="mix-blend-mode:multiply" opacity="0.2">
<g style="mix-blend-mode:multiply">
<path d="M190.684 377.203C152.762 357.201 91.8388 358.18 54.6474 379.394C17.456 400.609 18.0466 434.039 55.984 453.995C93.9214 473.95 154.829 473.018 192.036 451.788C229.243 430.558 228.622 397.205 190.684 377.203Z" fill="white"/>
</g>
<g style="mix-blend-mode:multiply">
<path d="M189.301 377.996C152.156 358.397 92.4916 359.346 56.0617 380.14C19.6319 400.935 20.2225 433.666 57.3828 453.187C94.5431 472.707 154.192 471.837 190.622 451.026C227.052 430.216 226.461 397.594 189.301 377.996Z" fill="#F8F8F9"/>
</g>
<g style="mix-blend-mode:multiply">
<path d="M187.918 378.788C151.55 359.594 93.1132 360.542 57.476 380.887C21.8388 401.231 22.3828 433.293 58.766 452.472C95.1492 471.65 153.571 470.702 189.208 450.343C224.845 429.983 224.301 397.967 187.918 378.788Z" fill="#F1F2F3"/>
</g>
<g style="mix-blend-mode:multiply">
<path d="M186.519 379.581C150.944 360.807 93.7504 361.724 58.8903 381.632C24.0301 401.541 24.5586 432.92 60.1491 451.679C95.7397 470.438 152.887 469.521 187.793 449.597C222.7 429.672 222.125 398.34 186.519 379.581Z" fill="#EBEBED"/>
</g>
<g style="mix-blend-mode:multiply">
<path d="M185.136 380.374C150.338 362.003 94.4343 362.905 60.3046 382.332C26.1749 401.759 26.7189 432.485 61.5324 450.84C96.3459 469.195 152.234 468.278 186.379 448.804C220.524 429.33 219.949 398.728 185.136 380.374Z" fill="#E4E4E7" fill-opacity="0.75"/>
</g>
<g style="mix-blend-mode:multiply">
<path d="M183.753 381.166C149.732 363.215 95.1647 364.07 61.7188 383.124C28.273 402.179 28.8947 432.143 62.9311 450.094C96.9675 468.044 151.519 467.19 184.949 448.104C218.38 429.019 217.789 399.101 183.753 381.166Z" fill="#DDDEE1"/>
</g>
<g style="mix-blend-mode:multiply">
<path d="M182.338 381.959C149.126 364.412 95.7397 365.236 63.1332 383.886C30.5266 402.536 31.0706 431.786 64.3143 449.317C97.5581 466.848 150.944 465.977 183.535 447.374C216.126 428.771 215.613 399.428 182.338 381.959Z" fill="#D6D7DA"/>
</g>
<g style="mix-blend-mode:multiply">
<path d="M180.971 382.736C148.52 365.64 96.377 366.464 64.5475 384.616C32.718 402.769 33.2309 431.397 65.6976 448.509C98.1643 465.62 150.291 464.781 182.121 446.612C213.95 428.444 213.422 399.863 180.971 382.736Z" fill="#CFD1D4"/>
</g>
<g style="mix-blend-mode:multiply">
<path d="M179.587 383.529C147.913 366.79 97.0297 367.645 65.9617 385.44C34.8938 403.235 35.4067 431.086 67.0807 447.794C98.7548 464.501 149.701 463.6 180.784 445.867C211.868 428.133 211.277 400.236 179.587 383.529Z" fill="#C8CACE"/>
</g>
<g style="mix-blend-mode:multiply">
<path d="M178.204 384.321C147.307 368.033 97.6825 368.779 67.3761 386.108C37.0697 403.437 37.567 430.636 68.4795 446.923C99.3921 463.211 148.986 462.465 179.292 445.12C209.599 427.776 209.117 400.624 178.204 384.321Z" fill="#C2C3C8" fill-opacity="0.25"/>
</g>
<g style="mix-blend-mode:multiply">
<path d="M176.821 385.114C146.701 369.23 98.3352 370.007 68.7904 386.854C39.2455 403.702 39.7429 430.262 69.8628 446.131C99.9827 461.999 148.349 461.237 177.878 444.374C207.407 427.512 206.941 400.982 176.821 385.114Z" fill="#BBBDC2" fill-opacity="0.25"/>
</g>
<g style="mix-blend-mode:multiply">
<path d="M175.438 385.906C146.095 370.365 98.9724 371.188 70.2047 387.6C41.4369 404.012 41.9032 429.874 71.246 445.354C100.589 460.833 147.696 460.056 176.464 443.628C205.231 427.201 204.781 401.37 175.438 385.906Z" fill="#B4B6BC" fill-opacity="0.25"/>
</g>
</g>
<path d="M51.0106 397.501L72.1319 380.995C72.1319 380.995 68.1532 399.894 85.6998 406.732C104.35 414.006 127.056 415.156 147.074 412.638C159.632 411.084 185.555 383.016 185.555 383.016C185.555 383.016 208.511 405.52 209.428 408.939C216.81 436.231 183.939 455.005 145.131 459.186C119.767 461.921 91.7766 458.937 69.4431 445.867C45.4622 431.832 38.9036 408.007 51.0106 397.501Z" fill="url(#paint0_linear)"/>
<path d="M85.016 373.831C108.67 364.91 147.587 365.236 171.459 374.561C195.331 383.886 195.362 398.682 171.615 407.587C147.867 416.493 108.904 416.244 85.1714 406.966C61.4391 397.687 61.1128 382.751 85.016 373.831Z" fill="#DBDBE1"/>
<path d="M68.7438 291.895L38.9813 311.151L68.7438 326.692V291.895ZM67.6558 324.827L41.1261 310.995L67.6558 293.899V324.827Z" fill="black"/>
<path d="M80.54 289.19L129.932 316.497C129.932 316.497 136.677 306.24 147.54 310.731L164.155 319.885C168.002 322.007 171.209 325.122 173.443 328.905C175.676 332.688 176.853 337.002 176.852 341.395V379.099C176.852 385.844 175.391 394.377 160.207 394.377L50.2336 322.698C48.4929 321.719 55.5644 299.961 55.5644 299.961L80.54 289.19Z" fill="#DBDBE1"/>
<path d="M43.4884 295.578L71.4636 278.482H100.154L73.9969 295.749L124.943 323.895C125.125 323.998 125.331 324.052 125.54 324.051C125.749 324.05 125.955 323.993 126.136 323.888C126.317 323.783 126.467 323.632 126.571 323.45C126.675 323.269 126.73 323.063 126.73 322.854C126.729 321.476 127.088 320.121 127.771 318.924C128.453 317.727 129.436 316.728 130.622 316.027C131.808 315.325 133.157 314.945 134.535 314.924C135.913 314.903 137.272 315.242 138.48 315.906L157.596 326.444C161.448 328.557 164.661 331.667 166.897 335.449C169.134 339.231 170.313 343.544 170.309 347.938V385.658C170.306 387.197 169.9 388.708 169.132 390.041C168.364 391.375 167.262 392.485 165.933 393.261C164.604 394.036 163.095 394.452 161.557 394.465C160.018 394.478 158.503 394.089 157.161 393.335L43.706 329.272C42.8612 328.797 42.1573 328.107 41.6659 327.272C41.1745 326.436 40.9132 325.486 40.9085 324.517V300.225C40.9066 299.295 41.1427 298.379 41.5942 297.566C42.0458 296.753 42.6979 296.068 43.4884 295.578Z" fill="#B7BAC7"/>
<path d="M55.1292 56.0797L159.259 331.65C164.776 341.426 163.315 356.999 155.871 364.925C151.488 369.588 139.816 378.509 139.816 378.509L18.5906 76.8279C14.7208 71.4367 11.1311 65.8498 7.83569 60.0895L23.3774 44.7809C33.6194 37.9891 49.1456 45.4181 55.1292 56.0797Z" fill="#DBDBE1"/>
<path d="M63.0866 3.11345L245.329 106.839L278.588 133.944L307.62 149.486C310.77 151.314 313.07 154.312 314.021 157.827C314.972 161.342 314.496 165.091 312.698 168.258C310.9 171.424 307.924 173.753 304.417 174.737C300.911 175.721 297.158 175.281 293.975 173.513L75.7531 52.1321C74.9431 51.6735 74.0266 51.4363 73.0958 51.4443C72.165 51.4524 71.2528 51.7055 70.4508 52.1782C69.6489 52.6508 68.9857 53.3263 68.5277 54.1367C68.0698 54.9471 67.8334 55.8638 67.8423 56.7946V114.734L47.2962 129.235V21.2662L39.6652 16.7746L4.12122 64.1459L28.6927 13.3399C31.9139 7.43962 37.3381 3.0529 43.7816 1.13702C50.2252 -0.778862 57.1649 -0.0683707 63.0866 3.11345Z" fill="#DBDBE1"/>
<path d="M299.43 218.413C299.636 218.413 299.834 218.495 299.979 218.641C300.125 218.787 300.207 218.984 300.207 219.19V239.348C300.207 239.554 300.125 239.752 299.979 239.897C299.834 240.043 299.636 240.125 299.43 240.125C299.224 240.125 299.026 240.043 298.88 239.897C298.735 239.752 298.653 239.554 298.653 239.348V219.144C298.665 218.946 298.752 218.76 298.896 218.624C299.041 218.488 299.232 218.413 299.43 218.413Z" fill="#4A4A66"/>
<path d="M318.22 209.601V209.896C318.002 215.709 310.029 221.879 298.964 221.459C287.898 221.04 280.702 214.512 280.64 208.777V195.567H318.235L318.22 209.601Z" fill="#2A3C45"/>
<path d="M299.896 183.398C310.977 183.817 318.453 190.578 318.22 196.391C317.987 202.203 310.029 208.373 298.964 207.954C287.898 207.534 280.407 200.758 280.624 194.961C280.842 189.164 288.815 182.978 299.896 183.398Z" fill="#141518"/>
<path d="M298.528 149.206C303.642 148.74 308.009 154.552 308.102 159.697L307.916 191.526C307.915 192.288 307.711 193.037 307.326 193.695C306.941 194.353 306.388 194.897 305.724 195.272C303.895 196.305 301.826 196.841 299.725 196.826C297.653 196.744 295.616 196.264 293.726 195.411C292.973 195.075 292.332 194.53 291.878 193.842C291.424 193.154 291.175 192.35 291.162 191.526L290.478 160.085C290.338 155.423 293.897 149.657 298.528 149.206Z" fill="#EBEBED"/>
<path d="M47.4671 9.42341L234.807 116.149L268.082 143.269L297.099 158.811C299.217 160.013 300.978 161.756 302.204 163.861C303.43 165.966 304.076 168.358 304.077 170.793C304.076 173.207 303.444 175.578 302.241 177.672C301.039 179.765 299.31 181.506 297.225 182.723C295.141 183.94 292.774 184.589 290.36 184.607C287.947 184.624 285.57 184.009 283.468 182.823L65.2469 61.4416C64.4369 60.983 63.5204 60.7458 62.5896 60.7539C61.6588 60.7619 60.7465 61.015 59.9446 61.4877C59.1427 61.9603 58.4795 62.6358 58.0215 63.4462C57.5636 64.2566 57.3272 65.1733 57.3361 66.1041V124.246L36.79 77.3564V30.5913L29.159 26.0842L11.3792 60.6956L4.12122 64.1459L27.2939 15.6712C28.1487 13.8812 29.3647 12.2875 30.8653 10.9904C32.366 9.69319 34.1188 8.72059 36.0136 8.13376C37.9084 7.54693 39.9042 7.35857 41.8753 7.58051C43.8464 7.80246 45.7503 8.42992 47.4671 9.42341Z" fill="#B7BAC7"/>
<path d="M8.51951 59.6077C18.6993 52.847 31.2415 54.4012 40.4422 70.7511L144.572 346.337C150.074 356.113 149.763 373.318 139.801 378.509C130.351 383.42 115.307 375.198 109.992 365.967L3.90361 91.5149C-1.59817 81.9256 -0.681205 65.7467 8.51951 59.6077Z" fill="#B7BAC7"/>
<path d="M135.713 350.269L136.179 351.109C138.532 355.747 139.118 361.083 137.827 366.122C137.496 367.613 136.641 368.937 135.418 369.852C134.807 370.122 134.143 370.249 133.475 370.225C128.813 370.225 121.99 366.231 119.021 361.801L12.9333 87.505L33.6971 81.2883L135.713 350.269Z" fill="#EBEBED"/>
<path d="M68.1998 325.791L40.0537 311.104L68.1998 292.889V325.791Z" fill="#EBEBED"/>
<path d="M18.1243 72.8803C23.3463 70.7511 31.4747 74.0615 34.8006 82.2054C38.1265 90.3492 34.6452 98.4154 29.4232 100.545C24.2011 102.674 16.0728 99.3634 12.7469 91.2196C9.42093 83.0757 12.9334 75.0095 18.1243 72.8803Z" fill="#2A3C45"/>
<path d="M28.3663 23.5354C31.0084 22.1211 35.4999 23.4266 37.6913 27.5762C39.8827 31.7259 38.5772 36.2174 35.9351 37.6317C33.293 39.046 28.817 37.7405 26.6101 33.5909C24.4031 29.4412 25.7397 24.9652 28.3663 23.5354Z" fill="#2A3C45"/>
<path d="M284.665 163.66C287.463 162.105 292.156 163.349 294.394 167.498C296.632 171.648 295.078 176.233 292.265 177.756C289.452 179.279 284.774 178.051 282.536 173.917C280.298 169.783 281.805 165.167 284.665 163.66Z" fill="#2A3C45"/>
<path d="M48.5861 303.644L97.9933 330.951C97.9933 330.951 104.723 320.693 115.587 325.2L132.201 334.355C136.058 336.478 139.273 339.599 141.509 343.392C143.746 347.184 144.922 351.508 144.914 355.911V393.615C144.914 400.36 143.36 408.893 128.269 408.893L18.2642 337.168C16.5546 336.204 23.6105 314.43 23.6105 314.43L48.5861 303.644Z" fill="#DBDBE1"/>
<path d="M11.5501 310.032L39.5253 292.936H68.1998L42.043 310.187L93.0044 338.364C93.1889 338.46 93.3951 338.507 93.603 338.501C93.8109 338.494 94.0136 338.434 94.1916 338.326C94.3696 338.218 94.5168 338.067 94.6192 337.885C94.7216 337.704 94.7756 337.5 94.7761 337.292C94.7782 335.915 95.1388 334.563 95.8224 333.368C96.5061 332.173 97.4892 331.176 98.675 330.477C99.8607 329.777 101.208 329.399 102.585 329.378C103.962 329.358 105.32 329.696 106.526 330.36L125.658 340.898C129.505 343.019 132.712 346.134 134.946 349.917C137.179 353.701 138.356 358.014 138.355 362.407V400.096C138.354 401.636 137.951 403.149 137.184 404.485C136.417 405.821 135.315 406.933 133.986 407.71C132.656 408.488 131.147 408.905 129.607 408.919C128.067 408.932 126.55 408.543 125.207 407.789L11.7522 343.711C10.9101 343.239 10.2095 342.551 9.72301 341.718C9.23656 340.884 8.982 339.936 8.98573 338.97V314.679C8.97774 313.749 9.20952 312.833 9.65871 312.019C10.1079 311.205 10.7593 310.521 11.5501 310.032Z" fill="#B7BAC7"/>
<path d="M35.1892 322.885L75.5977 345.747C76.7944 346.431 77.8668 348.28 77.1519 349.477C76.6423 349.994 75.9776 350.33 75.2592 350.433C74.5409 350.537 73.8083 350.403 73.1732 350.052L32.6403 327.438C32.0018 327.092 31.5001 326.539 31.2177 325.869C30.9352 325.2 30.8888 324.454 31.0861 323.755C31.5379 323.124 32.2095 322.685 32.9687 322.524C33.728 322.363 34.5201 322.491 35.1892 322.885Z" fill="#141518"/>
<path d="M35.1892 333.997L75.5977 356.843C76.7944 357.543 77.8668 359.392 77.1519 360.574C76.6451 361.095 75.98 361.434 75.2604 361.538C74.5407 361.642 73.8069 361.505 73.1732 361.149L32.6403 338.535C32.0018 338.189 31.5001 337.635 31.2177 336.966C30.9352 336.297 30.8888 335.551 31.0861 334.852C31.5402 334.223 32.2128 333.787 32.9719 333.629C33.731 333.471 34.5219 333.602 35.1892 333.997Z" fill="#141518"/>
<path d="M108.748 346.586C115.198 344.192 124.865 348.14 128.393 357.667C131.921 367.194 127.196 376.488 120.731 378.897C114.266 381.306 104.614 377.343 101.071 367.816C97.5271 358.289 102.283 348.995 108.748 346.586Z" fill="#141518"/>
<path d="M110.178 350.471C114.841 348.746 121.865 351.87 124.554 359.113C127.243 366.355 123.932 373.318 119.301 375.043C114.67 376.768 107.614 373.629 104.925 366.402C102.236 359.175 105.531 352.196 110.178 350.471Z" fill="#2A3C45"/>
<path d="M78.8459 42.1854L239.174 131.861C242.283 133.664 245.158 138.498 243.246 141.621C241.335 144.745 235.88 144.823 232.849 143.176L72.1629 54.1059C69.0546 52.3497 66.5524 47.7027 68.091 44.4389C69.7851 40.8488 75.3956 40.2271 78.8459 42.1854Z" fill="#EBEBED"/>
<path d="M700.5 648.811L526.93 549.592L378.366 629.073L565.411 731.881L700.5 648.811Z" fill="url(#paint1_linear)"/>
<g style="mix-blend-mode:multiply">
<g style="mix-blend-mode:multiply">
<path d="M121.088 478.582L258.71 401.697C261.131 400.302 263.875 399.568 266.668 399.568C269.521 399.577 272.321 400.344 274.781 401.79L533.986 541.308C536.541 542.868 538.649 545.063 540.102 547.681C541.556 550.298 542.306 553.247 542.28 556.241C542.253 559.235 541.451 562.17 539.951 564.761C538.451 567.352 536.304 569.51 533.721 571.024L396.084 647.179C393.686 648.54 390.977 649.258 388.22 649.261C385.411 649.255 382.652 648.516 380.216 647.116L121.042 508.344C118.466 506.807 116.333 504.628 114.852 502.019C113.371 499.411 112.592 496.463 112.592 493.463C112.592 490.463 113.371 487.515 114.852 484.907C116.333 482.298 118.466 480.119 121.042 478.582H121.088Z" fill="white"/>
</g>
<g style="mix-blend-mode:multiply">
<path d="M259.223 402.676C260.62 401.892 262.147 401.365 263.73 401.122C264.855 400.938 265.996 400.87 267.134 400.92C269.959 401.049 272.71 401.859 275.154 403.282L533.442 542.319C535.113 543.316 536.569 544.637 537.724 546.203C538.88 547.769 539.712 549.55 540.171 551.442C540.607 553.204 540.754 555.025 540.607 556.835C540.607 562.461 536.426 568.242 531.67 570.915L396.27 645.827C393.923 647.157 391.29 647.904 388.593 648.002C387.705 648.039 386.816 647.998 385.935 647.878C384.106 647.659 382.341 647.072 380.744 646.153L121.57 507.365C118.38 505.482 116.029 502.452 114.996 498.895C114.42 496.924 114.205 494.865 114.359 492.818C114.359 487.207 118.555 481.348 123.295 478.628L259.223 402.676Z" fill="#F8F8F9"/>
</g>
<g style="mix-blend-mode:multiply">
<path d="M259.752 403.655C261.129 402.862 262.661 402.375 264.243 402.225C265.36 402.124 266.484 402.124 267.6 402.225C270.413 402.458 273.141 403.307 275.589 404.712L532.96 543.251C534.573 544.219 535.951 545.532 536.997 547.096C538.042 548.66 538.728 550.436 539.006 552.296C539.262 553.981 539.262 555.694 539.006 557.378C539.006 562.43 533.955 568.351 529.681 570.76L396.55 644.412C393.478 646.144 389.967 646.943 386.448 646.712C384.653 646.587 382.91 646.055 381.35 645.158L122.099 506.386C120.568 505.483 119.249 504.263 118.231 502.807C117.212 501.351 116.517 499.694 116.193 497.947C115.54 496.299 116.099 494.03 116.099 492.196C116.099 487.145 121.228 481.115 125.425 478.675L259.752 403.655Z" fill="#F1F2F3"/>
</g>
<g style="mix-blend-mode:multiply">
<path d="M260.28 404.634C261.648 403.845 263.193 403.412 264.772 403.375C265.872 403.33 266.974 403.376 268.067 403.515C270.833 403.884 273.499 404.792 275.915 406.188L532.354 544.23C533.918 545.161 535.227 546.464 536.165 548.023C537.103 549.582 537.641 551.349 537.731 553.167C538.167 554.488 537.265 556.508 537.25 557.953C537.25 562.445 531.344 568.491 527.536 570.635L396.659 643.044C394.403 644.323 391.914 645.137 389.339 645.438C388.503 645.533 387.662 645.575 386.821 645.562C385.056 645.528 383.329 645.046 381.801 644.163L122.627 505.407C121.135 504.533 119.877 503.31 118.962 501.843C118.047 500.375 117.502 498.708 117.374 496.983C116.799 495.522 117.84 493.207 117.84 491.575C117.84 487.083 123.901 480.882 127.694 478.722L260.28 404.634Z" fill="#EBEBED"/>
</g>
<g style="mix-blend-mode:multiply">
<path d="M260.793 405.644C262.154 404.855 263.713 404.472 265.285 404.541C266.374 404.574 267.459 404.683 268.533 404.867C271.264 405.358 273.891 406.309 276.304 407.68L531.841 545.209C533.36 546.108 534.6 547.41 535.423 548.971C536.246 550.533 536.62 552.291 536.504 554.052C536.877 555.202 535.587 557.254 535.571 558.513C535.571 562.445 528.795 568.631 525.453 570.496L396.814 641.661C394.599 642.913 392.178 643.76 389.665 644.163C388.857 644.292 388.042 644.375 387.225 644.412C385.494 644.481 383.78 644.055 382.283 643.184L123.155 504.428C121.683 503.591 120.47 502.365 119.647 500.885C118.825 499.405 118.426 497.727 118.493 496.035C117.996 494.761 119.519 492.383 119.519 490.953C119.519 487.021 126.512 480.664 129.823 478.753L260.793 405.644Z" fill="#E4E4E7"/>
</g>
<g style="mix-blend-mode:multiply">
<path d="M261.321 406.592C262.675 405.808 264.243 405.476 265.798 405.644C266.873 405.756 267.942 405.927 268.999 406.157C270.553 406.157 275.325 408.333 276.677 409.11L531.313 546.173C532.806 547.039 533.993 548.348 534.708 549.918C535.424 551.489 535.633 553.243 535.307 554.938C535.649 555.917 533.939 558.047 533.924 559.088C533.924 562.461 526.293 568.755 523.433 570.371L397.063 640.309C394.888 641.525 392.54 642.4 390.1 642.905C389.587 642.905 388.204 643.355 387.707 643.278C386.017 643.439 384.318 643.076 382.842 642.236L123.684 503.449C122.245 502.631 121.093 501.389 120.387 499.893C119.68 498.396 119.453 496.718 119.736 495.087C119.317 493.984 121.29 491.559 121.29 490.331C121.29 486.959 129.217 480.431 132.061 478.799L261.321 406.592Z" fill="#DDDEE1"/>
</g>
<g style="mix-blend-mode:multiply">
<path d="M261.85 407.556C263.2 406.782 264.78 406.513 266.31 406.795C267.358 406.959 268.396 407.182 269.419 407.463C270.709 407.463 275.884 409.918 277.019 410.571L530.722 547.137C532.191 547.974 533.324 549.293 533.931 550.871C534.537 552.449 534.578 554.188 534.048 555.793C534.328 556.617 532.214 558.746 532.214 559.648C532.214 562.445 523.713 568.879 521.335 570.232L397.203 638.895C395.072 640.092 392.794 641.007 390.427 641.615C390.007 641.615 388.515 642.174 388.111 642.097C386.463 642.365 384.773 642.057 383.324 641.226L124.197 502.47C122.774 501.668 121.671 500.4 121.073 498.88C120.476 497.359 120.421 495.68 120.917 494.124C120.56 493.222 123.062 490.736 123.062 489.71C123.062 486.912 131.921 480.198 134.283 478.831L261.85 407.556Z" fill="#D6D7DA"/>
</g>
<g style="mix-blend-mode:multiply">
<path d="M262.363 408.535C263.719 407.758 265.325 407.54 266.839 407.929C267.243 407.836 269.512 408.784 269.947 408.784C272.55 409.624 275.064 410.718 277.454 412.047L530.256 548.116C531.707 548.939 532.789 550.286 533.28 551.88C533.771 553.475 533.634 555.197 532.898 556.695C533.115 557.363 530.613 559.508 530.598 560.223C530.598 562.476 521.273 569.035 519.33 570.107L397.452 637.527C395.356 638.7 393.142 639.648 390.846 640.356C390.52 640.356 388.935 641.024 388.608 640.962C387.022 641.324 385.357 641.074 383.946 640.263L124.725 501.49C123.304 500.706 122.24 499.405 121.754 497.856C121.267 496.308 121.396 494.631 122.114 493.175C121.819 492.445 124.803 489.912 124.803 489.088C124.803 486.85 134.594 479.98 136.49 478.893L262.363 408.535Z" fill="#CFD1D4"/>
</g>
<g style="mix-blend-mode:multiply">
<path d="M262.891 409.514C263.561 409.129 264.305 408.891 265.074 408.816C265.844 408.741 266.62 408.831 267.352 409.079C267.662 409.079 270.087 410.105 270.46 410.105C273.015 411.06 275.497 412.197 277.889 413.508L529.712 549.095C530.425 549.498 531.046 550.045 531.536 550.701C532.026 551.358 532.374 552.109 532.558 552.907C532.742 553.705 532.758 554.532 532.605 555.337C532.453 556.142 532.134 556.906 531.67 557.581C531.841 558.078 528.919 560.254 528.919 560.798C528.919 562.476 518.693 569.175 517.263 569.983L397.591 636.16C395.527 637.306 393.376 638.288 391.157 639.097C390.908 639.097 389.23 639.859 388.981 639.812C388.211 640.056 387.397 640.134 386.594 640.043C385.791 639.952 385.016 639.693 384.319 639.283L125.254 500.449C124.558 500.062 123.95 499.534 123.469 498.9C122.987 498.266 122.643 497.538 122.457 496.764C122.272 495.99 122.249 495.185 122.391 494.402C122.532 493.618 122.835 492.872 123.28 492.212C123.062 491.668 126.528 489.104 126.528 488.466C126.528 486.788 137.252 479.747 138.666 478.924L262.891 409.514Z" fill="#C8CACE"/>
</g>
<g style="mix-blend-mode:multiply">
<path d="M263.42 410.493C264.088 410.106 264.838 409.879 265.609 409.83C266.38 409.781 267.153 409.913 267.865 410.214C268.082 410.214 270.662 411.426 270.864 411.426C271.377 411.426 277.749 414.721 278.2 414.985L529.168 550.074C529.879 550.477 530.489 551.036 530.953 551.708C531.417 552.381 531.723 553.15 531.847 553.958C531.971 554.765 531.91 555.59 531.67 556.371C531.429 557.152 531.015 557.869 530.458 558.466C530.567 558.793 527.241 561.015 527.241 561.373C527.241 562.492 516.159 569.315 515.211 569.858L397.84 634.776C395.827 635.927 393.752 636.965 391.623 637.885C391.468 637.885 389.696 638.755 389.525 638.724C388.79 639.009 388.001 639.124 387.215 639.062C386.43 639 385.668 638.763 384.987 638.366L125.782 499.532C125.077 499.14 124.471 498.593 124.009 497.931C123.547 497.27 123.241 496.513 123.115 495.716C122.99 494.919 123.047 494.104 123.283 493.333C123.518 492.562 123.927 491.854 124.476 491.264C124.337 490.906 128.284 488.264 128.284 487.86C128.284 486.726 139.94 479.514 140.889 478.97L263.42 410.493Z" fill="#C2C3C8"/>
</g>
<g style="mix-blend-mode:multiply">
<path d="M263.932 411.473C264.609 411.09 265.37 410.879 266.147 410.857C266.925 410.835 267.696 411.004 268.393 411.348C268.486 411.348 271.221 412.731 271.33 412.731C271.439 412.731 278.355 416.306 278.588 416.446L528.639 551.037C529.346 551.451 529.941 552.031 530.374 552.726C530.807 553.421 531.064 554.211 531.124 555.028C531.183 555.844 531.044 556.663 530.716 557.414C530.389 558.165 529.884 558.825 529.245 559.337C529.245 559.508 525.578 561.761 525.562 561.932C525.562 562.507 513.626 569.454 513.129 569.703L398.027 633.424C397.809 633.549 392.214 636.533 391.965 636.533C391.717 636.533 390.007 637.512 389.929 637.512C389.225 637.841 388.451 637.994 387.674 637.959C386.897 637.923 386.141 637.701 385.469 637.31L126.388 498.553C125.679 498.151 125.079 497.581 124.641 496.893C124.203 496.205 123.94 495.42 123.876 494.608C123.812 493.795 123.947 492.979 124.272 492.23C124.596 491.482 125.098 490.825 125.735 490.316C125.735 490.129 130.103 487.441 130.103 487.208C130.103 486.648 142.691 479.25 143.158 478.986L263.932 411.473Z" fill="#BBBDC2"/>
</g>
<g style="mix-blend-mode:multiply">
<path d="M264.461 412.452C265.137 412.061 265.903 411.856 266.683 411.856C267.464 411.856 268.23 412.061 268.906 412.452L528.095 551.97C528.807 552.392 529.397 552.993 529.807 553.712C530.216 554.432 530.431 555.245 530.431 556.073C530.431 556.901 530.216 557.714 529.807 558.434C529.397 559.153 528.807 559.753 528.095 560.176L390.442 636.331C389.774 636.709 389.019 636.908 388.251 636.908C387.483 636.908 386.728 636.709 386.059 636.331L126.839 497.574C126.127 497.149 125.538 496.547 125.129 495.827C124.72 495.106 124.505 494.292 124.505 493.463C124.505 492.634 124.72 491.82 125.129 491.099C125.538 490.379 126.127 489.777 126.839 489.352L264.461 412.452Z" fill="#B4B6BC"/>
</g>
</g>
<path d="M527.443 551.41L272.558 414.394C270.053 413.027 267.243 412.316 264.389 412.33C261.535 412.344 258.731 413.081 256.239 414.472L125.378 486.337C124.406 486.875 123.596 487.663 123.032 488.619C122.468 489.576 122.171 490.666 122.171 491.777C122.171 492.887 122.468 493.977 123.032 494.934C123.596 495.891 124.406 496.679 125.378 497.216L378.164 634.201C380.656 635.592 383.458 636.33 386.312 636.347C389.165 636.363 391.976 635.657 394.483 634.294L527.52 562.383C528.511 561.846 529.338 561.049 529.911 560.079C530.484 559.108 530.783 558 530.775 556.873C530.767 555.746 530.452 554.643 529.865 553.68C529.279 552.718 528.441 551.933 527.443 551.41Z" fill="#B7BAC7"/>
<path d="M122.223 480.043L530.706 545.163V557.161L122.223 492.057V480.043Z" fill="#B7BAC7"/>
<path d="M527.443 539.133L272.558 402.117C270.05 400.758 267.239 400.055 264.387 400.071C261.534 400.087 258.732 400.823 256.239 402.21L125.424 474.028C124.453 474.566 123.643 475.354 123.079 476.311C122.515 477.267 122.217 478.357 122.217 479.468C122.217 480.578 122.515 481.669 123.079 482.625C123.643 483.582 124.453 484.37 125.424 484.907L378.164 621.939C380.656 623.33 383.458 624.068 386.312 624.085C389.165 624.101 391.976 623.395 394.483 622.032L527.443 550.183C528.457 549.66 529.308 548.867 529.902 547.893C530.496 546.918 530.81 545.799 530.81 544.658C530.81 543.516 530.496 542.397 529.902 541.423C529.308 540.448 528.457 539.656 527.443 539.133Z" fill="white"/>
<path d="M125.425 483.493L155.311 500.169L378.071 620.447C380.562 621.838 383.365 622.576 386.218 622.592C389.072 622.609 391.883 621.903 394.39 620.54L497.836 564.73L521.148 552.017L527.365 548.628C528.364 548.1 529.199 547.309 529.782 546.341C530.365 545.373 530.673 544.264 530.673 543.134C530.673 542.005 530.365 540.896 529.782 539.928C529.199 538.96 528.364 538.169 527.365 537.64L272.48 400.64C269.973 399.278 267.162 398.571 264.309 398.588C261.456 398.604 258.653 399.342 256.162 400.733L153.586 456.777L125.425 472.583C124.445 473.118 123.628 473.907 123.059 474.867C122.49 475.827 122.189 476.922 122.189 478.038C122.189 479.154 122.49 480.249 123.059 481.209C123.628 482.169 124.445 482.958 125.425 483.493Z" fill="#EBEAF1"/>
<g style="mix-blend-mode:multiply">
<g style="mix-blend-mode:multiply">
<path d="M108.655 671.051L252.649 756.655L357.261 707.434L181.359 606.646L108.655 671.051Z" fill="url(#paint2_linear)"/>
</g>
</g>
<g style="mix-blend-mode:multiply">
<g style="mix-blend-mode:multiply">
<path d="M254.825 632.554L167.076 582.339C164.653 580.951 161.911 580.217 159.119 580.209C156.264 580.21 153.462 580.978 151.006 582.432L63.444 630.098C60.8854 631.656 58.7753 633.852 57.3202 636.47C55.8651 639.089 55.1149 642.04 55.1431 645.036C55.1713 648.031 55.9769 650.968 57.4811 653.559C58.9852 656.149 61.1363 658.305 63.7238 659.814L151.504 709.299C153.924 710.666 156.66 711.379 159.44 711.365C162.22 711.351 164.949 710.612 167.356 709.221L254.872 662.223C257.452 660.691 259.589 658.514 261.073 655.907C262.557 653.299 263.338 650.35 263.338 647.35C263.338 644.349 262.557 641.4 261.073 638.793C259.589 636.185 257.452 634.008 254.872 632.476L254.825 632.554Z" fill="white"/>
</g>
<g style="mix-blend-mode:multiply">
<path d="M151.535 583.333L64.5009 630.782C62.4436 631.971 60.6423 633.556 59.2011 635.445C57.0994 638.313 56.1208 641.851 56.4502 645.392C56.4502 650.987 60.6776 656.83 65.4334 659.503L152.016 708.304C153.555 709.18 155.25 709.745 157.005 709.967C157.918 710.079 158.837 710.121 159.756 710.092C162.489 709.973 165.154 709.2 167.527 707.838L253.861 661.462C255.632 660.444 257.21 659.124 258.524 657.561C260.995 654.605 262.216 650.803 261.928 646.961C261.928 641.351 257.871 635.554 253.131 632.834L167.139 583.613C164.767 582.253 162.1 581.49 159.368 581.391C158.543 581.359 157.717 581.39 156.896 581.484C155.002 581.728 153.177 582.357 151.535 583.333Z" fill="#F8F8F9"/>
</g>
<g style="mix-blend-mode:multiply">
<path d="M152.079 584.375L65.6043 631.466C63.5513 632.646 61.7336 634.195 60.2424 636.035C59.1668 637.388 58.3881 638.952 57.957 640.626C57.5259 642.299 57.452 644.045 57.7402 645.749C57.7402 650.8 62.869 656.784 67.1585 659.193L152.529 707.372C154.036 708.248 155.719 708.779 157.456 708.926C158.346 708.988 159.239 708.988 160.129 708.926C162.831 708.713 165.452 707.906 167.807 706.564L252.96 660.824C254.702 659.824 256.276 658.555 257.623 657.063C258.869 655.669 259.793 654.017 260.33 652.226C260.867 650.435 261.004 648.547 260.731 646.697C260.731 641.646 255.866 635.818 251.592 633.284L167.372 585.105C165.069 583.778 162.499 582.982 159.849 582.774C159.048 582.711 158.242 582.711 157.44 582.774C155.552 582.877 153.715 583.426 152.079 584.375Z" fill="#F1F2F3"/>
</g>
<g style="mix-blend-mode:multiply">
<path d="M152.607 585.276L66.6767 632.134C64.6449 633.313 62.8139 634.809 61.2526 636.564C60.1409 637.858 59.3594 639.402 58.975 641.064C58.5906 642.726 58.6149 644.456 59.0457 646.106C59.0457 650.598 65.0603 656.753 68.8681 658.897L153.058 706.346C154.542 707.19 156.215 707.644 157.922 707.667C158.789 707.68 159.656 707.638 160.518 707.543C163.164 707.227 165.722 706.387 168.04 705.072L251.965 660.001C253.682 659.019 255.252 657.8 256.628 656.379C257.886 655.048 258.794 653.426 259.271 651.657C259.749 649.889 259.78 648.03 259.363 646.246C259.363 641.755 253.69 635.74 249.898 633.564L167.527 586.364C165.271 585.083 162.783 584.264 160.207 583.955C159.434 583.859 158.655 583.818 157.876 583.831C156.023 583.842 154.206 584.341 152.607 585.276Z" fill="#EBEBED"/>
</g>
<g style="mix-blend-mode:multiply">
<path d="M153.151 586.255L67.7491 632.88C65.7249 634.035 63.8773 635.474 62.2628 637.154C61.1334 638.392 60.3584 639.911 60.0193 641.552C59.6801 643.193 59.7894 644.895 60.3357 646.479C60.3357 650.396 67.2517 656.706 70.5777 658.586L153.571 705.367C155.033 706.191 156.696 706.589 158.373 706.517C159.221 706.48 160.067 706.397 160.906 706.268C163.49 705.851 165.979 704.977 168.257 703.688L251.064 659.224C252.761 658.267 254.328 657.097 255.726 655.742C257.001 654.474 257.9 652.878 258.322 651.13C258.745 649.383 258.675 647.552 258.12 645.842C258.12 641.91 251.639 635.787 248.329 633.875L167.636 587.701C165.444 586.443 163.043 585.59 160.549 585.183C159.798 585.06 159.04 584.982 158.28 584.95C156.48 584.88 154.699 585.334 153.151 586.255Z" fill="#E4E4E7"/>
</g>
<g style="mix-blend-mode:multiply">
<path d="M153.679 587.219L68.8836 633.502C66.8726 634.643 65.0092 636.026 63.3352 637.621C62.1498 638.803 61.3562 640.321 61.0615 641.969C60.7669 643.618 60.9855 645.317 61.6878 646.837C61.6878 650.194 69.4587 656.675 72.365 658.275L154.146 704.388C155.585 705.2 157.242 705.543 158.886 705.367C159.399 705.367 160.844 704.994 161.357 704.994C163.88 704.476 166.308 703.569 168.553 702.305L250.178 658.477C251.851 657.534 253.415 656.408 254.841 655.12C256.136 653.919 257.027 652.346 257.391 650.618C257.756 648.89 257.576 647.091 256.877 645.469C256.877 642.112 249.603 635.864 246.759 634.232L167.791 589.037C165.651 587.815 163.333 586.934 160.922 586.426C160.198 586.275 159.466 586.161 158.73 586.084C156.969 585.913 155.199 586.311 153.679 587.219Z" fill="#DDDEE1"/>
</g>
<g style="mix-blend-mode:multiply">
<path d="M154.208 588.198L69.8938 634.108C67.8699 635.258 65.969 636.612 64.2211 638.149C62.9923 639.273 62.1873 640.785 61.9411 642.432C61.6949 644.079 62.0225 645.76 62.869 647.194C62.869 649.992 71.5723 656.628 73.9502 657.965L154.534 703.393C155.948 704.195 157.594 704.486 159.197 704.217C159.616 704.217 161.155 703.72 161.59 703.72C164.043 703.096 166.405 702.155 168.615 700.922L249.168 657.732C250.814 656.799 252.375 655.723 253.83 654.514C255.146 653.377 256.031 651.824 256.34 650.113C256.648 648.401 256.36 646.636 255.524 645.112C255.524 642.299 247.443 635.942 245.08 634.574L167.916 590.42C165.831 589.223 163.593 588.313 161.264 587.716C160.567 587.53 159.862 587.38 159.15 587.265C157.444 586.974 155.69 587.305 154.208 588.198Z" fill="#D6D7DA"/>
</g>
<g style="mix-blend-mode:multiply">
<path d="M154.736 589.161L70.9662 634.854C68.9759 635.975 67.0788 637.253 65.2935 638.678C64.0257 639.747 63.2103 641.257 63.0113 642.904C62.8123 644.55 63.2446 646.211 64.2211 647.552C64.2211 649.805 73.8259 656.597 75.7375 657.67L155.125 702.492C156.533 703.312 158.208 703.547 159.787 703.145C160.129 703.145 161.777 702.523 162.119 702.523C164.503 701.794 166.805 700.82 168.988 699.617L248.251 657.048C249.884 656.136 251.443 655.096 252.913 653.94C254.258 652.867 255.146 651.325 255.399 649.624C255.653 647.922 255.254 646.188 254.281 644.77C254.281 642.516 245.391 636.051 243.495 634.963L168.102 591.804C166.064 590.642 163.907 589.704 161.668 589.006C161.357 589.006 159.927 588.4 159.616 588.447C157.959 588.039 156.207 588.296 154.736 589.161Z" fill="#CFD1D4"/>
</g>
<g style="mix-blend-mode:multiply">
<path d="M155.28 590.141L71.992 635.538C70.007 636.642 68.0917 637.867 66.2571 639.206C65.6092 639.71 65.072 640.343 64.679 641.064C64.2859 641.784 64.0455 642.579 63.9726 643.396C63.8997 644.214 63.9959 645.038 64.2553 645.817C64.5146 646.596 64.9315 647.314 65.48 647.925C65.48 649.603 75.9707 656.55 77.4005 657.359L155.591 701.435C156.276 701.824 157.034 702.067 157.818 702.15C158.601 702.233 159.393 702.154 160.145 701.917C160.409 701.917 162.15 701.171 162.414 701.171C164.721 700.345 166.96 699.342 169.112 698.171L247.21 656.209C248.819 655.326 250.376 654.35 251.872 653.287C252.543 652.779 253.103 652.141 253.52 651.411C253.937 650.681 254.201 649.873 254.297 649.038C254.393 648.203 254.319 647.356 254.078 646.551C253.838 645.745 253.436 644.996 252.898 644.35C252.898 642.656 243.2 636.082 241.785 635.258L168.149 593.125C166.161 591.984 164.082 591.011 161.932 590.218C161.699 590.218 160.191 589.519 159.958 589.55C159.18 589.317 158.362 589.249 157.557 589.351C156.751 589.453 155.976 589.722 155.28 590.141Z" fill="#C8CACE"/>
</g>
<g style="mix-blend-mode:multiply">
<path d="M155.809 591.104L73.111 636.175C72.7224 636.408 67.5626 639.284 67.3139 639.703C66.6461 640.181 66.0937 640.802 65.6972 641.521C65.3007 642.24 65.0702 643.039 65.0225 643.858C64.9748 644.678 65.1112 645.498 65.4216 646.258C65.7321 647.018 66.2087 647.699 66.8166 648.251C66.8166 649.37 78.2087 656.488 79.1723 657.017L156.15 700.425C156.831 700.81 157.589 701.037 158.369 701.091C159.149 701.145 159.931 701.023 160.658 700.736C160.829 700.736 162.678 699.881 162.849 699.881C165.081 698.956 167.265 697.918 169.392 696.772L246.308 655.462C246.635 655.276 250.753 652.96 250.971 652.681C251.658 652.204 252.23 651.581 252.646 650.855C253.062 650.13 253.311 649.321 253.375 648.488C253.439 647.654 253.316 646.817 253.016 646.037C252.716 645.256 252.245 644.553 251.639 643.977C251.639 642.858 241.164 636.206 240.2 635.616L168.351 594.492C166.402 593.384 164.394 592.383 162.336 591.493C162.181 591.493 160.595 590.7 160.44 590.715C159.689 590.428 158.882 590.313 158.08 590.38C157.278 590.447 156.502 590.695 155.809 591.104Z" fill="#C2C3C8"/>
</g>
<g style="mix-blend-mode:multiply">
<path d="M156.353 592.145L74.1833 636.89C73.9968 636.999 68.4484 640.092 68.3241 640.263C67.6351 640.714 67.0658 641.326 66.6649 642.045C66.264 642.765 66.0434 643.571 66.022 644.394C66.0006 645.218 66.1791 646.034 66.5421 646.773C66.9051 647.513 67.4419 648.153 68.1065 648.64C68.1065 649.199 80.4156 656.411 80.8818 656.753L156.679 699.461C157.348 699.85 158.103 700.067 158.876 700.091C159.649 700.115 160.416 699.947 161.108 699.601C161.202 699.601 163.144 698.637 163.238 698.637C163.331 698.637 169.454 695.529 169.61 695.405L245.36 654.732C245.516 654.639 249.914 652.23 250.023 652.074C250.721 651.625 251.302 651.015 251.714 650.293C252.126 649.572 252.358 648.762 252.39 647.932C252.422 647.102 252.253 646.277 251.898 645.526C251.542 644.775 251.011 644.121 250.349 643.62C250.349 643.06 239.066 636.253 238.584 635.973L168.491 595.86C168.273 595.736 162.942 592.752 162.694 592.752C162.445 592.752 160.953 591.85 160.875 591.85C160.155 591.523 159.366 591.379 158.577 591.431C157.788 591.482 157.024 591.728 156.353 592.145Z" fill="#BBBDC2"/>
</g>
<g style="mix-blend-mode:multiply">
<path d="M161.326 593.031C160.652 592.635 159.885 592.426 159.103 592.426C158.322 592.426 157.555 592.635 156.881 593.031L69.3343 640.791C68.6264 641.22 68.0424 641.826 67.6396 642.55C67.2368 643.273 67.0291 644.088 67.037 644.916C67.0448 645.744 67.2679 646.556 67.6843 647.271C68.1007 647.987 68.6961 648.581 69.412 648.997L157.192 698.482C157.854 698.872 158.607 699.077 159.375 699.077C160.143 699.077 160.897 698.872 161.559 698.482L249.168 651.468C249.879 651.044 250.469 650.442 250.878 649.721C251.287 649.001 251.502 648.186 251.502 647.358C251.502 646.529 251.287 645.714 250.878 644.994C250.469 644.273 249.879 643.671 249.168 643.247L161.326 593.031Z" fill="#B4B6BC"/>
</g>
</g>
<path d="M70.2979 639.222L153.477 593.98C155.987 592.619 158.8 591.913 161.654 591.926C164.509 591.94 167.315 592.673 169.812 594.057L250.815 639.237C251.787 639.775 252.597 640.563 253.161 641.519C253.725 642.476 254.022 643.566 254.022 644.677C254.022 645.787 253.725 646.877 253.161 647.834C252.597 648.791 251.787 649.579 250.815 650.116L169.812 695.343C167.318 696.734 164.512 697.472 161.657 697.488C158.801 697.504 155.987 696.798 153.477 695.436L70.2979 650.194C69.3033 649.664 68.4715 648.873 67.8914 647.907C67.3114 646.941 67.005 645.835 67.005 644.708C67.005 643.581 67.3114 642.475 67.8914 641.508C68.4715 640.542 69.3033 639.752 70.2979 639.222Z" fill="#B7BAC7"/>
<path d="M67.0497 644.972H254.017V632.974H67.0497V644.972Z" fill="#B7BAC7"/>
<path d="M70.2979 626.959L153.477 581.717C155.987 580.354 158.801 579.649 161.657 579.665C164.512 579.681 167.318 580.419 169.812 581.81L250.815 626.99C251.787 627.528 252.597 628.316 253.161 629.272C253.725 630.229 254.022 631.319 254.022 632.43C254.022 633.54 253.725 634.63 253.161 635.587C252.597 636.544 251.787 637.332 250.815 637.869L169.812 683.049C167.318 684.44 164.512 685.178 161.657 685.194C158.801 685.211 155.987 684.505 153.477 683.142L70.2979 637.931C69.3033 637.401 68.4715 636.611 67.8914 635.644C67.3114 634.678 67.005 633.572 67.005 632.445C67.005 631.318 67.3114 630.212 67.8914 629.246C68.4715 628.28 69.3033 627.489 70.2979 626.959Z" fill="white"/>
<path d="M250.815 636.408L220.913 653.1L169.812 681.588C167.32 682.979 164.518 683.717 161.664 683.734C158.811 683.75 156 683.044 153.493 681.681L99.9671 652.541L76.6545 639.827L70.4378 636.439C69.4393 635.911 68.6037 635.12 68.0209 634.152C67.4382 633.184 67.1302 632.075 67.1302 630.945C67.1302 629.815 67.4382 628.707 68.0209 627.739C68.6037 626.771 69.4393 625.98 70.4378 625.451L153.633 580.225C156.139 578.86 158.95 578.152 161.804 578.168C164.658 578.185 167.461 578.924 169.952 580.318L222.638 609.692L250.955 625.498C251.928 626.046 252.735 626.845 253.292 627.812C253.849 628.779 254.135 629.879 254.121 630.995C254.107 632.111 253.792 633.202 253.211 634.155C252.629 635.107 251.801 635.886 250.815 636.408Z" fill="#EBEAF1"/>
<path d="M384.381 480.494C392.152 480.494 398.462 477.308 399.115 473.282V531.129C398.99 534.951 397.384 538.576 394.636 541.236C391.888 543.896 388.214 545.384 384.389 545.384C380.564 545.384 376.889 543.896 374.141 541.236C371.393 538.576 369.787 534.951 369.663 531.129V473.282C370.393 477.308 376.61 480.494 384.381 480.494Z" fill="#002F6D"/>
<path d="M341.004 455.813C348.775 455.813 354.991 452.705 355.722 448.617V506.448C355.598 510.271 353.992 513.896 351.244 516.556C348.496 519.216 344.821 520.703 340.996 520.703C337.171 520.703 333.497 519.216 330.749 516.556C328 513.896 326.395 510.271 326.27 506.448V448.617C326.877 452.627 333.093 455.813 341.004 455.813Z" fill="#FF9500"/>
<path d="M216.235 414.581C220.043 411.473 254.918 409.763 254.918 409.763L267.15 434.086L211.51 466.257C211.51 466.257 209.754 443.442 209.754 430.946C209.754 418.451 212.427 417.643 216.235 414.581Z" fill="#B7BAC7"/>
<path d="M288.022 387.818C293.241 390.332 298.241 393.274 302.973 396.615C319.727 408.427 431.814 470.889 441.575 475.054C451.335 479.219 463.224 492.026 465.198 501.226C467.172 510.427 467.856 549.608 467.856 549.608L413.18 580.924C413.18 580.924 412.605 540.78 410.165 533.771C407.725 526.761 407.274 519.535 385.686 507.257C364.099 494.979 216.281 412.685 216.281 412.685L257.887 388.922C262.443 386.306 267.568 384.839 272.818 384.647C278.068 384.455 283.287 385.543 288.022 387.818Z" fill="#DDDDE3"/>
<path d="M214.043 413.571C217.354 411.69 221.472 412.017 225.638 414.332L397.296 511.934C406.077 516.923 413.211 530.305 413.211 541.744V580.924L409.652 579.013V541.712C409.652 531.564 403.187 519.301 395.524 514.95L223.866 417.363C222.346 416.415 220.605 415.879 218.815 415.809C217.772 415.79 216.742 416.047 215.831 416.555C213.08 418.109 211.51 421.932 211.51 426.999V466.257L207.951 464.221V426.921C207.951 420.689 210.174 415.778 214.043 413.571Z" fill="white"/>
<path opacity="0.61" d="M384.381 381.539C388.255 381.519 391.979 383.032 394.74 385.749C397.501 388.467 399.074 392.166 399.115 396.04V442.261C398.462 438.236 392.214 435.05 384.381 435.05C376.548 435.05 370.3 438.236 369.663 442.261V396.04C369.7 392.168 371.269 388.468 374.028 385.75C376.786 383.033 380.509 381.519 384.381 381.539Z" fill="#00A3FF"/>
<path d="M384.381 435.05C392.152 435.05 398.462 438.236 399.115 442.261V443.52C398.524 447.607 392.276 450.716 384.381 450.716C376.486 450.716 370.3 447.53 369.663 443.504V442.245C370.393 438.282 376.61 435.05 384.381 435.05Z" fill="url(#paint3_linear)"/>
<path d="M384.381 450.716C392.152 450.716 398.462 447.529 399.115 443.504V473.267C398.462 477.292 392.214 480.478 384.381 480.478C376.548 480.478 370.3 477.292 369.663 473.267V443.52C370.393 447.607 376.61 450.716 384.381 450.716Z" fill="url(#paint4_linear)"/>
<path opacity="0.61" d="M341.004 356.843C344.875 356.827 348.595 358.342 351.353 361.059C354.11 363.776 355.681 367.473 355.722 371.344V417.565C355.069 413.54 348.837 410.354 341.004 410.354C333.171 410.354 326.923 413.54 326.27 417.565V371.344C326.315 367.472 327.89 363.774 330.65 361.058C333.41 358.342 337.132 356.827 341.004 356.843Z" fill="#00A3FF"/>
<path d="M341.004 410.307C348.775 410.307 354.991 413.493 355.722 417.519V418.777C355.069 422.803 348.837 425.989 341.004 425.989C333.171 425.989 326.923 422.803 326.27 418.777V417.519C326.877 413.54 333.093 410.307 341.004 410.307Z" fill="#EE8200"/>
<path d="M341.004 426.035C348.775 426.035 354.991 422.849 355.722 418.824V448.617C355.069 452.627 348.837 455.813 341.004 455.813C333.171 455.813 326.923 452.705 326.27 448.617V418.824C326.877 422.849 333.093 426.035 341.004 426.035Z" fill="url(#paint5_linear)"/>
<path opacity="0.58" d="M340.864 360.34C346.273 360.34 350.655 363.449 350.655 367.35C350.655 371.251 346.273 374.343 340.864 374.343C335.456 374.343 331.088 371.235 331.088 367.35C331.088 363.464 335.378 360.34 340.864 360.34Z" fill="#1270E8"/>
<g opacity="0.58">
<path opacity="0.58" d="M384.381 385.223C389.789 385.223 394.172 388.331 394.172 392.232C394.172 396.133 389.789 399.226 384.381 399.226C378.972 399.226 374.59 396.117 374.59 392.232C374.59 388.347 379.035 385.223 384.381 385.223Z" fill="#1270E8"/>
</g>
<path d="M300.098 351.046C307.869 351.046 314.086 347.86 314.816 343.851V401.666C314.816 405.582 313.261 409.337 310.492 412.106C307.723 414.875 303.967 416.43 300.052 416.43C296.136 416.43 292.38 414.875 289.611 412.106C286.842 409.337 285.287 405.582 285.287 401.666V343.851C286.017 347.86 292.25 351.046 300.098 351.046Z" fill="url(#paint6_linear)"/>
<path opacity="0.61" d="M300.098 252.077C303.969 252.06 307.689 253.575 310.447 256.292C313.204 259.009 314.775 262.706 314.816 266.577V312.783C314.163 308.773 307.931 305.587 300.098 305.587C292.265 305.587 286.017 308.695 285.365 312.783V266.577C285.406 262.703 286.978 259.004 289.739 256.287C292.5 253.569 296.224 252.056 300.098 252.077Z" fill="#00A3FF"/>
<path opacity="0.58" d="M300.098 255.635C305.507 255.635 309.874 258.744 309.874 262.645C309.874 266.546 305.507 269.639 300.098 269.639C294.69 269.639 290.307 266.53 290.307 262.645C290.307 258.759 294.69 255.635 300.098 255.635Z" fill="#1270E8"/>
<path d="M300.098 305.587C307.869 305.587 314.086 308.695 314.816 312.783V314.057C314.163 318.082 307.931 321.268 300.098 321.268C292.265 321.268 286.017 318.082 285.365 314.057V312.783C286.017 308.773 292.25 305.587 300.098 305.587Z" fill="#BE091A"/>
<path d="M300.098 321.269C307.869 321.269 314.086 318.082 314.816 314.057V343.835C314.163 347.86 307.931 351.046 300.098 351.046C292.265 351.046 286.017 347.86 285.365 343.835V314.057C286.017 318.082 292.25 321.269 300.098 321.269Z" fill="url(#paint7_linear)"/>
<path d="M305.553 252.201V245.891H293.229V252.527C293.229 254.268 296.011 255.636 299.445 255.636C302.88 255.636 305.662 254.206 305.662 252.527C305.639 252.414 305.603 252.305 305.553 252.201Z" fill="#EBEAF1"/>
<path d="M305.631 245.891C305.631 247.632 302.849 248.999 299.414 248.999C295.98 248.999 293.198 247.585 293.198 245.891C293.198 244.197 295.98 242.783 299.414 242.783C302.849 242.783 305.631 244.135 305.631 245.891Z" fill="#3A3F4F"/>
<path d="M303.564 245.021V239.659H295.311V245.223C295.311 246.388 297.176 247.336 299.461 247.336C301.746 247.336 303.611 246.388 303.611 245.223C303.604 245.154 303.588 245.086 303.564 245.021Z" fill="#EBEAF1"/>
<path d="M303.564 239.659C303.564 240.824 301.699 241.772 299.414 241.772C297.13 241.772 295.265 240.824 295.265 239.659C295.265 238.493 297.13 237.545 299.414 237.545C301.699 237.545 303.564 238.493 303.564 239.659Z" fill="#3A3F4F"/>
<path d="M295.917 252.931L295.731 253.196C295.395 252.775 295.185 252.269 295.125 251.735L287.074 263.655C286.495 264.502 286.186 265.504 286.188 266.53V281.217C288.815 280.984 290.851 280.984 290.851 280.984V267.851C290.855 266.64 291.284 265.469 292.063 264.541L299.507 254.33V252.092L295.917 252.931Z" fill="#B7BAC7"/>
<path d="M299.43 252.092L290.416 262.863C289.634 263.783 289.205 264.95 289.203 266.157V281.015C288.462 281.356 287.64 281.48 286.831 281.372C286.022 281.265 285.261 280.931 284.634 280.409V264.867C284.64 263.845 284.942 262.846 285.504 261.992L293.555 250.087C294.279 250.898 295.201 251.509 296.23 251.86C297.259 252.211 298.361 252.291 299.43 252.092Z" fill="#3A3F4F"/>
<path d="M303.735 252.931L303.906 253.196C304.249 252.78 304.46 252.271 304.512 251.735L312.563 263.655C313.138 264.503 313.441 265.506 313.433 266.53V281.217C310.822 280.984 308.864 280.984 308.864 280.984V267.851C308.859 266.643 308.436 265.473 307.667 264.541L300.207 254.33V252.092L303.735 252.931Z" fill="#B7BAC7"/>
<path d="M300.207 252.092L309.221 262.863C309.998 263.784 310.422 264.952 310.418 266.157V281.015C311.171 281.371 312.011 281.504 312.838 281.396C313.665 281.289 314.443 280.946 315.08 280.409V264.867C315.082 263.844 314.779 262.843 314.21 261.992L306.159 250.087C305.427 250.91 304.493 251.527 303.449 251.879C302.405 252.23 301.288 252.304 300.207 252.092Z" fill="#3A3F4F"/>
<path d="M196.435 447.405C195.3 449.643 193.746 451.446 194.881 451.85C196.015 452.254 199.325 450.514 199.667 450.855C201.222 452.487 195.471 454.756 192.953 454.756C189.736 454.756 182.68 475.474 182.68 475.474L174.77 472.21C174.77 472.21 184.903 455.984 185.944 451.477C186.541 448.914 188.113 446.684 190.327 445.26C191.026 444.779 194.71 447.017 195.518 443.706C196.217 440.909 197.398 438.904 197.833 439.044C198.626 439.401 197.585 445.167 196.435 447.405Z" fill="#FF9599"/>
<path d="M142.893 481.939C143.111 488.016 149.266 488.684 157.798 487.752C164.994 486.959 174.894 485.063 182.976 477.758C186.084 474.899 177.427 468.045 174.94 468.729C169.496 470.502 163.905 471.787 158.233 472.567C148.038 473.904 142.707 476.531 142.893 481.939Z" fill="#C6C9D7"/>
<path d="M190.607 459.248L183.52 476.919L174.94 468.728L182.711 455.798C182.711 455.798 188.555 457.072 190.607 459.248Z" fill="#C6C9D7"/>
<path d="M146.825 629.601C145.769 630.627 144.448 636.3 145.396 637.372C145.971 637.947 146.674 638.378 147.447 638.631C153.664 641.04 163.424 632.663 165.025 631.264C166.626 629.865 167.993 627.177 167.17 625.405C166.517 623.928 148.146 628.265 146.825 629.601Z" fill="#0080FB"/>
<path d="M155.917 624.581C152.569 626.029 149.376 627.816 146.39 629.912C145.271 630.984 144.401 634.575 145.349 635.662C146.155 636.319 147.085 636.806 148.084 637.092C151.193 638.118 159.585 634.186 163.766 630.518C165.227 629.244 167.683 626.26 166.874 624.488C166.253 623.042 160.409 622.84 155.917 624.581Z" fill="#313147"/>
<path d="M153.897 632.367C153.659 632.306 153.407 632.32 153.178 632.409C152.948 632.497 152.752 632.655 152.616 632.86C152.48 633.066 152.412 633.308 152.421 633.554C152.43 633.8 152.516 634.037 152.666 634.232C152.816 634.427 153.023 634.57 153.259 634.641C153.494 634.713 153.746 634.709 153.979 634.63C154.213 634.551 154.415 634.402 154.559 634.202C154.703 634.003 154.782 633.763 154.783 633.517C154.814 633.248 154.739 632.977 154.573 632.763C154.408 632.548 154.165 632.406 153.897 632.367Z" fill="#0080FB"/>
<path d="M146.763 630.285C146.763 630.285 145.116 631.839 145.644 635.927C145.968 636.342 146.384 636.677 146.858 636.906C147.332 637.135 147.853 637.252 148.38 637.248C148.38 637.248 148.24 633.129 149.11 631.87L149.561 631.031L147.789 628.715L146.763 630.285Z" fill="#0080FB"/>
<path d="M147.416 627.146C147.214 628.202 147.059 629.275 146.763 630.254C147.017 630.087 147.31 629.99 147.613 629.973C147.916 629.957 148.219 630.022 148.488 630.161C148.752 630.342 148.954 630.601 149.065 630.901C149.176 631.202 149.192 631.529 149.11 631.839C150.671 632.008 152.248 631.739 153.664 631.062C157.549 629.415 158.233 627.177 157.876 626.4C156.726 623.882 148.504 627.348 147.416 627.146Z" fill="#FF9599"/>
<path d="M143.748 578.034C142.369 583.187 141.958 588.552 142.536 593.855C143.235 601.548 145.318 626.695 145.318 626.695C153.089 629.679 157.161 625.887 157.161 625.887C157.161 625.887 159.912 590.591 160.16 579.712C160.409 568.833 145.489 574.117 143.748 578.034Z" fill="#313147"/>
<path d="M159.647 524.275C153.913 519.27 148.193 520.11 146.344 521.493C138.666 527.305 138.713 541.169 139.101 545.738C139.459 549.903 142.21 572.998 143.422 579.65C145.147 589.566 160.052 590.281 160.052 582.883C160.052 575.485 169.998 533.258 159.647 524.275Z" fill="#313147"/>
<path d="M163.813 637.947C162.771 638.957 161.435 644.645 162.383 645.718C162.962 646.285 163.664 646.711 164.434 646.961C170.651 649.37 180.411 640.978 182.012 639.61C183.613 638.242 184.98 635.507 184.172 633.735C183.504 632.274 165.242 636.595 163.813 637.947Z" fill="#0080FB"/>
<path d="M173.013 632.911C169.671 634.362 166.484 636.148 163.502 638.242C162.367 639.315 161.497 642.905 162.445 644.008C163.258 644.659 164.193 645.14 165.196 645.423C168.304 646.448 176.681 642.516 180.862 638.848C182.323 637.574 184.794 634.574 183.97 632.818C183.24 631.357 177.396 631.186 173.013 632.911Z" fill="#313147"/>
<path d="M170.884 640.682C170.616 640.728 170.376 640.874 170.211 641.09C170.047 641.307 169.971 641.577 169.998 641.848C169.967 642.117 170.042 642.388 170.208 642.603C170.373 642.817 170.616 642.959 170.884 642.998C171.152 642.959 171.395 642.817 171.56 642.603C171.726 642.388 171.801 642.117 171.77 641.848C171.801 641.577 171.727 641.304 171.562 641.087C171.396 640.869 171.154 640.724 170.884 640.682Z" fill="#0080FB"/>
<path d="M163.688 638.631C163.688 638.631 162.056 640.185 162.569 644.241C162.891 644.66 163.305 644.999 163.78 645.231C164.255 645.463 164.776 645.581 165.305 645.578C165.305 645.578 165.165 641.459 166.035 640.216L166.486 639.377L164.73 637.045L163.688 638.631Z" fill="#0080FB"/>
<path d="M164.403 635.476C164.241 636.523 164.023 637.56 163.75 638.584C164.004 638.417 164.297 638.32 164.6 638.303C164.904 638.287 165.206 638.352 165.476 638.491C165.74 638.672 165.941 638.931 166.052 639.232C166.164 639.532 166.179 639.86 166.097 640.169C167.657 640.324 169.231 640.056 170.651 639.392C174.552 637.729 175.313 635.491 174.863 634.73C173.728 632.212 165.491 635.662 164.403 635.476Z" fill="#FF9599"/>
<path d="M159.492 585.82C158.839 587.25 158.404 595.145 159.088 602.823C159.772 610.5 161.979 637.014 161.979 637.014C163.975 637.94 166.226 638.163 168.365 637.646C170.504 637.13 172.405 635.905 173.759 634.17C173.759 634.17 176.448 599.543 176.712 588.633C176.976 577.723 161.233 581.903 159.492 585.82Z" fill="#4A4A66"/>
<path d="M174.972 530.367C169.097 525.518 162.025 529.543 160.16 530.958C152.483 536.755 153.679 544.432 154.068 549.002C154.425 553.182 158.824 581.981 159.974 588.649C161.699 598.549 176.603 599.264 176.603 591.866C176.603 584.468 182.913 536.895 174.972 530.367Z" fill="#4A4A66"/>
<path d="M138.309 537.656C147.261 548.007 179.51 540.967 179.51 540.967C179.021 538.815 178.668 536.635 178.453 534.439C177.987 530.269 177.754 526.077 177.754 521.881C177.536 510.443 178.282 498.305 178.282 491.357C178.282 478.567 158.497 473.562 152.483 473.562C140.313 473.562 139.785 489.104 141.448 500.418C143.111 511.733 138.309 537.656 138.309 537.656Z" fill="#EBEAF1"/>
<path d="M172.298 455.471C172.174 453.917 170.433 455.052 169.314 454.057C168.046 453.104 166.517 452.561 164.932 452.503C163.539 452.274 162.11 452.503 160.86 453.156C160.022 453.767 159.345 454.573 158.886 455.502C155.358 461.812 157.021 466.864 155.995 473.547C159.197 475.026 162.547 476.162 165.988 476.935C166.361 476.935 163.611 473.546 164.325 470.562C167.17 471.386 168.988 467.703 171.599 463.336C172.177 461.937 172.177 460.367 171.599 458.968C171.008 457.57 172.438 456.932 172.298 455.471Z" fill="#FF9599"/>
<path d="M166.392 447.607C166.517 443.722 158.404 443.566 159.259 448.074C155.498 447.514 150.322 450.731 152.405 455.844C150.384 459.808 154.27 463.771 155.311 466.149C155.544 466.661 156.337 468.697 156.337 468.697C156.337 468.697 161.45 470.065 163.455 468.697C165.802 467.143 166.563 464.392 167.17 461.766C168.04 457.492 170.573 459.59 170.573 455.86C172.127 455.098 172.936 457.414 172.936 457.414C176.681 450.156 170.511 445.229 166.392 447.607Z" fill="#212435"/>
<path d="M165.709 473.531C160.875 471.06 158.87 470.671 156.601 470.547C156.248 470.523 155.895 470.595 155.58 470.757C155.265 470.918 155 471.163 154.814 471.464L153.446 473.531L168.304 478.287C168.301 477.341 168.062 476.41 167.609 475.58C167.156 474.75 166.503 474.045 165.709 473.531Z" fill="white"/>
<path d="M207.765 452.27C206.894 454.632 207.174 455.58 206.21 455.067C205.247 454.554 203.102 452.581 202.636 452.689C201.688 452.923 203.164 455.301 204.858 456.839C205.568 457.975 205.88 459.315 205.744 460.647C204.843 465.993 196.575 481.457 196.575 481.457L204.345 485.063C204.345 485.063 210.702 464.066 213.313 460.196C214.323 458.735 217.292 455.642 216.748 454.99C216.204 454.337 214.308 451.058 213.5 450.622C212.691 450.187 208.744 453.109 211.153 450.498C213.127 448.4 213.981 445.198 213.22 445.836C211.961 446.908 208.635 449.923 207.765 452.27Z" fill="#FF9599"/>
<path d="M178.826 495.243C170.247 495.445 164.17 494.263 164.481 488.171C164.745 482.778 170.293 480.602 180.551 480.152C186.172 479.864 191.758 479.084 197.243 477.82L203.615 462.698C203.615 462.698 209.397 463.009 212.94 465.589C212.94 465.589 206.521 485.653 205.418 486.726C205.285 486.998 205.088 487.232 204.843 487.41C196.108 494.03 186.068 495.072 178.826 495.243Z" fill="#EBEAF1"/>
<path d="M211.401 464.703C210.624 467.112 205.014 484.55 203.988 485.545C203.851 485.813 203.654 486.047 203.413 486.228C194.756 492.834 184.763 493.859 177.474 493.999C172.407 494.124 168.258 493.72 165.74 492.15C167.885 494.73 172.702 495.336 178.857 495.258C186.099 495.087 196.139 494.046 204.796 487.487C205.041 487.31 205.239 487.075 205.371 486.803C206.475 485.731 212.893 465.667 212.893 465.667C212.425 465.303 211.926 464.981 211.401 464.703Z" fill="#B7BAC7"/>
<path d="M179.494 540.998C179.494 540.998 179.867 564.885 178.981 575.873C178.095 586.861 180.784 612.583 180.784 612.583C180.784 612.583 165.584 615.023 155.917 609.754V592.394L152.809 609.754C152.809 609.754 142.956 608.48 142.132 606.149C142.132 606.149 140.842 590.762 140.578 581.655C140.313 572.547 136.568 547.059 138.091 537.656C139.614 528.253 179.494 540.998 179.494 540.998Z" fill="#EBEAF1"/>
<defs>
<linearGradient id="paint0_linear" x1="45.0737" y1="420.549" x2="210.469" y2="420.549" gradientUnits="userSpaceOnUse">
<stop stop-color="#C2C8D7"/>
<stop offset="1" stop-color="white"/>
</linearGradient>
<linearGradient id="paint1_linear" x1="473.155" y1="598.347" x2="595.749" y2="673.444" gradientUnits="userSpaceOnUse">
<stop stop-color="#DADDE4"/>
<stop offset="0.0001" stop-color="#DADDE4"/>
<stop offset="0.721767" stop-color="#DADDE4" stop-opacity="0.15"/>
</linearGradient>
<linearGradient id="paint2_linear" x1="232.958" y1="606.646" x2="292.197" y2="691.336" gradientUnits="userSpaceOnUse">
<stop stop-color="#DADDE4"/>
<stop offset="1" stop-color="#DADDE4" stop-opacity="0.15"/>
</linearGradient>
<linearGradient id="paint3_linear" x1="369.725" y1="442.883" x2="399.177" y2="442.883" gradientUnits="userSpaceOnUse">
<stop stop-color="#00A3FF"/>
<stop offset="1" stop-color="#1270E8"/>
</linearGradient>
<linearGradient id="paint4_linear" x1="-85111.5" y1="11874.3" x2="-85111.5" y2="10994.7" gradientUnits="userSpaceOnUse">
<stop stop-color="#00A3FF"/>
<stop offset="1" stop-color="#1270E8"/>
</linearGradient>
<linearGradient id="paint5_linear" x1="341.004" y1="455.813" x2="341.004" y2="418.824" gradientUnits="userSpaceOnUse">
<stop stop-color="#FFCC38"/>
<stop offset="1" stop-color="#FF9500"/>
</linearGradient>
<linearGradient id="paint6_linear" x1="300.083" y1="414.239" x2="300.083" y2="320.585" gradientUnits="userSpaceOnUse">
<stop stop-color="#FF3D49"/>
<stop offset="1" stop-color="#D80C1E"/>
</linearGradient>
<linearGradient id="paint7_linear" x1="91753" y1="10173.2" x2="91753" y2="7943.48" gradientUnits="userSpaceOnUse">
<stop stop-color="#FF3D49"/>
<stop offset="1" stop-color="#D80C1E"/>
</linearGradient>
</defs>
</svg>
