<svg width="651" height="717" viewBox="0 0 651 717" fill="none" xmlns="http://www.w3.org/2000/svg">
<g clip-path="url(#clip0)">
<g style="mix-blend-mode:multiply">
<g style="mix-blend-mode:multiply">
<path d="M5.44978 595.494L77.0033 555.514C78.2691 554.785 79.7044 554.402 81.165 554.404C82.6306 554.419 84.0663 554.821 85.3267 555.569L220.11 628.052C221.444 628.86 222.544 629.999 223.304 631.36C224.063 632.721 224.456 634.256 224.444 635.815C224.431 637.373 224.014 638.902 223.232 640.25C222.45 641.599 221.332 642.721 219.985 643.506L148.418 683.098C147.163 683.813 145.743 684.189 144.298 684.189C142.853 684.189 141.433 683.813 140.178 683.098L5.43591 610.962C4.09629 610.165 2.98673 609.034 2.21613 607.68C1.44553 606.325 1.04034 604.793 1.04034 603.235C1.04034 601.676 1.44553 600.145 2.21613 598.79C2.98673 597.435 4.09629 596.304 5.43591 595.508L5.44978 595.494Z" fill="white"/>
</g>
<g style="mix-blend-mode:multiply">
<path d="M77.2669 556.013C77.9927 555.602 78.7869 555.324 79.6113 555.195C80.1988 555.107 80.7933 555.074 81.3869 555.098C82.8523 555.163 84.2801 555.582 85.5487 556.318L219.833 628.607C220.698 629.121 221.452 629.801 222.052 630.608C222.652 631.415 223.086 632.334 223.329 633.31C223.554 634.216 223.633 635.153 223.564 636.084C223.45 637.593 222.966 639.05 222.156 640.327C221.345 641.604 220.233 642.663 218.917 643.409L148.529 682.349C147.306 683.038 145.937 683.428 144.534 683.486C144.07 683.503 143.606 683.48 143.147 683.417C142.206 683.301 141.3 682.994 140.483 682.515L5.74111 610.379C4.08329 609.4 2.85872 607.828 2.31464 605.981C2.02112 604.954 1.90846 603.884 1.98171 602.819C2.10503 601.318 2.58955 599.869 3.39394 598.596C4.19832 597.323 5.2987 596.264 6.60119 595.508L77.2669 556.013Z" fill="#F8F8F9"/>
</g>
<g style="mix-blend-mode:multiply">
<path d="M77.5443 556.527C78.2641 556.116 79.0636 555.866 79.8887 555.791C80.4654 555.736 81.0461 555.736 81.6228 555.791C83.0909 555.905 84.5141 556.351 85.7845 557.095L219.597 629.12C220.432 629.617 221.146 630.292 221.689 631.099C222.231 631.905 222.587 632.821 222.732 633.782C222.871 634.673 222.871 635.581 222.732 636.473C222.732 639.095 220.11 642.174 217.891 643.409L148.668 681.697C147.472 682.375 146.141 682.783 144.77 682.89C144.308 682.925 143.844 682.925 143.382 682.89C142.459 682.822 141.563 682.547 140.761 682.085L6.01854 609.949C5.21875 609.484 4.52924 608.852 3.99756 608.095C3.46588 607.338 3.10468 606.475 2.93888 605.565C2.77176 604.578 2.77176 603.57 2.93888 602.583C2.93888 599.947 5.60237 596.826 7.80807 595.549L77.5443 556.527Z" fill="#F1F2F3"/>
</g>
<g style="mix-blend-mode:multiply">
<path d="M77.8217 557.04C78.5316 556.63 79.333 556.406 80.1523 556.388C80.722 556.362 81.2928 556.386 81.8586 556.457C83.2965 556.645 84.6827 557.117 85.937 557.844L219.278 629.62C220.087 630.1 220.764 630.773 221.249 631.579C221.733 632.386 222.009 633.3 222.052 634.239C222.288 634.933 221.817 636.001 221.817 636.75C221.817 639.081 218.737 642.299 216.767 643.34L148.709 680.989C147.541 681.647 146.254 682.067 144.922 682.224C144.462 682.276 143.998 682.299 143.535 682.293C142.623 682.28 141.729 682.031 140.941 681.572L6.19885 609.436C5.41608 608.988 4.75432 608.355 4.27088 607.594C3.78744 606.833 3.49689 605.965 3.42439 605.066C3.13307 604.303 3.66022 603.11 3.66022 602.291C3.66022 599.947 6.79536 596.742 8.76524 595.605L77.8217 557.04Z" fill="#EBEBED"/>
</g>
<g style="mix-blend-mode:multiply">
<path d="M78.0853 557.539C78.795 557.139 79.6015 556.942 80.4159 556.97C80.9833 556.985 81.5489 557.041 82.1083 557.137C83.5217 557.393 84.8818 557.885 86.1313 558.593L219.001 630.119C219.79 630.583 220.436 631.256 220.867 632.064C221.297 632.872 221.497 633.783 221.442 634.697C221.636 635.308 220.957 636.39 220.957 637.055C220.957 639.095 217.433 642.299 215.699 643.27L148.834 680.268C147.686 680.914 146.432 681.351 145.13 681.558C144.671 681.635 144.208 681.681 143.743 681.697C142.855 681.728 141.976 681.512 141.204 681.072L6.6012 608.922C5.8398 608.484 5.21414 607.844 4.79314 607.073C4.37213 606.302 4.17213 605.43 4.21515 604.552C3.95158 603.9 4.72843 602.666 4.72843 601.931C4.72843 599.878 8.34911 596.576 10.0693 595.591L78.0853 557.539Z" fill="#E4E4E7"/>
</g>
<g style="mix-blend-mode:multiply">
<path d="M78.3628 558.053C79.0669 557.643 79.8844 557.473 80.6933 557.567C81.2481 557.617 81.7993 557.701 82.3441 557.817C83.741 558.127 85.0831 558.646 86.3255 559.357L218.723 630.619C219.499 631.064 220.116 631.741 220.489 632.554C220.862 633.367 220.972 634.276 220.804 635.155C220.984 635.682 220.096 636.778 220.083 637.347C220.083 639.095 216.115 642.369 214.631 643.215L148.931 679.56C147.806 680.201 146.59 680.669 145.325 680.948C145.061 680.948 144.312 681.183 144.048 681.142C143.18 681.228 142.306 681.038 141.551 680.601L6.80926 608.465C6.06031 608.042 5.46078 607.397 5.09312 606.62C4.72546 605.842 4.60774 604.97 4.75615 604.123C4.53419 603.554 5.56075 602.291 5.56075 601.653C5.56075 599.905 9.72245 596.521 11.1097 595.674L78.3628 558.053Z" fill="#DDDEE1"/>
</g>
<g style="mix-blend-mode:multiply">
<path d="M78.6264 558.566C79.33 558.157 80.157 558.014 80.9569 558.163C81.5043 558.247 82.0462 558.363 82.58 558.51C83.9529 558.868 85.2762 559.395 86.5197 560.078L218.446 631.09C219.209 631.524 219.8 632.208 220.116 633.028C220.432 633.847 220.454 634.751 220.18 635.585C220.318 636.015 219.223 637.125 219.223 637.596C219.223 638.984 214.797 642.41 213.563 643.145L149.028 678.839C147.927 679.449 146.752 679.915 145.533 680.226C145.311 680.226 144.506 680.531 144.284 680.49C143.433 680.626 142.561 680.464 141.815 680.032L7.07287 607.896C6.33107 607.484 5.75538 606.827 5.44417 606.037C5.13295 605.248 5.10552 604.375 5.36657 603.568C5.18623 603.096 6.46248 601.806 6.46248 601.279C6.46248 599.822 11.0404 596.354 12.275 595.647L78.6264 558.566Z" fill="#D6D7DA"/>
</g>
<g style="mix-blend-mode:multiply">
<path d="M78.9038 559.065C79.6117 558.665 80.4473 558.556 81.2343 558.76C81.4424 558.76 82.6216 559.19 82.8297 559.19C84.1765 559.626 85.4775 560.193 86.7139 560.882L218.168 631.631C218.926 632.054 219.493 632.752 219.751 633.581C220.009 634.41 219.939 635.306 219.555 636.084C219.68 636.431 218.362 637.555 218.362 637.943C218.362 639.109 213.493 642.521 212.508 643.076L149.153 678.118C148.071 678.723 146.927 679.211 145.741 679.574C145.56 679.574 144.714 679.935 144.534 679.907C143.708 680.099 142.84 679.97 142.106 679.546L7.36415 607.41C6.61757 607.009 6.05582 606.333 5.79709 605.526C5.53836 604.719 5.60283 603.843 5.97692 603.082C5.82432 602.708 7.36415 601.404 7.36415 600.973C7.36415 599.808 12.4276 596.243 13.4125 595.688L78.9038 559.065Z" fill="#CFD1D4"/>
</g>
<g style="mix-blend-mode:multiply">
<path d="M79.1813 559.578C79.5273 559.374 79.9137 559.246 80.3137 559.206C80.7137 559.165 81.1178 559.212 81.4979 559.343C81.6644 559.343 82.8852 559.87 83.0655 559.87C84.3888 560.36 85.6733 560.949 86.9082 561.632L217.891 632.214C218.262 632.421 218.586 632.703 218.842 633.043C219.098 633.382 219.28 633.772 219.376 634.186C219.473 634.6 219.482 635.029 219.403 635.447C219.324 635.865 219.159 636.261 218.917 636.611C219.001 636.875 217.53 637.999 217.53 638.304C217.53 639.178 212.217 642.66 211.482 643.076L149.292 677.479C148.23 678.069 147.121 678.57 145.977 678.978C145.852 678.978 144.95 679.394 144.811 679.38C144.416 679.502 144 679.541 143.589 679.493C143.178 679.445 142.782 679.312 142.425 679.102L7.68325 606.966C7.29921 606.772 6.96164 606.498 6.69371 606.161C6.42579 605.825 6.23385 605.434 6.13106 605.016C6.02827 604.599 6.01707 604.164 6.09823 603.741C6.17938 603.319 6.35096 602.919 6.60121 602.569C6.49023 602.291 8.26589 600.96 8.26589 600.641C8.26589 599.767 13.8148 596.118 14.5501 595.702L79.1813 559.578Z" fill="#C8CACE"/>
</g>
<g style="mix-blend-mode:multiply">
<path d="M79.4448 560.078C79.7937 559.877 80.1839 559.759 80.5854 559.733C80.987 559.706 81.3893 559.772 81.7615 559.925C81.8725 559.925 83.1487 560.536 83.3013 560.536C83.4539 560.536 86.8665 562.242 87.1023 562.381L217.613 632.63C217.988 632.834 218.311 633.121 218.556 633.47C218.802 633.818 218.964 634.219 219.03 634.64C219.096 635.061 219.063 635.492 218.935 635.899C218.808 636.306 218.588 636.678 218.293 636.986C218.293 637.166 216.614 638.373 216.601 638.512C216.601 639.095 210.844 642.674 210.358 642.923L149.32 676.675C148.28 677.253 147.21 677.776 146.115 678.242C146.018 678.242 145.061 678.714 144.978 678.7C144.595 678.844 144.185 678.901 143.777 678.867C143.369 678.833 142.974 678.71 142.619 678.506L7.87743 606.37C7.51223 606.165 7.19823 605.879 6.959 605.535C6.71978 605.192 6.56152 604.798 6.49612 604.384C6.43072 603.97 6.45986 603.547 6.58136 603.146C6.70287 602.745 6.91358 602.377 7.19769 602.069C7.12832 601.875 9.15369 600.516 9.15369 600.308C9.15369 599.725 15.1743 595.993 15.6737 595.702L79.4448 560.078Z" fill="#C2C3C8"/>
</g>
<g style="mix-blend-mode:multiply">
<path d="M79.7223 560.591C80.0786 560.4 80.4765 560.301 80.8806 560.301C81.2848 560.301 81.6826 560.4 82.039 560.591C82.039 560.591 83.4262 561.299 83.5372 561.299C83.6482 561.299 87.1717 563.144 87.2966 563.213L217.336 633.213C217.704 633.427 218.015 633.728 218.241 634.089C218.467 634.45 218.601 634.861 218.632 635.286C218.664 635.711 218.591 636.137 218.421 636.527C218.251 636.918 217.988 637.261 217.655 637.527C217.655 637.61 215.741 638.789 215.741 638.914C213.654 640.367 211.497 641.714 209.276 642.951L149.486 675.967C149.375 675.967 146.49 677.59 146.365 677.59C146.24 677.59 145.311 678.118 145.269 678.118C144.904 678.29 144.502 678.371 144.099 678.354C143.695 678.337 143.302 678.223 142.952 678.02L8.16877 605.857C7.80239 605.645 7.49309 605.347 7.26756 604.989C7.04204 604.631 6.90706 604.223 6.87429 603.801C6.84151 603.379 6.91193 602.955 7.07945 602.567C7.24697 602.178 7.50657 601.836 7.83583 601.57C7.83583 601.473 10.0693 600.086 10.0693 599.989C10.0693 599.891 16.5754 595.827 16.8251 595.73L79.7223 560.591Z" fill="#BBBDC2"/>
</g>
<g style="mix-blend-mode:multiply">
<path d="M79.9858 561.104C80.3389 560.904 80.738 560.798 81.1441 560.798C81.5503 560.798 81.9494 560.904 82.3025 561.104L217.058 633.601C217.429 633.821 217.737 634.134 217.95 634.508C218.164 634.883 218.276 635.306 218.276 635.738C218.276 636.169 218.164 636.592 217.95 636.967C217.737 637.342 217.429 637.654 217.058 637.874L145.463 677.521C145.118 677.722 144.725 677.828 144.326 677.828C143.926 677.828 143.534 677.722 143.188 677.521L8.44618 605.385C8.07525 605.165 7.76794 604.853 7.55448 604.478C7.34101 604.103 7.22876 603.68 7.22876 603.249C7.22876 602.817 7.34101 602.394 7.55448 602.019C7.76794 601.645 8.07525 601.332 8.44618 601.112L79.9858 561.104Z" fill="#B4B6BC"/>
</g>
</g>
<path d="M216.725 633.338L84.2862 562.103C82.9886 561.387 81.5305 561.011 80.0482 561.011C78.5659 561.011 77.1079 561.387 75.8102 562.103L7.71095 599.517C7.20526 599.798 6.78393 600.209 6.4906 600.708C6.19727 601.207 6.0426 601.775 6.0426 602.354C6.0426 602.932 6.19727 603.501 6.4906 603.999C6.78393 604.498 7.20526 604.909 7.71095 605.191L139.068 676.397C140.368 677.114 141.829 677.489 143.313 677.489C144.798 677.489 146.258 677.114 147.558 676.397L216.725 639.011C217.227 638.727 217.645 638.315 217.936 637.816C218.226 637.318 218.379 636.751 218.379 636.174C218.379 635.598 218.226 635.031 217.936 634.533C217.645 634.034 217.227 633.622 216.725 633.338Z" fill="#B7BAC7"/>
<path d="M6.04626 596.257L218.418 630.105V636.348L6.04626 602.486V596.257Z" fill="#B7BAC7"/>
<path d="M216.725 626.97L84.2862 555.736C82.9886 555.019 81.5305 554.643 80.0482 554.643C78.5659 554.643 77.1078 555.019 75.8102 555.736L7.71095 593.136C7.20526 593.417 6.78393 593.828 6.4906 594.327C6.19727 594.826 6.0426 595.394 6.0426 595.972C6.0426 596.551 6.19727 597.119 6.4906 597.618C6.78393 598.117 7.20526 598.528 7.71095 598.809L139.068 670.016C140.369 670.729 141.829 671.102 143.313 671.102C144.797 671.102 146.257 670.729 147.558 670.016L216.725 632.561C217.211 632.274 217.614 631.865 217.894 631.375C218.174 630.885 218.321 630.33 218.321 629.766C218.321 629.201 218.174 628.646 217.894 628.156C217.614 627.666 217.211 627.257 216.725 626.97Z" fill="white"/>
<path d="M7.71095 598.032L23.248 606.717L139.068 669.239C140.367 669.952 141.825 670.326 143.306 670.326C144.788 670.326 146.245 669.952 147.544 669.239L201.341 640.218L213.479 633.601L216.725 631.853C217.237 631.572 217.665 631.159 217.962 630.656C218.26 630.153 218.417 629.58 218.417 628.996C218.417 628.411 218.26 627.838 217.962 627.335C217.665 626.833 217.237 626.419 216.725 626.138L84.2862 554.959C82.9861 554.242 81.5258 553.867 80.0413 553.867C78.5568 553.867 77.0965 554.242 75.7964 554.959L22.485 584.091L7.71095 592.359C7.20526 592.64 6.78393 593.051 6.4906 593.55C6.19727 594.049 6.0426 594.617 6.0426 595.196C6.0426 595.774 6.19727 596.342 6.4906 596.841C6.78393 597.34 7.20526 597.751 7.71095 598.032Z" fill="#EBEAF1"/>
<path d="M130.37 317.048C129.629 316.639 128.796 316.424 127.949 316.424C127.103 316.424 126.27 316.639 125.529 317.048L95.2315 333.515C94.7477 333.768 94.2099 333.9 93.664 333.9C93.1181 333.9 92.5802 333.768 92.0964 333.515L77.1281 326.051C76.5783 325.783 76.1136 325.367 75.7856 324.85C75.4575 324.334 75.2788 323.736 75.2693 323.124C75.2441 322.513 75.3906 321.907 75.6922 321.375C75.9938 320.843 76.4384 320.406 76.9756 320.114L96.5772 309.169C97.3441 308.731 97.9816 308.098 98.425 307.334C98.8685 306.57 99.102 305.703 99.102 304.82C99.102 303.937 98.8685 303.069 98.425 302.305C97.9816 301.542 97.3441 300.909 96.5772 300.471L44.2507 271.075C44.0593 270.976 43.8375 270.952 43.6294 271.009C43.4213 271.065 43.242 271.198 43.127 271.381C43.0221 271.572 42.9967 271.798 43.0564 272.008C43.1161 272.218 43.2561 272.396 43.4461 272.504L95.7587 301.969C96.2748 302.264 96.7037 302.69 97.0021 303.204C97.3005 303.718 97.4576 304.302 97.4576 304.896C97.4576 305.491 97.3005 306.074 97.0021 306.588C96.7037 307.102 96.2748 307.528 95.7587 307.823L76.1432 318.768C75.3571 319.217 74.7076 319.871 74.2642 320.66C73.8208 321.449 73.6001 322.343 73.6257 323.248C73.6514 324.153 73.9224 325.033 74.4098 325.796C74.8972 326.558 75.5826 327.174 76.3929 327.577L91.3473 335.041C92.0746 335.403 92.8793 335.582 93.6916 335.563C94.5038 335.543 95.2991 335.326 96.0084 334.93L126.319 318.491C126.818 318.214 127.379 318.069 127.949 318.069C128.52 318.069 129.081 318.214 129.579 318.491L216.587 366.781C216.705 366.847 216.839 366.881 216.975 366.878C217.123 366.878 217.268 366.838 217.395 366.762C217.522 366.687 217.626 366.578 217.697 366.448C217.747 366.354 217.779 366.251 217.79 366.145C217.801 366.039 217.79 365.932 217.759 365.83C217.728 365.728 217.677 365.633 217.609 365.551C217.541 365.469 217.458 365.401 217.364 365.352L130.37 317.048Z" fill="#3A3F4F"/>
<g style="mix-blend-mode:multiply">
<g style="mix-blend-mode:multiply">
<path d="M75.2831 264.514L50.3129 249.837C49.3065 249.243 48.1592 248.929 46.9905 248.929C45.8217 248.929 44.6744 249.243 43.668 249.837L7.37803 270.645C6.31153 271.28 5.42822 272.18 4.81475 273.259C4.20128 274.337 3.87872 275.557 3.87872 276.798C3.87872 278.039 4.20128 279.258 4.81475 280.337C5.42822 281.415 6.31153 282.316 7.37803 282.95L32.3482 297.336C33.3466 297.909 34.4778 298.211 35.629 298.211C36.7803 298.211 37.9114 297.909 38.9098 297.336L75.186 276.805C76.2544 276.178 77.1419 275.285 77.7618 274.213C78.3816 273.14 78.7126 271.925 78.7224 270.687C78.7322 269.448 78.4204 268.228 77.8176 267.146C77.2147 266.064 76.3415 265.157 75.2831 264.514Z" fill="white"/>
</g>
<g style="mix-blend-mode:multiply">
<path d="M43.89 250.198L8.0855 270.673C7.04112 271.278 6.16028 272.128 5.51959 273.151C4.8789 274.174 4.49777 275.338 4.40933 276.541C4.29173 278.033 4.73163 279.516 5.64397 280.703C6.22372 281.479 6.94942 282.134 7.78031 282.631L32.5424 296.836C33.2312 297.237 33.9971 297.488 34.7897 297.572C35.1177 297.593 35.4467 297.593 35.7747 297.572C36.882 297.531 37.9628 297.222 38.9237 296.67L74.5756 276.666C75.62 276.072 76.5018 275.229 77.143 274.213C77.7842 273.197 78.165 272.038 78.2518 270.84C78.3163 270.016 78.2157 269.189 77.9561 268.405C77.6964 267.621 77.2829 266.897 76.7397 266.276C76.2316 265.726 75.6421 265.258 74.9918 264.888L50.4516 250.461C49.4583 249.87 48.3329 249.536 47.1777 249.49C46.8361 249.462 46.4928 249.462 46.1512 249.49C45.3547 249.557 44.5828 249.799 43.89 250.198Z" fill="#F8F8F9"/>
</g>
<g style="mix-blend-mode:multiply">
<path d="M44.0565 250.6L8.79299 270.798C7.03121 271.811 4.93648 274.294 4.93648 276.347C4.82116 277.07 4.86176 277.809 5.05557 278.515C5.24937 279.22 5.59189 279.877 6.06014 280.439C6.66548 281.157 7.38778 281.766 8.19648 282.243L32.7505 296.379C33.4252 296.768 34.1792 297.001 34.9562 297.058C36.3592 297.128 37.7534 296.801 38.9792 296.115L73.8404 276.472C75.616 275.473 77.6275 273.031 77.6414 270.923C77.7589 270.124 77.6953 269.309 77.4552 268.538C77.215 267.767 76.8046 267.06 76.2542 266.47C75.7518 265.926 75.1722 265.458 74.534 265.083L50.4377 250.974C49.471 250.397 48.3838 250.05 47.261 249.962C46.9284 249.941 46.5948 249.941 46.2622 249.962C45.4865 249.995 44.7301 250.214 44.0565 250.6Z" fill="#F1F2F3"/>
</g>
<g style="mix-blend-mode:multiply">
<path d="M44.32 251.002L9.51435 270.923C7.93291 271.825 5.4775 274.377 5.4775 276.236C5.30225 276.934 5.30038 277.664 5.47205 278.363C5.64373 279.062 5.98374 279.708 6.46244 280.245C7.09041 280.935 7.82022 281.524 8.62652 281.993L32.9586 296.018C33.616 296.401 34.3618 296.607 35.1227 296.614C35.4275 296.635 35.7334 296.635 36.0383 296.614C37.0866 296.49 38.1001 296.16 39.0208 295.643L73.1884 276.361C74.756 275.473 77.1143 273.004 77.1281 271.145C77.3027 270.378 77.2838 269.579 77.0732 268.821C76.8625 268.063 76.4666 267.37 75.9212 266.803C75.4135 266.264 74.8348 265.798 74.2011 265.416L50.521 251.543C49.5738 250.982 48.5204 250.623 47.4274 250.489C47.1041 250.469 46.7798 250.469 46.4564 250.489C45.7119 250.473 44.9759 250.65 44.32 251.002Z" fill="#EBEBED"/>
</g>
<g style="mix-blend-mode:multiply">
<path d="M44.5282 251.404L10.2219 271.034C8.83463 271.825 6.06016 274.46 6.06016 276.083C5.83212 276.755 5.79303 277.476 5.94716 278.169C6.10128 278.861 6.4427 279.498 6.93412 280.009C7.57035 280.674 8.29922 281.244 9.09821 281.702L33.2499 295.574C33.8877 295.948 34.6197 296.131 35.3585 296.101C35.5805 296.101 36.0244 296.018 36.2464 296.018C37.2657 295.857 38.2477 295.514 39.1457 295.005L72.4948 276.208C73.882 275.431 76.5594 272.92 76.5732 271.297C76.7923 270.573 76.8099 269.803 76.6242 269.07C76.4384 268.337 76.0563 267.668 75.519 267.136C75.01 266.638 74.4416 266.204 73.8265 265.846L50.5765 252.112C49.6489 251.565 48.6284 251.193 47.5662 251.016C47.3304 251.016 46.8448 250.877 46.6229 250.905C45.8909 250.864 45.1631 251.038 44.5282 251.404Z" fill="#E4E4E7"/>
</g>
<g style="mix-blend-mode:multiply">
<path d="M44.7501 251.807L10.9293 271.159C9.7502 271.838 6.54569 274.53 6.54569 275.931C6.24199 276.581 6.15092 277.31 6.2854 278.015C6.41988 278.72 6.77308 279.364 7.29479 279.857C7.95271 280.481 8.6786 281.03 9.45888 281.494L33.4025 295.283C34.0304 295.65 34.7601 295.806 35.4834 295.727C35.6637 295.727 36.1493 295.602 36.3296 295.602C37.3031 295.402 38.2392 295.051 39.1041 294.561L71.8012 276.069C72.9803 275.404 75.9629 272.837 75.9629 271.45C76.2672 270.749 76.3439 269.971 76.1822 269.224C76.0204 268.477 75.6283 267.8 75.0612 267.288C74.5441 266.822 73.9818 266.408 73.3826 266.054L50.5626 252.625C49.6522 252.096 48.6646 251.712 47.6356 251.488C47.3338 251.418 47.0281 251.367 46.72 251.335C46.0304 251.286 45.3425 251.45 44.7501 251.807Z" fill="#DDDEE1"/>
</g>
<g style="mix-blend-mode:multiply">
<path d="M44.9582 252.223L11.6646 271.284C10.6935 271.852 7.11444 274.613 7.10057 275.778C6.75908 276.384 6.6348 277.088 6.74833 277.775C6.86186 278.461 7.20637 279.088 7.72482 279.551C8.39918 280.152 9.13367 280.682 9.91665 281.133L33.6522 294.811C34.2651 295.162 34.9795 295.295 35.6776 295.186C35.8302 295.186 36.3435 295.019 36.496 295.019C37.4653 294.785 38.3985 294.421 39.2705 293.937L71.2462 275.903C72.2312 275.348 75.5744 272.74 75.5883 271.575C75.9359 270.925 76.0511 270.176 75.9149 269.452C75.7786 268.728 75.3991 268.072 74.8392 267.593C74.3213 267.151 73.7641 266.756 73.1745 266.414L50.7984 253.236C49.9274 252.723 48.9952 252.322 48.024 252.043C47.8575 252.043 47.2887 251.821 47.1361 251.848C46.3889 251.691 45.6099 251.825 44.9582 252.223Z" fill="#D6D7DA"/>
</g>
<g style="mix-blend-mode:multiply">
<path d="M45.1802 252.625L12.3582 271.408C11.5675 271.852 7.61387 274.696 7.61387 275.57C7.2207 276.139 7.05397 276.834 7.14635 277.519C7.23872 278.204 7.58355 278.83 8.11328 279.274C8.80105 279.837 9.53415 280.343 10.3051 280.786L33.8881 294.353C34.4851 294.708 35.198 294.813 35.8718 294.645C35.9967 294.645 36.5377 294.45 36.6625 294.45C37.5752 294.167 38.4543 293.786 39.2844 293.313L70.5249 275.709C71.3157 275.265 75.0057 272.615 75.0057 271.686C75.4128 271.086 75.5789 270.354 75.4709 269.637C75.363 268.92 74.9888 268.269 74.423 267.815C73.9005 267.402 73.3488 267.026 72.7722 266.692L50.8123 253.777C49.9383 253.256 49.0074 252.837 48.0379 252.528C47.913 252.528 47.3165 252.265 47.1917 252.292C46.8514 252.207 46.4974 252.193 46.1514 252.25C45.8055 252.308 45.4749 252.435 45.1802 252.625Z" fill="#CFD1D4"/>
</g>
<g style="mix-blend-mode:multiply">
<path d="M45.4437 253.028L13.0657 271.533C12.4692 271.866 8.15486 274.765 8.15486 275.473C7.92894 275.729 7.75826 276.029 7.6535 276.354C7.54873 276.679 7.51213 277.022 7.54598 277.362C7.57983 277.702 7.68341 278.031 7.85023 278.329C8.01706 278.627 8.24355 278.887 8.51554 279.094C9.23367 279.63 9.9842 280.121 10.7629 280.564L34.0961 294.006C34.3862 294.178 34.709 294.286 35.0436 294.324C35.3782 294.362 35.7171 294.33 36.0383 294.228C36.1354 294.228 36.7041 293.979 36.8012 293.979C37.6774 293.659 38.5264 293.269 39.3399 292.813L69.859 275.626C70.4555 275.293 74.4646 272.588 74.4785 271.894C74.7049 271.623 74.8736 271.309 74.9742 270.97C75.0748 270.632 75.1053 270.276 75.0637 269.925C75.0222 269.575 74.9095 269.236 74.7325 268.931C74.5555 268.625 74.318 268.359 74.0346 268.148C73.5187 267.751 72.9765 267.39 72.4115 267.066L50.8817 254.401C50.0273 253.896 49.1316 253.464 48.2043 253.111C48.1072 253.111 47.4829 252.806 47.3858 252.819C47.0653 252.718 46.7272 252.684 46.3929 252.72C46.0586 252.755 45.7354 252.86 45.4437 253.028Z" fill="#C8CACE"/>
</g>
<g style="mix-blend-mode:multiply">
<path d="M45.6102 253.499L13.7732 271.644C13.3847 271.88 8.68201 274.849 8.68201 275.32C8.4323 275.553 8.23777 275.839 8.11267 276.156C7.98757 276.474 7.93507 276.815 7.95901 277.156C7.98295 277.496 8.08272 277.827 8.25102 278.124C8.41933 278.421 8.6519 278.676 8.93172 278.872C9.02882 279.01 10.9987 280.259 11.1513 280.259L34.3458 293.59C34.6296 293.76 34.9486 293.862 35.2783 293.889C35.6079 293.915 35.9392 293.865 36.2463 293.743C36.2463 293.743 36.8983 293.465 36.9677 293.465C37.8055 293.113 38.6209 292.71 39.4092 292.258L69.2209 275.473C69.6093 275.251 73.9652 272.504 73.9652 272.046C74.217 271.805 74.4122 271.511 74.5368 271.186C74.6614 270.86 74.7122 270.511 74.6857 270.164C74.6592 269.816 74.5559 269.479 74.3833 269.176C74.2108 268.873 73.9732 268.612 73.6878 268.412C73.6045 268.301 72.1896 267.455 72.0786 267.371L50.9788 254.97C50.1431 254.455 49.2768 253.992 48.3846 253.582C48.3846 253.582 47.6494 253.236 47.5939 253.236C47.2657 253.121 46.9152 253.085 46.5707 253.131C46.2261 253.177 45.8971 253.303 45.6102 253.499Z" fill="#C2C3C8"/>
</g>
<g style="mix-blend-mode:multiply">
<path d="M45.8321 253.832L14.4806 271.769C14.2864 271.88 9.22303 274.932 9.22303 275.154C8.95073 275.361 8.7327 275.632 8.58753 275.942C8.44236 276.252 8.37437 276.593 8.38936 276.935C8.40436 277.277 8.50188 277.61 8.67362 277.906C8.84536 278.203 9.08621 278.453 9.37563 278.636C9.37563 278.636 11.5258 279.94 11.5952 280.023L34.5262 293.23C34.8038 293.399 35.1199 293.496 35.4449 293.51C35.7699 293.525 36.0934 293.457 36.3851 293.313L37.0648 292.98C37.1619 292.98 39.3399 291.801 39.4231 291.745L68.555 275.362C70.2361 274.408 71.866 273.366 73.4381 272.241C73.7119 272.031 73.9315 271.758 74.0787 271.446C74.2258 271.134 74.2962 270.792 74.284 270.447C74.2718 270.102 74.1773 269.765 74.0084 269.464C73.8396 269.163 73.6012 268.907 73.3132 268.717C73.3132 268.717 71.7734 267.774 71.704 267.732L50.9926 255.538C50.8955 255.538 48.5927 254.151 48.4817 254.151C48.3708 254.151 47.7465 253.749 47.7188 253.763C47.4233 253.617 47.0961 253.546 46.7667 253.559C46.4373 253.571 46.1161 253.665 45.8321 253.832Z" fill="#BBBDC2"/>
</g>
<g style="mix-blend-mode:multiply">
<path d="M47.8852 254.248C47.6043 254.088 47.2863 254.003 46.9627 254.003C46.6391 254.003 46.3211 254.088 46.0402 254.248L9.75018 275.057C9.45738 275.235 9.21538 275.486 9.04746 275.784C8.87953 276.083 8.79132 276.42 8.79132 276.763C8.79132 277.106 8.87953 277.443 9.04746 277.742C9.21538 278.041 9.45738 278.291 9.75018 278.469L34.7204 292.841C34.9966 293.001 35.31 293.085 35.629 293.085C35.948 293.085 36.2614 293.001 36.5377 292.841L72.8416 272.393C73.1344 272.215 73.3764 271.964 73.5443 271.666C73.7122 271.367 73.8004 271.03 73.8004 270.687C73.8004 270.344 73.7122 270.007 73.5443 269.708C73.3764 269.41 73.1344 269.159 72.8416 268.981L47.8852 254.248Z" fill="#B4B6BC"/>
</g>
</g>
<path d="M72.6751 237.421L36.3851 257.883C36.1079 258.04 35.7949 258.122 35.4764 258.122C35.158 258.122 34.845 258.04 34.5678 257.883L9.5976 243.497C9.34533 243.35 9.1292 243.148 8.96505 242.907C8.80091 242.665 8.69292 242.39 8.64902 242.102C8.60512 241.813 8.62641 241.518 8.71134 241.239C8.79627 240.959 8.94267 240.702 9.13982 240.487C8.87317 240.74 8.66164 241.046 8.51843 241.385C8.37522 241.724 8.30341 242.089 8.30748 242.457V276.028C8.30553 276.517 8.43281 276.997 8.67642 277.421C8.92003 277.845 9.27131 278.197 9.69471 278.442L34.4846 292.744C34.8832 292.966 35.3321 293.083 35.7886 293.083C36.245 293.083 36.6939 292.966 37.0926 292.744L72.6751 272.685C73.1026 272.438 73.4566 272.081 73.7004 271.652C73.9443 271.223 74.0692 270.737 74.0624 270.243V236.131C74.0684 235.834 74.0005 235.541 73.8649 235.277C73.7293 235.013 73.5302 234.787 73.2855 234.619C73.4394 234.84 73.546 235.09 73.5987 235.354C73.6514 235.618 73.649 235.89 73.5917 236.153C73.5344 236.416 73.4234 236.665 73.2657 236.883C73.108 237.101 72.9069 237.284 72.6751 237.421Z" fill="#B7BAC7"/>
<path d="M33.6384 266.276L8.32135 251.696V256.551L33.6384 271.131C33.9564 271.308 34.3146 271.401 34.6788 271.401C35.043 271.401 35.4011 271.308 35.7192 271.131L73.9791 249.546V244.704L35.7331 266.289C35.4144 266.474 35.0521 266.57 34.6838 266.568C34.3156 266.565 33.9546 266.464 33.6384 266.276Z" fill="url(#paint0_linear)"/>
<path d="M33.6384 278.997L8.32135 264.417V269.258L33.6384 283.852C33.9564 284.029 34.3146 284.122 34.6788 284.122C35.043 284.122 35.4011 284.029 35.7192 283.852L73.9791 262.266V257.411L35.7331 279.01C35.4134 279.192 35.0516 279.287 34.6839 279.284C34.3162 279.282 33.9556 279.182 33.6384 278.997Z" fill="url(#paint1_linear)"/>
<path d="M47.7326 219.332C47.4543 219.171 47.1385 219.086 46.8171 219.086C46.4956 219.086 46.1799 219.171 45.9015 219.332L9.61146 240.14C9.31827 240.315 9.07547 240.563 8.90686 240.859C8.73825 241.156 8.6496 241.491 8.6496 241.833C8.6496 242.174 8.73825 242.509 8.90686 242.806C9.07547 243.103 9.31827 243.35 9.61146 243.525L34.5817 257.911C34.8563 258.068 35.1671 258.15 35.4834 258.15C35.7997 258.15 36.1105 258.068 36.3851 257.911L72.689 237.449C72.9854 237.275 73.2311 237.027 73.4019 236.729C73.5727 236.431 73.6626 236.093 73.6626 235.749C73.6626 235.406 73.5727 235.068 73.4019 234.77C73.2311 234.472 72.9854 234.224 72.689 234.05L47.7326 219.332Z" fill="#EBEAF1"/>
<path d="M24.8156 241L36.9122 247.978L57.5126 236.381L45.3744 229.236L24.8156 241Z" fill="#FFCC38"/>
<path d="M45.3188 229.264V243.247L57.5126 236.381L45.3743 229.236L45.3188 229.264Z" fill="#FF9500"/>
<path d="M155.909 615.955C155.383 616.248 154.795 616.409 154.194 616.426C153.593 616.443 152.996 616.315 152.455 616.053L136.113 607.868C135.509 607.583 134.996 607.134 134.633 606.573C134.27 606.011 134.072 605.36 134.06 604.691C134.041 604.022 134.205 603.361 134.535 602.779C134.866 602.197 135.349 601.716 135.933 601.389L216.836 556.776C217.686 556.312 218.394 555.625 218.883 554.789C219.372 553.953 219.623 553 219.611 552.032C219.618 551.061 219.364 550.106 218.876 549.266C218.388 548.427 217.684 547.734 216.836 547.26L204.018 540.046L187.954 530.946L187.233 530.557C187.147 530.498 187.046 530.465 186.942 530.46L185.485 529.725C184.886 529.431 184.379 528.979 184.019 528.417C183.659 527.856 183.458 527.207 183.44 526.54C183.421 525.874 183.585 525.214 183.914 524.634C184.242 524.053 184.723 523.574 185.305 523.247L229.46 498.387C230.307 497.92 231.012 497.232 231.501 496.397C231.989 495.562 232.243 494.611 232.235 493.643C232.239 492.675 231.984 491.722 231.496 490.886C231.008 490.049 230.305 489.358 229.46 488.885L151.304 444.299C151.2 444.241 151.085 444.204 150.967 444.19C150.849 444.176 150.729 444.185 150.614 444.217C150.5 444.249 150.393 444.304 150.299 444.377C150.205 444.451 150.127 444.542 150.069 444.646C150.011 444.75 149.973 444.864 149.959 444.983C149.945 445.101 149.954 445.221 149.987 445.335C150.019 445.45 150.073 445.557 150.147 445.651C150.221 445.744 150.312 445.822 150.416 445.881L228.559 490.466C229.123 490.791 229.593 491.259 229.919 491.823C230.245 492.386 230.417 493.026 230.417 493.678C230.417 494.329 230.245 494.969 229.919 495.533C229.593 496.097 229.123 496.565 228.559 496.889L184.375 521.707C183.52 522.21 182.816 522.933 182.335 523.8C181.855 524.668 181.615 525.648 181.642 526.64C181.669 527.631 181.961 528.598 182.488 529.438C183.015 530.278 183.758 530.962 184.639 531.417L187.413 532.805L215.893 548.855C216.458 549.18 216.927 549.647 217.253 550.211C217.58 550.775 217.752 551.415 217.752 552.066C217.752 552.718 217.58 553.358 217.253 553.922C216.927 554.486 216.458 554.953 215.893 555.278L135.045 599.85C134.18 600.334 133.463 601.046 132.974 601.909C132.484 602.771 132.239 603.752 132.266 604.743C132.294 605.735 132.591 606.7 133.128 607.534C133.664 608.369 134.418 609.04 135.309 609.477L151.65 617.648C152.45 618.042 153.332 618.237 154.223 618.218C155.114 618.199 155.988 617.965 156.769 617.537L155.909 615.955Z" fill="#EBEAF1"/>
<path d="M522.763 617.093C523.361 616.791 523.864 616.329 524.215 615.758C524.566 615.188 524.752 614.531 524.752 613.861C524.752 613.191 524.566 612.534 524.215 611.963C523.864 611.393 523.361 610.931 522.763 610.629L444.065 568.637C443.799 568.506 443.57 568.31 443.399 568.068C443.128 567.733 442.972 567.32 442.955 566.889C442.957 566.724 442.985 566.56 443.039 566.404C443.09 566.127 443.205 565.865 443.373 565.639C443.541 565.413 443.759 565.228 444.01 565.1L471.754 550.006L472.434 549.632L476.027 547.62C476.794 547.183 477.432 546.55 477.875 545.786C478.318 545.022 478.552 544.155 478.552 543.271C478.552 542.388 478.318 541.521 477.875 540.757C477.432 539.993 476.794 539.36 476.027 538.923L445.744 523.15C445.405 522.99 445.119 522.737 444.92 522.42C444.72 522.102 444.616 521.735 444.62 521.36C444.618 520.99 444.723 520.626 444.923 520.314C445.122 520.001 445.407 519.753 445.744 519.598L486.903 498.873C487.501 498.571 488.004 498.109 488.355 497.538C488.706 496.968 488.892 496.311 488.892 495.641C488.892 494.971 488.706 494.314 488.355 493.743C488.004 493.173 487.501 492.711 486.903 492.409L413.879 454.038C413.554 453.877 413.279 453.63 413.084 453.325C412.888 453.019 412.779 452.666 412.769 452.304C412.767 451.935 412.866 451.572 413.054 451.254C413.242 450.937 413.513 450.676 413.837 450.5L413.102 449.113C412.508 449.416 412.008 449.878 411.66 450.447C411.311 451.016 411.127 451.671 411.127 452.338C411.127 453.006 411.311 453.66 411.66 454.229C412.008 454.799 412.508 455.26 413.102 455.564L486.154 493.935C486.488 494.094 486.768 494.346 486.963 494.661C487.157 494.976 487.257 495.34 487.25 495.71C487.251 496.077 487.149 496.437 486.955 496.748C486.761 497.06 486.483 497.311 486.154 497.472L444.995 518.183C444.389 518.478 443.879 518.938 443.524 519.51C443.168 520.082 442.98 520.742 442.983 521.416C442.985 522.088 443.175 522.747 443.53 523.317C443.885 523.888 444.392 524.349 444.995 524.648L475.195 540.393C475.712 540.687 476.143 541.112 476.442 541.627C476.742 542.141 476.9 542.725 476.901 543.32C476.91 543.919 476.756 544.509 476.456 545.027C476.155 545.545 475.719 545.972 475.195 546.261L472.42 547.842L471.505 548.383L470.686 548.813L443.233 563.712C442.64 564.018 442.143 564.481 441.798 565.052C441.453 565.623 441.272 566.278 441.277 566.945C441.286 567.614 441.479 568.267 441.833 568.835C442.188 569.402 442.691 569.861 443.288 570.163L522.014 612.155C522.341 612.318 522.616 612.57 522.808 612.881C523.001 613.192 523.103 613.551 523.103 613.916C523.103 614.282 523.001 614.641 522.808 614.952C522.616 615.263 522.341 615.514 522.014 615.678L522.763 617.093Z" fill="#3A3F4F"/>
<g style="mix-blend-mode:multiply">
<g style="mix-blend-mode:multiply">
<path d="M567.279 397.106L349.484 274.419C347.645 273.342 345.552 272.775 343.422 272.775C341.291 272.775 339.198 273.342 337.359 274.419L74.3259 408.98C72.3953 410.157 70.8038 411.816 69.7076 413.793C68.6115 415.771 68.0484 417.999 68.0736 420.26C68.0987 422.521 68.7114 424.737 69.8513 426.689C70.9912 428.642 72.6192 430.265 74.5756 431.398L292.371 553.475C294.191 554.52 296.252 555.07 298.35 555.07C300.449 555.07 302.51 554.52 304.329 553.475L567.335 419.537C569.278 418.382 570.888 416.741 572.006 414.776C573.124 412.811 573.711 410.589 573.711 408.328C573.711 406.067 573.124 403.846 572.006 401.88C570.888 399.915 569.278 398.275 567.335 397.119L567.279 397.106Z" fill="white"/>
</g>
<g style="mix-blend-mode:multiply">
<path d="M337.775 275.223L75.7826 409.188C72.2312 411.283 69.0267 415.806 69.0267 419.967C68.848 422.514 69.5698 425.043 71.066 427.111C72.2107 428.672 73.6773 429.968 75.3664 430.913L292.718 552.795C294.453 553.764 296.419 554.243 298.406 554.182C300.501 554.095 302.546 553.51 304.371 552.476L565.878 419.301C569.457 417.234 572.69 412.809 572.69 408.564C572.89 405.936 572.131 403.324 570.553 401.212C569.429 399.733 568.012 398.5 566.392 397.591L349.706 275.515C347.892 274.476 345.856 273.886 343.768 273.794C342.896 273.755 342.022 273.806 341.16 273.947C339.965 274.169 338.819 274.601 337.775 275.223Z" fill="#F8F8F9"/>
</g>
<g style="mix-blend-mode:multiply">
<path d="M338.15 275.959L77.2252 409.396C74.0346 411.269 69.9977 415.861 70.0255 419.662C69.8155 420.896 69.8649 422.159 70.1706 423.373C70.4764 424.586 71.0317 425.722 71.8011 426.709C73.0018 428.212 74.4807 429.469 76.157 430.413L293.12 552.032C294.776 552.976 296.67 553.42 298.572 553.308C300.64 553.138 302.646 552.523 304.454 551.505L564.477 419.093C567.695 417.234 571.732 412.684 571.718 408.869C571.928 407.596 571.865 406.292 571.536 405.044C571.206 403.796 570.616 402.632 569.804 401.628C568.644 400.213 567.233 399.023 565.642 398.118L350.038 276.652C348.247 275.623 346.255 274.994 344.198 274.807C343.34 274.724 342.476 274.724 341.618 274.807C340.392 274.936 339.209 275.329 338.15 275.959Z" fill="#F1F2F3"/>
</g>
<g style="mix-blend-mode:multiply">
<path d="M338.58 276.694L78.7373 409.591C75.9629 411.269 71.0382 416 71.0659 419.371C70.7666 420.574 70.759 421.831 71.0438 423.037C71.3285 424.244 71.8973 425.365 72.7029 426.307C73.9632 427.742 75.4541 428.956 77.1143 429.9L293.523 551.269C295.109 552.16 296.926 552.556 298.739 552.406C300.78 552.152 302.754 551.507 304.551 550.506L563.062 418.857C565.934 417.193 570.762 412.504 570.762 409.147C571.072 407.911 571.078 406.618 570.781 405.379C570.484 404.14 569.892 402.991 569.055 402.03C567.868 400.669 566.461 399.515 564.894 398.618L350.316 277.762C348.536 276.744 346.577 276.08 344.545 275.806C343.708 275.696 342.864 275.654 342.02 275.681C340.807 275.725 339.624 276.074 338.58 276.694Z" fill="#EBEBED"/>
</g>
<g style="mix-blend-mode:multiply">
<path d="M338.982 277.415L80.1246 409.799C77.6414 411.255 71.9538 416.125 71.9815 419.093C71.5657 420.253 71.4751 421.505 71.7196 422.713C71.9642 423.921 72.5344 425.039 73.3687 425.946C74.6786 427.32 76.1837 428.493 77.8356 429.428L293.87 550.561C295.378 551.411 297.118 551.756 298.836 551.546C300.849 551.208 302.79 550.533 304.579 549.549L561.633 418.663C564.13 417.276 569.776 412.393 569.776 409.438C570.191 408.243 570.27 406.957 570.006 405.719C569.742 404.482 569.144 403.341 568.278 402.419C567.037 401.121 565.611 400.013 564.047 399.131L350.635 278.872C348.866 277.861 346.938 277.157 344.934 276.791C344.113 276.647 343.283 276.563 342.45 276.541C341.235 276.496 340.031 276.799 338.982 277.415Z" fill="#E4E4E7"/>
</g>
<g style="mix-blend-mode:multiply">
<path d="M339.385 278.15L81.5118 409.993C79.3754 411.255 72.8693 416.263 72.8832 418.802C72.3674 419.919 72.2105 421.168 72.4341 422.378C72.6577 423.588 73.2508 424.699 74.1317 425.558C75.5132 426.881 77.0614 428.019 78.7373 428.943L294.299 549.812C295.73 550.635 297.403 550.934 299.03 550.658C301.01 550.245 302.918 549.539 304.69 548.564L560.218 418.441C562.355 417.207 568.805 412.254 568.791 409.715C569.327 408.57 569.491 407.287 569.263 406.043C569.034 404.8 568.423 403.659 567.515 402.779C566.227 401.545 564.792 400.474 563.242 399.589L350.871 279.995C349.135 279 347.267 278.257 345.322 277.79C344.512 277.609 343.692 277.475 342.867 277.387C341.654 277.263 340.434 277.53 339.385 278.15Z" fill="#DDDEE1"/>
</g>
<g style="mix-blend-mode:multiply">
<path d="M339.787 278.886L83.01 410.257C81.2343 411.297 73.8958 416.457 73.9097 418.58C73.2932 419.642 73.0614 420.884 73.2535 422.097C73.4455 423.309 74.0496 424.419 74.964 425.239C76.3718 426.497 77.9113 427.599 79.5557 428.526L294.688 549.146C296.051 549.92 297.65 550.167 299.183 549.84C301.112 549.337 302.975 548.606 304.732 547.662L558.748 418.302C560.537 417.262 567.779 412.185 567.779 410.076C568.403 408.994 568.637 407.73 568.443 406.496C568.249 405.261 567.637 404.131 566.711 403.293C565.384 402.118 563.938 401.086 562.396 400.213L351.148 281.105C349.399 280.112 347.536 279.334 345.599 278.788C345.197 278.788 343.588 278.164 343.199 278.247C342.022 278.051 340.814 278.277 339.787 278.886Z" fill="#D6D7DA"/>
</g>
<g style="mix-blend-mode:multiply">
<path d="M340.189 279.621L84.4527 410.395C83.0655 411.242 74.8669 416.527 74.8808 418.219C74.1622 419.218 73.8499 420.453 74.007 421.674C74.164 422.895 74.7789 424.01 75.727 424.795C77.1881 425.98 78.7474 427.038 80.3881 427.958L295.146 548.328C296.436 549.067 297.965 549.271 299.405 548.897C301.326 548.321 303.185 547.554 304.954 546.608L557.43 418.011C558.817 417.193 566.905 411.977 566.905 410.284C567.63 409.271 567.945 408.021 567.785 406.786C567.626 405.55 567.004 404.421 566.045 403.626C564.676 402.509 563.214 401.511 561.675 400.643L351.426 282.229C349.683 281.239 347.848 280.422 345.946 279.787C345.627 279.787 343.907 279.038 343.588 279.108C342.432 278.828 341.211 279.012 340.189 279.621Z" fill="#CFD1D4"/>
</g>
<g style="mix-blend-mode:multiply">
<path d="M340.592 280.356L85.8954 410.603C84.8273 411.228 75.8519 416.666 75.8519 417.928C75.4494 418.387 75.1457 418.924 74.9596 419.506C74.7735 420.088 74.709 420.701 74.7702 421.309C74.8313 421.916 75.0168 422.505 75.315 423.038C75.6133 423.571 76.018 424.036 76.5039 424.406C78.0117 425.524 79.5869 426.548 81.2205 427.472L295.465 547.593C296.07 547.938 296.74 548.153 297.432 548.225C298.125 548.297 298.825 548.223 299.488 548.009C301.355 547.348 303.172 546.556 304.926 545.637L556.015 417.803C557.083 417.179 565.934 411.838 565.934 410.576C566.342 410.112 566.65 409.57 566.839 408.982C567.028 408.394 567.094 407.774 567.033 407.16C566.972 406.545 566.785 405.95 566.484 405.411C566.182 404.873 565.773 404.402 565.282 404.028C563.87 402.979 562.397 402.015 560.87 401.142L351.689 283.339C349.96 282.357 348.161 281.503 346.307 280.786C346.057 280.786 344.212 279.912 343.976 279.968C343.417 279.79 342.826 279.733 342.242 279.8C341.659 279.866 341.096 280.056 340.592 280.356Z" fill="#C8CACE"/>
</g>
<g style="mix-blend-mode:multiply">
<path d="M340.994 281.091L87.3382 410.798C86.6168 411.228 76.8229 416.79 76.8368 417.637C76.3959 418.059 76.0533 418.573 75.8332 419.142C75.6132 419.712 75.5211 420.322 75.5634 420.931C75.6058 421.54 75.7816 422.132 76.0784 422.666C76.3751 423.199 76.7856 423.661 77.2807 424.018C77.4749 424.309 81.7476 426.792 82.0528 426.973L295.853 546.858C296.426 547.179 297.062 547.369 297.717 547.415C298.372 547.46 299.029 547.36 299.64 547.121C300.015 547.121 304.662 544.846 305.009 544.652L554.558 417.581C555.28 417.165 564.921 411.699 564.921 410.853C565.373 410.432 565.725 409.915 565.952 409.341C566.179 408.767 566.276 408.149 566.235 407.533C566.193 406.916 566.016 406.317 565.714 405.778C565.412 405.239 564.995 404.774 564.491 404.416C564.297 404.153 560.329 401.822 560.038 401.642L352.022 284.448C351.689 284.268 347.084 281.785 346.709 281.785C346.543 281.785 344.587 280.786 344.42 280.828C343.868 280.6 343.271 280.506 342.676 280.552C342.081 280.598 341.505 280.782 340.994 281.091Z" fill="#C2C3C8"/>
</g>
<g style="mix-blend-mode:multiply">
<path d="M341.396 281.826L88.7809 411.006C88.4202 411.214 77.8079 416.929 77.8079 417.345C77.3148 417.719 76.9192 418.207 76.655 418.766C76.3907 419.326 76.2655 419.941 76.29 420.559C76.3145 421.178 76.488 421.781 76.7958 422.318C77.1035 422.855 77.5364 423.31 78.0576 423.643C78.1547 423.782 82.7326 426.418 82.899 426.487L296.242 546.108C296.78 546.415 297.384 546.586 298.002 546.608C298.621 546.629 299.235 546.501 299.793 546.233C299.973 546.233 304.912 543.764 305.078 543.681L553.171 417.359C553.532 417.151 563.978 411.561 563.978 411.144C564.475 410.771 564.875 410.284 565.144 409.723C565.412 409.162 565.541 408.545 565.519 407.924C565.497 407.302 565.325 406.695 565.018 406.155C564.711 405.614 564.278 405.156 563.756 404.819C563.659 404.68 559.414 402.238 559.261 402.155L352.3 285.627C352.133 285.53 347.25 282.853 347.056 282.853C346.862 282.853 344.892 281.729 344.823 281.743C344.29 281.471 343.697 281.335 343.099 281.35C342.5 281.364 341.915 281.528 341.396 281.826Z" fill="#BBBDC2"/>
</g>
<g style="mix-blend-mode:multiply">
<path d="M345.156 282.534C344.646 282.238 344.067 282.082 343.477 282.082C342.887 282.082 342.308 282.238 341.798 282.534L78.7373 417.054C78.1997 417.374 77.7545 417.827 77.4452 418.371C77.136 418.914 76.9734 419.529 76.9734 420.154C76.9734 420.78 77.136 421.394 77.4452 421.938C77.7545 422.482 78.1997 422.935 78.7373 423.255L296.533 545.331C297.035 545.621 297.604 545.774 298.184 545.774C298.763 545.774 299.333 545.621 299.835 545.331L562.84 411.408C563.378 411.088 563.823 410.635 564.132 410.091C564.442 409.548 564.604 408.933 564.604 408.308C564.604 407.682 564.442 407.067 564.132 406.524C563.823 405.98 563.378 405.527 562.84 405.207L345.156 282.534Z" fill="#B4B6BC"/>
</g>
</g>
<path d="M79.2645 416.596L339.01 284.018C340.895 282.981 343.011 282.437 345.163 282.437C347.314 282.437 349.43 282.981 351.315 284.018L564.02 402.904C564.753 403.313 565.365 403.911 565.79 404.635C566.216 405.359 566.44 406.184 566.44 407.024C566.44 407.864 566.216 408.689 565.79 409.414C565.365 410.138 564.753 410.735 564.02 411.144L305.911 543.736C304.026 544.773 301.91 545.317 299.758 545.317C297.607 545.317 295.491 544.773 293.606 543.736L79.2645 424.878C78.5205 424.472 77.8996 423.874 77.4669 423.145C77.0343 422.416 76.806 421.585 76.806 420.737C76.806 419.89 77.0343 419.058 77.4669 418.329C77.8996 417.601 78.5205 417.002 79.2645 416.596Z" fill="#B7BAC7"/>
<path d="M566.419 398.201L76.8091 411.893V420.952L566.419 407.26V398.201Z" fill="#B7BAC7"/>
<path d="M79.2645 407.343L339.01 274.738C340.899 273.708 343.019 273.173 345.171 273.186C347.323 273.198 349.437 273.756 351.315 274.807L564.019 393.693C564.75 394.103 565.358 394.7 565.781 395.423C566.204 396.146 566.428 396.968 566.428 397.806C566.428 398.644 566.204 399.466 565.781 400.189C565.358 400.912 564.75 401.509 564.019 401.919L305.911 534.483C304.033 535.535 301.919 536.093 299.767 536.105C297.615 536.117 295.495 535.583 293.606 534.553L79.2645 415.625C78.5205 415.219 77.8996 414.621 77.4669 413.892C77.0343 413.163 76.806 412.332 76.806 411.484C76.806 410.637 77.0343 409.805 77.4669 409.076C77.8996 408.348 78.5205 407.749 79.2645 407.343Z" fill="white"/>
<path d="M564.019 400.796L541.463 413.378L305.925 533.36C304.044 534.411 301.928 534.969 299.774 534.981C297.62 534.993 295.498 534.459 293.606 533.429L101.599 426.612L83.9811 417.026L79.2645 414.474C78.514 414.068 77.8872 413.467 77.4504 412.735C77.0135 412.002 76.7829 411.165 76.7829 410.312C76.7829 409.459 77.0135 408.622 77.4504 407.889C77.8872 407.157 78.514 406.556 79.2645 406.15L339.01 273.614C340.901 272.588 343.02 272.056 345.171 272.068C347.323 272.08 349.436 272.636 351.315 273.683L542.656 380.653L564.019 392.555C564.753 392.964 565.365 393.562 565.79 394.286C566.216 395.011 566.44 395.835 566.44 396.675C566.44 397.516 566.216 398.34 565.79 399.065C565.365 399.789 564.753 400.387 564.019 400.796Z" fill="#EBEAF1"/>
<path d="M313.305 474.069L364.327 503.243L520.585 423.56L463.32 392.07L313.305 474.069Z" fill="url(#paint2_linear)"/>
<path d="M408.913 339.147L326.969 293.826L178.909 377.282L324.153 457.686L472.393 374.258L435.548 324.734L408.913 339.147Z" fill="#EBEAF1"/>
<path d="M228.489 392.223L178.909 377.282V400.976L324.153 481.061V457.686L274.24 416.513L228.489 392.223Z" fill="#D3D6E7"/>
<path d="M228.323 392.306L274.24 416.513L403.336 342.504L357.641 317.77L228.323 392.306Z" fill="url(#paint3_linear)"/>
<path d="M324.153 481.061L472.393 397.536V374.258L324.153 457.686V481.061Z" fill="#B7BAC7"/>
<path d="M378.713 159.861L332.934 135.862C349.941 144.782 357.405 167.588 357.211 200.41L357.793 318.13L403.35 342.504L403.003 224.367C403.184 191.587 395.72 168.781 378.713 159.861Z" fill="url(#paint4_linear)"/>
<path d="M329.119 102.097C313.86 101.014 297.99 104.177 284.27 108.852L330.049 132.851C352.008 125.36 401.172 133.184 401.172 133.184L355.393 109.185C347.22 105.031 338.273 102.618 329.119 102.097Z" fill="#A7AAB6"/>
<path d="M326.969 127.067L327.135 166.506C369.89 155.616 403.045 173.969 402.753 224.409L403.336 342.504L435.548 324.734L435.007 199.161C435.007 128.287 370.278 112.307 326.969 127.067Z" fill="#B7BAC7"/>
<path d="M345.821 55.8322C344.239 54.2496 342.355 53.0005 340.282 52.1589C338.208 51.3173 335.986 50.9003 333.749 50.9327C331.511 50.965 329.302 51.446 327.254 52.3471C325.205 53.2483 323.358 54.5513 321.822 56.179L294.078 85.5606C292.94 86.7398 295.465 90.4437 300.695 94.9938C307.367 100.751 315.954 105.717 319.922 106.092C320.215 106.156 320.519 106.155 320.812 106.088C321.104 106.021 321.379 105.889 321.614 105.703L346.473 79.4013C349.462 76.2316 351.098 72.0229 351.036 67.6672C350.974 63.3116 349.218 59.1512 346.141 56.0681L345.821 55.8322Z" fill="#3A3F4F"/>
<path d="M295.923 5.91958C294.34 4.33692 292.456 3.08781 290.383 2.24622C288.309 1.40463 286.087 0.987659 283.85 1.02C281.612 1.05233 279.403 1.53332 277.355 2.43448C275.306 3.33564 273.459 4.63866 271.923 6.26639L228.239 52.5584C227.116 53.7653 229.627 57.4553 234.87 62.0054C241.543 67.7763 250.13 72.7287 254.097 73.1033C254.391 73.1633 254.694 73.1597 254.986 73.0927C255.278 73.0257 255.552 72.8969 255.79 72.7149L296.533 29.5026C299.523 26.3368 301.162 22.1297 301.1 17.7753C301.037 13.4208 299.28 9.26225 296.2 6.18316L295.923 5.91958Z" fill="#3A3F4F"/>
<path d="M168.061 302.663V287.292C167.045 289.727 166.521 292.339 166.521 294.977C166.521 297.616 167.045 300.228 168.061 302.663Z" fill="url(#paint5_linear)"/>
<path d="M328.772 218.374L328.814 226.795L337.248 222.384L337.207 213.963L328.772 218.374Z" fill="#121514"/>
<path d="M447.977 239.696L445.619 238.198V259.006L314.9 327.092C287.155 341.547 242.334 341.519 214.756 327.092L187.011 312.581C173.291 305.382 166.438 295.935 166.397 286.557V294.991C166.435 298.673 167.439 302.28 169.31 305.451C172.514 311.139 178.424 316.549 186.997 320.988L214.742 335.499C242.306 349.954 287.114 349.995 314.872 335.499L447.547 266.387L447.936 266.234C456.689 260.796 456.648 245.176 447.977 239.696Z" fill="#141518"/>
<path d="M446.743 238.683L435.256 232.691L411.146 245.176C406.326 247.691 400.97 249.004 395.533 249.004C390.096 249.004 384.74 247.691 379.92 245.176L337.207 222.772C336.402 222.35 335.727 221.716 335.257 220.939C334.786 220.161 334.538 219.269 334.538 218.361C334.538 217.452 334.786 216.56 335.257 215.783C335.727 215.005 336.402 214.371 337.207 213.949L337.11 182.251L187.358 260.255C159.613 274.724 159.502 298.126 187.08 312.595L214.825 327.106C242.403 341.547 287.197 341.575 314.969 327.106L446.757 258.438C448.574 257.505 450.098 256.089 451.162 254.346C452.226 252.602 452.789 250.599 452.787 248.556C452.786 246.514 452.221 244.511 451.154 242.769C450.088 241.027 448.561 239.614 446.743 238.683Z" fill="#3A3F4F"/>
<path d="M311.252 309.432C283.687 323.79 239.115 323.79 211.787 309.432C198.192 302.302 191.381 292.98 191.353 283.63V288.457C191.353 297.821 198.192 307.13 211.815 314.274C239.185 328.618 283.701 328.618 311.252 314.274C325.124 307.046 332.06 297.627 332.06 288.111V283.255C332.046 292.73 325.124 302.219 311.252 309.432Z" fill="#002F6D"/>
<path d="M311.557 257.467C284.187 243.109 239.67 243.109 212.134 257.467C184.597 271.824 184.389 295.075 211.787 309.432C239.185 323.79 283.687 323.79 311.252 309.432C338.816 295.075 338.941 271.824 311.557 257.467Z" fill="url(#paint6_linear)"/>
<path d="M313.762 186.704C313.762 184.346 312.042 182.001 308.63 180.198C301.693 176.591 290.526 176.591 283.659 180.198C279.692 182.279 278.111 185.067 278.624 187.758C278.53 187.437 278.47 187.107 278.443 186.773L278.554 223.063C278.554 225.422 280.288 227.78 283.715 229.569C290.582 233.162 301.749 233.176 308.685 229.569C312.195 227.752 313.915 225.408 313.901 222.994L313.804 186.704H313.762ZM313.443 188.452C313.529 188.206 313.58 187.949 313.596 187.689C313.569 187.947 313.518 188.203 313.443 188.452Z" fill="url(#paint7_linear)"/>
<path d="M224.508 195.804C224.508 193.46 222.802 191.101 219.375 189.298C212.439 185.677 201.341 185.677 194.405 189.298C190.424 191.351 188.856 194.167 189.355 196.845C189.269 196.526 189.208 196.202 189.175 195.873L189.3 232.164C189.3 234.508 191.006 236.852 194.433 238.642C201.369 242.263 212.467 242.263 219.403 238.642C222.885 236.825 224.619 234.48 224.619 232.066L224.522 195.776L224.508 195.804ZM223.218 199.286C223.384 199.064 223.467 198.828 223.62 198.592C223.509 198.836 223.374 199.068 223.218 199.286Z" fill="url(#paint8_linear)"/>
<path d="M266.194 211.48C266.194 209.122 264.474 206.763 261.061 204.974C254.125 201.353 243.027 201.339 236.091 204.974C232.138 207.041 230.542 209.843 231.069 212.534C230.976 212.213 230.915 211.883 230.889 211.549L231 247.839C231 250.198 232.72 252.542 236.161 254.345C243.013 257.938 254.195 257.952 261.131 254.345C264.613 252.528 266.347 250.184 266.347 247.77L266.222 211.48H266.194Z" fill="url(#paint9_linear)"/>
<path d="M181.046 185.206V190.033C181.046 199.397 187.885 208.719 201.48 215.85C228.864 230.207 273.38 230.207 300.944 215.85C314.817 208.636 321.753 199.203 321.753 189.686V184.859C321.753 194.306 314.817 203.781 300.944 211.008C273.38 225.366 228.878 225.366 201.48 211.008C187.899 203.878 181.101 194.556 181.046 185.206Z" fill="#002F6D"/>
<path d="M300.958 211.008C273.394 225.366 228.891 225.366 201.494 211.008C187.899 203.878 181.101 194.556 181.046 185.206V190.033C181.046 199.397 187.885 208.719 201.48 215.85C228.864 230.207 273.38 230.207 300.944 215.85C314.817 208.636 321.753 199.203 321.753 189.686V184.859C321.739 194.306 314.817 203.781 300.958 211.008Z" fill="#002F6D"/>
<path d="M301.263 159.042C273.879 144.698 229.391 144.698 201.827 159.042C174.262 173.386 174.082 196.65 201.494 211.008C228.905 225.366 273.394 225.366 300.958 211.008C328.523 196.65 328.634 173.4 301.263 159.042Z" fill="url(#paint10_linear)"/>
<path d="M288.015 138.178C288.015 133.143 284.381 128.121 277.056 124.306C262.379 116.621 238.519 116.621 223.759 124.306C215.297 128.717 211.815 134.683 213.022 140.44C212.817 139.752 212.682 139.046 212.619 138.331L212.855 184.026C212.855 189.034 216.531 194.028 223.814 197.899C238.505 205.612 262.393 205.64 277.167 197.899C284.589 194.028 288.265 188.951 288.265 183.888L288.002 138.178H288.015Z" fill="#002F6D"/>
<path d="M164.829 98.892L164.94 132.657L291.137 198.828L290.998 165.035L164.829 98.892Z" fill="#D3D6E7"/>
<path d="M164.829 98.892L290.998 165.035L320.047 107.604L193.864 41.4467L164.829 98.892Z" fill="url(#paint11_linear)"/>
<path d="M193.864 41.4466L320.047 107.604L355.435 89.1675L229.238 23.0103L193.864 41.4466Z" fill="#EBEAF1"/>
<path d="M320.047 107.604L290.998 165.035L291.137 198.828L355.726 165.174L355.435 89.1675L320.047 107.604Z" fill="#A7AAB6"/>
<path d="M275.641 266.539C271.771 264.292 264.183 265.027 258.745 268.176C253.307 271.325 252.017 275.695 255.97 277.887C259.924 280.079 267.415 279.399 272.881 276.25C278.346 273.101 279.539 268.759 275.641 266.539Z" fill="#EE8200"/>
<path d="M256.65 271.741H253.667V274.71H256.65V271.741Z" fill="#EE8200"/>
<path d="M277.902 267.039H274.934V270.007H277.902V267.039Z" fill="#EE8200"/>
<path d="M275.641 264.084C271.771 261.836 264.183 262.572 258.745 265.721C253.307 268.87 252.017 273.226 255.97 275.431C259.924 277.637 267.415 276.943 272.881 273.808C278.346 270.673 279.539 266.331 275.641 264.084Z" fill="url(#paint12_linear)"/>
<path d="M261.228 264.5L259.397 265.374C261.277 266.11 263.096 266.996 264.835 268.023C266.862 269.182 268.813 270.47 270.675 271.88L272.34 270.895C270.447 269.415 268.449 268.075 266.361 266.886C264.71 265.967 262.995 265.169 261.228 264.5Z" fill="#EE8200"/>
<path d="M235.37 268.759C229.918 265.624 222.344 264.874 218.459 267.122C214.575 269.369 215.838 273.739 221.303 276.832C226.769 279.926 234.316 280.717 238.214 278.469C242.112 276.222 240.808 271.866 235.37 268.759Z" fill="#BE091A"/>
<path d="M240.433 272.282H237.479V275.251H240.433V272.282Z" fill="#BE091A"/>
<path d="M219.195 267.58H216.212V270.548H219.195V267.58Z" fill="#BE091A"/>
<path d="M235.37 266.262C229.918 263.113 222.344 262.391 218.459 264.625C214.575 266.858 215.838 271.242 221.303 274.335C226.769 277.429 234.316 278.206 238.214 275.972C242.112 273.739 240.808 269.411 235.37 266.262Z" fill="url(#paint13_linear)"/>
<path d="M227.74 267.371C225.656 268.566 223.658 269.906 221.761 271.381L223.454 272.379C225.304 270.963 227.245 269.67 229.266 268.509C231.009 267.489 232.827 266.603 234.704 265.859L232.873 264.985C231.112 265.668 229.397 266.465 227.74 267.371Z" fill="#BE091A"/>
<path d="M297.92 267.371C297.05 266.861 296.058 266.591 295.049 266.591C294.039 266.591 293.048 266.861 292.177 267.371L287.308 270.146L285.421 271.214L280.538 273.989C279.829 274.322 279.196 274.799 278.681 275.391C278.166 275.982 277.78 276.674 277.547 277.423C277.314 278.171 277.24 278.96 277.329 279.739C277.418 280.518 277.668 281.27 278.064 281.947C278.459 282.624 278.991 283.212 279.626 283.671C280.261 284.131 280.985 284.454 281.752 284.619C282.518 284.784 283.311 284.787 284.079 284.629C284.847 284.47 285.573 284.154 286.212 283.699L291.067 280.925L292.954 279.843L297.823 277.068C298.676 276.577 299.387 275.873 299.886 275.024C300.385 274.175 300.654 273.211 300.667 272.227C300.679 271.247 300.431 270.282 299.948 269.429C299.466 268.576 298.766 267.866 297.92 267.371Z" fill="url(#paint14_linear)"/>
<path d="M297.92 267.371C297.05 266.861 296.058 266.591 295.049 266.591C294.039 266.591 293.048 266.861 292.177 267.371L287.308 270.146L286.17 270.798C286.674 270.65 287.204 270.62 287.721 270.709C288.238 270.798 288.728 271.004 289.153 271.311C290.352 272.021 291.367 273.005 292.114 274.181C292.861 275.357 293.32 276.694 293.453 278.081C293.48 278.436 293.431 278.793 293.309 279.128C293.187 279.463 292.995 279.768 292.746 280.023L292.954 279.912L297.823 277.138C298.677 276.647 299.387 275.942 299.886 275.093C300.385 274.244 300.654 273.281 300.667 272.296C300.691 271.305 300.449 270.325 299.966 269.459C299.483 268.593 298.776 267.872 297.92 267.371Z" fill="white"/>
<path d="M264.474 293.493C261.331 295.087 257.857 295.918 254.333 295.918C250.81 295.918 247.335 295.087 244.193 293.493C241.418 291.856 239.962 289.706 239.962 287.57V294.242C239.962 296.392 241.349 298.529 244.207 300.166C247.345 301.766 250.818 302.6 254.34 302.6C257.863 302.6 261.336 301.766 264.474 300.166C267.249 298.557 268.636 296.448 268.636 294.325V287.653C268.65 289.761 267.249 291.87 264.474 293.493Z" fill="#B7BAC7"/>
<path d="M264.419 281.743C261.279 280.143 257.804 279.308 254.279 279.308C250.754 279.308 247.279 280.143 244.138 281.743C238.589 284.975 238.589 290.247 244.138 293.493C247.281 295.087 250.755 295.918 254.279 295.918C257.803 295.918 261.277 295.087 264.419 293.493C270.065 290.247 270.024 284.975 264.419 281.743Z" fill="#EBEAF1"/>
<path d="M261.353 281.785L244.553 291.495C244.45 291.526 244.36 291.589 244.296 291.676C244.231 291.762 244.197 291.866 244.197 291.974C244.197 292.082 244.231 292.186 244.296 292.272C244.36 292.359 244.45 292.422 244.553 292.453C244.811 292.583 245.096 292.651 245.386 292.651C245.675 292.651 245.96 292.583 246.218 292.453L263.017 282.742C263.489 282.492 263.489 282.048 263.017 281.785C262.759 281.654 262.474 281.586 262.185 281.586C261.896 281.586 261.611 281.654 261.353 281.785Z" fill="#B7BAC7"/>
<g style="mix-blend-mode:multiply">
<g style="mix-blend-mode:multiply">
<path style="mix-blend-mode:multiply" d="M129.926 639.691L169.809 662.372L199.302 646.475L161.222 625.292L129.926 639.691Z" fill="url(#paint15_linear)"/>
</g>
</g>
<g style="mix-blend-mode:multiply">
<g style="mix-blend-mode:multiply">
<path style="mix-blend-mode:multiply" d="M44.9166 592.733L92.79 619.951L123.267 603.651L77.5582 578.237L44.9166 592.733Z" fill="url(#paint16_linear)"/>
</g>
</g>
<path d="M87.8375 476.497C86.82 477.205 85.6895 477.735 84.4943 478.065C84.1475 478.189 85.4238 482.545 85.4238 482.545C86.9399 482.089 88.4889 481.751 90.0571 481.533C92.139 481.692 94.2328 481.58 96.2858 481.2C98.3944 480.562 97.7701 478.55 99.4764 477.607C99.7123 477.468 100.434 477.177 100.004 476.65C99.5735 476.122 93.5113 477.232 92.3599 476.483C91.9299 476.206 92.5819 475.998 92.8177 475.859C93.442 475.526 94.7182 474.971 94.5379 474.042C94.3159 472.862 92.8177 474.555 90.9172 474.721C89.7664 475.065 88.7118 475.673 87.8375 476.497Z" fill="#FF9599"/>
<path d="M64.4488 459.767C68.7909 461.529 71.5515 466.412 73.9652 478.065C76.379 489.717 77.2114 492.353 75.5883 494.587C73.9652 496.82 69.5954 498.748 66.488 489.426C63.3806 480.104 59.9403 470.31 59.5519 468.812C57.804 461.653 61.6466 458.629 64.4488 459.767Z" fill="url(#paint17_linear)"/>
<path d="M70.955 498.082C79.3755 494.184 89.6826 482.143 89.6826 482.143C88.9335 476.691 84.2724 477.218 84.2724 477.218C78.9347 481.962 73.1241 486.146 66.932 489.703C61.8547 492.603 62.5206 501.967 70.955 498.082Z" fill="#B7BAC7"/>
<path d="M76.2265 575.795C78.6264 576.738 84.4528 577.252 86.4504 578.972C88.448 580.692 86.8388 581.843 84.425 582.301C82.5516 582.724 80.6066 582.714 78.7374 582.274C76.301 581.651 73.757 581.575 71.2879 582.052C70.8756 582.16 70.4434 582.169 70.0269 582.078C69.6105 581.987 69.2216 581.798 68.8924 581.527C68.5632 581.256 68.3031 580.911 68.1335 580.52C67.9639 580.128 67.8897 579.703 67.9169 579.277C67.8198 578.181 67.7227 571.758 67.7227 571.758L75.2415 572.979C75.2415 572.979 75.2138 575.337 76.2265 575.795Z" fill="#002F6D"/>
<path d="M73.0913 534.802C74.4785 542.515 76.8645 569.206 76.7536 573.048C76.7536 575.088 67.0429 578.736 66.2522 574.228C63.4777 558.788 61.2166 540.199 61.2166 538.16C61.2304 532 72.2312 529.947 73.0913 534.802Z" fill="#4A4A66"/>
<path d="M43.1548 582.482C43.2619 581.637 43.5105 580.816 43.89 580.054L50.4516 581.316C50.5631 581.747 50.619 582.19 50.6181 582.634C50.7066 584.661 50.9478 586.678 51.3395 588.669C51.7418 590.417 51.7556 593.802 49.3557 594.62C46.9558 595.438 46.0402 594.62 44.2646 592.636C43.659 591.968 43.2033 591.178 42.9282 590.319C42.653 589.46 42.5648 588.552 42.6692 587.656C42.6692 586.796 42.9883 583.841 43.1548 582.482Z" fill="#002F6D"/>
<path d="M55.737 542.044C55.737 549.909 53.3926 576.614 52.6018 580.359C52.1857 582.329 42.0866 583.897 42.0866 579.305C42.0866 563.588 43.127 544.86 43.4738 542.876C44.5975 536.869 55.737 537.161 55.737 542.044Z" fill="#4A4A66"/>
<path d="M71.496 496.751C74.2704 512.177 73.7155 536.98 73.7155 539.006C73.7155 545.179 63.0338 546.774 61.5772 542.085C60.4536 538.492 58.3173 525.952 57.4155 522.317C56.5138 518.683 55.1544 513.273 55.1544 509.43C55.2653 507.363 70.6914 492.228 71.496 496.751Z" fill="#4A4A66"/>
<path d="M59.9958 504.339C59.9958 520.056 55.9729 544.374 55.6122 546.358C54.5163 552.42 43.7513 551.741 43.1271 546.844C42.6554 543.07 40.6994 516.435 42.0589 511.317C42.6693 509.361 59.9958 499.733 59.9958 504.339Z" fill="url(#paint18_linear)"/>
<path d="M37.2174 467.383C39.0763 466.37 45.0414 461.043 45.5408 459.531C45.9154 458.296 59.5796 458.976 59.5796 458.976C59.5796 458.976 65.4338 458.893 66.8765 460.294C73.2161 466.495 76.3929 537.285 76.0739 537.771C75.7548 538.257 68.7076 544.707 65.7251 545.803L63.0477 540.254L61.2859 548.272C52.6573 551.047 39.2012 551.435 39.2012 551.435C39.2012 551.435 29.3379 471.711 37.2174 467.383Z" fill="#EBEAF1"/>
<path d="M59.6351 459.143C60.403 459.76 60.9881 460.576 61.3275 461.501L64.3101 466.426L62.0905 467.965L64.1159 469.908L59.9542 481.657C59.9542 481.657 58.3311 472.113 58.5669 469.089C58.7889 466.467 58.5669 464.123 58.7334 462.722C59.1357 459.129 56.6803 458.227 56.6803 458.227C57.2101 458.129 57.7558 458.161 58.2705 458.321C58.7852 458.48 59.2534 458.762 59.6351 459.143Z" fill="#B7BAC7"/>
<path d="M48.2182 455.73C51.6724 453.039 57.9288 457.228 59.4132 462.514C60.0097 464.733 60.0374 473.903 60.0097 474.638C59.9265 477.856 59.8571 479.854 59.8571 479.854C59.1496 477.662 54.3082 469.547 53.3371 468.021C52.049 465.803 50.6171 463.671 49.0505 461.64C46.2622 458.241 47.0529 456.604 48.2182 455.73Z" fill="white"/>
<path d="M59.7045 465.094C59.9471 467.481 60.049 469.881 60.0097 472.28C60.0097 473.126 60.0097 473.903 60.0097 474.638L59.0663 477.496C59.0663 477.496 56.2919 473.223 56.0838 472.876C55.196 471.212 54.2526 469.547 53.3093 468.021L55.2653 462.971L59.7045 465.094Z" fill="url(#paint19_linear)"/>
<path d="M38.6879 470.504C41.4624 468.354 45.6241 470.421 46.0818 477.024C46.1651 478.411 45.735 487.664 45.5408 496.515C45.5408 497.083 45.5408 497.611 45.4437 498.096C50.4037 502.427 55.8177 506.208 61.5911 509.374C61.7325 509.741 61.8303 510.123 61.8824 510.512C62.1991 510.567 62.523 510.567 62.8396 510.512C64.0329 510.363 65.2446 510.496 66.3771 510.9C68.0001 511.899 70.2058 511.4 69.6926 512.496C69.2764 513.342 67.9169 513.037 67.2372 512.953C66.9597 512.953 66.3077 512.704 66.488 513.161C66.9874 514.452 72.5364 517.143 72.5641 517.823C72.5919 518.502 71.8428 518.308 71.5792 518.28C69.6371 518.045 68.9435 520.028 66.8765 519.307C64.9999 518.396 63.2471 517.249 61.6605 515.894C61.1905 515.582 60.6882 515.322 60.1623 515.117C59.7388 515.501 59.2735 515.836 58.775 516.116C58.775 516.116 44.9027 510.914 38.8266 504.533C38.0508 503.737 37.4423 502.793 37.0371 501.758C36.0938 499.913 35.8718 496.515 35.0533 488.677C33.9297 478.134 34.4152 473.82 38.6879 470.504Z" fill="#B7BAC7"/>
<path d="M49.3002 452.886C49.3002 452.886 57.0133 457.048 57.0133 458.99C56.8242 460.454 56.173 461.82 55.1544 462.888C55.1544 462.888 49.8968 460.502 48.4263 458.213C48.3093 458.054 48.232 457.868 48.2007 457.673C48.1693 457.478 48.1848 457.278 48.246 457.09C48.7651 455.736 49.119 454.325 49.3002 452.886Z" fill="#FF8E90"/>
<path d="M47.4969 448.489C47.4969 448.489 45.0276 438.625 53.9336 438.376C62.8397 438.126 61.716 448.183 61.2582 449.168C60.8004 450.153 61.4663 450.015 61.4247 451.763C61.3414 454.065 59.3993 457.034 59.1219 458.061C58.9112 458.546 58.518 458.928 58.0273 459.126C57.5365 459.323 56.9879 459.319 56.5 459.115C50.6736 457.131 49.328 453.705 49.328 453.705C48.4402 453.885 47.9408 452.72 47.8159 452.082C47.6911 451.443 47.5385 451.319 47.1917 450.056C46.8449 448.794 47.4969 448.489 47.4969 448.489Z" fill="#FF9599"/>
<path d="M54.4885 437.71C62.8119 438.071 63.4639 447.282 60.3842 447.282C56.9439 447.282 53.4481 443.661 51.714 444.507C49.6609 445.492 51.1591 446.574 51.1591 450.694C51.1591 450.694 51.0343 452.151 50.632 452.151C50.2297 452.151 49.7441 450.653 49.647 450.292C49.4667 449.654 48.2598 447.712 47.1361 449.363C44.1259 442.607 48.4263 437.446 54.4885 437.71Z" fill="#212435"/>
<path d="M56.2225 464.359L58.5253 464.83V467.966C59.4267 469.127 59.954 470.535 60.0374 472.002V481.713C60.0374 481.713 56.7774 474.375 56.0699 472.89C55.8246 471.447 55.9341 469.967 56.389 468.576C55.7302 467.901 55.1782 467.129 54.7521 466.287L56.2225 464.359Z" fill="#FF2838"/>
<path d="M57.7485 506.6C58.9024 507.054 60.1293 507.293 61.3692 507.307C62.5635 507.161 63.7756 507.299 64.9066 507.71C66.5435 508.695 68.7354 508.209 68.2221 509.305C67.8198 510.151 66.4464 509.846 65.7667 509.749C65.4892 509.749 64.8372 509.499 65.0176 509.971C65.517 511.261 71.0798 513.952 71.0937 514.632C71.1075 515.312 70.3862 515.118 70.1087 515.09C68.1666 514.854 67.4869 516.838 65.4199 516.102C63.5335 515.201 61.7749 514.053 60.19 512.69C58.7935 511.942 57.3419 511.302 55.848 510.776C55.848 510.776 57.3878 506.489 57.7485 506.6Z" fill="#FF9599"/>
<path d="M44.6114 473.806C44.6946 475.193 44.2646 484.46 44.0704 493.296C43.8762 502.133 39.1041 501.62 36.8984 500.121C34.6927 498.623 34.7065 496.154 33.5829 485.542C32.4592 474.929 32.9586 470.601 37.2174 467.286C39.978 465.149 44.1952 467.216 44.6114 473.806Z" fill="#EBEAF1"/>
<path d="M43.682 494.642C48.725 499.072 54.2374 502.938 60.1207 506.17C60.1207 506.17 61.9934 510.332 57.3462 512.926C57.3462 512.926 43.4739 507.71 37.3978 501.328C31.3217 494.947 39.5619 490.994 43.682 494.642Z" fill="#EBEAF1"/>
<path d="M48.2182 455.73C48.2182 455.73 46.3315 458.241 49.0505 461.64C50.1326 463.027 51.4227 465.496 53.3371 468.035C55.5289 470.948 60.0652 481.713 60.0652 481.713L48.4956 471.045L49.0228 469.117L47.2194 469.297L45.6518 462.014C45.3921 460.854 45.4545 459.645 45.8321 458.518C45.9903 457.902 46.2876 457.33 46.7012 456.847C47.1149 456.364 47.6338 455.982 48.2182 455.73Z" fill="#B7BAC7"/>
<path d="M47.5107 449.945C47.587 449.804 47.6989 449.684 47.8352 449.599C47.9716 449.513 48.1279 449.464 48.2887 449.457C48.4495 449.45 48.6094 449.485 48.7526 449.559C48.8959 449.632 49.0177 449.741 49.106 449.876C50.0669 451.41 51.3496 452.716 52.8654 453.705C52.9334 453.748 52.9918 453.805 53.0372 453.871C53.0826 453.938 53.114 454.013 53.1295 454.092C53.1451 454.171 53.1445 454.253 53.1277 454.332C53.1109 454.41 53.0783 454.485 53.0319 454.551C52.9682 454.661 52.8688 454.746 52.7501 454.791C52.6314 454.837 52.5007 454.84 52.3799 454.801C50.6279 454.333 49.0359 453.398 47.7743 452.096C47.5123 451.812 47.346 451.453 47.2987 451.07C47.2514 450.687 47.3256 450.298 47.5107 449.959V449.945Z" fill="url(#paint20_linear)"/>
<path d="M49.1615 448.627C49.6468 449.081 50.0047 449.654 50.1994 450.29C50.3941 450.925 50.4189 451.6 50.2713 452.248C50.2648 452.28 50.2474 452.308 50.222 452.329C50.1967 452.349 50.165 452.36 50.1326 452.359C50.0986 452.344 50.0706 452.318 50.053 452.286C50.0354 452.253 50.0292 452.215 50.0355 452.179C50.1621 451.582 50.1343 450.963 49.9546 450.381C49.775 449.798 49.4494 449.271 49.0089 448.849C48.3846 448.322 47.8575 448.447 47.6217 448.752C47.4072 448.987 47.2883 449.294 47.2883 449.612C47.2883 449.931 47.4072 450.237 47.6217 450.472C47.6363 450.486 47.6479 450.502 47.6558 450.52C47.6637 450.538 47.6677 450.557 47.6675 450.577C47.6673 450.597 47.6629 450.616 47.6547 450.634C47.6464 450.652 47.6345 450.667 47.6196 450.68C47.6048 450.693 47.5873 450.703 47.5685 450.708C47.5497 450.714 47.5299 450.716 47.5104 450.713C47.4909 450.71 47.4722 450.704 47.4555 450.693C47.4388 450.683 47.4245 450.669 47.4136 450.653C47.1453 450.367 46.996 449.99 46.996 449.599C46.996 449.207 47.1453 448.83 47.4136 448.544C47.6634 448.339 47.9806 448.234 48.3036 448.249C48.6266 448.264 48.9323 448.399 49.1615 448.627Z" fill="url(#paint21_linear)"/>
<path d="M151.262 514.036L145.81 514.951C147.405 510.54 145.13 509.943 145.13 509.943L147.405 506.128L151.262 514.036Z" fill="#FF9DA8"/>
<path d="M129.677 505.24C131.535 507.654 136.946 511.289 143.091 514.882C145.866 516.505 144.354 521.527 140.663 520.944C136.973 520.361 126.43 507.765 126.43 507.765C126.475 507.385 126.595 507.018 126.782 506.684C126.97 506.351 127.223 506.058 127.525 505.823C127.827 505.588 128.173 505.416 128.542 505.316C128.912 505.216 129.297 505.19 129.677 505.24Z" fill="#FF9DA8"/>
<path d="M122.629 498.068C124.405 499.081 124.252 497.694 124.904 497.611C126.253 497.904 127.513 498.513 128.581 499.386C129.025 499.969 128.234 503.007 129.968 505.684C130.273 506.17 126.722 508.098 126.722 508.098C125.112 506.852 123.596 505.488 122.185 504.02C121.492 502.979 119.508 502.494 120.132 502.175C120.757 501.856 122.352 502.424 123.226 502.785C124.1 503.146 123.892 501.62 122.865 500.122C121.839 498.623 118.273 496.973 118.704 496.307C119.078 495.877 121.214 497.264 122.629 498.068Z" fill="#FF9DA8"/>
<path d="M159.627 568.041C159.627 568.041 156.048 577.058 158.919 583.467C163.581 593.899 161.971 616.316 162.36 618.938C162.748 621.56 158.018 624.404 156.811 619.132C155.604 613.861 150.138 590.722 147.683 585.187C145.227 579.652 146.185 569.247 146.185 569.247L159.627 568.041Z" fill="#FF9DA8"/>
<path d="M149.75 575.088C147.516 579.693 145.172 593.302 146.337 601.792C147.502 610.282 144.839 626.943 144.77 629.606C144.7 632.27 140.011 634.6 139.762 629.19C139.512 623.78 136.987 602.291 135.475 596.34C133.963 590.389 136.529 572.272 136.529 572.272C136.529 572.272 151.983 570.482 149.75 575.088Z" fill="#FF9DA8"/>
<path d="M136.335 636.376C139.54 634.447 139.11 628.746 139.11 628.746C141.143 628.934 143.193 628.722 145.144 628.122C145.144 629.856 147.114 632.824 147.364 635.432C147.572 637.763 145.644 639.136 145.644 641.162H143.937L144.797 636.417C142.023 636.417 138.485 641.217 135.087 641.176C131.688 641.134 130.439 640.038 130.162 638.9C129.885 637.763 133.145 638.235 136.335 636.376Z" fill="url(#paint22_linear)"/>
<path d="M153.648 627.012C156.839 625.084 156.422 619.396 156.422 619.396C158.452 619.576 160.497 619.359 162.443 618.758C162.443 620.492 164.427 623.461 164.663 626.069C164.871 628.399 162.956 629.772 162.956 631.812H161.25L162.11 627.053C159.336 627.053 155.798 631.867 152.399 631.826C149.001 631.784 147.752 630.688 147.475 629.537C147.197 628.385 150.43 628.94 153.648 627.012Z" fill="url(#paint23_linear)"/>
<path d="M157.199 538.465C158.152 541.573 159.47 544.558 161.125 547.357C163.9 552.24 166.674 559.481 165.661 565.058C164.649 570.635 166.757 592.4 168.741 603.568C168.741 603.568 159.03 605.496 155.299 608.146C142.397 617.398 128.428 608.742 128.428 608.742C128.428 584.979 138.139 554.168 140.15 540.532L157.199 538.465Z" fill="#EBEAF1"/>
<path d="M138.791 542.044C138.402 546.802 137.501 552.282 137.07 555.375C143.244 558.663 156.769 555.833 162.776 550.464C160.903 545.318 158.711 531.695 158.614 526.881C158.614 521.804 156.852 514.896 151.179 513.938C146.032 513.078 140.58 515.173 139.678 518.475C139.373 519.612 139.151 520.625 138.943 521.527C138.662 523.057 138.196 524.548 137.556 525.966C135.212 530.682 138.416 533.637 138.61 534.289C139.065 536.85 139.126 539.465 138.791 542.044Z" fill="#EBEAF1"/>
<path d="M141.537 499.886C141.44 499.075 141.44 498.255 141.537 497.444C142.162 492.325 149.431 497.056 151.928 501.218C154.425 505.379 144.145 512.745 142.037 509.111C139.568 504.838 140.65 501.592 140.858 501.412C141.399 500.718 141.662 500.427 141.537 499.886Z" fill="#FF9DA8"/>
<path d="M148.834 492.103C154.383 493.491 156.173 490.272 159.114 496.764C161.541 502.119 165.758 497.028 168.269 503.229C170.78 509.43 167.964 507.627 171.613 513.439C174.706 518.391 171.363 523.039 170.073 526.257C168.783 529.475 166.452 531.085 169.282 535.746C169.282 535.746 157.713 535.593 158.642 527.908C159.571 520.223 152.247 523.913 152.885 518.502C153.412 514.147 147.835 515.95 147.988 513.203C148.141 510.456 142.952 509.25 146.434 504.297C148.501 501.37 140.566 499.525 140.885 496.334C141.163 494.198 143.299 490.633 148.834 492.103Z" fill="#212435"/>
<path d="M147.239 501.648C147.39 502.167 147.42 502.715 147.329 503.248C147.238 503.781 147.027 504.287 146.712 504.727C146.143 505.546 145.644 505.268 145.741 504.838C145.838 504.408 145.255 503.326 145.547 501.911C145.63 501.523 146.837 500.732 147.239 501.648Z" fill="#FF9DA8"/>
<path d="M106.759 531.709C108.563 531.986 111.101 533.276 110.685 532.43C110.269 531.584 109.77 530.474 110.047 529.822C110.325 529.17 110.449 530.904 111.545 531.529C112.819 532.616 113.96 533.85 114.944 535.205C114.944 535.205 113.876 538.59 113.335 538.423C112.794 538.257 111.101 538.159 109.839 537.979C108.577 537.799 105.553 538.853 105.344 538.284C104.7 537.135 104.166 535.928 103.749 534.678C103.749 534.026 106.426 532.458 104.512 533.166C102.598 533.873 100.767 533.29 101.432 533.041C102.473 532.652 104.97 531.404 106.759 531.709Z" fill="#FF9DA8"/>
<path d="M114.181 534.428C116.956 535.607 126.375 535.163 129.69 535.676C131.203 535.912 135.031 541.378 131.535 542.613C128.04 543.847 112.641 538.215 112.641 538.215C112.364 537.507 112.369 536.719 112.655 536.014C112.942 535.309 113.488 534.742 114.181 534.428Z" fill="#FF9DA8"/>
<path d="M138.68 534.386C139.106 536.932 139.143 539.528 138.791 542.086C141.394 538.735 143.618 535.106 145.422 531.265C148.044 525.883 146.906 521.443 142.841 520.167C142.141 519.927 141.379 519.933 140.682 520.186C139.986 520.438 139.397 520.921 139.013 521.554C138.731 523.085 138.266 524.575 137.625 525.994C135.281 530.78 138.485 533.72 138.68 534.386Z" fill="#B7BAC7"/>
<path d="M136.751 524.01C139.179 517.24 141.093 514.868 143.84 515.686C147.919 516.949 149.042 521.388 146.434 526.784C143.937 532.056 139.776 539.269 133.602 543.736C133.602 543.736 130.62 541.198 129.996 539.422C129.352 538.051 129.233 536.491 129.663 535.038C130.495 533.429 134.698 529.836 136.751 524.01Z" fill="#EBEAF1"/>
<g style="mix-blend-mode:multiply">
<g style="mix-blend-mode:multiply">
<path d="M583.538 590.93C557.652 577.28 516.091 577.946 490.704 592.428C465.318 606.911 465.734 629.717 491.62 643.367C517.506 657.018 559.067 656.352 584.453 641.869C609.84 627.386 609.424 604.58 583.538 590.93Z" fill="white"/>
</g>
<g style="mix-blend-mode:multiply">
<path d="M582.594 591.471C557.236 578.098 516.534 578.764 491.675 592.941C466.816 607.119 467.218 629.453 492.563 642.882C517.908 656.31 558.623 655.589 583.482 641.411C608.341 627.234 607.939 604.844 582.594 591.471Z" fill="#F8F8F9"/>
</g>
<g style="mix-blend-mode:multiply">
<path d="M581.637 591.984C556.82 578.889 516.978 579.499 492.646 593.371C468.314 607.244 468.703 629.134 493.52 642.216C518.338 655.298 558.179 654.701 582.525 640.829C606.871 626.956 606.455 605.094 581.637 591.984Z" fill="#F1F2F3"/>
</g>
<g style="mix-blend-mode:multiply">
<path d="M580.694 592.553C556.403 579.749 517.422 580.373 493.603 593.94C469.785 607.507 470.173 628.926 494.464 641.73C518.754 654.535 557.735 653.91 581.554 640.343C605.373 626.776 604.984 605.357 580.694 592.553Z" fill="#EBEBED"/>
</g>
<g style="mix-blend-mode:multiply">
<path d="M579.751 593.094C556.001 580.609 517.866 581.178 494.574 594.481C471.283 607.785 471.657 628.69 495.407 641.217C519.156 653.744 557.305 653.133 580.583 639.83C603.861 626.526 603.5 605.607 579.751 593.094Z" fill="#E4E4E7"/>
</g>
<g style="mix-blend-mode:multiply">
<path d="M578.807 593.635C555.585 581.386 518.296 581.982 495.573 595.022C472.85 608.062 473.183 628.468 496.392 640.704C519.6 652.939 556.903 652.343 579.626 639.317C602.349 626.29 602.016 605.856 578.807 593.635Z" fill="#DDDEE1"/>
</g>
<g style="mix-blend-mode:multiply">
<path d="M577.85 594.162C555.169 582.204 518.74 582.801 496.503 595.48C474.265 608.159 474.612 628.163 497.307 640.121C520.002 652.079 556.417 651.497 578.655 638.817C600.892 626.138 600.545 606.134 577.85 594.162Z" fill="#D6D7DA"/>
</g>
<g style="mix-blend-mode:multiply">
<path d="M576.907 594.759C554.711 583.078 519.184 583.661 497.474 596.049C475.764 608.437 476.097 627.955 498.251 639.636C520.405 651.316 555.973 650.734 577.698 638.359C599.422 625.985 599.061 606.384 576.907 594.759Z" fill="#CFD1D4"/>
</g>
<g style="mix-blend-mode:multiply">
<path d="M575.963 595.244C554.336 583.855 519.628 584.41 498.431 596.507C477.234 608.603 477.622 627.65 499.194 639.053C520.765 650.456 555.529 649.887 576.754 637.763C597.979 625.638 597.563 606.647 575.963 595.244Z" fill="#C8CACE"/>
</g>
<g style="mix-blend-mode:multiply">
<path d="M575.02 595.785C553.934 584.687 520.072 585.214 499.402 597.006C478.732 608.797 479.051 627.386 500.137 638.512C521.223 649.638 555.086 649.083 575.769 637.277C596.453 625.472 596.175 606.911 575.02 595.785Z" fill="#C2C3C8"/>
</g>
<g style="mix-blend-mode:multiply">
<path d="M574.063 596.326C553.518 585.492 520.516 586.033 500.359 597.519C480.203 609.006 480.536 627.123 501.094 637.971C521.653 648.819 554.642 648.264 574.798 636.778C594.955 625.292 594.622 607.161 574.063 596.326Z" fill="#BBBDC2"/>
</g>
<g style="mix-blend-mode:multiply">
<path d="M573.12 596.867C553.102 586.31 520.96 586.838 501.33 598.033C481.701 609.228 482.02 626.873 502.038 637.43C522.056 647.987 554.198 647.46 573.841 636.265C593.484 625.07 593.137 607.424 573.12 596.867Z" fill="#B4B6BC"/>
</g>
</g>
<path d="M501.178 584.077C521.293 572.48 553.893 572.48 573.98 584.077C583.787 589.737 588.809 597.117 589.031 604.539C589.17 608.765 589.17 612.987 589.031 617.204C588.809 624.626 583.787 632.02 573.98 637.68C553.879 649.291 521.265 649.291 501.178 637.68C491.37 632.02 486.362 624.626 486.126 617.204C485.988 612.987 485.988 608.765 486.126 604.539C486.362 597.117 491.37 589.737 501.178 584.077Z" fill="#B7BAC7"/>
<path d="M501.178 584.077C481.077 595.688 481.077 614.499 501.178 626.11C521.279 637.721 553.893 637.707 573.98 626.11C594.067 614.513 594.081 595.688 573.98 584.077C553.879 572.466 521.265 572.48 501.178 584.077Z" fill="#EBEAF1"/>
<path d="M570.983 586.699C552.408 576.6 522.277 576.6 503.689 586.699C485.1 596.798 485.114 613.167 503.689 623.266C522.264 633.365 552.408 633.365 570.983 623.266C589.558 613.167 589.558 596.798 570.983 586.699Z" fill="#B7BAC7"/>
<path d="M567.654 591.055C550.91 581.954 523.762 581.954 507.018 591.055C490.274 600.155 490.274 614.915 507.018 624.015C523.762 633.116 550.91 633.116 567.654 624.015C584.398 614.915 584.412 600.155 567.654 591.055Z" fill="url(#paint24_linear)"/>
<path d="M564.713 543.75C562.363 540.845 559.384 538.511 556.001 536.925C551.659 534.983 547.456 534.941 544.14 536.703C543.031 537.286 541.366 536.523 540.575 534.955C538.311 530.606 535.258 526.716 531.572 523.483C530.096 522.211 528.453 521.147 526.689 520.32C525.414 519.648 524.006 519.268 522.566 519.208C521.127 519.148 519.692 519.41 518.366 519.973H518.255L509.529 524.135L511.624 529.129C511.477 530.558 511.477 531.999 511.624 533.429C511.902 535.814 512.418 538.166 513.163 540.448L523.609 574.117C524.785 578.05 526.748 581.703 529.38 584.854C531.668 587.668 534.542 589.949 537.801 591.54L539.965 596.701L548.802 592.442C549.348 592.225 549.877 591.966 550.383 591.665H550.452C551.469 591.06 552.378 590.292 553.144 589.39L568.278 571.925C573.8 565.419 572.246 552.753 564.713 543.75Z" fill="#002F6D"/>
<path d="M555.946 547.995C553.599 545.09 550.619 542.76 547.234 541.184C542.892 539.228 538.688 539.2 535.373 540.948C534.263 541.544 532.598 540.781 531.808 539.2C529.54 534.858 526.487 530.973 522.805 527.741C521.332 526.465 519.688 525.401 517.922 524.579C516.647 523.907 515.239 523.527 513.799 523.467C512.359 523.407 510.924 523.668 509.598 524.232C509.598 524.232 503.689 526.895 502.981 532.278C502.706 534.114 502.655 535.978 502.828 537.827C503.105 540.212 503.621 542.564 504.368 544.846L514.814 578.528C515.985 582.459 517.949 586.109 520.585 589.251C522.943 592.167 525.931 594.51 529.325 596.104C535.22 598.74 540.839 597.852 544.348 593.76L559.469 576.295C564.963 569.664 563.409 556.998 555.946 547.995Z" fill="url(#paint25_linear)"/>
<path d="M546.346 571.092C544.765 566.348 540.256 560.952 536.261 559.01C534.277 558.052 532.779 558.122 532.002 559.01L523.498 568.72C520.557 572.147 521.376 578.736 525.316 583.453C529.255 588.169 534.818 589.224 537.801 585.797L546.304 576.087C547.054 575.213 547.137 573.465 546.346 571.092Z" fill="url(#paint26_linear)"/>
<path d="M551.035 553.655C547.095 548.938 541.491 547.926 538.55 551.338L531.947 559.024C531.156 559.953 531.073 561.715 531.863 564.059C533.459 568.831 537.967 574.228 541.962 576.142C543.946 577.127 545.43 577.044 546.221 576.142L552.797 568.443C555.779 565.016 554.989 558.385 551.035 553.655Z" fill="#EBEAF1"/>
<path d="M519.517 535.108C517.381 533.304 515.577 532.791 514.357 533.387L512.331 534.567L524.677 557.595L526.703 556.429C527.91 555.833 528.52 554.099 528.256 551.408C527.251 545.149 524.173 539.409 519.517 535.108Z" fill="url(#paint27_linear)"/>
<path d="M517.506 536.204C517.242 535.982 516.368 535.357 515.98 535.094C512.581 532.902 510.306 534.816 510.777 539.533C511.503 545.117 514.02 550.315 517.949 554.349C524.65 560.438 526.731 557.317 526.273 552.517C525.676 547.093 521.834 539.658 517.506 536.204Z" fill="white"/>
<path d="M523.803 557.9L511.859 534.719L512.803 534.275L524.747 557.47L523.803 557.9Z" fill="url(#paint28_linear)"/>
<path d="M493.853 471.905H580.361V604.788H580.25C580.916 611.655 576.768 618.661 567.765 623.877C550.868 633.587 523.485 633.587 506.588 623.877C497.515 618.647 493.368 611.655 494.033 604.788H493.923L493.853 471.905Z" fill="url(#paint29_linear)" fill-opacity="0.5"/>
</g>
<defs>
<linearGradient id="paint0_linear" x1="8.32135" y1="258.063" x2="73.9791" y2="258.063" gradientUnits="userSpaceOnUse">
<stop stop-color="#00A3FF"/>
<stop offset="1" stop-color="#1270E8"/>
</linearGradient>
<linearGradient id="paint1_linear" x1="352.368" y1="5451.67" x2="3459.95" y2="5451.67" gradientUnits="userSpaceOnUse">
<stop stop-color="#00A3FF"/>
<stop offset="1" stop-color="#1270E8"/>
</linearGradient>
<linearGradient id="paint2_linear" x1="60308.5" y1="34880.1" x2="64767.1" y2="44962.9" gradientUnits="userSpaceOnUse">
<stop stop-color="#DADDE4"/>
<stop offset="1" stop-color="#DADDE4"/>
</linearGradient>
<linearGradient id="paint3_linear" x1="228.323" y1="367.141" x2="403.336" y2="367.141" gradientUnits="userSpaceOnUse">
<stop stop-color="#C2C8D7"/>
<stop offset="1" stop-color="white"/>
</linearGradient>
<linearGradient id="paint4_linear" x1="172745" y1="35612.2" x2="169171" y2="35612.2" gradientUnits="userSpaceOnUse">
<stop stop-color="#C2C8D7"/>
<stop offset="1" stop-color="white"/>
</linearGradient>
<linearGradient id="paint5_linear" x1="166.521" y1="294.977" x2="168.061" y2="294.977" gradientUnits="userSpaceOnUse">
<stop stop-color="#1D529D"/>
<stop offset="1" stop-color="#0F2E66"/>
</linearGradient>
<linearGradient id="paint6_linear" x1="633175" y1="13898.3" x2="633175" y2="16524.6" gradientUnits="userSpaceOnUse">
<stop stop-color="#00A3FF"/>
<stop offset="1" stop-color="#1270E8"/>
</linearGradient>
<linearGradient id="paint7_linear" x1="296.117" y1="232.261" x2="296.117" y2="203.836" gradientUnits="userSpaceOnUse">
<stop stop-color="white"/>
<stop offset="1" stop-color="#C2C8D7"/>
</linearGradient>
<linearGradient id="paint8_linear" x1="-83906.5" y1="8595.08" x2="-82999.9" y2="8595.08" gradientUnits="userSpaceOnUse">
<stop stop-color="white"/>
<stop offset="1" stop-color="#C2C8D7"/>
</linearGradient>
<linearGradient id="paint9_linear" x1="154951" y1="10200.7" x2="154951" y2="9065.45" gradientUnits="userSpaceOnUse">
<stop stop-color="white"/>
<stop offset="1" stop-color="#C2C8D7"/>
</linearGradient>
<linearGradient id="paint10_linear" x1="625067" y1="9896.28" x2="639330" y2="9896.28" gradientUnits="userSpaceOnUse">
<stop stop-color="#00A3FF"/>
<stop offset="1" stop-color="#1270E8"/>
</linearGradient>
<linearGradient id="paint11_linear" x1="203.694" y1="56.0235" x2="283.535" y2="121.348" gradientUnits="userSpaceOnUse">
<stop stop-color="#DEE4F2"/>
<stop offset="1" stop-color="white"/>
</linearGradient>
<linearGradient id="paint12_linear" x1="253.64" y1="269.771" x2="277.889" y2="269.771" gradientUnits="userSpaceOnUse">
<stop stop-color="#FFCC38"/>
<stop offset="1" stop-color="#FF9500"/>
</linearGradient>
<linearGradient id="paint13_linear" x1="216.212" y1="270.326" x2="240.447" y2="270.326" gradientUnits="userSpaceOnUse">
<stop stop-color="#FF3D49"/>
<stop offset="1" stop-color="#D80C1E"/>
</linearGradient>
<linearGradient id="paint14_linear" x1="106897" y1="3782.46" x2="106955" y2="3948.58" gradientUnits="userSpaceOnUse">
<stop stop-color="#FF3D49"/>
<stop offset="1" stop-color="#D80C1E"/>
</linearGradient>
<linearGradient id="paint15_linear" x1="35349.9" y1="17376.5" x2="35665.1" y2="18289.4" gradientUnits="userSpaceOnUse">
<stop stop-color="#DADDE4"/>
<stop offset="1" stop-color="#DADDE4"/>
</linearGradient>
<linearGradient id="paint16_linear" x1="35238.5" y1="17983.9" x2="35660.2" y2="19209.2" gradientUnits="userSpaceOnUse">
<stop stop-color="#DADDE4"/>
<stop offset="1" stop-color="#DADDE4"/>
</linearGradient>
<linearGradient id="paint17_linear" x1="-39063.6" y1="13101.6" x2="-39215.5" y2="13812.2" gradientUnits="userSpaceOnUse">
<stop stop-color="white"/>
<stop offset="1" stop-color="#C2C8D7"/>
</linearGradient>
<linearGradient id="paint18_linear" x1="38266.2" y1="20250.1" x2="38266.2" y2="18733.4" gradientUnits="userSpaceOnUse">
<stop stop-color="#1D529D"/>
<stop offset="1" stop-color="#0F2E66"/>
</linearGradient>
<linearGradient id="paint19_linear" x1="-15047.3" y1="5418.54" x2="-15097.6" y2="5333.42" gradientUnits="userSpaceOnUse">
<stop stop-color="white"/>
<stop offset="1" stop-color="#C2C8D7"/>
</linearGradient>
<linearGradient id="paint20_linear" x1="10057.2" y1="2196.14" x2="10032.5" y2="2196.14" gradientUnits="userSpaceOnUse">
<stop stop-color="#00A3FF"/>
<stop offset="1" stop-color="#1270E8"/>
</linearGradient>
<linearGradient id="paint21_linear" x1="4460.27" y1="1779.78" x2="4451.88" y2="1779.78" gradientUnits="userSpaceOnUse">
<stop stop-color="#00A3FF"/>
<stop offset="1" stop-color="#1270E8"/>
</linearGradient>
<linearGradient id="paint22_linear" x1="36735" y1="6590.05" x2="36520.3" y2="6590.05" gradientUnits="userSpaceOnUse">
<stop stop-color="#FF3D49"/>
<stop offset="1" stop-color="#D80C1E"/>
</linearGradient>
<linearGradient id="paint23_linear" x1="36900.5" y1="6499.51" x2="36686.1" y2="6499.51" gradientUnits="userSpaceOnUse">
<stop stop-color="#FF3D49"/>
<stop offset="1" stop-color="#D80C1E"/>
</linearGradient>
<linearGradient id="paint24_linear" x1="30996.5" y1="20963" x2="36298" y2="20963" gradientUnits="userSpaceOnUse">
<stop stop-color="#FFCC38"/>
<stop offset="1" stop-color="#FF9500"/>
</linearGradient>
<linearGradient id="paint25_linear" x1="14314.6" y1="70083.5" x2="17015.9" y2="70293.3" gradientUnits="userSpaceOnUse">
<stop stop-color="#00A3FF"/>
<stop offset="1" stop-color="#1270E8"/>
</linearGradient>
<linearGradient id="paint26_linear" x1="525.772" y1="573.227" x2="542.534" y2="587.449" gradientUnits="userSpaceOnUse">
<stop stop-color="#FF3D49"/>
<stop offset="1" stop-color="#D80B1E"/>
</linearGradient>
<linearGradient id="paint27_linear" x1="510.623" y1="537.847" x2="527.977" y2="539.195" gradientUnits="userSpaceOnUse">
<stop stop-color="white"/>
<stop offset="1" stop-color="#BEC1EB"/>
</linearGradient>
<linearGradient id="paint28_linear" x1="4832.18" y1="19481.6" x2="4972.26" y2="19481.6" gradientUnits="userSpaceOnUse">
<stop stop-color="white"/>
<stop offset="1" stop-color="#BEC1EB"/>
</linearGradient>
<linearGradient id="paint29_linear" x1="33922.3" y1="54489.4" x2="33922.3" y2="72603" gradientUnits="userSpaceOnUse">
<stop stop-color="#FFD65F" stop-opacity="0.52"/>
<stop offset="1" stop-color="#FF9500"/>
</linearGradient>
<clipPath id="clip0">
<rect width="650" height="715.834" fill="white" transform="translate(0.125 0.250183)"/>
</clipPath>
</defs>
</svg>
