<svg width="150" height="62" viewBox="0 0 150 62" fill="none" xmlns="http://www.w3.org/2000/svg">
<g clip-path="url(#clip0)">
<path d="M45.5956 49.3909L42.4935 33.221L31.0426 42.2498L35.6364 48.1653L24.4986 58.4264C24.277 58.6305 24.1325 58.9049 24.0897 59.2032C24.0469 59.5015 24.1084 59.8054 24.2638 60.0636C24.4192 60.3217 24.659 60.5184 24.9426 60.6203C25.2262 60.7221 25.5363 60.723 25.8204 60.6226L42.5338 54.7272C43.5988 54.3521 44.4937 53.6071 45.0557 52.6277C45.6176 51.6483 45.8092 50.4997 45.5956 49.3909Z" fill="#EFBF61"/>
<path d="M13.6427 17.4335L29.8126 20.5266L20.7816 31.9798L14.8727 27.3927L4.60943 38.5305C4.40592 38.7528 4.13178 38.8979 3.83351 38.9411C3.53524 38.9844 3.23118 38.9231 2.9729 38.7678C2.71462 38.6125 2.51801 38.3726 2.41641 38.0888C2.3148 37.8051 2.31446 37.4949 2.41543 37.2109L8.31085 20.4953C8.68624 19.4315 9.43067 18.5375 10.409 17.9757C11.3873 17.4139 12.5346 17.2216 13.6427 17.4335Z" fill="#EFBF61"/>
<path d="M49.6101 1.42242C43.5514 3.2899 36.1911 7.42072 29.2579 16.2571C21.2781 26.4399 16.9572 32.2817 14.6536 35.5626L27.509 48.4091C30.7877 46.0966 36.6294 41.7824 46.8145 33.8047C55.6487 26.8716 59.7862 19.518 61.647 13.4526L49.6101 1.42242Z" fill="#DBE2EB"/>
<path d="M46.81 33.8047C36.625 41.7823 30.7855 46.1055 27.5045 48.4113L25.1539 46.0585C28.4371 43.7482 34.2789 39.4362 44.4594 31.4541C53.2959 24.5344 57.4312 17.1696 59.2942 11.1132L61.6402 13.4615C59.7772 19.5202 55.6419 26.8805 46.81 33.8137V33.8047Z" fill="#DBE2EB"/>
<path d="M63.0023 2.15822C62.9603 1.61798 62.7267 1.11048 62.3438 0.727108C61.9608 0.343738 61.4536 0.109684 60.9134 0.0670917C56.4211 -0.223651 51.9193 0.463075 47.718 2.07994L60.9961 15.3581C62.6118 11.155 63.2963 6.65149 63.0023 2.15822Z" fill="#EFBF61"/>
<path d="M60.9984 15.3491L58.65 13.003C60.2316 8.87558 60.9214 4.46008 60.6741 0.046936C60.7568 0.046936 60.8373 0.0625886 60.9134 0.0648251C61.4535 0.108238 61.9605 0.342499 62.3437 0.725654C62.7268 1.10881 62.9611 1.61584 63.0045 2.15596C63.2953 6.64689 62.611 11.1476 60.9984 15.3491Z" fill="#EFBF61"/>
<path d="M16.0849 33.5744C14.5485 35.6946 13.5868 37.0969 12.9918 38.0027C12.7226 38.4138 12.6032 38.905 12.6537 39.3938C12.7042 39.8826 12.9216 40.3391 13.2692 40.6865L22.365 49.8025C22.7129 50.1493 23.1695 50.366 23.6581 50.4161C24.1468 50.4662 24.6379 50.3467 25.0488 50.0776C25.9546 49.4826 27.3547 48.512 29.4749 46.9845L16.0849 33.5744Z" fill="#EFBF61"/>
<path d="M29.495 46.9844C27.3726 48.5209 25.9703 49.4826 25.069 50.0753C24.6585 50.346 24.1671 50.4665 23.678 50.4164C23.1889 50.3663 22.7321 50.1486 22.3851 49.8002L20.0368 47.4541C20.3849 47.8006 20.8414 48.017 21.33 48.0671C21.8186 48.1172 22.3095 47.9979 22.7206 47.7292C23.6152 47.1343 25.0242 46.1636 27.1489 44.6361L29.495 46.9844Z" fill="#EFBF61"/>
<path d="M15.291 47.0291C15.291 47.0291 20.1621 50.9274 17.1696 56.0087C14.1772 61.09 9.9994 59.9763 9.9994 59.9763C9.9994 59.9763 11.3927 57.9791 11.1825 57.3528C11.1825 57.3528 6.07881 63.4786 0 58.8379C0 58.8379 2.55185 57.865 3.08637 55.7537C3.6209 53.6425 4.64075 51.6453 5.91555 50.6948C5.54807 51.0448 5.08502 51.2779 4.58499 51.3647C4.08497 51.4515 3.57044 51.388 3.1065 51.1823C3.54374 50.9441 3.89942 50.5802 4.1275 50.1376C4.35558 49.695 4.44556 49.1941 4.38578 48.6998C4.17555 46.9598 10.695 42.3504 15.291 47.0291Z" fill="#618EA8"/>
<path d="M15.8613 47.5838C15.8613 47.5838 13.5823 44.7368 10.6144 46.4857C7.6466 48.2346 8.29743 50.6747 8.29743 50.6747C8.29743 50.6747 9.46265 49.8628 9.82944 49.9858C9.82944 49.9858 6.25103 52.9671 8.96167 56.5209C8.96167 56.5209 9.53198 55.0292 10.7643 54.716C11.9966 54.4029 13.1641 53.808 13.7232 53.0633C13.5185 53.2775 13.3821 53.5476 13.3311 53.8395C13.2801 54.1313 13.317 54.4317 13.4369 54.7026C13.5768 54.4477 13.7899 54.2406 14.0485 54.1079C14.3072 53.9751 14.5998 53.9229 14.8884 53.9579C15.9015 54.0786 18.5988 50.2676 15.8613 47.5838Z" fill="#FFC943"/>
<path d="M54.2934 25.1853L50.3034 21.1036C47.8164 18.554 45.3652 21.4123 44.0412 20.0502L45.6962 18.4355C45.9779 18.5141 46.2753 18.5171 46.5586 18.4443C46.8418 18.3715 47.1009 18.2255 47.3098 18.0208C47.5187 17.8162 47.6701 17.5601 47.7487 17.2785C47.8273 16.9968 47.8304 16.6994 47.7577 16.4161C47.6849 16.1329 47.5389 15.8737 47.3343 15.6648C47.1297 15.4558 46.8737 15.3044 46.592 15.2258C46.3104 15.1471 46.013 15.144 45.7297 15.2166C45.4464 15.2893 45.1873 15.4353 44.9783 15.6399C44.771 15.8449 44.6207 16.1004 44.5423 16.3812C44.4639 16.662 44.46 16.9584 44.531 17.2412L42.876 18.856C41.5341 17.4872 44.4684 15.1188 41.9814 12.5669L37.9915 8.47858C37.079 9.37318 36.8285 10.8649 38.1905 12.2605L36.1777 11.4017C35.9163 12.0115 35.9078 12.7001 36.154 13.3162C36.4002 13.9322 36.8809 14.4253 37.4905 14.6871L38.1391 14.9644L36.1262 14.9398C36.1083 16.3175 37.3899 17.608 38.772 17.6236C38.6883 17.9069 38.6812 18.2072 38.7515 18.4941C38.8219 18.7809 38.9671 19.0439 39.1723 19.2563C39.3802 19.4664 39.6395 19.6183 39.9245 19.6968C40.2094 19.7753 40.5099 19.7776 40.7961 19.7036C40.6594 20.0851 40.6531 20.5012 40.7782 20.8867L30.0318 31.3714C29.8734 31.5259 29.7829 31.737 29.7802 31.9583C29.7774 32.1795 29.8627 32.3928 30.0172 32.5512C30.1717 32.7095 30.3828 32.8001 30.6041 32.8028C30.8253 32.8055 31.0386 32.7202 31.197 32.5657L41.9322 22.0855C42.3153 22.2154 42.7299 22.2193 43.1153 22.0966C43.0367 22.3808 43.0329 22.6804 43.1043 22.9665C43.1756 23.2525 43.3196 23.5153 43.5224 23.7293C43.7283 23.9421 43.9876 24.0959 44.2731 24.1746C44.5587 24.2532 44.8601 24.2539 45.146 24.1766C45.1304 25.5543 46.3851 26.8716 47.7628 26.8895L47.7874 24.8766L48.049 25.5319C48.1717 25.8387 48.3539 26.1181 48.5851 26.354C48.8164 26.59 49.092 26.7779 49.3962 26.9068C49.7004 27.0357 50.0271 27.1031 50.3574 27.1051C50.6878 27.1071 51.0153 27.0437 51.321 26.9185L50.5114 24.9057C51.8869 26.2901 53.3786 26.0754 54.2934 25.1853Z" fill="#FACE59"/>
<path d="M38.356 13.8193C38.3255 13.6599 38.339 13.4953 38.3949 13.3429C38.4508 13.1906 38.5471 13.0563 38.6735 12.9545C38.7999 12.8527 38.9516 12.7872 39.1124 12.7651C39.2731 12.7429 39.4369 12.7648 39.5861 12.8286C39.5546 12.4661 39.6038 12.1012 39.7303 11.7601C39.8567 11.419 40.0573 11.1102 40.3174 10.856L41.9769 12.5579C44.4706 15.1143 41.5296 17.4782 42.8715 18.847L40.7871 20.8822C40.6666 20.496 40.6729 20.0814 40.805 19.6991V19.6879C40.4695 19.782 40.1128 19.7678 39.7858 19.6476C39.4587 19.5273 39.1779 19.307 38.9832 19.0179C38.7885 18.7289 38.6899 18.3859 38.7014 18.0376C38.7129 17.6893 38.8338 17.3535 39.0471 17.0779C38.6688 16.8077 38.3681 16.4429 38.1749 16.02C38.1226 15.9052 38.1002 15.779 38.1095 15.6531C38.1189 15.5272 38.1598 15.4058 38.2285 15.2999C38.2971 15.1936 38.3916 15.1067 38.5031 15.0472C38.6147 14.9877 38.7396 14.9577 38.8659 14.9599H38.9017C38.6295 14.63 38.4421 14.2384 38.356 13.8193Z" fill="#EFBF61"/>
<path d="M49.0376 24.6977C49.1893 24.7261 49.346 24.7131 49.4909 24.66C49.6359 24.6069 49.7639 24.5157 49.8614 24.3959C49.959 24.2762 50.0224 24.1324 50.0451 23.9797C50.0678 23.8269 50.0488 23.6709 49.9903 23.528L49.9724 23.4788C50.3334 23.5172 50.6983 23.4757 51.0415 23.3575C51.3847 23.2392 51.6977 23.047 51.9584 22.7945L50.2989 21.1037C47.8052 18.5473 45.3786 21.4257 44.0367 20.0525L41.9523 22.0855C42.3354 22.2154 42.75 22.2194 43.1354 22.0967C43.0355 22.4288 43.0424 22.7839 43.155 23.1119C43.2675 23.44 43.4802 23.7244 43.763 23.9252C44.0458 24.126 44.3844 24.233 44.7313 24.2312C45.0781 24.2293 45.4156 24.1187 45.6962 23.9149C45.9573 24.2985 46.3143 24.607 46.7317 24.8095C46.8457 24.865 46.9717 24.8909 47.0983 24.8851C47.2249 24.8792 47.348 24.8417 47.4563 24.776C47.5638 24.7094 47.6526 24.6166 47.7144 24.5062C47.7762 24.3959 47.809 24.2717 47.8097 24.1453V24.1095C48.1585 24.4127 48.5827 24.6159 49.0376 24.6977Z" fill="#EFBF61"/>
<path d="M44.9537 17.9927C44.7498 17.781 44.6048 17.5196 44.5332 17.2345L44.37 17.3955L44.3342 19.7617L45.6917 18.4198C45.4128 18.344 45.1584 18.1968 44.9537 17.9927Z" fill="#E4B64F"/>
<path d="M48.5612 22.781C48.6776 22.8042 48.798 22.7952 48.9097 22.7551C49.0214 22.7149 49.12 22.6451 49.1949 22.5531C49.2699 22.4611 49.3184 22.3505 49.3352 22.233C49.352 22.1155 49.3365 21.9957 49.2903 21.8864L49.2769 21.8506C49.7673 21.8982 50.2569 21.7521 50.6411 21.4436L50.2989 21.1036C47.8052 18.5496 45.3786 21.4257 44.0367 20.0525L43.2652 20.8062H44.0792C44.0024 21.0587 44.0069 21.3291 44.0921 21.5789C44.1773 21.8288 44.3388 22.0456 44.5539 22.1986C44.769 22.3516 45.0268 22.4332 45.2907 22.4318C45.5547 22.4303 45.8116 22.346 46.025 22.1906C46.2313 22.4929 46.5147 22.7346 46.8458 22.8906C46.9298 22.9284 47.0219 22.9451 47.1139 22.9393C47.2058 22.9334 47.295 22.9052 47.3736 22.8571C47.4514 22.8072 47.5156 22.7388 47.5605 22.658C47.6054 22.5772 47.6295 22.4865 47.6308 22.3941V22.336C47.8959 22.5644 48.217 22.718 48.5612 22.781Z" fill="#FADC8B"/>
<path d="M41.9747 12.5602L41.6325 12.209C41.3118 12.5849 41.1512 13.0715 41.1852 13.5644L41.1494 13.5487C41.0423 13.5012 40.9243 13.4838 40.808 13.4984C40.6918 13.5129 40.5817 13.559 40.4897 13.6315C40.3968 13.7041 40.3252 13.8003 40.2823 13.9101C40.2394 14.0199 40.2269 14.1391 40.2459 14.2554C40.3043 14.6009 40.4541 14.9245 40.6798 15.1925H40.6216C40.5298 15.1922 40.4392 15.2142 40.3578 15.2567C40.2763 15.2991 40.2065 15.3608 40.1542 15.4363C40.1024 15.5131 40.0709 15.6019 40.0626 15.6942C40.0544 15.7865 40.0698 15.8794 40.1072 15.9641C40.2511 16.2985 40.483 16.5876 40.7782 16.8006C40.6172 17.0107 40.5265 17.2662 40.5187 17.5308C40.511 17.7954 40.5867 18.0557 40.7351 18.2749C40.8836 18.494 41.0972 18.661 41.3457 18.752C41.5943 18.843 41.8652 18.8536 42.1201 18.7821L42.091 19.5962L42.8626 18.8425C41.5296 17.4738 44.4684 15.1165 41.9747 12.5602Z" fill="#FADC8B"/>
<path d="M32.9549 30.857L34.9163 28.9426L33.2188 28.2716L31.2529 30.1883C31.5347 30.2733 32.6529 30.7385 32.9549 30.857Z" fill="#E4B64F"/>
<path d="M37.6761 31.4877C38.5707 30.6244 38.6602 29.2221 37.9535 27.7348C36.1106 23.9462 35.0907 22.4008 35.7035 21.3653C35.9941 21.5675 36.3267 21.7014 36.6764 21.7567C37.7007 21.9356 38.6893 21.5062 38.8615 20.7905C39.2216 19.3748 36.4013 18.3035 34.6591 19.9965C32.5568 22.0474 34.6859 25.1248 36.3678 28.5892C36.7614 29.4077 36.739 30.063 36.5109 30.2844C36.1374 30.649 35.7438 30.6177 34.6882 30.1928L31.8232 29.0253C30.7049 28.6317 29.6314 28.7547 29.0119 29.3585C28.6988 29.6627 28.417 30.0295 28.5176 30.9107C28.5248 30.9653 28.549 31.0162 28.587 31.056C28.609 31.0784 28.6353 31.0962 28.6643 31.1083C28.6933 31.1205 28.7244 31.1267 28.7558 31.1267C28.7873 31.1267 28.8184 31.1205 28.8474 31.1083C28.8763 31.0962 28.9026 31.0784 28.9247 31.056C28.9547 31.027 28.977 30.9908 28.9895 30.9509C29.4167 29.4279 30.9219 30.2017 33.93 31.6733C35.1041 32.2436 36.6138 32.5031 37.6761 31.4855V31.4877Z" fill="#618EA8"/>
<path d="M36.8151 27.0907L38.6982 25.2546L37.1438 24.4382L35.2652 26.2722C35.6722 26.4869 36.039 26.6949 36.8151 27.0907Z" fill="#E4B64F"/>
<path d="M36.1151 23.9865C35.4384 23.66 34.7146 23.4419 33.9702 23.3401C34.2632 24.984 36.7435 28.6071 36.6697 29.8819L38.2353 28.4304C37.8685 27.6208 36.5959 24.9885 36.1151 23.9865Z" fill="#2D3F50"/>
<path d="M34.1335 26.3057C37.5576 28.077 40.5791 30.2778 42.6814 28.2269C44.4147 26.5339 43.415 23.6801 41.9926 24.0044C41.2792 24.1699 40.8184 25.136 40.9705 26.1671C41.0195 26.5176 41.1456 26.8529 41.3395 27.1489C40.2929 27.7393 38.772 26.6815 35.0259 24.7424C33.5565 23.9977 32.152 24.0715 31.2686 24.928C30.2219 25.9501 30.4455 27.4777 30.9868 28.6675C32.3846 31.7114 33.1226 33.2344 31.5884 33.6236C31.5479 33.635 31.5109 33.6566 31.481 33.6862C31.4486 33.7177 31.4257 33.7578 31.4151 33.8017C31.4045 33.8457 31.4066 33.8918 31.4211 33.9346C31.4356 33.9774 31.462 34.0153 31.4971 34.0438C31.5323 34.0722 31.5748 34.0902 31.6197 34.0955C32.4986 34.223 32.8699 33.9456 33.1852 33.6482C33.8003 33.0466 33.9792 32.0357 33.5654 30.866L32.4919 27.9585C32.0916 26.8917 32.0692 26.4958 32.4427 26.1335C32.6753 25.9009 33.3239 25.8942 34.1335 26.3057Z" fill="#618EA8"/>
<path d="M37.5487 20.5453C37.7158 20.3823 37.7212 20.1168 37.5608 19.9524C37.4004 19.7879 37.1348 19.7868 36.9677 19.9498C36.8006 20.1128 36.7952 20.3782 36.9556 20.5427C37.1161 20.7072 37.3816 20.7083 37.5487 20.5453Z" fill="#CDDBEC"/>
<path d="M42.7964 25.9256C42.9635 25.7625 42.9689 25.4971 42.8085 25.3326C42.6481 25.1682 42.3826 25.167 42.2155 25.33C42.0484 25.493 42.0429 25.7585 42.2034 25.923C42.3638 26.0874 42.6293 26.0886 42.7964 25.9256Z" fill="#CDDBEC"/>
<path d="M32.5277 28.0368C31.9326 27.7942 31.2962 27.6689 30.6535 27.6678C30.7532 28.0673 30.8918 28.4561 31.0673 28.8285C31.7578 29.001 32.4315 29.2353 33.0801 29.5286L32.5277 28.0368Z" fill="#2D3F50"/>
<path d="M33.7533 31.5928L31.9149 30.6982C32.2258 31.4341 32.4628 32.1564 32.4382 32.7558L33.7533 31.5928Z" fill="#2D3F50"/>
<path d="M31.9149 30.7072L33.7488 31.5883C33.7488 31.5883 32.606 31.0136 31.9149 30.7072Z" fill="#2D3F50"/>
<path d="M69.8191 15.4207L67.2158 27.7059H63.6889L69.4054 0.814148H74.2183C78.3693 0.814148 80.154 3.16024 79.284 7.46551L78.9776 8.97962C78.2306 12.6564 76.7076 13.6763 75.1756 14.0632C76.4191 14.8348 77.1884 16.2393 76.3318 20.1979C75.8331 22.4635 75.0749 26.0464 75.0078 27.7059H71.4965C71.548 26.0352 72.3196 22.5731 72.9816 19.4129C73.6055 16.3824 73.1381 15.4207 70.9486 15.4207H69.8191ZM70.4498 12.4283H71.4585C74.0417 12.4283 74.9027 11.6433 75.4395 8.76939L75.7168 7.25975C76.1261 5.0635 75.7817 3.80659 73.5675 3.80659H72.2793L70.4498 12.4283Z" fill="#618EA8"/>
<path d="M94.0092 7.96423L91.2605 20.88C90.3055 25.3888 88.8808 28.0838 84.2222 28.0838C79.5994 28.0838 78.367 25.0153 79.284 20.5535L82.0908 7.0987C83.0078 2.67713 85.2085 0.436157 88.9435 0.436157C93.1794 0.436157 94.9999 3.35032 94.0092 7.96423ZM85.714 7.11436L82.7662 21.1037C82.2586 23.452 82.6007 25.0422 84.5957 25.0422C86.3022 25.0422 87.076 23.6578 87.6105 21.2177L90.556 7.29775C91.0525 4.95165 90.556 3.49569 88.6303 3.49569C87.0737 3.5024 86.1993 4.75261 85.714 7.11436Z" fill="#618EA8"/>
<path d="M105.914 20.2359L105.793 20.7324C104.899 24.3712 104.042 28.0838 98.916 28.0838C94.3357 28.0838 93.3248 25.0511 94.2798 20.5826L96.977 7.93291C98.0349 3.01261 99.4931 0.436157 103.608 0.436157C109.045 0.436157 109.157 4.50212 108.352 7.77189L108.247 8.20129H104.706L104.899 7.29104C105.391 4.94942 105.245 3.5024 103.402 3.5024C101.859 3.5024 101.284 4.78168 100.741 7.30445L97.847 20.9292C97.2879 23.613 97.4959 25.0444 99.2851 25.0444C100.871 25.0444 101.45 23.6891 102.058 21.1506L102.282 20.2359H105.914Z" fill="#618EA8"/>
<path d="M112.653 0.814148H116.151L113.453 13.2178H113.494C114.967 10.8985 118.861 4.62515 121.16 0.814148H125.168L118.277 11.1356L119.814 27.7059H116.22L115.343 14.875L112.635 18.7218L110.434 27.7059H106.936L112.653 0.814148Z" fill="#618EA8"/>
<path d="M133.311 14.9981H127.546L125.58 24.4696H132.481L131.345 27.7059H121.335L127.051 0.814148H136.668L135.979 4.05037H129.871L128.252 11.7618H134.027L133.311 14.9981Z" fill="#618EA8"/>
<path d="M141.613 4.0772H137.458L138.162 0.814148H150L149.295 4.0772H145.149L140.126 27.7059H136.601L141.613 4.0772Z" fill="#618EA8"/>
<path d="M64.3174 50.1291C65.3305 45.4078 66.5091 40.1587 67.2382 37.1573H67.198C65.6056 41.7601 61.5776 52.7659 58.6747 60.6406H55.3199C55.8477 53.6851 56.6394 41.9479 57.0487 37.1305H56.9682C56.3778 40.2616 55.1253 46.0653 54.186 50.6837L52.1731 60.6406H48.89L54.6065 33.7489H59.9383C59.406 41.8428 58.9386 49.8316 58.527 53.4883H58.5673C59.7728 49.8674 63.4876 40.0693 66.0081 33.7489H71.2572L65.5474 60.6451H62.0831L64.3174 50.1291Z" fill="#618EA8"/>
<path d="M81.2745 47.9417H75.5088L73.5429 57.4133H80.447L79.3108 60.6495H69.3003L75.0168 33.7578H84.6337L83.9359 36.9829H77.8303L76.2088 44.6965H81.9857L81.2745 47.9417Z" fill="#618EA8"/>
<path d="M87.615 33.7534H92.1663C97.9365 33.7534 98.7215 37.466 97.5339 42.9678L95.4517 52.701C94.3335 57.9389 93.0363 60.6451 87.4607 60.6451H81.9007L87.615 33.7534ZM86.0181 57.6839H87.4339C90.0975 57.6839 91.095 56.4516 91.8711 52.7905L94.1993 41.8652C94.9396 38.45 94.6466 36.7212 91.8331 36.7212H90.4912L86.0181 57.6839Z" fill="#618EA8"/>
<path d="M106.44 33.7534L100.723 60.6451H97.1962L102.913 33.7534H106.44Z" fill="#618EA8"/>
<path d="M117.193 53.1774L117.072 53.6716C116.177 57.3104 115.321 61.023 110.195 61.023C105.617 61.023 104.603 57.9903 105.561 53.524L108.258 40.8721C109.316 35.963 110.772 33.3754 114.889 33.3754C120.326 33.3754 120.438 37.4436 119.633 40.7111L119.528 41.1405H115.992L116.186 40.2303C116.676 37.8886 116.531 36.4416 114.69 36.4416C113.145 36.4416 112.57 37.7209 112.026 40.2437L109.141 53.8707C108.582 56.5545 108.79 57.9858 110.582 57.9858C112.165 57.9858 112.744 56.6305 113.353 54.0898L113.576 53.1774H117.193Z" fill="#618EA8"/>
<path d="M124.034 52.815L121.306 60.6428H117.598C118.561 58.091 126.365 36.6049 127.449 33.7511H132.719L131.31 60.6428H127.756L128.239 52.815H124.034ZM128.449 49.552C128.771 44.9716 129.073 39.7762 129.315 37.0007H129.178C128.599 39.2193 126.691 45.0164 125.166 49.552H128.449Z" fill="#618EA8"/>
<path d="M139.251 33.7534H142.778L137.751 57.4088H144.393L143.418 60.6451H133.535L139.251 33.7534Z" fill="#618EA8"/>
</g>
<defs>
<clipPath id="clip0">
<rect width="150" height="61.023" fill="white"/>
</clipPath>
</defs>
</svg>
