<svg width="151" height="62" viewBox="0 0 151 62" fill="none" xmlns="http://www.w3.org/2000/svg">
<g clip-path="url(#clip0)">
<path d="M45.7664 49.4897L42.6644 33.3198L31.2135 42.3486L35.8073 48.2641L24.6695 58.5252C24.4478 58.7293 24.3034 59.0037 24.2606 59.302C24.2178 59.6003 24.2793 59.9042 24.4347 60.1624C24.5901 60.4206 24.8298 60.6172 25.1134 60.7191C25.397 60.8209 25.7071 60.8218 25.9913 60.7214L42.7046 54.826C43.7697 54.4509 44.6646 53.7059 45.2265 52.7265C45.7885 51.7471 45.9801 50.5985 45.7664 49.4897Z" fill="#EFBF61"/>
<path d="M13.8135 17.5327L29.9834 20.6258L20.9524 32.0789L15.0436 27.4919L4.78027 38.6297C4.57675 38.852 4.30262 38.997 4.00435 39.0403C3.70607 39.0836 3.40202 39.0223 3.14374 38.867C2.88546 38.7116 2.68885 38.4718 2.58724 38.188C2.48564 37.9043 2.48529 37.5941 2.58627 37.3101L8.48169 20.5945C8.85708 19.5306 9.60151 18.6367 10.5798 18.0749C11.5581 17.5131 12.7055 17.3207 13.8135 17.5327Z" fill="#EFBF61"/>
<path d="M49.7809 1.52148C43.7223 3.38896 36.3619 7.51978 29.4288 16.3562C21.4489 26.539 17.128 32.3807 14.8244 35.6617L27.6798 48.5082C30.9585 46.1956 36.8003 41.8814 46.9853 33.9038C55.8195 26.9706 59.957 19.617 61.8178 13.5516L49.7809 1.52148Z" fill="#DBE2EB"/>
<path d="M46.9808 33.904C36.7958 41.8816 30.9563 46.2047 27.6753 48.5105L25.3248 46.1577C28.608 43.8474 34.4497 39.5355 44.6303 31.5534C53.4667 24.6337 57.602 17.2688 59.465 11.2124L61.8111 13.5607C59.9481 19.6194 55.8128 26.9797 46.9808 33.9129V33.904Z" fill="#DBE2EB"/>
<path d="M63.1731 2.25722C63.1311 1.71698 62.8976 1.20948 62.5146 0.826107C62.1317 0.442737 61.6244 0.208683 61.0842 0.166091C56.592 -0.124652 52.0901 0.562074 47.8889 2.17894L61.167 15.4571C62.7827 11.254 63.4671 6.75049 63.1731 2.25722Z" fill="#EFBF61"/>
<path d="M61.1692 15.4481L58.8209 13.1021C60.4025 8.97464 61.0923 4.55914 60.8449 0.145996C60.9277 0.145996 61.0082 0.161649 61.0842 0.163885C61.6243 0.207298 62.1314 0.441559 62.5145 0.824714C62.8977 1.20787 63.1319 1.7149 63.1753 2.25502C63.4662 6.74595 62.7818 11.2466 61.1692 15.4481Z" fill="#EFBF61"/>
<path d="M16.2558 33.6733C14.7193 35.7935 13.7576 37.1958 13.1627 38.1016C12.8935 38.5127 12.7741 39.004 12.8246 39.4928C12.8751 39.9816 13.0924 40.4381 13.44 40.7854L22.5359 49.9014C22.8837 50.2483 23.3403 50.4649 23.829 50.515C24.3177 50.5651 24.8087 50.4456 25.2197 50.1765C26.1255 49.5816 27.5255 48.6109 29.6457 47.0834L16.2558 33.6733Z" fill="#EFBF61"/>
<path d="M29.6658 47.0837C27.5434 48.6201 26.1411 49.5818 25.2398 50.1745C24.8294 50.4453 24.338 50.5658 23.8488 50.5156C23.3597 50.4655 22.903 50.2478 22.556 49.8994L20.2077 47.5533C20.5557 47.8999 21.0123 48.1163 21.5008 48.1663C21.9894 48.2164 22.4803 48.0971 22.8915 47.8284C23.7861 47.2335 25.1951 46.2629 27.3197 44.7354L29.6658 47.0837Z" fill="#EFBF61"/>
<path d="M15.4618 47.128C15.4618 47.128 20.3329 51.0263 17.3405 56.1076C14.348 61.1889 10.1702 60.0751 10.1702 60.0751C10.1702 60.0751 11.5636 58.0779 11.3534 57.4517C11.3534 57.4517 6.24965 63.5775 0.170837 58.9368C0.170837 58.9368 2.72269 57.9639 3.25721 55.8526C3.79174 53.7414 4.81158 51.7442 6.08639 50.7937C5.71891 51.1437 5.25586 51.3768 4.75583 51.4636C4.25581 51.5504 3.74128 51.4869 3.27734 51.2812C3.71458 51.043 4.07026 50.6791 4.29834 50.2365C4.52642 49.7939 4.61639 49.293 4.55662 48.7987C4.34639 47.0587 10.8658 42.4493 15.4618 47.128Z" fill="white"/>
<path d="M16.0321 47.6829C16.0321 47.6829 13.7531 44.8358 10.7853 46.5848C7.81744 48.3337 8.46827 50.7737 8.46827 50.7737C8.46827 50.7737 9.63349 49.9619 10.0003 50.0849C10.0003 50.0849 6.42187 53.0662 9.13251 56.62C9.13251 56.62 9.70282 55.1282 10.9351 54.8151C12.1674 54.502 13.3349 53.9071 13.894 53.1623C13.6894 53.3765 13.5529 53.6467 13.5019 53.9385C13.451 54.2304 13.4878 54.5308 13.6077 54.8017C13.7477 54.5468 13.9607 54.3396 14.2194 54.2069C14.4781 54.0742 14.7706 54.0219 15.0592 54.0569C16.0724 54.1777 18.7696 50.3667 16.0321 47.6829Z" fill="#FFC943"/>
<path d="M54.4642 25.2843L50.4743 21.2027C47.9873 18.6531 45.5361 21.5113 44.2121 20.1493L45.8671 18.5345C46.1488 18.6131 46.4462 18.6162 46.7294 18.5434C47.0127 18.4706 47.2717 18.3245 47.4806 18.1199C47.6896 17.9152 47.8409 17.6592 47.9195 17.3775C47.9982 17.0958 48.0013 16.7984 47.9285 16.5152C47.8558 16.2319 47.7098 15.9728 47.5052 15.7639C47.3006 15.5549 47.0445 15.4035 46.7629 15.3248C46.4812 15.2462 46.1838 15.243 45.9005 15.3157C45.6173 15.3884 45.3581 15.5344 45.1491 15.7389C44.9418 15.9439 44.7916 16.1995 44.7131 16.4803C44.6347 16.7611 44.6308 17.0575 44.7018 17.3403L43.0468 18.955C41.7049 17.5863 44.6392 15.2178 42.1522 12.666L38.1623 8.57764C37.2498 9.47224 36.9993 10.964 38.3614 12.3596L36.3485 11.5007C36.0872 12.1105 36.0787 12.7992 36.3248 13.4152C36.571 14.0313 37.0517 14.5244 37.6613 14.7862L38.3099 15.0635L36.2971 15.0389C36.2792 16.4166 37.5607 17.707 38.9428 17.7227C38.8591 18.0059 38.852 18.3063 38.9224 18.5931C38.9927 18.88 39.1379 19.143 39.3432 19.3553C39.551 19.5655 39.8104 19.7174 40.0953 19.7959C40.3802 19.8744 40.6808 19.8767 40.9669 19.8026C40.8302 20.1842 40.8239 20.6003 40.949 20.9858L30.2026 31.4705C30.0442 31.625 29.9537 31.8361 29.951 32.0573C29.9483 32.2786 30.0335 32.4919 30.1881 32.6502C30.3426 32.8086 30.5537 32.8991 30.7749 32.9018C30.9962 32.9046 31.2094 32.8193 31.3678 32.6648L42.103 22.1845C42.4861 22.3145 42.9007 22.3184 43.2861 22.1957C43.2076 22.4798 43.2038 22.7795 43.2751 23.0655C43.3464 23.3516 43.4904 23.6143 43.6932 23.8283C43.8992 24.0412 44.1584 24.195 44.444 24.2736C44.7295 24.3523 45.031 24.353 45.3169 24.2756C45.3012 25.6533 46.5559 26.9706 47.9336 26.9885L47.9582 24.9757L48.2199 25.631C48.3426 25.9377 48.5248 26.2171 48.756 26.4531C48.9872 26.6891 49.2628 26.8769 49.567 27.0059C49.8712 27.1348 50.1979 27.2022 50.5283 27.2042C50.8586 27.2062 51.1861 27.1428 51.4919 27.0176L50.6823 25.0047C52.0577 26.3891 53.5495 26.1744 54.4642 25.2843Z" fill="#FACE59"/>
<path d="M38.5269 13.9184C38.4964 13.7591 38.5098 13.5944 38.5657 13.442C38.6217 13.2897 38.718 13.1555 38.8444 13.0537C38.9707 12.9519 39.1224 12.8864 39.2832 12.8642C39.4439 12.842 39.6077 12.8639 39.7569 12.9277C39.7254 12.5653 39.7746 12.2004 39.9011 11.8593C40.0276 11.5182 40.2281 11.2094 40.4883 10.9551L42.1478 12.6571C44.6415 15.2134 41.7005 17.5774 43.0424 18.9461L40.9579 20.9813C40.8374 20.5952 40.8437 20.1806 40.9758 19.7982V19.787C40.6403 19.8811 40.2836 19.867 39.9566 19.7467C39.6295 19.6264 39.3487 19.4061 39.154 19.1171C38.9594 18.828 38.8608 18.485 38.8722 18.1367C38.8837 17.7884 39.0047 17.4526 39.2179 17.177C38.8396 16.9068 38.5389 16.542 38.3457 16.1192C38.2935 16.0043 38.271 15.8781 38.2804 15.7522C38.2897 15.6264 38.3307 15.5049 38.3994 15.399C38.4679 15.2928 38.5624 15.2058 38.6739 15.1463C38.7855 15.0868 38.9104 15.0568 39.0368 15.0591H39.0726C38.8003 14.7291 38.613 14.3375 38.5269 13.9184Z" fill="#EFBF61"/>
<path d="M49.2084 24.7967C49.3602 24.8251 49.5168 24.8121 49.6618 24.759C49.8068 24.7059 49.9348 24.6147 50.0323 24.4949C50.1298 24.3752 50.1932 24.2314 50.2159 24.0787C50.2386 23.9259 50.2197 23.7699 50.1611 23.627L50.1432 23.5778C50.5042 23.6162 50.8692 23.5747 51.2124 23.4565C51.5555 23.3382 51.8685 23.146 52.1293 22.8935L50.4698 21.2027C47.9761 18.6463 45.5495 21.5247 44.2076 20.1515L42.1232 22.1845C42.5062 22.3144 42.9208 22.3184 43.3063 22.1957C43.2064 22.5278 43.2132 22.8829 43.3258 23.2109C43.4384 23.539 43.6511 23.8234 43.9338 24.0242C44.2166 24.225 44.5553 24.332 44.9021 24.3302C45.2489 24.3283 45.5864 24.2177 45.8671 24.0139C46.1281 24.3975 46.4851 24.706 46.9026 24.9085C47.0165 24.964 47.1426 24.9899 47.2691 24.9841C47.3957 24.9782 47.5188 24.9407 47.6272 24.875C47.7346 24.8084 47.8234 24.7156 47.8852 24.6052C47.947 24.4949 47.9798 24.3707 47.9805 24.2443V24.2085C48.3293 24.5117 48.7536 24.7149 49.2084 24.7967Z" fill="#EFBF61"/>
<path d="M45.1245 18.0917C44.9206 17.88 44.7757 17.6186 44.7041 17.3335L44.5408 17.4945L44.505 19.8607L45.8626 18.5188C45.5836 18.443 45.3293 18.2957 45.1245 18.0917Z" fill="#E4B64F"/>
<path d="M48.732 22.88C48.8484 22.9032 48.9689 22.8942 49.0805 22.8541C49.1922 22.8139 49.2908 22.7441 49.3658 22.6521C49.4407 22.5601 49.4892 22.4495 49.506 22.332C49.5228 22.2145 49.5073 22.0947 49.4611 21.9854L49.4477 21.9496C49.9382 21.9972 50.4278 21.8511 50.812 21.5426L50.4698 21.2026C47.9761 18.6486 45.5495 21.5247 44.2076 20.1515L43.436 20.9052H44.2501C44.1732 21.1577 44.1777 21.4281 44.2629 21.6779C44.3481 21.9278 44.5097 22.1446 44.7248 22.2976C44.9399 22.4506 45.1976 22.5322 45.4616 22.5308C45.7256 22.5293 45.9824 22.445 46.1958 22.2896C46.4021 22.5919 46.6855 22.8336 47.0166 22.9896C47.1007 23.0274 47.1927 23.0441 47.2847 23.0383C47.3767 23.0324 47.4659 23.0042 47.5444 22.9561C47.6222 22.9062 47.6864 22.8378 47.7313 22.757C47.7762 22.6762 47.8004 22.5855 47.8016 22.4931V22.435C48.0667 22.6634 48.3878 22.817 48.732 22.88Z" fill="#FADC8B"/>
<path d="M42.1455 12.6592L41.8033 12.3081C41.4826 12.6839 41.322 13.1705 41.356 13.6634L41.3203 13.6478C41.2132 13.6003 41.0951 13.5828 40.9789 13.5974C40.8626 13.612 40.7525 13.658 40.6605 13.7305C40.5677 13.8031 40.4961 13.8994 40.4532 14.0091C40.4103 14.1189 40.3977 14.2382 40.4167 14.3545C40.4751 14.7 40.6249 15.0235 40.8506 15.2916H40.7924C40.7006 15.2912 40.61 15.3133 40.5286 15.3557C40.4472 15.3982 40.3773 15.4599 40.325 15.5354C40.2732 15.6122 40.2417 15.7009 40.2335 15.7932C40.2253 15.8855 40.2406 15.9784 40.278 16.0632C40.4219 16.3975 40.6538 16.6866 40.949 16.8996C40.788 17.1098 40.6973 17.3652 40.6896 17.6298C40.6819 17.8944 40.7576 18.1547 40.906 18.3739C41.0544 18.5931 41.268 18.76 41.5166 18.8511C41.7651 18.9421 42.036 18.9526 42.2909 18.8812L42.2618 19.6953L43.0334 18.9416C41.7005 17.5728 44.6392 15.2156 42.1455 12.6592Z" fill="#FADC8B"/>
<path d="M33.1257 30.956L35.0871 29.0416L33.3896 28.3706L31.4237 30.2873C31.7055 30.3723 32.8238 30.8375 33.1257 30.956Z" fill="#E4B64F"/>
<path d="M37.847 31.5869C38.7416 30.7236 38.831 29.3213 38.1243 27.834C36.2814 24.0454 35.2616 22.5 35.8744 21.4645C36.1649 21.6667 36.4976 21.8005 36.8472 21.8559C37.8716 22.0348 38.8601 21.6054 39.0323 20.8897C39.3924 19.474 36.5722 18.4027 34.8299 20.0957C32.7276 22.1466 34.8568 25.224 36.5386 28.6884C36.9322 29.5069 36.9099 30.1622 36.6817 30.3836C36.3083 30.7482 35.9146 30.7169 34.859 30.2919L31.994 29.1245C30.8758 28.7309 29.8023 28.8539 29.1828 29.4577C28.8696 29.7619 28.5878 30.1287 28.6885 31.0099C28.6956 31.0644 28.7199 31.1153 28.7578 31.1552C28.7799 31.1776 28.8062 31.1954 28.8351 31.2075C28.8641 31.2196 28.8952 31.2259 28.9267 31.2259C28.9581 31.2259 28.9892 31.2196 29.0182 31.2075C29.0472 31.1954 29.0735 31.1776 29.0955 31.1552C29.1256 31.1262 29.1479 31.09 29.1604 31.0501C29.5876 29.5271 31.0927 30.3009 34.1008 31.7725C35.275 32.3428 36.7846 32.6022 37.847 31.5846V31.5869Z" fill="white"/>
<path d="M36.9859 27.1896L38.869 25.3534L37.3147 24.5371L35.436 26.371C35.843 26.5857 36.2098 26.7937 36.9859 27.1896Z" fill="#E4B64F"/>
<path d="M36.2859 24.0853C35.6092 23.7588 34.8855 23.5407 34.1411 23.439C34.4341 25.0828 36.9143 28.7059 36.8405 29.9807L38.4061 28.5292C38.0393 27.7196 36.7667 25.0873 36.2859 24.0853Z" fill="#2D3F50"/>
<path d="M34.3043 26.4049C37.7284 28.1762 40.75 30.3769 42.8523 28.3261C44.5856 26.633 43.5858 23.7793 42.1634 24.1036C41.45 24.2691 40.9893 25.2352 41.1413 26.2663C41.1904 26.6168 41.3164 26.952 41.5104 27.2481C40.4637 27.8385 38.9429 26.7806 35.1967 24.8416C33.7273 24.0968 32.3228 24.1706 31.4394 25.0272C30.3927 26.0493 30.6163 27.5768 31.1576 28.7667C32.5554 31.8105 33.2934 33.3336 31.7592 33.7228C31.7187 33.7342 31.6817 33.7557 31.6519 33.7854C31.6194 33.8169 31.5966 33.857 31.586 33.9009C31.5754 33.9449 31.5774 33.991 31.592 34.0338C31.6065 34.0766 31.6328 34.1145 31.668 34.1429C31.7031 34.1714 31.7456 34.1893 31.7905 34.1947C32.6695 34.3221 33.0407 34.0448 33.3561 33.7474C33.9711 33.1457 34.15 32.1348 33.7363 30.9651L32.6628 28.0577C32.2624 26.9909 32.2401 26.595 32.6135 26.2327C32.8461 26.0001 33.4947 25.9934 34.3043 26.4049Z" fill="white"/>
<path d="M37.7195 20.6441C37.8866 20.4811 37.8921 20.2156 37.7316 20.0512C37.5712 19.8867 37.3057 19.8856 37.1386 20.0486C36.9715 20.2116 36.966 20.4771 37.1265 20.6415C37.2869 20.806 37.5524 20.8071 37.7195 20.6441Z" fill="#CDDBEC"/>
<path d="M42.9673 26.0245C43.1344 25.8615 43.1398 25.596 42.9794 25.4316C42.8189 25.2671 42.5534 25.2659 42.3863 25.429C42.2192 25.592 42.2138 25.8574 42.3742 26.0219C42.5346 26.1864 42.8002 26.1875 42.9673 26.0245Z" fill="#CDDBEC"/>
<path d="M32.6985 28.1356C32.1034 27.8931 31.467 27.7678 30.8243 27.7666C30.924 28.1661 31.0626 28.5549 31.2381 28.9273C31.9287 29.0998 32.6024 29.3341 33.2509 29.6274L32.6985 28.1356Z" fill="#2D3F50"/>
<path d="M33.9241 31.692L32.0857 30.7974C32.3966 31.5332 32.6337 32.2556 32.6091 32.8549L33.9241 31.692Z" fill="#2D3F50"/>
<path d="M32.0857 30.8062L33.9197 31.6873C33.9197 31.6873 32.7768 31.1126 32.0857 30.8062Z" fill="#2D3F50"/>
<path d="M69.99 15.5197L67.3867 27.8048H63.8597L69.5762 0.913086H74.3892C78.5401 0.913086 80.3248 3.25918 79.4548 7.56444L79.1484 9.07856C78.4015 12.7554 76.8784 13.7752 75.3464 14.1621C76.5899 14.9337 77.3592 16.3382 76.5027 20.2969C76.0039 22.5624 75.2458 26.1453 75.1787 27.8048H71.6674C71.7188 26.1341 72.4904 22.672 73.1524 19.5118C73.7764 16.4814 73.3089 15.5197 71.1194 15.5197H69.99ZM70.6207 12.5272H71.6293C74.2125 12.5272 75.0735 11.7422 75.6103 8.86833L75.8876 7.35869C76.2969 5.16244 75.9525 3.90553 73.7384 3.90553H72.4501L70.6207 12.5272Z" fill="white"/>
<path d="M94.18 8.06322L91.4313 20.979C90.4763 25.4878 89.0517 28.1828 84.393 28.1828C79.7702 28.1828 78.5379 25.1143 79.4548 20.6525L82.2616 7.1977C83.1786 2.77613 85.3793 0.535156 89.1143 0.535156C93.3502 0.535156 95.1708 3.44932 94.18 8.06322ZM85.8848 7.21336L82.9371 21.2027C82.4294 23.551 82.7716 25.1412 84.7665 25.1412C86.473 25.1412 87.2468 23.7568 87.7813 21.3167L90.7268 7.39674C91.2233 5.05065 90.7268 3.59469 88.8012 3.59469C87.2446 3.6014 86.3701 4.85161 85.8848 7.21336Z" fill="white"/>
<path d="M106.085 20.3349L105.964 20.8314C105.07 24.4702 104.213 28.1828 99.0869 28.1828C94.5065 28.1828 93.4956 25.1501 94.4506 20.6816L97.1478 8.03191C98.2057 3.1116 99.6639 0.535156 103.779 0.535156C109.216 0.535156 109.328 4.60112 108.523 7.87089L108.418 8.30029H104.877L105.07 7.39004C105.562 5.04842 105.416 3.6014 103.573 3.6014C102.03 3.6014 101.455 4.88068 100.912 7.40345L98.0178 21.0282C97.4587 23.712 97.6667 25.1434 99.4559 25.1434C101.042 25.1434 101.621 23.7881 102.229 21.2496L102.453 20.3349H106.085Z" fill="white"/>
<path d="M112.823 0.913086H116.321L113.624 13.3167H113.664C115.138 10.9975 119.032 4.72409 121.331 0.913086H125.339L118.448 11.2345L119.985 27.8048H116.391L115.514 14.974L112.806 18.8208L110.605 27.8048H107.107L112.823 0.913086Z" fill="white"/>
<path d="M133.482 15.097H127.716L125.75 24.5686H132.652L131.516 27.8048H121.506L127.222 0.913086H136.839L136.15 4.14931H130.042L128.423 11.8608H134.198L133.482 15.097Z" fill="white"/>
<path d="M141.784 4.17614H137.629L138.333 0.913086H150.171L149.466 4.17614H145.32L140.297 27.8048H136.772L141.784 4.17614Z" fill="white"/>
<path d="M64.4882 50.2278C65.5013 45.5065 66.68 40.2575 67.4091 37.2561H67.3688C65.7764 41.8588 61.7485 52.8646 58.8455 60.7394H55.4907C56.0186 53.7838 56.8103 42.0467 57.2195 37.2292H57.139C56.5486 40.3604 55.2962 46.1641 54.3568 50.7825L52.344 60.7394H49.0608L54.7773 33.8477H60.1091C59.5768 41.9416 59.1094 49.9303 58.6979 53.587H58.7381C59.9436 49.9661 63.6584 40.168 66.179 33.8477H71.4281L65.7183 60.7438H62.2539L64.4882 50.2278Z" fill="white"/>
<path d="M81.4453 48.0408H75.6796L73.7138 57.5124H80.6178L79.4817 60.7486H69.4711L75.1876 33.8569H84.8046L84.1068 37.082H78.0011L76.3797 44.7957H82.1565L81.4453 48.0408Z" fill="white"/>
<path d="M87.7858 33.8525H92.3371C98.1073 33.8525 98.8923 37.5651 97.7047 43.0669L95.6226 52.8002C94.5043 58.0381 93.2071 60.7442 87.6315 60.7442H82.0716L87.7858 33.8525ZM86.189 57.7831H87.6047C90.2684 57.7831 91.2659 56.5508 92.0419 52.8896L94.3701 41.9643C95.1104 38.5492 94.8174 36.8204 92.0039 36.8204H90.662L86.189 57.7831Z" fill="white"/>
<path d="M106.61 33.8525L100.894 60.7442H97.367L103.084 33.8525H106.61Z" fill="white"/>
<path d="M117.364 53.2766L117.243 53.7709C116.348 57.4097 115.492 61.1222 110.366 61.1222C105.787 61.1222 104.774 58.0896 105.732 53.6233L108.429 40.9714C109.487 36.0622 110.943 33.4746 115.06 33.4746C120.497 33.4746 120.609 37.5428 119.804 40.8103L119.698 41.2398H116.163L116.357 40.3295C116.847 37.9879 116.702 36.5409 114.861 36.5409C113.316 36.5409 112.741 37.8201 112.197 40.3429L109.312 53.9699C108.753 56.6537 108.961 58.0851 110.752 58.0851C112.336 58.0851 112.915 56.7298 113.523 54.1891L113.747 53.2766H117.364Z" fill="white"/>
<path d="M124.205 52.914L121.477 60.7418H117.768C118.732 58.19 126.535 36.7039 127.62 33.8501H132.889L131.48 60.7418H127.927L128.41 52.914H124.205ZM128.62 49.651C128.942 45.0706 129.244 39.8752 129.485 37.0997H129.349C128.77 39.3183 126.862 45.1154 125.337 49.651H128.62Z" fill="white"/>
<path d="M139.422 33.8525H142.949L137.922 57.508H144.564L143.589 60.7442H133.706L139.422 33.8525Z" fill="white"/>
</g>
<defs>
<clipPath id="clip0">
<rect width="150" height="61.023" fill="white" transform="translate(0.170837 0.0991211)"/>
</clipPath>
</defs>
</svg>
