<svg width="200" height="196" viewBox="0 0 200 196" fill="none" xmlns="http://www.w3.org/2000/svg">
<g clip-path="url(#clip0)">
<g style="mix-blend-mode:multiply">
<g style="mix-blend-mode:multiply">
<path d="M143.757 129.132C144.257 119.406 135.105 112.696 127.126 109.269C118.663 105.641 109.215 104.317 100.051 104.656C91.104 104.984 81.8955 106.882 74.0557 111.361C68.1467 114.738 62.438 120.124 61.8816 127.296C61.3641 133.973 61.6089 141.457 66.6333 146.453L57.9255 151.511C57.0965 151.995 55.4829 153.414 54.5092 153.497C53.018 153.625 52.1723 152.384 50.3918 153.069C50.2916 153.108 50.2082 153.18 50.1136 153.219C44.5495 155.573 39.1969 159.206 33.8888 162.122C26.548 166.143 19.2071 170.176 11.8663 174.223C10.2805 175.097 8.61687 175.893 7.08676 176.861C2.07911 180.032 5.61785 187.722 9.08982 190.86C11.8162 193.336 14.0975 193.086 16.8795 191.561L24.7638 187.243L47.9714 174.557L56.5067 169.878C58.8047 168.62 60.6297 167.775 60.7409 164.642C60.8188 162.389 60.1456 162.8 61.6646 161.66C63.1836 160.519 65.1922 159.607 66.9004 158.611L72.2363 155.5C73.4047 154.822 75.0183 153.403 76.3537 153.108C78.0229 152.724 81.2946 154.86 83.1418 155.411C86.7782 156.469 90.5028 157.195 94.27 157.581C102.304 158.46 110.406 158.232 118.273 156.302C126.619 154.26 135.522 150.326 140.53 143.081C142.399 140.467 143.505 137.385 143.723 134.179C143.823 132.782 143.284 130.189 143.757 129.132Z" fill="#B4B6BC"/>
</g>
</g>
<path d="M128.65 109.73C114.045 102.03 90.2972 102.046 75.7583 109.73C67.173 114.282 63.6843 120.519 65.2979 126.423C66.4107 122.361 69.8716 118.427 75.7583 115.294C90.2972 107.594 114.045 107.583 128.65 115.294C131.156 116.62 133.369 118.437 135.158 120.635C136.947 122.834 138.276 125.369 139.066 128.092C140.719 122.138 137.364 114.287 128.65 109.73Z" fill="#B7BAC7"/>
<path d="M121.74 110.52C104.491 104.89 81.7453 107.989 71.0233 117.414C60.3014 126.84 65.6095 139.114 82.8525 144.728C100.096 150.342 122.841 147.265 133.563 137.834C144.285 128.403 138.977 116.151 121.74 110.52Z" fill="url(#paint0_linear)"/>
<path d="M85.195 141.607C70.0274 136.888 65.3591 126.623 74.7902 118.722C84.2213 110.821 104.23 108.228 119.397 112.946C134.565 117.665 139.222 127.925 129.797 135.831C120.371 143.738 100.357 146.325 85.195 141.607ZM119.292 113.03C104.219 108.345 84.327 110.921 74.9571 118.772C65.5873 126.623 70.2221 136.833 85.2952 141.518C100.368 146.203 120.26 143.638 129.635 135.776C139.011 127.914 134.365 117.72 119.292 113.03Z" fill="url(#paint1_linear)"/>
<path d="M90.6033 137.072C80.243 133.85 77.0437 126.829 83.4924 121.415C89.9411 116.001 103.618 114.243 113.989 117.464C124.36 120.686 127.538 127.724 121.094 133.099C114.651 138.474 100.969 140.299 90.6033 137.072ZM113.917 117.52C103.612 114.315 89.9912 116.079 83.6037 121.448C77.2161 126.818 80.3654 133.789 90.6756 137C100.986 140.21 114.601 138.441 120.983 133.072C127.365 127.702 124.199 120.742 113.917 117.52Z" fill="url(#paint2_linear)"/>
<path d="M101.325 127.674C101.305 127.675 101.285 127.672 101.266 127.665C101.247 127.657 101.23 127.646 101.215 127.632C101.201 127.618 101.189 127.602 101.181 127.583C101.173 127.564 101.169 127.544 101.169 127.524V127.368C101.176 127.333 101.195 127.301 101.223 127.278C101.251 127.255 101.286 127.242 101.322 127.242C101.359 127.242 101.394 127.255 101.422 127.278C101.45 127.301 101.469 127.333 101.475 127.368V127.535C101.473 127.573 101.456 127.609 101.428 127.634C101.4 127.66 101.363 127.675 101.325 127.674Z" fill="url(#paint3_linear)"/>
<path d="M101.325 145.563C101.304 145.564 101.284 145.56 101.265 145.553C101.245 145.545 101.228 145.534 101.213 145.519C101.199 145.504 101.187 145.487 101.18 145.468C101.172 145.448 101.169 145.428 101.169 145.407V145.107C101.176 145.071 101.195 145.039 101.223 145.016C101.251 144.993 101.286 144.98 101.322 144.98C101.359 144.98 101.394 144.993 101.422 145.016C101.45 145.039 101.469 145.071 101.475 145.107V145.407C101.476 145.427 101.473 145.448 101.466 145.466C101.458 145.485 101.447 145.502 101.433 145.517C101.419 145.532 101.403 145.543 101.384 145.551C101.365 145.559 101.345 145.563 101.325 145.563ZM101.325 144.367C101.305 144.367 101.285 144.364 101.266 144.357C101.247 144.35 101.23 144.339 101.215 144.325C101.201 144.311 101.189 144.294 101.181 144.275C101.173 144.257 101.169 144.237 101.169 144.216V143.916C101.176 143.88 101.195 143.848 101.223 143.825C101.251 143.802 101.286 143.79 101.322 143.79C101.359 143.79 101.394 143.802 101.422 143.825C101.45 143.848 101.469 143.88 101.475 143.916V144.228C101.473 144.266 101.455 144.301 101.428 144.327C101.4 144.353 101.363 144.367 101.325 144.367ZM101.325 143.182C101.304 143.182 101.283 143.177 101.264 143.169C101.245 143.161 101.227 143.149 101.213 143.134C101.198 143.119 101.187 143.101 101.18 143.082C101.172 143.062 101.169 143.041 101.169 143.02V142.725C101.165 142.703 101.166 142.68 101.171 142.657C101.177 142.635 101.188 142.614 101.202 142.597C101.217 142.579 101.235 142.565 101.256 142.555C101.277 142.545 101.299 142.54 101.322 142.54C101.345 142.54 101.368 142.545 101.389 142.555C101.409 142.565 101.428 142.579 101.442 142.597C101.457 142.614 101.468 142.635 101.473 142.657C101.479 142.68 101.48 142.703 101.475 142.725V143.02C101.476 143.041 101.473 143.061 101.466 143.08C101.459 143.099 101.448 143.117 101.434 143.132C101.42 143.147 101.403 143.159 101.384 143.168C101.366 143.176 101.346 143.181 101.325 143.182ZM101.325 141.985C101.305 141.986 101.285 141.983 101.266 141.976C101.247 141.968 101.23 141.957 101.215 141.943C101.201 141.929 101.189 141.912 101.181 141.894C101.173 141.875 101.169 141.855 101.169 141.835V141.535C101.176 141.499 101.195 141.467 101.223 141.444C101.251 141.421 101.286 141.408 101.322 141.408C101.359 141.408 101.394 141.421 101.422 141.444C101.45 141.467 101.469 141.499 101.475 141.535V141.835C101.478 141.856 101.476 141.878 101.469 141.898C101.463 141.918 101.452 141.936 101.438 141.952C101.424 141.968 101.406 141.981 101.387 141.989C101.367 141.998 101.346 142.002 101.325 142.002V141.985ZM101.325 140.795C101.284 140.795 101.244 140.778 101.215 140.749C101.186 140.72 101.169 140.68 101.169 140.639V140.333C101.176 140.297 101.195 140.265 101.223 140.242C101.251 140.219 101.286 140.206 101.322 140.206C101.359 140.206 101.394 140.219 101.422 140.242C101.45 140.265 101.469 140.297 101.475 140.333V140.633C101.476 140.654 101.473 140.674 101.466 140.693C101.459 140.712 101.448 140.73 101.434 140.745C101.42 140.76 101.403 140.772 101.384 140.781C101.366 140.789 101.346 140.794 101.325 140.795ZM101.325 139.598C101.305 139.599 101.285 139.596 101.266 139.589C101.247 139.581 101.23 139.57 101.215 139.556C101.201 139.542 101.189 139.525 101.181 139.507C101.173 139.488 101.169 139.468 101.169 139.448V139.148C101.176 139.112 101.195 139.08 101.223 139.057C101.251 139.034 101.286 139.021 101.322 139.021C101.359 139.021 101.394 139.034 101.422 139.057C101.45 139.08 101.469 139.112 101.475 139.148V139.448C101.475 139.488 101.46 139.526 101.431 139.554C101.403 139.582 101.365 139.598 101.325 139.598ZM101.325 138.408C101.304 138.408 101.284 138.405 101.265 138.397C101.245 138.39 101.228 138.378 101.213 138.364C101.199 138.349 101.187 138.332 101.18 138.312C101.172 138.293 101.169 138.272 101.169 138.252V137.957C101.165 137.934 101.166 137.911 101.171 137.889C101.177 137.867 101.188 137.846 101.202 137.828C101.217 137.811 101.235 137.796 101.256 137.787C101.277 137.777 101.299 137.772 101.322 137.772C101.345 137.772 101.368 137.777 101.389 137.787C101.409 137.796 101.428 137.811 101.442 137.828C101.457 137.846 101.468 137.867 101.473 137.889C101.479 137.911 101.48 137.934 101.475 137.957V138.252C101.476 138.272 101.473 138.292 101.466 138.311C101.458 138.33 101.447 138.347 101.433 138.362C101.419 138.376 101.403 138.388 101.384 138.396C101.365 138.404 101.345 138.408 101.325 138.408ZM101.325 137.211C101.305 137.212 101.285 137.209 101.266 137.202C101.247 137.194 101.23 137.183 101.215 137.169C101.201 137.155 101.189 137.139 101.181 137.12C101.173 137.101 101.169 137.081 101.169 137.061V136.761C101.176 136.725 101.195 136.693 101.223 136.67C101.251 136.647 101.286 136.634 101.322 136.634C101.359 136.634 101.394 136.647 101.422 136.67C101.45 136.693 101.469 136.725 101.475 136.761V137.061C101.475 137.101 101.46 137.139 101.431 137.167C101.403 137.196 101.365 137.211 101.325 137.211ZM101.325 136.026C101.284 136.026 101.244 136.01 101.215 135.981C101.186 135.951 101.169 135.912 101.169 135.87V135.57C101.176 135.534 101.195 135.502 101.223 135.479C101.251 135.456 101.286 135.443 101.322 135.443C101.359 135.443 101.394 135.456 101.422 135.479C101.45 135.502 101.469 135.534 101.475 135.57V135.882C101.473 135.92 101.456 135.956 101.428 135.983C101.4 136.009 101.364 136.025 101.325 136.026ZM101.325 134.83C101.285 134.83 101.246 134.814 101.217 134.786C101.188 134.758 101.171 134.72 101.169 134.68V134.379C101.176 134.344 101.195 134.312 101.223 134.288C101.251 134.265 101.286 134.253 101.322 134.253C101.359 134.253 101.394 134.265 101.422 134.288C101.45 134.312 101.469 134.344 101.475 134.379V134.68C101.474 134.719 101.458 134.757 101.43 134.784C101.402 134.812 101.365 134.829 101.325 134.83ZM101.325 133.639C101.304 133.64 101.284 133.637 101.265 133.629C101.245 133.621 101.228 133.61 101.213 133.595C101.199 133.581 101.187 133.563 101.18 133.544C101.172 133.525 101.169 133.504 101.169 133.483V133.189C101.165 133.166 101.166 133.143 101.171 133.121C101.177 133.098 101.188 133.078 101.202 133.06C101.217 133.042 101.235 133.028 101.256 133.018C101.277 133.008 101.299 133.003 101.322 133.003C101.345 133.003 101.368 133.008 101.389 133.018C101.409 133.028 101.428 133.042 101.442 133.06C101.457 133.078 101.468 133.098 101.473 133.121C101.479 133.143 101.48 133.166 101.475 133.189V133.483C101.479 133.505 101.477 133.527 101.471 133.548C101.465 133.569 101.454 133.588 101.44 133.604C101.426 133.621 101.408 133.634 101.388 133.643C101.368 133.652 101.347 133.656 101.325 133.656V133.639ZM101.325 132.443C101.305 132.444 101.285 132.44 101.266 132.433C101.247 132.426 101.23 132.415 101.215 132.401C101.201 132.387 101.189 132.37 101.181 132.352C101.173 132.333 101.169 132.313 101.169 132.293V131.987C101.165 131.964 101.166 131.941 101.171 131.919C101.177 131.896 101.188 131.876 101.202 131.858C101.217 131.84 101.235 131.826 101.256 131.816C101.277 131.807 101.299 131.802 101.322 131.802C101.345 131.802 101.368 131.807 101.389 131.816C101.409 131.826 101.428 131.84 101.442 131.858C101.457 131.876 101.468 131.896 101.473 131.919C101.479 131.941 101.48 131.964 101.475 131.987V132.282C101.477 132.302 101.474 132.323 101.467 132.343C101.46 132.362 101.45 132.38 101.436 132.395C101.421 132.41 101.404 132.422 101.385 132.431C101.366 132.439 101.346 132.443 101.325 132.443ZM101.325 131.258C101.304 131.258 101.283 131.254 101.264 131.245C101.245 131.237 101.227 131.225 101.213 131.21C101.198 131.195 101.187 131.177 101.18 131.158C101.172 131.138 101.169 131.117 101.169 131.096V130.802C101.176 130.766 101.195 130.734 101.223 130.711C101.251 130.688 101.286 130.675 101.322 130.675C101.359 130.675 101.394 130.688 101.422 130.711C101.45 130.734 101.469 130.766 101.475 130.802V131.096C101.476 131.117 101.473 131.137 101.466 131.157C101.459 131.176 101.448 131.193 101.434 131.208C101.42 131.223 101.403 131.235 101.384 131.244C101.366 131.252 101.346 131.257 101.325 131.258ZM101.325 130.062C101.285 130.062 101.246 130.046 101.217 130.018C101.188 129.99 101.171 129.952 101.169 129.911V129.611C101.176 129.575 101.195 129.543 101.223 129.52C101.251 129.497 101.286 129.484 101.322 129.484C101.359 129.484 101.394 129.497 101.422 129.52C101.45 129.543 101.469 129.575 101.475 129.611V129.911C101.474 129.951 101.458 129.988 101.43 130.016C101.402 130.044 101.365 130.06 101.325 130.062ZM101.325 128.871C101.304 128.872 101.284 128.868 101.265 128.861C101.245 128.853 101.228 128.842 101.213 128.827C101.199 128.812 101.187 128.795 101.18 128.776C101.172 128.756 101.169 128.736 101.169 128.715V128.415C101.176 128.379 101.195 128.347 101.223 128.324C101.251 128.301 101.286 128.288 101.322 128.288C101.359 128.288 101.394 128.301 101.422 128.324C101.45 128.347 101.469 128.379 101.475 128.415V128.715C101.476 128.735 101.473 128.755 101.466 128.774C101.458 128.793 101.447 128.81 101.433 128.825C101.419 128.839 101.403 128.851 101.384 128.859C101.365 128.867 101.345 128.871 101.325 128.871Z" fill="url(#paint4_linear)"/>
<path d="M101.325 146.609C101.305 146.61 101.284 146.606 101.265 146.598C101.245 146.591 101.228 146.579 101.213 146.565C101.199 146.55 101.187 146.533 101.18 146.513C101.172 146.494 101.169 146.474 101.169 146.453V146.303C101.176 146.267 101.195 146.235 101.223 146.212C101.251 146.189 101.286 146.176 101.322 146.176C101.359 146.176 101.394 146.189 101.422 146.212C101.45 146.235 101.469 146.267 101.475 146.303V146.453C101.476 146.473 101.473 146.493 101.466 146.512C101.458 146.531 101.447 146.548 101.433 146.563C101.419 146.577 101.403 146.589 101.384 146.597C101.365 146.605 101.345 146.609 101.325 146.609Z" fill="url(#paint5_linear)"/>
<path d="M96.0059 132.543C90.4419 130.807 88.7115 127.035 92.1779 124.125C95.6443 121.215 103.005 120.269 108.586 121.999C114.167 123.73 115.875 127.513 112.409 130.418C108.942 133.322 101.581 134.285 96.0059 132.543ZM108.547 122.033C102.983 120.302 95.6888 121.254 92.2391 124.147C88.7894 127.04 90.4975 130.785 96.0449 132.493C101.592 134.201 108.898 133.266 112.348 130.384C115.797 127.502 114.089 123.763 108.547 122.038V122.033Z" fill="url(#paint6_linear)"/>
<path d="M78.9187 140.733C78.8718 140.736 78.8252 140.725 78.7851 140.7C78.758 140.685 78.735 140.663 78.7185 140.637C78.7019 140.611 78.6923 140.581 78.6906 140.55V140.483L78.7684 140.422L126.163 112.24C126.198 112.234 126.234 112.234 126.269 112.24C126.315 112.242 126.36 112.254 126.402 112.273C126.43 112.288 126.453 112.309 126.47 112.336C126.486 112.362 126.496 112.392 126.497 112.423V112.49L126.425 112.513L79.03 140.689C78.9974 140.713 78.959 140.728 78.9187 140.733Z" fill="url(#paint7_linear)"/>
<path d="M131.371 143.61C131.369 143.582 131.36 143.555 131.344 143.531C131.329 143.508 131.307 143.489 131.282 143.476L76.6819 113.575C76.5589 113.625 76.4399 113.685 76.3258 113.753L131.071 143.732C131.109 143.75 131.151 143.76 131.193 143.76C131.228 143.769 131.264 143.769 131.299 143.76L131.371 143.693V143.61Z" fill="url(#paint8_linear)"/>
<path d="M61.3863 125.866V131.708C61.3863 135.047 62.4991 138.858 63.5619 140.611C64.8082 142.625 66.3717 144.389 70.1998 147.288L71.0678 141.095C71.0678 141.095 62.3823 130.94 61.3863 125.866Z" fill="#B7BAC7"/>
<path d="M76.2535 142.169C81.0942 144.066 82.8302 144.645 84.5996 145.162C88.0569 146.156 91.5942 146.846 95.1713 147.227C101.435 147.907 107.763 147.709 113.972 146.637C120.026 145.552 126.08 143.632 131.421 140.405C139.344 135.609 143.334 126.495 143.334 126.495L143.306 130.902C143.306 137.195 139.328 143.488 131.399 148.284C128.39 150.076 125.184 151.513 121.845 152.568C118.861 153.517 115.808 154.238 112.715 154.727C109.577 155.23 106.405 155.487 103.228 155.495C96.7014 155.495 84.6163 154.671 76.2702 150.292L76.2535 142.169Z" fill="#B7BAC7"/>
<path d="M76.248 150.315L44.1267 169.032L44.1434 163.429L76.248 144.723V150.315Z" fill="#B7BAC7"/>
<path d="M36.7654 160.986L42.552 164.325L76.2424 144.739C97.5583 152.913 117.366 150.732 131.421 142.564C139.211 138.057 143.106 132.176 143.312 126.261C143.367 123.32 142.559 120.428 140.986 117.943C140.539 117.19 140.039 116.471 139.489 115.79C139.2 115.439 138.933 115.094 138.593 114.749C138.254 114.404 137.942 114.059 137.603 113.72C136.886 113.019 136.132 112.358 135.344 111.739C134.932 111.422 134.509 111.099 134.07 110.787C133.847 110.632 133.625 110.476 133.396 110.326C132.94 110.02 132.473 109.719 131.994 109.419L131.232 108.979C115.191 99.7205 89.1955 99.7205 73.2545 108.979C73.0097 109.124 72.7649 109.268 72.5256 109.419C72.0916 109.682 71.6743 109.949 71.2737 110.22C70.1478 110.967 69.0733 111.788 68.0577 112.679C67.6904 112.996 67.3399 113.33 67.0172 113.664C66.6945 113.998 66.3996 114.282 66.1158 114.593C65.9767 114.749 64.3353 116.819 64.3298 116.819C64.1755 117.026 64.0325 117.242 63.9013 117.464C63.8123 117.598 63.3115 118.46 63.1502 118.755C63.05 118.944 62.9499 119.145 62.8553 119.339L62.6383 119.823C62.527 120.085 62.4213 120.341 62.3211 120.608C62.2766 120.747 62.2154 120.892 62.1709 121.031C62.0708 121.326 61.8426 122.144 61.8092 122.266C61.7202 122.628 61.6423 122.989 61.5811 123.351C61.5404 123.534 61.5125 123.72 61.4977 123.907C61.4286 124.428 61.3952 124.952 61.3975 125.477C61.3975 125.521 61.3975 125.566 61.3975 125.61V125.905C61.481 130.495 62.9833 137.033 70.4613 141.362L36.7654 160.986ZM71.0734 136.043C67.4067 132.927 65.437 129.416 65.3758 125.866V125.515C65.3748 125.169 65.3971 124.824 65.4426 124.481C65.448 124.414 65.448 124.347 65.4426 124.28C65.4426 124.225 65.4426 124.102 65.4871 124.041C65.5316 123.779 65.5928 123.512 65.6596 123.251C65.6596 123.14 65.8487 122.567 65.9211 122.338C65.9545 122.249 65.9878 122.144 66.0268 122.044C66.1103 121.838 66.1882 121.637 66.2716 121.437C66.3217 121.32 66.3885 121.192 66.4441 121.059C66.4997 120.925 66.5776 120.78 66.6611 120.636C66.7835 120.402 67.1563 119.762 67.262 119.606C67.3677 119.451 67.4234 119.351 67.5124 119.217C67.7906 118.866 68.8088 117.548 69.0815 117.242L69.777 116.518C70.0941 116.201 70.3334 115.962 70.645 115.706C71.5303 114.92 72.4712 114.198 73.4604 113.547C73.8276 113.297 74.1893 113.069 74.5732 112.835L74.9794 112.596L75.2965 112.401C82.3462 108.306 91.9219 106.03 102.188 106.03C112.453 106.03 122.068 108.311 129.229 112.434L129.93 112.852C130.336 113.102 130.77 113.408 131.193 113.664L131.749 114.065C132.133 114.332 132.512 114.621 132.862 114.888C133.531 115.411 134.171 115.968 134.782 116.557C135.043 116.824 135.338 117.114 135.605 117.414C135.872 117.715 136.123 117.998 136.368 118.299C136.785 118.821 137.168 119.369 137.514 119.94C138.702 121.783 139.319 123.935 139.289 126.128C139.155 130.868 135.639 135.486 129.39 139.108C122.296 143.231 112.743 145.502 102.488 145.502C95.1373 145.445 87.848 144.158 80.9218 141.696C77.4053 140.488 71.8969 136.749 71.0734 136.043V136.043Z" fill="white"/>
<path d="M56.9129 153.441C55.3661 151.661 52.4617 149.213 49.93 150.509L6.09637 174.535C6.3871 174.379 6.70073 174.27 7.02557 174.212C8.33869 173.956 9.74083 174.535 10.8147 175.253C11.96 176.038 12.9598 177.017 13.7692 178.146C15.4384 180.372 16.6069 183.243 16.5512 186.047C16.4956 188.022 15.7667 189.385 14.6261 190.025L58.3429 166.055C59.4835 165.432 60.2124 164.058 60.2681 162.077C60.2782 161.608 60.2522 161.139 60.1902 160.675C59.8213 157.997 58.6828 155.484 56.9129 153.441Z" fill="#36334A"/>
<path d="M10.5476 175.08C7.13682 172.999 4.28246 174.524 4.17118 178.508C4.0599 182.492 6.7529 187.41 10.1525 189.48C13.5522 191.55 16.4232 190.037 16.529 186.047C16.6347 182.058 13.9695 177.167 10.5476 175.08Z" fill="#242334"/>
<path d="M125.178 40.3188C125.161 40.2073 125.104 40.1055 125.019 40.0321C124.933 39.9586 124.824 39.9182 124.711 39.9182C124.584 39.9182 124.462 39.9686 124.372 40.0584C124.283 40.1481 124.232 40.2698 124.232 40.3967C124.227 40.4336 124.227 40.4711 124.232 40.508C126.408 50.4899 124.611 63.0313 118.045 74.1872C118 74.2507 117.975 74.3263 117.973 74.4042C117.969 74.5004 117.999 74.5949 118.058 74.6713C118.116 74.7477 118.2 74.8011 118.294 74.8223C118.388 74.8435 118.486 74.831 118.572 74.7872C118.657 74.7433 118.725 74.6708 118.763 74.5823C122.434 68.399 124.799 61.5288 125.712 54.3959C126.328 49.7069 126.147 44.9477 125.178 40.3188Z" fill="url(#paint9_linear)"/>
<path d="M128.812 48.0025C128.813 48.7059 128.605 49.3939 128.215 49.9793C127.825 50.5647 127.27 51.0213 126.621 51.2913C125.971 51.5612 125.256 51.6324 124.566 51.4959C123.876 51.3593 123.242 51.0211 122.744 50.5241C122.246 50.0271 121.907 49.3936 121.769 48.7038C121.632 48.0139 121.702 47.2987 121.971 46.6488C122.24 45.9988 122.695 45.4431 123.28 45.0522C123.865 44.6613 124.553 44.4526 125.256 44.4526C126.198 44.4541 127.1 44.8284 127.767 45.4937C128.433 46.1589 128.809 47.061 128.812 48.0025Z" fill="url(#paint10_linear)"/>
<path d="M127.743 57.2391C127.744 57.943 127.536 58.6314 127.146 59.2171C126.755 59.8028 126.2 60.2593 125.55 60.529C124.899 60.7986 124.184 60.8691 123.493 60.7317C122.803 60.5942 122.169 60.2549 121.672 59.7568C121.174 59.2586 120.836 58.6241 120.7 57.9335C120.563 57.2429 120.635 56.5274 120.906 55.8776C121.176 55.2278 121.634 54.673 122.22 54.2834C122.806 53.8938 123.495 53.687 124.199 53.6892C125.139 53.6907 126.041 54.0654 126.705 54.7309C127.37 55.3965 127.743 56.2986 127.743 57.2391Z" fill="url(#paint11_linear)"/>
<path d="M124.945 66.1805C124.946 66.8841 124.738 67.5723 124.348 68.1578C123.957 68.7434 123.402 69.1999 122.752 69.4697C122.102 69.7395 121.387 69.8104 120.697 69.6734C120.007 69.5364 119.373 69.1976 118.875 68.7001C118.377 68.2025 118.039 67.5685 117.902 66.8783C117.765 66.1881 117.836 65.4728 118.105 64.8229C118.375 64.173 118.832 63.6177 119.417 63.2275C120.003 62.8372 120.691 62.6295 121.395 62.6306C122.336 62.6306 123.239 63.0046 123.905 63.6703C124.571 64.3361 124.945 65.239 124.945 66.1805Z" fill="url(#paint12_linear)"/>
<path d="M102.883 69.7748C102.73 69.7881 102.579 69.7402 102.461 69.6416C102.344 69.543 102.27 69.4018 102.257 69.249C102.244 69.0963 102.292 68.9446 102.39 68.8272C102.489 68.7098 102.63 68.6364 102.783 68.6231L120.198 65.6129C120.273 65.5969 120.35 65.5965 120.425 65.6117C120.5 65.6268 120.571 65.6573 120.634 65.7012C120.697 65.745 120.75 65.8013 120.79 65.8666C120.829 65.9318 120.856 66.0046 120.866 66.0803C120.883 66.1559 120.884 66.2342 120.869 66.3101C120.854 66.3861 120.823 66.4581 120.778 66.5214C120.734 66.5848 120.677 66.6382 120.61 66.6782C120.544 66.7181 120.47 66.7438 120.393 66.7536L102.978 69.7693L102.883 69.7748Z" fill="url(#paint13_linear)"/>
<path d="M111.991 58.9806C111.838 58.988 111.688 58.9341 111.574 58.8308C111.46 58.7275 111.392 58.5832 111.385 58.4298C111.378 58.2763 111.431 58.1262 111.535 58.0125C111.638 57.8987 111.782 57.8307 111.936 57.8233L123.57 56.6604C123.646 56.6527 123.723 56.6601 123.796 56.6821C123.869 56.7041 123.937 56.7403 123.996 56.7886C124.056 56.8369 124.105 56.8964 124.141 56.9637C124.177 57.0309 124.2 57.1047 124.207 57.1806C124.215 57.2566 124.208 57.3334 124.186 57.4065C124.164 57.4797 124.127 57.5478 124.079 57.6069C124.031 57.6661 123.971 57.7152 123.904 57.7513C123.837 57.7875 123.763 57.8101 123.687 57.8177L112.047 58.9806H111.991Z" fill="url(#paint14_linear)"/>
<path d="M102.8 50.4397C102.646 50.4463 102.496 50.3917 102.383 50.2879C102.27 50.1841 102.203 50.0395 102.196 49.886C102.189 49.7326 102.244 49.5827 102.348 49.4695C102.451 49.3563 102.596 49.289 102.749 49.2823L125.212 47.4128C125.368 47.4052 125.521 47.4593 125.637 47.5634C125.754 47.6675 125.825 47.8132 125.835 47.9692C125.845 48.0458 125.839 48.1237 125.817 48.1979C125.796 48.2721 125.759 48.3409 125.709 48.4001C125.659 48.4592 125.598 48.5074 125.528 48.5414C125.459 48.5755 125.383 48.5948 125.306 48.598L102.85 50.4508L102.8 50.4397Z" fill="url(#paint15_linear)"/>
<path d="M102.06 70.142C101.91 70.1479 101.763 70.0958 101.65 69.9964C101.538 69.897 101.467 69.7581 101.455 69.6084C101.442 69.4587 101.487 69.3098 101.581 69.1926C101.675 69.0754 101.811 68.999 101.96 68.9791L111.852 67.0428C112.005 67.0163 112.162 67.0515 112.289 67.1407C112.416 67.2299 112.502 67.3658 112.528 67.5186C112.555 67.6713 112.52 67.8283 112.431 67.9551C112.341 68.0819 112.205 68.168 112.053 68.1946L102.16 70.1309L102.06 70.142Z" fill="url(#paint16_linear)"/>
<path d="M96.5902 51.0019C96.4426 51.0019 96.3011 50.9432 96.1967 50.8389C96.0924 50.7345 96.0338 50.593 96.0338 50.4455C96.0277 50.3671 96.0374 50.2883 96.0622 50.2137C96.0871 50.1391 96.1266 50.0703 96.1784 50.0112C96.2303 49.9521 96.2934 49.9039 96.3641 49.8696C96.4348 49.8353 96.5117 49.8154 96.5902 49.8112L108.62 48.8319C108.698 48.8266 108.776 48.8369 108.85 48.8621C108.924 48.8873 108.992 48.9269 109.05 48.9787C109.109 49.0304 109.156 49.0933 109.19 49.1636C109.224 49.2339 109.244 49.3103 109.248 49.3883C109.259 49.4672 109.252 49.5474 109.229 49.6235C109.205 49.6996 109.166 49.7698 109.113 49.8294C109.061 49.889 108.996 49.9366 108.923 49.9689C108.85 50.0013 108.772 50.0177 108.692 50.017L96.6124 51.0186L96.5902 51.0019Z" fill="url(#paint17_linear)"/>
<path d="M97.2578 60.4996C97.1028 60.5078 96.951 60.454 96.8357 60.3502C96.7204 60.2463 96.6511 60.101 96.643 59.946C96.6348 59.7911 96.6886 59.6392 96.7924 59.5239C96.8963 59.4086 97.0416 59.3393 97.1966 59.3312L116.782 57.3782C116.858 57.3702 116.936 57.3773 117.009 57.399C117.083 57.4208 117.151 57.4569 117.211 57.5052C117.271 57.5535 117.32 57.6131 117.357 57.6806C117.394 57.7481 117.417 57.8221 117.425 57.8984C117.433 57.9748 117.426 58.052 117.404 58.1256C117.382 58.1992 117.346 58.2678 117.298 58.3275C117.249 58.3872 117.19 58.4368 117.122 58.4734C117.055 58.5101 116.981 58.5331 116.904 58.5411L97.319 60.4996H97.2578Z" fill="url(#paint18_linear)"/>
<path d="M112.47 130.874L111.802 130.317C118.635 122.294 122.624 94.1954 110.817 83.0228C100.246 73.0075 95.2381 62.5694 95.9447 51.9531C96.5957 42.1326 101.943 35.0217 105.075 31.661C112.921 23.2203 118.768 15.6421 118.824 15.5642L119.52 16.1206C119.464 16.1929 113.588 23.8046 105.721 32.2564C100.53 37.8204 85.5956 57.9567 111.424 82.3885C118.874 89.4382 119.486 101.49 119.214 108.044C118.763 117.342 116.003 126.734 112.47 130.874Z" fill="url(#paint19_linear)"/>
<path d="M117.962 74.0146L118.696 74.4153C116.321 78.4993 113.416 82.2506 110.055 85.5712C92.2502 103.081 93.4576 121.671 93.4688 121.854L92.5952 121.932C92.5952 121.737 91.321 102.759 109.438 84.9369C112.741 81.6816 115.607 78.01 117.962 74.0146Z" fill="url(#paint20_linear)"/>
<path d="M125.167 39.7789L124.21 39.9737C123.086 34.7435 120.861 30.2088 117.639 26.9315C105.353 14.3679 104.358 4.51395 104.319 4.1189L105.198 4.01318C105.198 4.11334 106.233 13.984 118.268 26.3195C121.645 29.7803 123.988 34.4096 125.167 39.7789Z" fill="url(#paint21_linear)"/>
<path d="M114.323 82.5332C114.324 83.2443 114.114 83.9398 113.72 84.5316C113.325 85.1234 112.764 85.585 112.108 85.8579C111.451 86.1308 110.728 86.2028 110.031 86.0647C109.333 85.9267 108.692 85.5848 108.189 85.0823C107.685 84.5798 107.343 83.9394 107.203 83.242C107.064 82.5446 107.135 81.8216 107.407 81.1645C107.679 80.5074 108.14 79.9457 108.731 79.5505C109.322 79.1553 110.017 78.9443 110.728 78.9443C111.681 78.9443 112.594 79.3223 113.268 79.9951C113.942 80.668 114.321 81.5808 114.323 82.5332Z" fill="url(#paint22_linear)"/>
<path d="M114.323 25.0898C114.324 25.8009 114.114 26.4964 113.72 27.0882C113.325 27.6801 112.764 28.1416 112.108 28.4145C111.451 28.6874 110.728 28.7594 110.031 28.6214C109.333 28.4833 108.692 28.1414 108.189 27.6389C107.685 27.1365 107.343 26.496 107.203 25.7986C107.064 25.1012 107.135 24.3782 107.407 23.7211C107.679 23.064 108.14 22.5023 108.731 22.1071C109.322 21.7119 110.017 21.501 110.728 21.501C111.681 21.501 112.594 21.8789 113.268 22.5518C113.942 23.2247 114.321 24.1375 114.323 25.0898Z" fill="url(#paint23_linear)"/>
<path d="M122.485 15.2639C122.486 15.975 122.276 16.6705 121.882 17.2623C121.488 17.8541 120.927 18.3157 120.27 18.5886C119.614 18.8615 118.891 18.9335 118.193 18.7954C117.495 18.6574 116.854 18.3155 116.351 17.813C115.848 17.3106 115.505 16.6701 115.366 15.9727C115.227 15.2753 115.298 14.5523 115.57 13.8952C115.841 13.2381 116.302 12.6764 116.893 12.2812C117.485 11.886 118.18 11.6751 118.891 11.6751C119.363 11.6743 119.83 11.7666 120.266 11.9466C120.702 12.1267 121.098 12.3909 121.432 12.7242C121.766 13.0576 122.031 13.4534 122.212 13.8892C122.392 14.325 122.485 14.7921 122.485 15.2639Z" fill="url(#paint24_linear)"/>
<path d="M124.889 29.7192C124.89 30.4303 124.68 31.1258 124.286 31.7176C123.892 32.3095 123.331 32.771 122.674 33.0439C122.017 33.3168 121.294 33.3888 120.597 33.2507C119.899 33.1127 119.258 32.7708 118.755 32.2683C118.252 31.7659 117.909 31.1254 117.77 30.428C117.63 29.7306 117.701 29.0076 117.973 28.3505C118.245 27.6934 118.706 27.1317 119.297 26.7365C119.888 26.3413 120.583 26.1304 121.295 26.1304C122.247 26.1304 123.16 26.5083 123.834 27.1812C124.508 27.854 124.887 28.7669 124.889 29.7192Z" fill="url(#paint25_linear)"/>
<path d="M128.094 38.7551C128.095 39.4656 127.885 40.1605 127.491 40.7516C127.097 41.3428 126.536 41.8036 125.88 42.0758C125.223 42.3479 124.501 42.4191 123.804 42.2804C123.107 42.1416 122.467 41.7992 121.965 41.2964C121.463 40.7936 121.122 40.1531 120.984 39.456C120.847 38.759 120.919 38.0368 121.192 37.3809C121.465 36.725 121.927 36.1649 122.519 35.7717C123.11 35.3784 123.806 35.1697 124.516 35.1719C125.465 35.1748 126.374 35.5535 127.045 36.225C127.715 36.8965 128.092 37.8062 128.094 38.7551Z" fill="url(#paint26_linear)"/>
<path d="M120.582 74.3706C120.582 75.0804 120.372 75.7742 119.977 76.3644C119.583 76.9546 119.023 77.4146 118.367 77.6862C117.711 77.9578 116.99 78.0289 116.293 77.8904C115.597 77.7519 114.958 77.4101 114.456 76.9082C113.954 76.4063 113.612 75.7669 113.474 75.0707C113.335 74.3745 113.406 73.6529 113.678 72.9972C113.95 72.3414 114.409 71.7809 115 71.3866C115.59 70.9922 116.284 70.7817 116.994 70.7817C117.945 70.7832 118.857 71.1618 119.53 71.8345C120.202 72.5072 120.581 73.4192 120.582 74.3706Z" fill="url(#paint27_linear)"/>
<path d="M107.14 90.1059C107.141 90.8173 106.931 91.513 106.536 92.1049C106.142 92.6969 105.58 93.1585 104.923 93.4312C104.266 93.7039 103.543 93.7756 102.845 93.6371C102.148 93.4986 101.507 93.1561 101.004 92.6531C100.501 92.1501 100.158 91.5091 100.02 90.8113C99.8811 90.1136 99.9528 89.3904 100.226 88.7334C100.498 88.0764 100.96 87.5151 101.552 87.1205C102.144 86.726 102.839 86.516 103.551 86.5171C104.503 86.5171 105.415 86.8952 106.089 87.5682C106.762 88.2413 107.14 89.1541 107.14 90.1059Z" fill="url(#paint28_linear)"/>
<path d="M101.765 98.7524C101.766 99.4638 101.556 100.159 101.161 100.751C100.767 101.343 100.205 101.805 99.5484 102.078C98.8914 102.35 98.1682 102.422 97.4705 102.284C96.7727 102.145 96.1318 101.803 95.6288 101.3C95.1258 100.797 94.7833 100.156 94.6448 99.4578C94.5063 98.7601 94.5779 98.0369 94.8507 97.3799C95.1234 96.7229 95.585 96.1616 96.1769 95.767C96.7688 95.3725 97.4645 95.1625 98.1759 95.1636C99.1277 95.1636 100.041 95.5417 100.714 96.2147C101.387 96.8878 101.765 97.8006 101.765 98.7524Z" fill="url(#paint29_linear)"/>
<path d="M97.3191 110.042C97.3202 110.753 97.1102 111.449 96.7156 112.041C96.3211 112.633 95.7598 113.094 95.1028 113.367C94.4457 113.64 93.7226 113.711 93.0248 113.573C92.3271 113.434 91.6861 113.092 91.1831 112.589C90.68 112.086 90.3376 111.445 90.1991 110.747C90.0606 110.049 90.1322 109.326 90.405 108.669C90.6777 108.012 91.1393 107.451 91.7312 107.056C92.3232 106.662 93.0189 106.452 93.7302 106.453C94.6816 106.454 95.5936 106.833 96.2663 107.506C96.939 108.178 97.3176 109.09 97.3191 110.042Z" fill="url(#paint30_linear)"/>
<path d="M96.0003 120.936C96.0014 121.648 95.7914 122.343 95.3969 122.935C95.0024 123.527 94.4411 123.989 93.784 124.261C93.127 124.534 92.4038 124.606 91.7061 124.467C91.0083 124.329 90.3674 123.986 89.8643 123.483C89.3613 122.98 89.0189 122.339 88.8804 121.642C88.7418 120.944 88.8135 120.221 89.0862 119.564C89.359 118.907 89.8205 118.345 90.4125 117.951C91.0044 117.556 91.7001 117.346 92.4115 117.347C93.3633 117.347 94.2762 117.726 94.9492 118.399C95.6222 119.072 96.0003 119.984 96.0003 120.936Z" fill="url(#paint31_linear)"/>
<path d="M113.344 130C113.269 130 113.195 129.985 113.127 129.956L92.623 121.61C92.4799 121.551 92.3657 121.439 92.3057 121.296C92.2458 121.154 92.2448 120.993 92.3031 120.85C92.3614 120.707 92.4741 120.593 92.6166 120.533C92.759 120.473 92.9194 120.472 93.0626 120.53L113.566 128.876C113.685 128.932 113.781 129.025 113.84 129.142C113.899 129.259 113.917 129.392 113.891 129.52C113.866 129.648 113.798 129.764 113.699 129.849C113.599 129.934 113.474 129.984 113.344 129.989V130Z" fill="url(#paint32_linear)"/>
<path d="M118.179 111.884C118.068 111.886 117.96 111.855 117.867 111.795L99.0661 99.7652C99.0012 99.7234 98.9451 99.6692 98.9012 99.6057C98.8573 99.5421 98.8265 99.4705 98.8104 99.395C98.7944 99.3194 98.7935 99.2414 98.8078 99.1655C98.822 99.0897 98.8512 99.0173 98.8936 98.9528C98.9326 98.8855 98.9852 98.8272 99.0481 98.7815C99.111 98.7358 99.1828 98.7038 99.2588 98.6876C99.3348 98.6713 99.4134 98.6712 99.4894 98.6872C99.5655 98.7031 99.6374 98.7349 99.7004 98.7803L118.501 110.804C118.606 110.874 118.685 110.976 118.728 111.095C118.77 111.213 118.774 111.342 118.738 111.463C118.702 111.583 118.628 111.689 118.527 111.765C118.427 111.841 118.305 111.882 118.179 111.884Z" fill="url(#paint33_linear)"/>
<path d="M117.889 92.9436C117.803 92.9458 117.717 92.9278 117.639 92.8911C117.561 92.8544 117.492 92.8 117.439 92.7322L109.927 83.6684C109.845 83.5467 109.812 83.3989 109.833 83.2539C109.855 83.1089 109.929 82.977 110.042 82.8839C110.155 82.7909 110.299 82.7433 110.446 82.7505C110.592 82.7576 110.731 82.8191 110.834 82.9228L118.34 91.9811C118.413 92.0664 118.459 92.1708 118.474 92.2818C118.489 92.3928 118.471 92.5057 118.424 92.6072C118.376 92.7086 118.301 92.7942 118.206 92.8539C118.111 92.9136 118.001 92.9447 117.889 92.9436Z" fill="url(#paint34_linear)"/>
<path d="M119.792 103.866C119.661 103.865 119.533 103.82 119.431 103.738L104.057 91.4968C103.997 91.449 103.947 91.3897 103.909 91.3224C103.872 91.2551 103.848 91.1811 103.839 91.1047C103.83 91.0282 103.837 90.9507 103.858 90.8767C103.879 90.8027 103.915 90.7336 103.962 90.6733C104.01 90.6131 104.07 90.5628 104.137 90.5254C104.204 90.488 104.278 90.4643 104.355 90.4555C104.431 90.4467 104.509 90.4531 104.583 90.4742C104.657 90.4954 104.726 90.5309 104.786 90.5787L120.159 102.82C120.28 102.917 120.358 103.058 120.376 103.212C120.393 103.366 120.35 103.521 120.254 103.643C120.198 103.712 120.128 103.768 120.048 103.807C119.968 103.845 119.881 103.865 119.792 103.866Z" fill="url(#paint35_linear)"/>
<path d="M114.879 120.474C114.792 120.474 114.706 120.453 114.629 120.413L94.153 110.57C94.0129 110.503 93.9051 110.383 93.8534 110.237C93.8018 110.09 93.8105 109.929 93.8776 109.789C93.9448 109.649 94.0649 109.541 94.2115 109.489C94.3581 109.437 94.5192 109.446 94.6594 109.513L115.163 119.362C115.284 119.418 115.381 119.515 115.44 119.635C115.498 119.755 115.513 119.891 115.484 120.021C115.454 120.151 115.38 120.267 115.275 120.35C115.17 120.432 115.04 120.476 114.907 120.474H114.879Z" fill="url(#paint36_linear)"/>
<path d="M116.498 128.971C116.499 129.682 116.29 130.377 115.895 130.969C115.501 131.561 114.94 132.022 114.283 132.295C113.627 132.568 112.904 132.64 112.206 132.502C111.509 132.364 110.868 132.022 110.364 131.52C109.861 131.017 109.518 130.377 109.379 129.679C109.24 128.982 109.311 128.259 109.583 127.602C109.854 126.945 110.315 126.383 110.906 125.988C111.498 125.593 112.193 125.382 112.904 125.382C113.856 125.382 114.77 125.76 115.444 126.433C116.118 127.106 116.497 128.018 116.498 128.971Z" fill="url(#paint37_linear)"/>
<path d="M120.527 120.697C120.528 121.409 120.318 122.104 119.923 122.696C119.529 123.288 118.967 123.75 118.31 124.022C117.653 124.295 116.93 124.367 116.232 124.228C115.535 124.09 114.894 123.747 114.391 123.244C113.888 122.741 113.545 122.1 113.407 121.403C113.268 120.705 113.34 119.982 113.613 119.325C113.885 118.668 114.347 118.106 114.939 117.712C115.531 117.317 116.226 117.107 116.938 117.108C117.89 117.108 118.802 117.487 119.476 118.16C120.149 118.833 120.527 119.745 120.527 120.697Z" fill="url(#paint38_linear)"/>
<path d="M122.847 102.864C122.847 103.575 122.636 104.27 122.241 104.861C121.846 105.452 121.285 105.913 120.628 106.185C119.971 106.457 119.249 106.528 118.551 106.389C117.854 106.251 117.214 105.908 116.711 105.406C116.208 104.903 115.866 104.263 115.727 103.565C115.588 102.868 115.66 102.145 115.932 101.489C116.204 100.832 116.664 100.27 117.256 99.8755C117.847 99.4806 118.542 99.2698 119.253 99.2698C120.206 99.2698 121.12 99.6485 121.794 100.323C122.468 100.997 122.847 101.911 122.847 102.864Z" fill="url(#paint39_linear)"/>
<path d="M121.478 93.2385C121.479 93.9499 121.269 94.6456 120.875 95.2375C120.48 95.8294 119.919 96.291 119.262 96.5637C118.605 96.8365 117.882 96.9081 117.184 96.7696C116.486 96.6311 115.845 96.2887 115.342 95.7856C114.839 95.2826 114.497 94.6417 114.358 93.9439C114.22 93.2461 114.291 92.523 114.564 91.866C114.837 91.2089 115.298 90.6476 115.89 90.2531C116.482 89.8586 117.178 89.6486 117.889 89.6497C118.841 89.6497 119.754 90.0278 120.427 90.7008C121.1 91.3738 121.478 92.2867 121.478 93.2385Z" fill="url(#paint40_linear)"/>
<path d="M117.522 84.2023C117.522 84.9134 117.311 85.6086 116.916 86.1998C116.521 86.791 115.959 87.2517 115.302 87.5236C114.645 87.7955 113.922 87.8663 113.224 87.7272C112.527 87.588 111.887 87.2452 111.384 86.7419C110.882 86.2387 110.54 85.5977 110.402 84.9001C110.264 84.2025 110.336 83.4796 110.609 82.8229C110.881 82.1662 111.343 81.6052 111.935 81.211C112.527 80.8167 113.222 80.6068 113.933 80.6079C114.405 80.6079 114.872 80.7009 115.308 80.8816C115.744 81.0623 116.14 81.3272 116.473 81.661C116.806 81.9949 117.07 82.3911 117.251 82.8272C117.431 83.2633 117.523 83.7305 117.522 84.2023Z" fill="url(#paint41_linear)"/>
<path d="M108.781 76.6743C108.634 76.6782 108.492 76.6269 108.381 76.5306C108.271 76.4344 108.201 76.3001 108.185 76.1545C108.169 76.0089 108.208 75.8625 108.295 75.7444C108.381 75.6264 108.509 75.5452 108.653 75.517L116.148 73.8033C116.226 73.7663 116.312 73.7473 116.399 73.7478C116.486 73.7483 116.572 73.7682 116.651 73.806C116.729 73.8439 116.798 73.8988 116.852 73.9666C116.907 74.0345 116.945 74.1137 116.965 74.1984C116.985 74.283 116.986 74.3711 116.967 74.4561C116.949 74.5411 116.911 74.6209 116.858 74.6897C116.805 74.7585 116.737 74.8145 116.659 74.8537C116.582 74.8928 116.496 74.9141 116.409 74.9161L108.914 76.6298C108.872 76.6502 108.827 76.6652 108.781 76.6743Z" fill="url(#paint42_linear)"/>
<path d="M110.728 76.8024C110.728 77.5122 110.518 78.2061 110.124 78.7963C109.729 79.3865 109.169 79.8464 108.513 80.1181C107.857 80.3897 107.136 80.4608 106.439 80.3223C105.743 80.1838 105.104 79.842 104.602 79.3401C104.1 78.8382 103.758 78.1987 103.62 77.5026C103.481 76.8064 103.552 76.0848 103.824 75.4291C104.096 74.7733 104.556 74.2128 105.146 73.8184C105.736 73.4241 106.43 73.2136 107.14 73.2136C108.091 73.2151 109.003 73.5937 109.676 74.2664C110.348 74.9391 110.727 75.8511 110.728 76.8024Z" fill="url(#paint43_linear)"/>
<path d="M99.9064 41.3425C99.7588 41.3425 99.6173 41.2839 99.5129 41.1795C99.4086 41.0752 99.3499 40.9336 99.3499 40.7861C99.3431 40.7073 99.3522 40.6279 99.3767 40.5526C99.4012 40.4774 99.4406 40.4079 99.4925 40.3482C99.5444 40.2885 99.6078 40.2398 99.6789 40.2051C99.75 40.1704 99.8273 40.1504 99.9064 40.1462L124.171 38.1487C124.328 38.1396 124.482 38.193 124.6 38.2972C124.718 38.4015 124.79 38.5481 124.8 38.7051C124.811 38.7844 124.805 38.8653 124.782 38.942C124.759 39.0188 124.72 39.0897 124.667 39.15C124.614 39.2102 124.549 39.2583 124.476 39.291C124.403 39.3237 124.324 39.3402 124.243 39.3394L99.9787 41.3314L99.9064 41.3425Z" fill="url(#paint44_linear)"/>
<path d="M104.536 33.0353C104.386 33.0393 104.241 32.9859 104.13 32.8861C104.018 32.7863 103.95 32.6476 103.938 32.4986C103.925 32.3497 103.971 32.2017 104.065 32.0853C104.158 31.9688 104.293 31.8926 104.441 31.8724L120.137 29.2573C120.29 29.2345 120.445 29.2716 120.57 29.3608C120.696 29.45 120.782 29.5845 120.81 29.7358C120.836 29.89 120.8 30.0481 120.709 30.1754C120.618 30.3027 120.481 30.3887 120.326 30.4146L104.636 33.0297L104.536 33.0353Z" fill="url(#paint45_linear)"/>
<path d="M118.257 14.9022C118.115 14.9015 117.979 14.8502 117.873 14.7575L104.168 2.95618C104.11 2.90613 104.062 2.84505 104.027 2.77644C103.992 2.70783 103.971 2.63302 103.965 2.5563C103.959 2.47957 103.969 2.40243 103.992 2.32927C104.016 2.25611 104.054 2.18837 104.104 2.12992C104.154 2.07146 104.216 2.02344 104.284 1.98859C104.353 1.95374 104.428 1.93274 104.504 1.9268C104.581 1.92086 104.658 1.93008 104.731 1.95396C104.804 1.97783 104.872 2.01588 104.931 2.06593L118.635 13.8673C118.753 13.9686 118.827 14.1127 118.839 14.268C118.852 14.4234 118.802 14.5774 118.702 14.6963C118.646 14.76 118.578 14.8113 118.501 14.8467C118.424 14.8822 118.341 14.9011 118.257 14.9022Z" fill="url(#paint46_linear)"/>
<path d="M111.335 25.9133C111.223 25.9248 111.11 25.902 111.011 25.8478C110.912 25.7936 110.831 25.7106 110.781 25.6098C110.73 25.509 110.711 25.3952 110.727 25.2834C110.742 25.1717 110.791 25.0673 110.867 24.9841L113.85 20.9167C113.942 20.792 114.08 20.7091 114.233 20.6861C114.387 20.6632 114.543 20.7021 114.668 20.7943C114.792 20.8866 114.875 21.0245 114.898 21.1779C114.921 21.3313 114.882 21.4875 114.79 21.6122L111.808 25.6796C111.753 25.7526 111.681 25.8117 111.599 25.8522C111.517 25.8928 111.426 25.9137 111.335 25.9133Z" fill="url(#paint47_linear)"/>
<path d="M108.13 3.15083C108.131 3.86197 107.921 4.55745 107.527 5.14927C107.133 5.7411 106.572 6.20266 105.915 6.47557C105.258 6.74847 104.535 6.82045 103.838 6.68238C103.14 6.54432 102.499 6.20243 101.996 5.69997C101.493 5.19751 101.15 4.55706 101.011 3.85967C100.872 3.16228 100.942 2.43928 101.214 1.78217C101.486 1.12506 101.947 0.563365 102.538 0.168163C103.129 -0.22704 103.825 -0.437987 104.536 -0.437988C105.488 -0.437989 106.401 -0.0600607 107.075 0.612813C107.749 1.28569 108.128 2.1985 108.13 3.15083Z" fill="url(#paint48_linear)"/>
<path d="M111.335 11.725C111.335 12.4348 111.124 13.1287 110.73 13.7189C110.336 14.309 109.775 14.769 109.119 15.0407C108.464 15.3123 107.742 15.3834 107.046 15.2449C106.35 15.1064 105.71 14.7646 105.208 14.2627C104.706 13.7608 104.365 13.1213 104.226 12.4252C104.088 11.729 104.159 11.0074 104.43 10.3517C104.702 9.69589 105.162 9.1354 105.752 8.74105C106.342 8.34671 107.036 8.13623 107.746 8.13623C108.698 8.13623 109.611 8.51434 110.284 9.18737C110.957 9.8604 111.335 10.7732 111.335 11.725Z" fill="url(#paint49_linear)"/>
<path d="M108.13 32.4511C108.13 33.162 107.919 33.8569 107.524 34.448C107.129 35.0391 106.568 35.4998 105.911 35.7718C105.254 36.0439 104.532 36.1151 103.834 35.9764C103.137 35.8377 102.497 35.4954 101.994 34.9927C101.491 34.49 101.149 33.8495 101.01 33.1523C100.872 32.4551 100.943 31.7323 101.215 31.0756C101.487 30.4188 101.948 29.8574 102.539 29.4624C103.13 29.0675 103.825 28.8567 104.536 28.8567C105.008 28.8567 105.475 28.9497 105.911 29.1303C106.347 29.3109 106.743 29.5757 107.077 29.9095C107.411 30.2432 107.676 30.6395 107.856 31.0756C108.037 31.5116 108.13 31.979 108.13 32.4511Z" fill="url(#paint50_linear)"/>
<path d="M102.633 40.736C102.634 41.4474 102.424 42.1431 102.029 42.7351C101.635 43.327 101.073 43.7886 100.416 44.0613C99.7594 44.334 99.0363 44.4057 98.3385 44.2672C97.6407 44.1287 96.9998 43.7862 96.4967 43.2832C95.9937 42.7802 95.6513 42.1392 95.5128 41.4415C95.3743 40.7437 95.4459 40.0205 95.7186 39.3635C95.9914 38.7065 96.4529 38.1452 97.0449 37.7507C97.6368 37.3561 98.3326 37.1461 99.0439 37.1472C99.9953 37.1487 100.907 37.5273 101.58 38.2C102.253 38.8727 102.631 39.7847 102.633 40.736Z" fill="url(#paint51_linear)"/>
<path d="M100.218 49.9167C100.219 50.6278 100.009 51.3233 99.6148 51.9151C99.2205 52.507 98.6596 52.9685 98.0029 53.2414C97.3462 53.5143 96.6233 53.5863 95.9257 53.4482C95.2281 53.3102 94.5871 52.9683 94.0839 52.4658C93.5806 51.9634 93.2378 51.3229 93.0986 50.6255C92.9595 49.9281 93.0303 49.2051 93.3022 48.548C93.5741 47.8909 94.0348 47.3292 94.626 46.934C95.2172 46.5388 95.9124 46.3279 96.6235 46.3279C97.5758 46.3279 98.4892 46.7058 99.1631 47.3787C99.8371 48.0516 100.216 48.9644 100.218 49.9167Z" fill="url(#paint52_linear)"/>
<path d="M105.159 68.9738C105.158 69.6833 104.946 70.3766 104.551 70.9661C104.156 71.5555 103.595 72.0147 102.939 72.2854C102.284 72.5562 101.562 72.6265 100.866 72.4874C100.171 72.3483 99.5317 72.006 99.0303 71.5039C98.529 71.0018 98.1877 70.3623 98.0497 69.6663C97.9117 68.9703 97.9831 68.249 98.2549 67.5935C98.5267 66.9381 98.9867 66.3779 99.5767 65.9838C100.167 65.5897 100.86 65.3794 101.57 65.3794C102.042 65.3794 102.509 65.4724 102.945 65.6531C103.38 65.8338 103.776 66.0987 104.11 66.4325C104.443 66.7663 104.707 67.1626 104.887 67.5987C105.067 68.0347 105.16 68.502 105.159 68.9738Z" fill="url(#paint53_linear)"/>
<path d="M100.947 59.4423C100.948 60.1537 100.738 60.8494 100.343 61.4414C99.9488 62.0333 99.3875 62.4949 98.7305 62.7676C98.0735 63.0403 97.3503 63.112 96.6525 62.9735C95.9548 62.835 95.3138 62.4925 94.8108 61.9895C94.3078 61.4865 93.9653 60.8455 93.8268 60.1478C93.6883 59.45 93.76 58.7268 94.0327 58.0698C94.3054 57.4128 94.767 56.8515 95.3589 56.457C95.9509 56.0624 96.6466 55.8524 97.358 55.8535C98.3098 55.8535 99.2226 56.2316 99.8956 56.9047C100.569 57.5777 100.947 58.4905 100.947 59.4423Z" fill="url(#paint54_linear)"/>
<path d="M122.407 111.533C122.408 112.244 122.199 112.94 121.804 113.532C121.41 114.123 120.849 114.585 120.192 114.858C119.536 115.131 118.813 115.203 118.115 115.065C117.418 114.927 116.777 114.585 116.273 114.082C115.77 113.58 115.427 112.939 115.288 112.242C115.149 111.545 115.22 110.822 115.492 110.164C115.764 109.507 116.224 108.946 116.815 108.55C117.407 108.155 118.102 107.944 118.813 107.944C119.765 107.944 120.679 108.322 121.353 108.995C122.027 109.668 122.406 110.581 122.407 111.533Z" fill="url(#paint55_linear)"/>
<path d="M117.706 21.2619C117.705 21.9714 117.493 22.6647 117.098 23.2542C116.703 23.8436 116.142 24.3028 115.486 24.5735C114.831 24.8443 114.109 24.9146 113.413 24.7755C112.718 24.6364 112.079 24.2941 111.577 23.792C111.076 23.2899 110.735 22.6504 110.597 21.9544C110.459 21.2584 110.53 20.5371 110.802 19.8816C111.074 19.2262 111.534 18.666 112.124 18.2719C112.714 17.8778 113.407 17.6675 114.117 17.6675C115.069 17.669 115.982 18.0483 116.655 18.7222C117.328 19.3961 117.706 20.3095 117.706 21.2619Z" fill="url(#paint56_linear)"/>
</g>
<defs>
<linearGradient id="paint0_linear" x1="65.4815" y1="127.624" x2="139.105" y2="127.624" gradientUnits="userSpaceOnUse">
<stop stop-color="#FFCC38"/>
<stop offset="1" stop-color="#FF9500"/>
</linearGradient>
<linearGradient id="paint1_linear" x1="102.293" y1="109.591" x2="102.293" y2="140.917" gradientUnits="userSpaceOnUse">
<stop stop-color="white"/>
<stop offset="1" stop-color="#6ED6E7"/>
</linearGradient>
<linearGradient id="paint2_linear" x1="54861.8" y1="4628.05" x2="54861.8" y2="5912.68" gradientUnits="userSpaceOnUse">
<stop stop-color="white"/>
<stop offset="1" stop-color="#6ED6E7"/>
</linearGradient>
<linearGradient id="paint3_linear" x1="479.365" y1="241.462" x2="479.365" y2="226.497" gradientUnits="userSpaceOnUse">
<stop stop-color="white"/>
<stop offset="1" stop-color="#6ED6E7"/>
</linearGradient>
<linearGradient id="paint4_linear" x1="486.235" y1="4679.39" x2="486.235" y2="4092.56" gradientUnits="userSpaceOnUse">
<stop stop-color="white"/>
<stop offset="1" stop-color="#6ED6E7"/>
</linearGradient>
<linearGradient id="paint5_linear" x1="479.733" y1="260.5" x2="479.733" y2="245.537" gradientUnits="userSpaceOnUse">
<stop stop-color="white"/>
<stop offset="1" stop-color="#6ED6E7"/>
</linearGradient>
<linearGradient id="paint6_linear" x1="29559.1" y1="2548.86" x2="29559.1" y2="3240.2" gradientUnits="userSpaceOnUse">
<stop stop-color="white"/>
<stop offset="1" stop-color="#6ED6E7"/>
</linearGradient>
<linearGradient id="paint7_linear" x1="59522.6" y1="7163.67" x2="59312.5" y2="5900.24" gradientUnits="userSpaceOnUse">
<stop stop-color="white"/>
<stop offset="1" stop-color="#6ED6E7"/>
</linearGradient>
<linearGradient id="paint8_linear" x1="68580.1" y1="7575.27" x2="68374.5" y2="6230.93" gradientUnits="userSpaceOnUse">
<stop stop-color="white"/>
<stop offset="1" stop-color="#6ED6E7"/>
</linearGradient>
<linearGradient id="paint9_linear" x1="117.984" y1="57.3727" x2="126.068" y2="57.3727" gradientUnits="userSpaceOnUse">
<stop stop-color="#FF3D49"/>
<stop offset="1" stop-color="#D80C1E"/>
</linearGradient>
<linearGradient id="paint10_linear" x1="1732.6" y1="618.371" x2="1723.57" y2="708.75" gradientUnits="userSpaceOnUse">
<stop stop-color="#FF3D49"/>
<stop offset="1" stop-color="#D80C1E"/>
</linearGradient>
<linearGradient id="paint11_linear" x1="1717.95" y1="745.653" x2="1708.84" y2="836.032" gradientUnits="userSpaceOnUse">
<stop stop-color="#FF3D49"/>
<stop offset="1" stop-color="#D80C1E"/>
</linearGradient>
<linearGradient id="paint12_linear" x1="1679.31" y1="868.855" x2="1670.28" y2="959.162" gradientUnits="userSpaceOnUse">
<stop stop-color="#FF3D49"/>
<stop offset="1" stop-color="#D80C1E"/>
</linearGradient>
<linearGradient id="paint13_linear" x1="111.88" y1="64.7561" x2="111.296" y2="70.6206" gradientUnits="userSpaceOnUse">
<stop stop-color="#00A3FF"/>
<stop offset="1" stop-color="#1270E8"/>
</linearGradient>
<linearGradient id="paint14_linear" x1="2841.14" y1="292.757" x2="2840.88" y2="307.35" gradientUnits="userSpaceOnUse">
<stop stop-color="#FF3D49"/>
<stop offset="1" stop-color="#D80C1E"/>
</linearGradient>
<linearGradient id="paint15_linear" x1="4977.4" y1="302.783" x2="4977.03" y2="331.567" gradientUnits="userSpaceOnUse">
<stop stop-color="#00A3FF"/>
<stop offset="1" stop-color="#1270E8"/>
</linearGradient>
<linearGradient id="paint16_linear" x1="2246.01" y1="441.272" x2="2245.36" y2="464.203" gradientUnits="userSpaceOnUse">
<stop stop-color="#00A3FF"/>
<stop offset="1" stop-color="#1270E8"/>
</linearGradient>
<linearGradient id="paint17_linear" x1="2549.07" y1="240.258" x2="2548.85" y2="253.557" gradientUnits="userSpaceOnUse">
<stop stop-color="#00A3FF"/>
<stop offset="1" stop-color="#1270E8"/>
</linearGradient>
<linearGradient id="paint18_linear" x1="4121.6" y1="376.732" x2="4121.16" y2="405.328" gradientUnits="userSpaceOnUse">
<stop stop-color="#FF3D49"/>
<stop offset="1" stop-color="#D80C1E"/>
</linearGradient>
<linearGradient id="paint19_linear" x1="4188.04" y1="15281.4" x2="5192.52" y2="15281.4" gradientUnits="userSpaceOnUse">
<stop stop-color="#00A3FF"/>
<stop offset="1" stop-color="#1270E8"/>
</linearGradient>
<linearGradient id="paint20_linear" x1="4458.84" y1="8549.2" x2="5685.19" y2="8549.2" gradientUnits="userSpaceOnUse">
<stop stop-color="#FF3D49"/>
<stop offset="1" stop-color="#D80C1E"/>
</linearGradient>
<linearGradient id="paint21_linear" x1="4029.47" y1="1453.94" x2="4810.66" y2="1453.94" gradientUnits="userSpaceOnUse">
<stop stop-color="#FF3D49"/>
<stop offset="1" stop-color="#D80C1E"/>
</linearGradient>
<linearGradient id="paint22_linear" x1="1548.05" y1="1104.78" x2="1538.78" y2="1197.09" gradientUnits="userSpaceOnUse">
<stop stop-color="#FF3D49"/>
<stop offset="1" stop-color="#D80C1E"/>
</linearGradient>
<linearGradient id="paint23_linear" x1="1548.05" y1="305.17" x2="1538.78" y2="397.545" gradientUnits="userSpaceOnUse">
<stop stop-color="#00A3FF"/>
<stop offset="1" stop-color="#1270E8"/>
</linearGradient>
<linearGradient id="paint24_linear" x1="1661.67" y1="168.39" x2="1652.4" y2="260.694" gradientUnits="userSpaceOnUse">
<stop stop-color="#00A3FF"/>
<stop offset="1" stop-color="#1270E8"/>
</linearGradient>
<linearGradient id="paint25_linear" x1="1695.13" y1="369.609" x2="1685.86" y2="461.913" gradientUnits="userSpaceOnUse">
<stop stop-color="#FF3D49"/>
<stop offset="1" stop-color="#D80C1E"/>
</linearGradient>
<linearGradient id="paint26_linear" x1="1737.39" y1="494.683" x2="1728.2" y2="586.844" gradientUnits="userSpaceOnUse">
<stop stop-color="#FF3D49"/>
<stop offset="1" stop-color="#D80C1E"/>
</linearGradient>
<linearGradient id="paint27_linear" x1="1632.84" y1="989.733" x2="1623.58" y2="1081.89" gradientUnits="userSpaceOnUse">
<stop stop-color="#FF3D49"/>
<stop offset="1" stop-color="#D80C1E"/>
</linearGradient>
<linearGradient id="paint28_linear" x1="1448.07" y1="1210.2" x2="1438.79" y2="1302.5" gradientUnits="userSpaceOnUse">
<stop stop-color="#FF3D49"/>
<stop offset="1" stop-color="#D80C1E"/>
</linearGradient>
<linearGradient id="paint29_linear" x1="1373.23" y1="1330.55" x2="1363.95" y2="1422.86" gradientUnits="userSpaceOnUse">
<stop stop-color="#FF3D49"/>
<stop offset="1" stop-color="#D80C1E"/>
</linearGradient>
<linearGradient id="paint30_linear" x1="1311.36" y1="1487.71" x2="1302.09" y2="1580.08" gradientUnits="userSpaceOnUse">
<stop stop-color="#FF3D49"/>
<stop offset="1" stop-color="#D80C1E"/>
</linearGradient>
<linearGradient id="paint31_linear" x1="1293.01" y1="1639.35" x2="1283.73" y2="1731.66" gradientUnits="userSpaceOnUse">
<stop stop-color="#FF3D49"/>
<stop offset="1" stop-color="#D80C1E"/>
</linearGradient>
<linearGradient id="paint32_linear" x1="4133.81" y1="2205.66" x2="4128.17" y2="2333.5" gradientUnits="userSpaceOnUse">
<stop stop-color="#00A3FF"/>
<stop offset="1" stop-color="#1270E8"/>
</linearGradient>
<linearGradient id="paint33_linear" x1="4037.84" y1="2475.41" x2="4020.09" y2="2743.05" gradientUnits="userSpaceOnUse">
<stop stop-color="#00A3FF"/>
<stop offset="1" stop-color="#1270E8"/>
</linearGradient>
<linearGradient id="paint34_linear" x1="1898.73" y1="1613.8" x2="1878.39" y2="1785.31" gradientUnits="userSpaceOnUse">
<stop stop-color="#00A3FF"/>
<stop offset="1" stop-color="#1270E8"/>
</linearGradient>
<linearGradient id="paint35_linear" x1="3467.78" y1="2302.03" x2="3444.64" y2="2586.04" gradientUnits="userSpaceOnUse">
<stop stop-color="#FF3D49"/>
<stop offset="1" stop-color="#D80C1E"/>
</linearGradient>
<linearGradient id="paint36_linear" x1="3765.04" y1="2394.84" x2="4609.63" y2="2394.84" gradientUnits="userSpaceOnUse">
<stop stop-color="#FF3D49"/>
<stop offset="1" stop-color="#D80C1E"/>
</linearGradient>
<linearGradient id="paint37_linear" x1="1578.34" y1="1751.19" x2="1569.07" y2="1843.57" gradientUnits="userSpaceOnUse">
<stop stop-color="#00A3FF"/>
<stop offset="1" stop-color="#1270E8"/>
</linearGradient>
<linearGradient id="paint38_linear" x1="1634.41" y1="1636.02" x2="1625.13" y2="1728.32" gradientUnits="userSpaceOnUse">
<stop stop-color="#00A3FF"/>
<stop offset="1" stop-color="#1270E8"/>
</linearGradient>
<linearGradient id="paint39_linear" x1="1666.71" y1="1387.77" x2="1657.43" y2="1480.01" gradientUnits="userSpaceOnUse">
<stop stop-color="#00A3FF"/>
<stop offset="1" stop-color="#1270E8"/>
</linearGradient>
<linearGradient id="paint40_linear" x1="1647.65" y1="1253.8" x2="1638.37" y2="1346.1" gradientUnits="userSpaceOnUse">
<stop stop-color="#00A3FF"/>
<stop offset="1" stop-color="#1270E8"/>
</linearGradient>
<linearGradient id="paint41_linear" x1="1592.88" y1="1127.94" x2="1583.6" y2="1220.31" gradientUnits="userSpaceOnUse">
<stop stop-color="#00A3FF"/>
<stop offset="1" stop-color="#1270E8"/>
</linearGradient>
<linearGradient id="paint42_linear" x1="1897.53" y1="462.265" x2="1896.89" y2="481.428" gradientUnits="userSpaceOnUse">
<stop stop-color="#FF3D49"/>
<stop offset="1" stop-color="#D80C1E"/>
</linearGradient>
<linearGradient id="paint43_linear" x1="1495.87" y1="1023.53" x2="1486.61" y2="1115.77" gradientUnits="userSpaceOnUse">
<stop stop-color="#00A3FF"/>
<stop offset="1" stop-color="#1270E8"/>
</linearGradient>
<linearGradient id="paint44_linear" x1="5258.33" y1="252.997" x2="5257.92" y2="285.195" gradientUnits="userSpaceOnUse">
<stop stop-color="#FF3D49"/>
<stop offset="1" stop-color="#D80C1E"/>
</linearGradient>
<linearGradient id="paint45_linear" x1="3535.37" y1="226.021" x2="3534.55" y2="262.512" gradientUnits="userSpaceOnUse">
<stop stop-color="#00A3FF"/>
<stop offset="1" stop-color="#1270E8"/>
</linearGradient>
<linearGradient id="paint46_linear" x1="3109.71" y1="74.3376" x2="3086.22" y2="342.955" gradientUnits="userSpaceOnUse">
<stop stop-color="#00A3FF"/>
<stop offset="1" stop-color="#1270E8"/>
</linearGradient>
<linearGradient id="paint47_linear" x1="964.363" y1="218.253" x2="957.911" y2="269.594" gradientUnits="userSpaceOnUse">
<stop stop-color="#FF3D49"/>
<stop offset="1" stop-color="#D80C1E"/>
</linearGradient>
<linearGradient id="paint48_linear" x1="1461.82" y1="-0.222318" x2="1452.55" y2="92.0814" gradientUnits="userSpaceOnUse">
<stop stop-color="#FF3D49"/>
<stop offset="1" stop-color="#D80C1E"/>
</linearGradient>
<linearGradient id="paint49_linear" x1="1504.3" y1="118.959" x2="1495.11" y2="211.119" gradientUnits="userSpaceOnUse">
<stop stop-color="#FF3D49"/>
<stop offset="1" stop-color="#D80C1E"/>
</linearGradient>
<linearGradient id="paint50_linear" x1="1461.82" y1="407.632" x2="1452.55" y2="499.936" gradientUnits="userSpaceOnUse">
<stop stop-color="#00A3FF"/>
<stop offset="1" stop-color="#1270E8"/>
</linearGradient>
<linearGradient id="paint51_linear" x1="1385.33" y1="523.179" x2="1376.06" y2="615.555" gradientUnits="userSpaceOnUse">
<stop stop-color="#00A3FF"/>
<stop offset="1" stop-color="#1270E8"/>
</linearGradient>
<linearGradient id="paint52_linear" x1="1351.7" y1="650.758" x2="1342.43" y2="743.062" gradientUnits="userSpaceOnUse">
<stop stop-color="#00A3FF"/>
<stop offset="1" stop-color="#1270E8"/>
</linearGradient>
<linearGradient id="paint53_linear" x1="1418.45" y1="914.636" x2="1409.26" y2="1006.87" gradientUnits="userSpaceOnUse">
<stop stop-color="#00A3FF"/>
<stop offset="1" stop-color="#1270E8"/>
</linearGradient>
<linearGradient id="paint54_linear" x1="1361.86" y1="783.356" x2="1352.58" y2="875.66" gradientUnits="userSpaceOnUse">
<stop stop-color="#00A3FF"/>
<stop offset="1" stop-color="#1270E8"/>
</linearGradient>
<linearGradient id="paint55_linear" x1="1660.59" y1="1508.46" x2="1651.32" y2="1600.76" gradientUnits="userSpaceOnUse">
<stop stop-color="#00A3FF"/>
<stop offset="1" stop-color="#1270E8"/>
</linearGradient>
<linearGradient id="paint56_linear" x1="1592.86" y1="251.587" x2="1583.67" y2="343.819" gradientUnits="userSpaceOnUse">
<stop stop-color="#FF3D49"/>
<stop offset="1" stop-color="#D80C1E"/>
</linearGradient>
<clipPath id="clip0">
<rect width="200" height="196" fill="white"/>
</clipPath>
</defs>
</svg>
