<svg width="19" height="19" viewBox="0 0 19 19" fill="none" xmlns="http://www.w3.org/2000/svg">
<g clip-path="url(#clip0)">
<path fill-rule="evenodd" clip-rule="evenodd" d="M17.2012 1.06881C17.405 1.27254 17.474 1.57496 17.3788 1.8469L12.1288 16.8469C12.0272 17.1372 11.7587 17.336 11.4515 17.3485C11.1442 17.3611 10.8604 17.1848 10.7355 16.9037L7.8527 10.4173L1.3663 7.5345C1.08529 7.40961 0.90899 7.12583 0.921526 6.81857C0.934061 6.51131 1.13289 6.24284 1.42314 6.14125L16.4231 0.891248C16.6951 0.796069 16.9975 0.865084 17.2012 1.06881ZM9.31546 10.0152L11.3379 14.5658L14.8773 4.45341L9.31546 10.0152ZM13.8166 3.39275L3.70421 6.9321L8.2548 8.95458L13.8166 3.39275Z" fill="white"/>
</g>
<defs>
<clipPath id="clip0">
<rect width="18" height="18" fill="white" transform="translate(0.170898 0.0991211)"/>
</clipPath>
</defs>
</svg>
