<svg width="1439" height="357" viewBox="0 0 1439 357" fill="none" xmlns="http://www.w3.org/2000/svg">
<g clip-path="url(#clip0)">
<rect x="-0.324554" y="0.00292969" width="1440" height="358" fill="#618EA8"/>
<g opacity="0.12">
<path fill-rule="evenodd" clip-rule="evenodd" d="M487.005 28.8087C486.893 5.62479 442.024 -20.4461 422.858 -33.8872C384.961 -60.4719 345.546 -85.0215 306.497 -109.963C267.448 -134.905 228.293 -159.779 191.057 -187.162C166.879 -204.937 138.471 -224.956 122.074 -250.338C87.1431 -304.427 197.277 -296.394 225.805 -297.578C298.379 -300.6 381.623 -299.221 449.65 -327.387C490.259 -344.202 506.453 -372.403 497.731 -413.504C494.919 -426.87 486.598 -442.252 493.647 -455.274C501.174 -469.182 518.492 -477.207 532.865 -482.589C585.289 -502.196 645.564 -504.468 701.032 -506.929C760.843 -509.633 821.216 -508.842 880.605 -509.052C905.788 -509.14 932.088 -517.841 956.068 -524.913C987.506 -534.183 1018.57 -544.595 1049.75 -554.662C1118.34 -576.758 1189.01 -600.029 1261.58 -605.641C1307.03 -609.157 1356.7 -604.404 1392 -573.823C1409.73 -558.469 1419 -535.643 1429.25 -515.367C1441.65 -490.871 1453.57 -466.139 1466.77 -442.029C1509.32 -364.377 1570.06 -288.497 1668.64 -284.684C1683.56 -284.109 1698.2 -285.982 1713.05 -286.334C1722.5 -286.55 1730.91 -284.353 1734.43 -274.84C1743.26 -250.98 1715.49 -213.314 1704.11 -194.383C1679.18 -152.944 1651.06 -113.364 1624.73 -72.7568C1607.31 -45.9017 1577.15 -9.20236 1576.83 23.4268C1576.55 52.4996 1616.75 73.5131 1638.64 87.8332C1659.15 101.24 1696.3 120.003 1698.55 147.277C1699.64 160.502 1690.58 171.461 1681.11 179.967C1664.52 194.841 1645.4 205.335 1630.47 222.305C1605.99 250.147 1585.54 288.456 1588.86 325.973C1591.17 351.97 1606.59 368.994 1626.2 385.268C1634.45 392.111 1641.14 396.951 1641.58 408.06C1642.28 425.7 1635.1 444.367 1629.18 460.722C1608.01 519.253 1577.94 575.851 1544.49 628.696C1527.78 655.104 1509.72 681.432 1487.56 703.96C1473.05 718.754 1453.48 736.36 1431.34 736.339C1405.7 736.339 1378.58 727.442 1353.67 720.789C1307.13 708.355 1261.16 693.981 1215.37 679.235C1109.48 645.118 1004.58 608.239 900.678 568.596C827.492 540.625 752.753 512.614 683.946 475.428C670.527 468.125 657.861 459.611 646.119 449.999C633.574 439.905 618.006 435.388 602.221 432.021C504.246 411.123 396.909 427.167 298.527 437.227C273.555 439.776 248.584 442.339 223.542 444.124C202.014 445.659 176.241 450.06 155.318 443.448C114.09 430.433 150.131 382.462 165.368 362.916C219.015 294.095 288.23 235.868 352.385 176.424C382.888 148.115 413.623 119.881 442.467 89.9697C457.486 74.4191 487.104 49.1326 487.005 28.8087Z" stroke="white"/>
<path fill-rule="evenodd" clip-rule="evenodd" d="M505.493 24.9004C489.049 0.368426 460.199 -17.7637 436.251 -34.8279C401.789 -59.3937 366.244 -82.5944 331.233 -106.464C298.128 -129.036 264.952 -151.865 234.295 -177.499C215.601 -193.13 192.145 -211.823 183.29 -234.943C164.083 -285.054 267.414 -277.452 292.923 -278.763C356.341 -282.007 428.241 -282.75 486.911 -309.134C523.547 -325.61 538.598 -352.933 530.784 -390.866C528.083 -403.991 523.216 -415.196 529.377 -428.252C536.502 -443.364 552.889 -452.785 567.912 -459.434C614.97 -480.27 670.595 -484.696 721.607 -488.38C774.306 -492.184 829.214 -494.867 880.218 -492.083C900.614 -490.975 924.091 -497.267 944.276 -502.092C975.334 -509.526 1006.08 -518.102 1036.98 -526.076C1099.79 -542.296 1164.22 -557.921 1229.56 -559.698C1276.73 -560.982 1325.91 -554.021 1365.16 -527.117C1404.93 -499.835 1422.58 -457.542 1444.63 -417.338C1482.73 -347.831 1534.17 -263.32 1622.3 -248.635C1635.66 -246.405 1648.5 -247.614 1661.85 -247.067C1668.72 -246.79 1676.53 -245.911 1680.01 -239.403C1689.05 -222.508 1664.29 -191.617 1655.95 -178.675C1632.93 -142.911 1607.04 -108.897 1582.91 -73.8223C1563.74 -45.9721 1539.45 -15.0266 1532.04 17.9869C1523.04 58.0491 1581.82 86.5549 1602.49 114.763C1638.32 163.679 1570.43 191.549 1536.96 214.871C1498.52 241.647 1466.8 290.495 1501.25 331.922C1514.43 347.763 1530.65 357.204 1536.54 377.878C1545.74 410.208 1538.78 447.155 1531.31 479.114C1520.06 527.158 1502.25 574.681 1478.04 618.102C1460.7 649.189 1431.93 697.936 1389.79 694.28C1361.43 691.84 1332.59 682.926 1304.97 675.046C1263.62 663.253 1222.78 649.811 1182.16 635.849C1088.41 603.707 995.681 568.268 904.778 529.287C842.753 502.68 669.737 393.948 656.719 390.069C617.903 378.513 573.77 380.547 533.752 382.338C480.518 384.717 427.551 390.88 374.627 396.591C349.434 399.294 324.115 402.599 298.789 403.93C280.763 404.876 257.089 405.687 241.3 395.611C210.481 375.952 244.816 330.969 259.016 311.938C302.516 253.596 357.544 203.072 409.139 151.413C434.458 126.049 460.164 100.727 483.148 73.3292C492.418 62.2661 515.655 40.0522 505.493 24.9004Z" stroke="white"/>
<path fill-rule="evenodd" clip-rule="evenodd" d="M528.241 12.3189C483.334 -36.7724 421.354 -73.2833 367.86 -114.283C341.012 -134.867 313.994 -156.012 290.838 -180.531C278.792 -193.28 263.75 -209.403 261.429 -227.175C255.227 -274.718 348.36 -268.29 376.236 -270.095C430.13 -273.596 491.013 -276.253 539.908 -300.515C569.78 -315.346 584.491 -339.689 578.908 -371.684C576.432 -385.88 572.579 -397.94 578.908 -411.879C585.321 -426.001 598.682 -435.965 612.212 -443.435C651.092 -464.918 699.41 -471.787 743.185 -476.904C794.537 -482.864 846.275 -485.192 897.982 -483.867C943.269 -482.724 988.338 -495.575 1032.56 -504.046C1091.13 -515.26 1150.77 -525.056 1210.71 -523.575C1258.05 -522.399 1305.77 -513.158 1346.24 -488.599C1387.36 -463.587 1412.09 -426.15 1434.38 -385.752C1468.07 -324.682 1510.07 -242.845 1584 -219.651C1594.75 -216.271 1604.77 -215.899 1615.86 -215.311C1621.25 -215.027 1628.2 -214.94 1630.87 -209.538C1637.3 -196.532 1613.54 -171.317 1606.91 -162.529C1585.74 -134.475 1562.8 -107.685 1541.1 -80.0027C1520.85 -54.1591 1498.79 -27.2272 1486.21 3.0577C1466.19 51.2905 1530.2 79.4933 1528.4 125.455C1527.29 153.989 1498.87 174.451 1476.37 188.607C1448.66 206.014 1408.77 217.459 1394.9 249.224C1384.57 272.884 1400.78 286.654 1413.26 304.609C1434.41 335.029 1435.85 376.265 1433.65 411.478C1430.69 459.062 1419.09 507.349 1399.35 551.086C1390.41 570.913 1379.45 591.538 1363.32 606.937C1348.21 621.37 1333.9 625.068 1313.71 622.114C1251.88 613.055 1189.46 587.806 1130.17 565.255C1055.68 536.917 982.213 505.632 910.942 470.432C862.344 446.427 812.648 421.03 769.991 387.865C758.873 379.219 747.488 369.823 739.359 358.419C733.213 349.847 730.604 342.769 720.246 337.875C689.544 323.375 646.838 327.167 613.942 328.675C561.341 331.074 508.995 337.463 456.718 343.215C426.213 346.595 368.746 357.229 344.387 331.723C323.361 309.699 348.733 272.147 361.693 252.746C394.477 203.682 436.648 160.62 475.775 116.281C493.707 95.9607 512.342 75.4846 527.151 52.8926C530.935 47.133 536.996 39.501 538.037 32.5044C539.204 24.487 533.755 18.3691 528.241 12.3189Z" stroke="white"/>
<path fill-rule="evenodd" clip-rule="evenodd" d="M532.102 23.7471C490.606 -19.6586 440.615 -55.3182 396.067 -95.9366C376.092 -114.149 355.921 -133.254 340.702 -155.471C332.515 -167.418 323.822 -182.457 326.08 -197.307C332.557 -239.928 409.155 -236.078 440.101 -238.575C486.084 -242.241 538.91 -245.935 579.569 -268.917C606.203 -283.969 616.19 -306.2 611.218 -334.871C605.88 -365.626 617.815 -387.951 644.977 -405.108C679.032 -426.601 722.018 -435.362 761.559 -441.586C809.197 -449.049 857.439 -452.357 905.696 -451.47C952.628 -450.604 998.098 -458.167 1044.72 -463.086C1106.53 -469.6 1170.33 -472.814 1231.45 -459.459C1284.66 -447.83 1332.73 -422.203 1368.76 -382.573C1406.39 -341.21 1425.02 -289.097 1455.58 -243.337C1474.64 -214.795 1501.22 -177.038 1536.84 -165.943C1548.72 -162.243 1570.36 -167.235 1560.88 -149.03C1555.45 -138.618 1545.31 -129.485 1537.29 -120.975C1524.33 -107.221 1510.95 -93.8461 1497.78 -80.2818C1469.7 -51.3673 1439.63 -21.8371 1418.59 12.4018C1392.07 55.5098 1431.49 88.6865 1426.68 132.397C1424.1 155.919 1407.1 174.693 1389.11 189.441C1377.47 198.994 1364.73 207.267 1351.72 214.987C1338.14 223.051 1322.07 229.194 1310.23 239.619C1293.35 254.455 1300.68 272.017 1303.84 291.197C1309.41 324.903 1310.64 359.141 1307.49 393.135C1303.63 434.802 1294.59 477.66 1275.56 515.525C1268.15 530.267 1258.77 545.894 1244.83 555.778C1230.9 565.662 1216.49 564.986 1200.53 562.009C1153.17 553.214 1105.92 532.749 1061 513.353C1004.77 489.073 949.653 461.938 897.017 431.068C860.684 409.757 824.231 386.735 793.834 357.841C784.993 349.432 776.581 340.427 769.78 330.374C765.11 323.481 762.606 314.584 755.841 309.402C734.671 293.226 692.169 298.057 667.342 298.997C617.794 300.871 569.026 309.781 519.541 311.946C492.533 313.13 450.236 316.106 430.403 293.991C411.751 273.201 428.644 240.458 439.792 220.426C461.7 181.039 491.134 145.947 517.515 109.334C528.36 94.2678 540.246 78.5048 547.272 61.3009C553.518 45.9709 542.736 34.8759 532.102 23.7471Z" stroke="white"/>
<path fill-rule="evenodd" clip-rule="evenodd" d="M542.308 24.4571C509.279 -13.7387 469.461 -47.6447 436.193 -86.462C416.72 -109.194 383.185 -147.41 398.245 -179.459C414.766 -214.675 472.357 -215.634 505.646 -218.472C545.267 -221.85 591.796 -226.464 625.703 -248.453C636.427 -255.404 645.563 -264.605 649.435 -276.725C653.581 -289.695 649.049 -301.045 648.458 -314.029C647.221 -341.267 664.13 -363.135 686.505 -378.152C718.129 -399.385 757.672 -409.424 795.024 -416.422C837.34 -424.316 880.359 -428.208 923.465 -428.042C964.66 -427.907 1005.42 -428.785 1046.66 -429.798C1100.59 -431.15 1155.27 -428.967 1207.59 -415.193C1259.12 -401.614 1305.97 -376.166 1342.77 -338.734C1378.68 -302.207 1402.9 -257.559 1424.12 -212.081C1436.16 -186.268 1456.49 -147.694 1485.21 -134.656C1497.98 -128.853 1510.51 -129.252 1496.93 -114.16C1479.83 -95.1564 1456.79 -79.9091 1436.98 -63.6553C1408.42 -40.2001 1379.13 -16.2855 1355.16 11.6013C1339.84 29.4089 1333.02 46.6896 1334.07 69.7462C1334.89 87.3106 1338.59 104.693 1336.72 122.325C1332.34 163.709 1298.44 192.089 1268.48 218.517C1249.2 235.513 1231.6 248.477 1221.68 272.655C1209.94 301.231 1205.01 332.32 1197.17 361.991C1188.56 394.572 1178.6 428.465 1159.8 457.162C1143.06 482.712 1122.7 494.169 1092.23 487.285C1044.7 476.558 997.858 450.13 955.665 425.682C912.72 400.808 870.513 372.84 834.926 338.65C815.713 320.187 802.599 298.509 785.536 278.675C764.074 253.774 715.522 263.204 686.667 265.312C638.767 268.811 488.049 294.996 501.956 210.187C507.761 174.788 530.621 142.118 547.34 110.881C554.269 97.9168 564.297 82.3588 565.864 67.5034C567.572 51.3239 552.238 35.955 542.308 24.4571Z" stroke="white"/>
<path fill-rule="evenodd" clip-rule="evenodd" d="M559.747 27.7006C534.507 -6.91256 504.3 -39.6128 482.643 -76.9972C468.593 -101.208 454.796 -133.557 472.92 -159.174C493.376 -188.082 538.483 -194.821 571.626 -198.505C605.774 -202.297 646.539 -205.487 674.449 -227.406C683.328 -234.388 690.648 -243.804 692.011 -255.078C693.324 -265.892 689.615 -276.707 690.845 -287.717C693.598 -312.442 709.186 -332.814 729.284 -347.589C788.735 -391.3 877.22 -401.019 948.951 -402.162C984.855 -402.73 1021.81 -399.749 1057.94 -397.613C1104.83 -394.842 1151.79 -388.894 1196.51 -374.558C1291.59 -344.088 1355.32 -276.511 1399.83 -192.422C1413.84 -165.953 1424.56 -137.315 1446.51 -116.044C1457.83 -105.061 1455.36 -97.173 1443.79 -87.156C1425.7 -71.5021 1403.63 -59.5385 1383.56 -46.4733C1355 -27.8926 1325.83 -9.03488 1300.58 13.2227C1283.17 28.5657 1270.81 43.3478 1267.06 66.3556C1264.39 82.7598 1265.01 99.4749 1263.4 115.981C1260.34 147.336 1249.85 178.454 1231.29 204.463C1216.53 225.078 1198.97 243.815 1180.82 261.679C1157.22 284.937 1137.27 308.566 1119.35 336.17C1095.59 372.71 1062.21 440.111 1006.25 422.274C944.525 402.591 886.676 352.581 847.077 304.126C833.779 287.857 822.862 267.904 804.928 255.906C778.079 237.975 750.836 238.603 718.902 238.678C671.091 238.779 567.053 248.762 565.929 179.874C565.486 152.581 577.766 126.775 583.646 100.523C590.277 71.1207 576.986 51.2897 559.747 27.7006Z" stroke="white"/>
<path fill-rule="evenodd" clip-rule="evenodd" d="M578.546 30.7867C553.58 -14.3254 497.597 -88.4542 540.176 -138.619C562.668 -165.129 602.451 -175.092 635.823 -181.029C662.68 -185.831 695.068 -187.635 715.36 -207.992C730.275 -222.96 723.654 -244.743 729.368 -263.479C736.46 -286.707 752.739 -305.714 772.743 -319.999C828.642 -359.924 906.366 -372.176 973.609 -374.784C1043.45 -377.485 1120.4 -364.848 1186.12 -340.539C1268.06 -310.219 1329.45 -252.807 1372.38 -180.104C1380.3 -166.683 1387.5 -152.911 1395.1 -139.328C1400.21 -130.216 1407.79 -121.402 1411.81 -111.817C1418.52 -95.8367 1410.62 -82.7738 1397.95 -72.3586C1379.74 -57.364 1357.36 -46.6922 1336.59 -35.4395C1308.18 -20.0396 1279.15 -4.91667 1252.73 13.1512C1234.97 25.3089 1216.39 38.4056 1210.03 59.4994C1205.7 73.8861 1204.8 89.1238 1204.95 104.024C1205.29 135.972 1203.55 161.807 1188.04 191.067C1162.53 239.104 1123.29 282.298 1081.84 318.237C1049.32 346.443 997.844 390.259 950.45 371.401C907.926 354.515 883.051 314.097 855.035 281.42C841.413 265.533 826.112 251.025 808.132 239.725C785.465 225.48 764.125 219.503 737.269 217.172C692.067 213.248 623.91 212.228 609.936 160.085C604.777 140.842 607.722 120.91 605.016 101.417C601.481 75.6422 591.142 53.542 578.546 30.7867Z" stroke="white"/>
<path fill-rule="evenodd" clip-rule="evenodd" d="M604.506 32.4571C586.728 -16.9043 563.373 -79.1132 606.312 -122.984C627.11 -144.236 656.366 -156.117 684.68 -164.995C704.959 -171.358 737.157 -173.231 749.59 -192.793C758.721 -207.189 759.986 -227.049 768.246 -242.472C779.597 -263.678 796.792 -281.143 816.966 -294.816C869.52 -330.444 937.97 -344.211 1000.39 -348.153C1136.03 -356.707 1274.04 -288.581 1346.62 -176.497C1368.26 -143.087 1396.2 -107.527 1361.22 -73.3927C1323.04 -36.1553 1265.52 -18.7097 1219.95 7.74934C1202.53 17.8515 1180.35 29.9958 1170.63 48.2866C1164.79 59.2813 1164.39 73.0754 1164.12 85.1791C1163.42 116.006 1160.75 143.73 1147.87 172.495C1127.96 216.947 1096.22 257.958 1060.25 291.55C1028.88 320.843 984.14 355.267 938.581 334.15C903.65 317.922 881.496 283.477 854.355 258.086C824.151 229.808 786.797 210.753 745.776 201.442C705.872 192.408 662.104 186.316 641.074 147.936C633.86 134.771 626.323 117.724 623.619 103.152C619.253 79.1265 612.861 55.4833 604.506 32.4571Z" stroke="white"/>
<path fill-rule="evenodd" clip-rule="evenodd" d="M633.453 32.8049C625.228 -17.0396 624.314 -69.0136 662.527 -108.298C680.361 -126.626 702.905 -139.646 725.702 -151.443C742.475 -160.124 759.796 -167.445 772.323 -181.676C783.928 -194.852 792.751 -210.151 803.956 -223.672C818.737 -241.59 836.422 -257.101 856.333 -269.609C906.244 -300.902 966.958 -315.539 1025.04 -320.616C1053.16 -323.083 1083.66 -324.368 1111.59 -317.641C1138.57 -311.151 1165.24 -300.889 1190.04 -288.923C1242.76 -263.511 1288.45 -226.295 1321.57 -179.242C1344.29 -146.968 1356.57 -115.586 1327.16 -82.8454C1294 -45.9403 1242.01 -25.578 1199.15 -1.62582C1169.76 14.802 1136.82 30.9053 1131.33 65.8161C1126.96 93.5946 1123.41 119.96 1112.1 146.218C1095.27 184.948 1070.51 220.032 1039.31 249.388C1010.78 276.132 974.684 298.827 933.87 284.542C901.534 273.205 876.445 247.806 848.193 229.648C816.708 209.367 782.115 198.185 745.687 189.194C712.951 181.081 682.126 168.615 660.967 142.148C656.636 136.74 652.088 130.851 648.749 124.801C644.489 117.08 644.82 109.427 643.983 100.774C641.804 77.9375 637.171 55.3644 633.453 32.8049Z" stroke="white"/>
<path fill-rule="evenodd" clip-rule="evenodd" d="M665.369 28.7308C666.071 -18.614 677.911 -63.3588 710.337 -100.256C724.2 -116.039 740.754 -129.04 756.009 -143.504C768.291 -155.164 779.898 -165.998 794.021 -175.607C827.523 -198.358 854.75 -227.8 890.352 -248.059C937.878 -275.145 992.318 -290.116 1046.34 -296.102C1072.71 -299.027 1099.96 -300.049 1126.65 -296.745C1149.57 -293.908 1171.52 -283.947 1191.88 -273.756C1231.79 -253.795 1270.54 -225.423 1296.45 -189.528C1353.58 -110.392 1240.95 -52.8565 1183.13 -19.1626C1156.54 -3.66307 1115.92 14.2877 1105.03 44.9887C1097.24 66.9209 1092.5 89.2256 1082.47 110.481C1055.54 167.563 1000.87 234.7 928.013 225.762C896.837 221.943 868.423 206.43 839.32 196.016C809.353 185.29 778.423 179.311 747.275 172.749C718.165 166.621 694.964 157.9 676.161 134.519C667.175 123.353 667.969 109.986 667.168 96.288C665.861 73.787 665.053 51.1574 665.369 28.7308Z" stroke="white"/>
<path fill-rule="evenodd" clip-rule="evenodd" d="M694.431 22.6665C706.136 -48.7963 749.607 -126.813 813.526 -168.315C888.714 -217.135 970.169 -258.245 1060 -270.063C1101.65 -275.543 1147.27 -278.24 1186.57 -260.32C1216.48 -246.691 1251.23 -226.318 1267.69 -197.668C1307.96 -127.591 1218.38 -71.8041 1167.35 -39.3837C1139.87 -21.9302 1104.9 -4.92263 1084.19 20.5651C1072.18 35.3428 1066.04 54.891 1056.34 71.1215C1026.95 120.306 978.561 159.977 918.285 167.072C890.416 170.349 862.343 166.295 834.685 163.072C806.372 159.774 777.708 157.984 749.572 153.382C727.112 149.706 700.642 143.483 692.37 120.367C681.938 91.2373 689.655 51.8503 694.431 22.6665Z" stroke="white"/>
<path fill-rule="evenodd" clip-rule="evenodd" d="M722.93 11.1866C740 -56.0005 776.149 -121.538 836.917 -161.647C869.143 -182.916 906.551 -197.597 942.467 -212.103C983.179 -228.543 1025.71 -241.304 1069.16 -247.634C1123.25 -255.52 1210.86 -262.627 1239.12 -203.352C1267.17 -144.517 1196.29 -92.4445 1154.37 -62.7699C1127.5 -43.7601 1098.74 -26.3124 1073.06 -5.53073C1059.14 5.73588 1048.41 18.754 1036.63 31.9683C1004.07 68.5814 957.643 97.5662 910.326 113.039C864.466 128.039 807.733 134.68 759.324 129.723C738.437 127.592 723.507 120.404 717.19 99.967C708.437 71.557 715.873 38.9406 722.93 11.1866Z" stroke="white"/>
<path fill-rule="evenodd" clip-rule="evenodd" d="M751.248 -6.90916C768.206 -66.0649 804.784 -120.096 858.137 -155.6C917.944 -195.401 994.955 -217.517 1065.74 -228.763C1103.36 -234.737 1184.89 -250.933 1204.07 -204.58C1223.25 -158.226 1167.81 -112.546 1135.9 -87.3998C1097.18 -56.9262 1055.42 -27.5032 1013.72 -0.161179C977.484 23.6116 938.821 47.9163 899.575 66.2745C877.44 76.689 854.382 85.1924 830.674 91.6838C813.119 96.4518 790.796 103.563 772.391 100.014C725.968 91.0507 743.137 21.3757 751.248 -6.90916Z" stroke="white"/>
<path fill-rule="evenodd" clip-rule="evenodd" d="M786.203 -24.6234C823.411 -136.494 941.299 -191.514 1054.81 -210.691C1081.18 -215.143 1155.12 -231.193 1169.86 -197.019C1184.15 -163.886 1138.71 -124.592 1117.44 -105.975C1051.53 -48.2864 970.09 -5.51337 892.921 36.8611C868.834 50.0875 825.391 78.7897 795.512 65.5498C763.071 51.148 778.495 -1.42658 786.203 -24.6234Z" stroke="white"/>
<path fill-rule="evenodd" clip-rule="evenodd" d="M824.316 -46.1556C856.675 -128.54 950.791 -175.79 1037.32 -191.367C1058.52 -195.179 1112.34 -207.045 1128.4 -184.055C1143.25 -162.788 1107.8 -131.973 1094.54 -119.728C1065.01 -92.4601 1030.02 -69.9971 995.448 -48.406C963.484 -28.4299 931.175 -7.95381 897.542 8.94068C879.827 17.8339 846.602 36.8099 826.472 23.078C804.798 8.30548 817.132 -27.8623 824.316 -46.1556Z" stroke="white"/>
<path fill-rule="evenodd" clip-rule="evenodd" d="M-216.102 92.2077C-216.993 39.4282 -246.154 -15.4247 -231.753 -69.2037C-219.927 -113.372 -160.39 -117.06 -124.674 -137.071C-96.2917 -152.969 -80.1846 -181.131 -64.8355 -208.153C-51.0445 -232.412 -38.6571 -257.4 -24.1292 -281.26C-14.7246 -296.686 1.42462 -326.976 21.8199 -327.523C41.3449 -328.049 59.2487 -304.446 70.5903 -290.493C85.3779 -272.305 98.4882 -252.916 112.848 -234.438C137.047 -203.27 166.082 -180.199 199.328 -158.365C237.161 -133.521 275.619 -109.525 314.702 -86.3782C343.477 -69.2848 372.449 -52.3197 400.108 -33.5379C417.457 -21.7529 455.75 0.358478 455.925 22.0849C456.009 32.4517 445.798 43.9328 438.913 52.2195C427.262 66.2467 413.983 79.0718 400.663 91.6201C375.853 114.994 349.99 137.308 324.408 159.892C291.205 189.203 259.489 218.034 230.3 251.309C200.121 285.753 171.289 321.331 141.869 356.423C121.943 380.195 102.039 406.892 73.2994 421.48C37.3023 439.715 7.75514 420.487 -28.649 420.264C-59.9648 420.069 -57.6557 350.263 -61.6351 330.853C-65.6286 311.207 -74.4296 292.918 -77.8405 273.225C-82.0936 248.642 -82.1498 223.491 -83.1955 198.645C-84.4658 168.253 -84.9711 139.321 -118.736 127.732C-137.953 121.147 -158.741 119.762 -178.631 115.818C-191.516 113.259 -215.821 108.882 -216.102 92.2077Z" stroke="white"/>
<path fill-rule="evenodd" clip-rule="evenodd" d="M-200.706 82.8187C-203.989 38.5764 -223.382 -18.0504 -205.043 -63.7198C-189.376 -102.747 -140.377 -107.806 -107.383 -128.308C-80.1454 -145.217 -68.0205 -172.888 -54.4053 -200.072C-43.4823 -221.879 -32.8897 -243.895 -20.4906 -265.005C-11.3529 -280.562 2.59964 -306.826 21.5989 -310.045C38.6793 -312.94 56.9968 -289.754 66.5843 -277.958C80.572 -260.737 92.5353 -242.035 104.892 -223.725C126.605 -191.563 148.837 -162.641 180.615 -139.015C212.534 -115.287 247.454 -97.5457 282.746 -79.0804C310.356 -64.6329 337.825 -49.766 364.057 -33.0864C383.598 -20.668 411.693 -4.77298 420.634 17.3718C427.712 34.8901 391.815 63.9611 381.229 74.2218C359.439 95.3182 336.349 115.123 313.217 134.805C285.017 158.79 255.917 179.765 231.013 207.124C186.47 256.04 149.238 316.956 91.9238 353.311C57.3553 375.239 18.8857 380.847 -19.5627 377.566C-34.7875 376.268 -38.4425 355.591 -40.3614 343.531C-43.5526 323.496 -43.9533 303.117 -46.4064 283.001C-48.7048 264.171 -53.8079 246.28 -57.9198 227.815C-62.081 209.106 -63.2478 189.938 -66.3124 171.1C-68.2102 159.406 -70.087 145.797 -78.3882 136.395C-86.9776 126.662 -101.148 122.583 -113.533 119.485C-136.792 113.723 -198.387 114.041 -200.706 82.8187Z" stroke="white"/>
<path fill-rule="evenodd" clip-rule="evenodd" d="M-180.892 64.2981C-186.412 23.687 -194.141 -26.8944 -171.651 -64.3104C-153.268 -94.9038 -114.062 -101.503 -86.0587 -121.437C-62.7671 -138.014 -53.9695 -164.379 -42.4081 -188.879C-32.9213 -208.975 -23.3853 -229.159 -11.8872 -248.283C-3.1669 -262.786 8.07101 -282.45 25.385 -287.509C40.1883 -291.832 56.9115 -272.466 65.1184 -262.826C79.092 -246.398 90.4846 -227.991 101.8 -209.827C120.309 -180.105 137.342 -148.356 163.686 -124.18C189.284 -100.72 219.692 -86.8721 250.67 -71.3018C274.398 -59.3725 297.978 -46.9838 320.334 -32.7578C337.5 -21.8417 358.774 -8.90587 367.719 9.25832C375.455 24.9232 355.595 43.4656 345.672 54.5168C329.286 72.7553 311.1 89.4874 293.168 106.287C273.814 124.411 252.379 141.129 233.652 159.699C194.27 198.777 162.807 242.042 114.268 271.98C82.8332 291.374 40.5329 308.991 3.3733 305.823C-23.3501 303.54 -21.592 246.649 -24.1588 228.472C-28.3783 198.75 -36.529 167.521 -49.4758 140.143C-60.5941 116.683 -87.0151 109.448 -111.319 104.186C-126.545 100.883 -142.501 99.0998 -157.227 93.993C-174.274 88.0757 -178.578 81.3207 -180.892 64.2981Z" stroke="white"/>
<path fill-rule="evenodd" clip-rule="evenodd" d="M-162.409 45.2623C-165.696 10.9277 -164.957 -29.6736 -143.665 -59.3742C-125.007 -85.3894 -91.7851 -92.2387 -68.1571 -112.732C-49.7163 -128.721 -42.4738 -154.79 -32.5566 -175.934C-20.4364 -201.787 -3.45264 -249.536 27.1224 -259.264C55.5647 -268.309 85.3092 -210.533 95.6064 -193.305C111.907 -166.036 125.541 -136.133 145.312 -110.951C162.338 -89.2714 185.149 -77.2868 209.362 -64.4079C240.232 -47.9588 287.101 -28.4541 303.606 3.60415C315.91 27.492 275.903 63.0055 262.242 79.5563C247.954 96.8455 237.192 117.339 222.446 134.019C199.177 160.339 161.472 181.53 130.341 197.702C100.076 213.433 60.7732 230.844 26.4396 229.807C3.87438 229.13 -0.419067 195.608 -5.23336 179.234C-12.131 155.956 -21.3021 135.096 -41.0027 119.263C-61.0553 103.146 -84.6904 95.5515 -109.536 88.9054C-122.29 85.518 -136.838 82.8759 -148.247 76.0334C-160.853 68.5879 -161.142 58.4596 -162.409 45.2623Z" stroke="white"/>
<path fill-rule="evenodd" clip-rule="evenodd" d="M-139.889 25.4719C-139.707 -4.19065 -132.656 -35.8217 -111.749 -58.7023C-94.3366 -77.7605 -67.0809 -84.1313 -50.4118 -103.614C-37.2084 -119.039 -30.4874 -140.692 -21.6478 -158.605C-10.8367 -180.555 4.45036 -218.9 31.3342 -226.518C57.5727 -233.934 80.7803 -191.699 90.8407 -174.986C105.574 -150.481 117.5 -124.506 132.366 -100.068C144.012 -80.8954 158.254 -68.5382 177.217 -56.1811C199.478 -41.6666 230.536 -25.5882 242.427 -1.57496C251 15.8113 230.248 43.593 222.713 58.9097C217.662 69.1972 213.039 79.6465 210.499 90.797C208.521 99.48 208.324 107.516 202.593 114.972C188.161 133.727 156.521 136.174 135.053 142.356C106.542 150.56 76.2903 159.884 46.4529 161.664C28.114 162.776 18.7552 146.522 8.28792 135.089C-4.08062 121.572 -21.5916 111.851 -36.8857 101.651C-57.0696 88.1678 -79.0356 79.7814 -101.759 71.1927C-112.009 67.3163 -124.048 63.5141 -131.989 55.8086C-140.282 47.8199 -139.952 36.1774 -139.889 25.4719Z" stroke="white"/>
<path fill-rule="evenodd" clip-rule="evenodd" d="M-116.237 7.86259C-112.613 -17.0499 -101.32 -40.8605 -82.2464 -58.4717C-67.625 -71.9927 -48.207 -79.6051 -36.4719 -95.8507C-25.5374 -110.994 -17.9177 -128.213 -8.88644 -144.405C0.671559 -161.522 14.8716 -190.133 36.9161 -194.791C60.6742 -199.807 78.9755 -170.947 89.1094 -154.951C101.912 -134.737 111.638 -112.989 123.086 -92.0783C131.709 -76.4929 142.71 -62.239 155.72 -49.7912C169.366 -36.669 187.871 -24.1012 194.774 -6.05734C200.877 9.92454 189.458 29.2596 187.442 45.4646C185.286 62.7783 189.065 80.9641 177.112 95.8305C152.462 126.49 90.5982 120.804 55.2315 121.46C20.3353 122.136 -7.72066 103.375 -35.9593 85.5275C-54.6118 73.7439 -74.0368 63.7654 -93.1598 52.7863C-112.655 41.5841 -119.425 29.787 -116.237 7.86259Z" stroke="white"/>
<path fill-rule="evenodd" clip-rule="evenodd" d="M-94.2612 -6.39638C-83.545 -42.4875 -50.0753 -61.6698 -26.1482 -88.9445C-6.57091 -111.273 8.10856 -157.513 41.0794 -163.63C78.5124 -170.572 100.922 -109.304 113.936 -85.6628C128.376 -59.4436 154.095 -38.1165 164.79 -10.3614C170.412 4.20631 165.584 17.7996 162.591 32.3606C159.309 48.3492 156.843 64.6964 145.515 77.5658C123.218 102.892 79.6718 102.716 48.3102 103.413C15.8453 104.137 -12.8742 86.7814 -38.7407 69.4598C-66.1742 51.1166 -105.237 30.6149 -94.2612 -6.39638Z" stroke="white"/>
<path fill-rule="evenodd" clip-rule="evenodd" d="M-76.3127 -16.183C-64.2375 -41.8968 -38.8626 -62.8014 -18.2725 -82.5358C-1.08696 -98.9877 17.401 -132.107 43.604 -134.468C74.4007 -137.252 93.0655 -101.887 105.183 -80.2018C117.11 -58.8936 134.295 -36.3949 140.899 -13.0083C147.786 11.3535 129.447 44.1634 111.957 61.4023C92.4497 80.6254 60.5347 87.7281 33.1497 86.9614C4.47641 86.1811 -21.8328 70.2941 -43.5483 53.8152C-66.7644 36.1996 -90.3556 13.6673 -76.3127 -16.183Z" stroke="white"/>
<path fill-rule="evenodd" clip-rule="evenodd" d="M-59.6582 -21.0241C-48.1239 -42.4111 -28.1301 -60.5031 -9.69505 -76.6411C4.53155 -89.1 25.5243 -110.285 46.0494 -110.804C68.6292 -111.376 87.7657 -93.5943 96.7423 -75.3675C105.591 -57.3901 114.915 -34.8508 116.24 -15.1282C119.117 27.8211 60.5523 75.9317 16.576 72.0168C-25.119 68.3041 -82.656 21.5882 -59.6582 -21.0241Z" stroke="white"/>
<path fill-rule="evenodd" clip-rule="evenodd" d="M-44.2559 -23.3823C-28.3437 -51.2478 10.3074 -90.974 46.0904 -91.9174C87.1634 -92.9956 97.4741 -48.7881 92.1205 -16.7511C86.6818 15.9462 39.3276 63.2739 1.56878 56.8786C-35.2836 50.6384 -63.1141 9.66554 -44.2559 -23.3823Z" stroke="white"/>
<path fill-rule="evenodd" clip-rule="evenodd" d="M-27.9934 -27.8879C-14.521 -51.2193 14.2279 -80.3616 44.2125 -81.2437C79.9399 -82.2874 79.2659 -44.9639 71.1643 -21.7336C62.7396 2.38562 25.6363 43.5808 -5.6471 37.0763C-36.0669 30.7266 -40.9041 -5.52616 -27.9934 -27.8879Z" stroke="white"/>
<path fill-rule="evenodd" clip-rule="evenodd" d="M-13.8291 -30.5731C-4.93639 -47.2211 17.32 -68.2623 38.4779 -68.9355C64.3392 -69.7448 59.312 -40.1416 52.6302 -25.8534C44.688 -8.85177 18.0663 20.6903 -4.27453 15.9026C-26.2704 11.1898 -21.1657 -16.8561 -13.8291 -30.5731Z" stroke="white"/>
</g>
</g>
<defs>
<clipPath id="clip0">
<rect width="1439" height="357" fill="white"/>
</clipPath>
</defs>
</svg>
