<svg width="16" height="14" viewBox="0 0 16 14" fill="none" xmlns="http://www.w3.org/2000/svg">
<path fill-rule="evenodd" clip-rule="evenodd" d="M7.69164 4.12717L7.72521 4.6808L7.16563 4.61301C5.12875 4.35314 3.34927 3.47184 1.8384 1.99171L1.09975 1.2573L0.909488 1.79964C0.506587 3.0086 0.763996 4.28535 1.60337 5.14405C2.05104 5.6186 1.95031 5.68639 1.17809 5.40392C0.909488 5.31353 0.674462 5.24574 0.652079 5.27964C0.573737 5.35873 0.842337 6.38691 1.05498 6.79366C1.34596 7.3586 1.93912 7.91223 2.58824 8.23989L3.13663 8.49976L2.48751 8.51106C1.86078 8.51106 1.8384 8.52236 1.90555 8.75963C2.12938 9.49405 3.01352 10.2737 3.99839 10.6126L4.69227 10.8499L4.08792 11.2115C3.19259 11.7312 2.14057 12.025 1.08855 12.0476C0.584929 12.0589 0.170837 12.104 0.170837 12.1379C0.170837 12.2509 1.53622 12.8837 2.33083 13.1322C4.71465 13.8666 7.54615 13.5503 9.67256 12.2961C11.1834 11.4035 12.6943 9.62963 13.3994 7.91223C13.7799 6.99704 14.1604 5.32483 14.1604 4.52262C14.1604 4.00288 14.194 3.93509 14.8207 3.31366C15.1901 2.9521 15.537 2.55665 15.6041 2.44366C15.7161 2.22899 15.7049 2.22899 15.1341 2.42107C14.1828 2.76003 14.0485 2.71483 14.5186 2.20639C14.8655 1.84483 15.2796 1.18951 15.2796 0.99743C15.2796 0.963534 15.1117 1.02003 14.9215 1.12172C14.72 1.2347 14.2723 1.40418 13.9366 1.50587L13.3322 1.69795L12.7838 1.32509C12.4817 1.12172 12.0564 0.895741 11.8326 0.827949C11.2618 0.669767 10.3888 0.692365 9.87401 0.873144C8.47505 1.38159 7.59091 2.69223 7.69164 4.12717Z" fill="white"/>
</svg>
